<svg width="123" height="90" viewBox="0 0 123 90" fill="none" xmlns="http://www.w3.org/2000/svg">
<path d="M76.9635 37.8124C76.9339 37.7888 76.9099 37.7588 76.8934 37.7247C76.8769 37.6906 76.8684 37.6531 76.8684 37.6152L77.1335 32.8574L74.8429 31.4573C74.671 31.3534 74.5213 31.2165 74.4025 31.0545C74.2837 30.8924 74.1981 30.7085 74.1507 30.5133C74.1034 30.318 74.0951 30.1154 74.1264 29.9169C74.1577 29.7185 74.228 29.5282 74.3332 29.357L75.1963 27.9365C75.4087 27.5901 75.7497 27.3421 76.1446 27.2465C76.5395 27.151 76.9562 27.2158 77.3034 27.4267L77.4257 27.5015L77.9627 17.7276L67.0877 12.1202C66.5184 11.7736 66.0235 11.3177 65.6315 10.7787C65.2395 10.2397 64.9582 9.62834 64.8039 8.98L64.7631 8.79649L63.295 6.46517C63.0518 6.07336 62.9229 5.62134 62.9229 5.16016C62.9229 4.69897 63.0518 4.24696 63.295 3.85515C63.5356 3.45945 63.882 3.13898 64.2952 2.92997C64.7084 2.72097 65.1719 2.63178 65.6331 2.6725L68.3519 2.91039C69.0256 2.71826 69.7319 2.66859 70.4259 2.76455C71.1198 2.86051 71.7862 3.1 72.3825 3.46774L82.401 10.5433L90.8428 5.59514L90.7204 5.52039C90.3741 5.30799 90.126 4.96702 90.0304 4.57213C89.9349 4.17724 89.9997 3.76058 90.2106 3.41335L91.0739 1.99281C91.2875 1.64786 91.6284 1.40094 92.0228 1.30553C92.4171 1.21012 92.8332 1.2739 93.1809 1.48304L95.4714 2.8832L99.5496 0.477119C99.5841 0.458675 99.6226 0.449034 99.6617 0.449034C99.7008 0.449034 99.7393 0.458675 99.7738 0.477119L103.662 2.48218C103.699 2.50262 103.73 2.53201 103.752 2.56764C103.775 2.60328 103.788 2.64399 103.791 2.68608C103.801 2.72624 103.801 2.76828 103.791 2.80844C103.768 2.84237 103.738 2.87036 103.702 2.89L101.704 4.00468L100.27 5.80587L101.303 6.43797C101.329 6.45395 101.352 6.47492 101.37 6.49966C101.387 6.5244 101.4 6.55243 101.407 6.58213C101.414 6.61183 101.415 6.64261 101.41 6.67269C101.405 6.70278 101.394 6.73157 101.378 6.75743L101.262 6.94774L102.16 7.49828C102.31 7.5924 102.418 7.74188 102.46 7.91469C102.502 8.08749 102.475 8.26985 102.384 8.42265L101.099 10.5297C101.005 10.6806 100.856 10.7885 100.683 10.8305C100.51 10.8724 100.328 10.845 100.175 10.754L99.2777 10.2034L99.1621 10.3938C99.1297 10.446 99.0784 10.4836 99.0188 10.4988C98.9593 10.514 98.8962 10.5056 98.8427 10.4753L97.3134 9.53734L91.4205 16.9527L100.188 23.1923L105.932 20.7998L108.392 22.064L104.538 26.3528L106.115 28.1812L104.504 30.8252L102.2 30.193L100.161 35.5694L97.9115 33.9653L97.4085 27.7598L87.655 22.7165L83.9507 31.4505L85.4868 32.3884C85.5386 32.4196 85.5761 32.4697 85.5913 32.5281C85.6066 32.5866 85.5983 32.6486 85.5684 32.7011L85.446 32.8982L86.35 33.4487C86.4979 33.5438 86.6032 33.6926 86.6438 33.8637C86.6843 34.0348 86.657 34.215 86.5675 34.3663L85.2829 36.4734C85.1889 36.6224 85.0406 36.7291 84.8694 36.771C84.6983 36.8128 84.5175 36.7865 84.3653 36.6977L83.4614 36.1539L83.3458 36.3442C83.3298 36.3702 83.3088 36.3927 83.2841 36.4106C83.2594 36.4284 83.2314 36.4412 83.2017 36.4481C83.172 36.4551 83.1412 36.4561 83.1111 36.4511C83.081 36.4461 83.0522 36.4352 83.0264 36.419L81.9932 35.7937L81.0485 37.8871L80.9737 40.1776C80.9696 40.2179 80.9581 40.2571 80.9397 40.2932C80.9149 40.3293 80.8824 40.3594 80.8445 40.3816C80.8082 40.4018 80.7672 40.4124 80.7256 40.4124C80.684 40.4124 80.643 40.4018 80.6067 40.3816L76.9635 37.8124ZM94.9685 3.14829L92.9294 1.88406C92.6868 1.73573 92.3954 1.68963 92.1189 1.75589C91.8424 1.82214 91.6035 1.99535 91.4545 2.23751L90.5845 3.65805C90.4386 3.90189 90.3945 4.19336 90.462 4.46941C90.5294 4.74546 90.7028 4.98385 90.9447 5.13296L91.2778 5.33688L93.1401 4.24257L94.9685 3.14829ZM100.358 10.3598C100.405 10.3878 100.462 10.3963 100.515 10.3836C100.568 10.3709 100.614 10.338 100.644 10.2918L101.928 8.17797C101.943 8.1549 101.953 8.1291 101.958 8.10209C101.962 8.07509 101.961 8.04745 101.955 8.0208C101.949 7.99416 101.937 7.96907 101.921 7.94702C101.905 7.92498 101.884 7.90643 101.86 7.89249L100.963 7.34195L99.4544 9.80922L100.358 10.3598ZM98.8223 9.95875L100.807 6.70984L99.9234 6.17288L97.5377 9.17711L98.8223 9.95875ZM97.0143 9.09555L99.6855 5.69711L101.303 3.65805C101.322 3.63422 101.345 3.61358 101.371 3.59688L103.036 2.6725L99.6379 0.918891L93.5207 4.49405L91.3389 5.77867L82.7477 10.8152L90.9991 16.6333L97.0143 9.09555ZM77.0655 27.8345C76.8229 27.6862 76.5315 27.6401 76.255 27.7064C75.9785 27.7726 75.7396 27.9458 75.5906 28.188L74.7274 29.6085C74.579 29.8511 74.5329 30.1425 74.5992 30.419C74.6654 30.6955 74.8387 30.9344 75.0808 31.0834L77.1607 32.3477L77.2762 30.193L77.3985 28.0316L77.0655 27.8345ZM65.5856 3.13468C65.2094 3.09761 64.8304 3.16876 64.4933 3.33974C64.1561 3.51072 63.8748 3.77443 63.6824 4.09985C63.4813 4.41818 63.3746 4.78701 63.3746 5.16356C63.3746 5.54011 63.4813 5.90894 63.6824 6.22727L64.6544 7.77696L64.6544 7.70899C64.6545 7.53149 64.6681 7.35425 64.6952 7.17883C64.6886 7.12693 64.6886 7.07439 64.6952 7.02249C64.7222 6.82278 64.7631 6.6252 64.8175 6.43117L64.8175 6.3768C64.8719 6.19696 64.9354 6.02001 65.0078 5.84665L65.0758 5.7039C65.1573 5.51363 65.2527 5.32962 65.3613 5.15335C65.47 4.97663 65.5924 4.80671 65.7147 4.64359L65.8167 4.52125C65.9387 4.37657 66.068 4.2382 66.2041 4.10665L66.2381 4.07265C66.3889 3.93635 66.5478 3.80925 66.7139 3.69203L66.8362 3.60367C66.9847 3.50188 67.139 3.40883 67.2984 3.32499C67.3149 3.31126 67.3332 3.29984 67.3527 3.29102L65.5856 3.13468ZM68.4539 3.36577C67.3458 3.68895 66.3996 4.41674 65.8031 5.40483C65.2031 6.392 64.9946 7.56806 65.2185 8.70132L65.2593 8.89163C65.545 10.0802 66.2905 11.1069 67.3324 11.7463L78.3025 17.4149L87.5667 22.1727L101.915 29.5949L102.54 28.5686C100.841 27.5264 99.1417 26.4887 97.4425 25.4556C97.2946 25.3616 97.1887 25.214 97.147 25.0437C97.1053 24.8735 97.131 24.6936 97.2187 24.5419C97.3064 24.3901 97.4494 24.2781 97.6178 24.2293C97.7861 24.1804 97.9669 24.1985 98.1222 24.2798L103.227 27.3859L103.832 26.3936L82.2447 11.0394L82.1699 10.9919L72.2057 3.84836C71.653 3.50922 71.0351 3.29035 70.3921 3.20603C69.7492 3.12171 69.0957 3.17383 68.4742 3.35899L68.4539 3.36577ZM107.59 22.1999L105.85 21.3027L100.644 23.4709L104.11 26.0198L104.11 25.9654L104.144 26.0062L107.59 22.1999ZM104.233 30.2882L105.49 28.2491L104.205 26.7606L103.655 27.6714C103.811 27.7669 103.922 27.9205 103.965 28.0983C104.008 28.2761 103.978 28.4636 103.883 28.6196C103.787 28.7755 103.633 28.8871 103.456 28.9298C103.278 28.9725 103.09 28.9428 102.934 28.8473L102.357 29.792L104.233 30.2882ZM98.2785 33.6866L99.869 34.8217L101.697 30.0639L101.643 30.0639L101.643 30.0163L97.796 28.0996L98.2785 33.6866ZM84.5285 36.2831C84.5764 36.3105 84.6331 36.318 84.6865 36.304C84.7398 36.29 84.7856 36.2556 84.8139 36.2083L86.1053 34.1012C86.12 34.0772 86.1296 34.0506 86.1338 34.0227C86.138 33.9949 86.1365 33.9666 86.1296 33.9394C86.1226 33.9121 86.1102 33.8865 86.0932 33.8642C86.0762 33.8418 86.0549 33.823 86.0306 33.809L85.1334 33.2652L83.6245 35.7325L84.5285 36.2831ZM82.9992 35.882L84.9771 32.6331L83.6924 31.8447L83.5429 32.1709L82.1088 35.3451L82.9992 35.882ZM80.5115 37.7987L80.5115 37.7172L81.5786 35.3383L83.3526 31.4233L87.1589 22.5126L79.3289 18.4345L78.4045 17.9519L77.8539 27.9025L77.7112 30.3902L77.3238 37.4997L80.4367 39.7155L80.5115 37.7987Z" fill="#B5B7BA"/>
<path d="M14.4323 65.6795C14.4026 65.656 14.3786 65.626 14.3621 65.5919C14.3457 65.5577 14.3371 65.5203 14.3371 65.4824L14.6022 60.7246L12.3117 59.3245C12.1397 59.2206 11.99 59.0837 11.8712 58.9216C11.7524 58.7596 11.6669 58.5757 11.6195 58.3805C11.5721 58.1852 11.5638 57.9826 11.5951 57.7841C11.6264 57.5857 11.6967 57.3954 11.8019 57.2242L12.6651 55.8037C12.8775 55.4573 13.2185 55.2092 13.6134 55.1137C14.0083 55.0182 14.4249 55.083 14.7721 55.2939L14.8945 55.3687L15.4314 45.5948L4.55643 39.9873C3.98717 39.6408 3.49224 39.1848 3.10025 38.6459C2.70826 38.1069 2.42697 37.4955 2.27267 36.8472L2.23189 36.6637L0.763783 34.3324C0.52052 33.9405 0.391602 33.4885 0.391602 33.0273C0.391602 32.5662 0.52052 32.1141 0.763783 31.7223C1.0043 31.3266 1.35075 31.0062 1.76396 30.7972C2.17717 30.5882 2.64062 30.499 3.10189 30.5397L5.82064 30.7776C6.49433 30.5854 7.20068 30.5358 7.89463 30.6317C8.58858 30.7277 9.25493 30.9672 9.8512 31.3349L19.8698 38.4105L28.3115 33.4623L28.1892 33.3876C27.8428 33.1752 27.5947 32.8342 27.4992 32.4393C27.4036 32.0444 27.4684 31.6278 27.6794 31.2805L28.5426 29.86C28.7562 29.515 29.0971 29.2681 29.4915 29.1727C29.8859 29.0773 30.3019 29.1411 30.6496 29.3502L32.9402 30.7504L37.0183 28.3443C37.0528 28.3259 37.0913 28.3162 37.1304 28.3162C37.1696 28.3162 37.2081 28.3259 37.2426 28.3443L41.1304 30.3494C41.1673 30.3698 41.1985 30.3992 41.221 30.4348C41.2436 30.4705 41.2569 30.5112 41.2596 30.5533C41.2696 30.5934 41.2696 30.6355 41.2596 30.6756C41.2371 30.7096 41.2068 30.7375 41.1712 30.7572L39.1729 31.8719L37.7388 33.6731L38.7719 34.3052C38.7979 34.3211 38.8204 34.3421 38.8383 34.3668C38.8561 34.3916 38.8689 34.4196 38.8758 34.4493C38.8828 34.479 38.8838 34.5098 38.8788 34.5399C38.8738 34.57 38.8629 34.5988 38.8467 34.6246L38.7311 34.8149L39.6283 35.3655C39.7792 35.4596 39.8872 35.6091 39.9291 35.7819C39.971 35.9547 39.9436 36.137 39.8526 36.2898L38.568 38.3969C38.4739 38.5477 38.3244 38.6557 38.1516 38.6977C37.9788 38.7396 37.7964 38.7121 37.6436 38.6212L36.7464 38.0706L36.6309 38.2609C36.5985 38.3132 36.5471 38.3508 36.4876 38.366C36.428 38.3812 36.3649 38.3728 36.3114 38.3425L34.7821 37.4045L28.8892 44.8199L37.6572 51.0595L43.4006 48.667L45.861 49.9312L42.0072 54.22L43.5841 56.0484L41.9732 58.6923L39.6691 58.0602L37.63 63.4366L35.3803 61.8325L34.8773 55.627L25.1238 50.5837L21.4195 59.3177L22.9556 60.2556C23.0073 60.2867 23.0448 60.3369 23.0601 60.3953C23.0753 60.4538 23.0671 60.5158 23.0371 60.5683L22.9148 60.7654L23.8188 61.3159C23.9667 61.411 24.072 61.5598 24.1125 61.7309C24.1531 61.902 24.1258 62.0821 24.0363 62.2335L22.7517 64.3406C22.6576 64.4896 22.5094 64.5963 22.3382 64.6381C22.167 64.68 21.9863 64.6537 21.8341 64.5648L20.9301 64.0211L20.8146 64.2114C20.7986 64.2374 20.7776 64.2599 20.7529 64.2778C20.7281 64.2956 20.7001 64.3084 20.6704 64.3153C20.6407 64.3223 20.6099 64.3233 20.5798 64.3183C20.5498 64.3133 20.521 64.3023 20.4951 64.2862L19.462 63.6609L18.5172 65.7543L18.4424 68.0448C18.4384 68.0851 18.4269 68.1243 18.4085 68.1604C18.3836 68.1965 18.3511 68.2266 18.3133 68.2488C18.2769 68.269 18.236 68.2796 18.1944 68.2796C18.1527 68.2796 18.1118 68.269 18.0754 68.2488L14.4323 65.6795ZM32.4372 31.0155L30.3981 29.7512C30.1556 29.6029 29.8641 29.5568 29.5876 29.6231C29.3111 29.6893 29.0722 29.8625 28.9232 30.1047L28.0532 31.5252C27.9073 31.7691 27.8633 32.0606 27.9307 32.3366C27.9981 32.6126 28.1716 32.851 28.4135 33.0001L28.7465 33.2041L30.6088 32.1098L32.4372 31.0155ZM37.8271 38.2269C37.8742 38.255 37.9304 38.2635 37.9836 38.2508C38.0369 38.2381 38.0832 38.2052 38.1126 38.159L39.3972 36.0452C39.412 36.0221 39.422 35.9963 39.4265 35.9693C39.4311 35.9423 39.4302 35.9146 39.4239 35.888C39.4175 35.8613 39.4059 35.8363 39.3896 35.8142C39.3734 35.7922 39.3528 35.7736 39.3292 35.7597L38.4321 35.2091L36.9231 37.6764L37.8271 38.2269ZM36.291 37.8259L38.2757 34.577L37.3921 34.0401L35.0064 37.0443L36.291 37.8259ZM34.4831 36.9627L37.1542 33.5643L38.7719 31.5252C38.7912 31.5014 38.8141 31.4808 38.8399 31.4641L40.5051 30.5397L37.1067 28.7861L30.9895 32.3612L28.8077 33.6459L20.2164 38.6823L28.4678 44.5005L34.4831 36.9627ZM14.5342 55.7017C14.2917 55.5534 14.0002 55.5073 13.7237 55.5736C13.4472 55.6398 13.2083 55.813 13.0593 56.0552L12.1961 57.4757C12.0478 57.7183 12.0017 58.0097 12.0679 58.2862C12.1342 58.5627 12.3074 58.8016 12.5496 58.9506L14.6294 60.2148L14.7449 58.0602L14.8673 55.8988L14.5342 55.7017ZM3.05433 31.0019C2.67813 30.9648 2.29916 31.0359 1.96201 31.2069C1.62486 31.3779 1.34356 31.6416 1.15119 31.967C0.950064 32.2854 0.843309 32.6542 0.843309 33.0307C0.843309 33.4073 0.950064 33.7761 1.15119 34.0945L2.12316 35.6441L2.12316 35.5762C2.12321 35.3987 2.13684 35.2214 2.16394 35.046C2.15733 34.9941 2.15733 34.9416 2.16394 34.8897C2.19095 34.69 2.23183 34.4924 2.28628 34.2984L2.28628 34.244C2.34064 34.0641 2.40416 33.8872 2.47659 33.7138L2.54456 33.5711C2.62609 33.3808 2.72149 33.1968 2.83002 33.0205C2.93877 32.8438 3.06112 32.6739 3.18347 32.5108L3.28542 32.3884C3.40745 32.2438 3.53676 32.1054 3.67284 31.9738L3.70682 31.9398C3.85764 31.8035 4.01653 31.6764 4.18261 31.5592L4.30495 31.4709C4.45347 31.3691 4.60779 31.276 4.76713 31.1922C4.78364 31.1784 4.80192 31.167 4.8215 31.1582L3.05433 31.0019ZM5.92261 31.233C4.81455 31.5561 3.8684 32.2839 3.27181 33.272C2.67185 34.2592 2.46333 35.4352 2.68729 36.5685L2.72807 36.7588C3.01375 37.9474 3.7593 38.9741 4.80111 39.6135L15.7713 45.2821L25.0354 50.0399L39.3836 57.4621L40.0089 56.4358C38.3097 55.3936 36.6105 54.3559 34.9113 53.3228C34.7633 53.2288 34.6574 53.0812 34.6157 52.9109C34.574 52.7406 34.5997 52.5608 34.6875 52.4091C34.7752 52.2573 34.9182 52.1453 35.0865 52.0964C35.2549 52.0476 35.4356 52.0657 35.591 52.147L40.6954 55.2531L41.3003 54.2608L19.7135 38.9066L19.6387 38.8591L9.67448 31.7156C9.12178 31.3764 8.50383 31.1575 7.86088 31.0732C7.21794 30.9889 6.56445 31.041 5.943 31.2262L5.92261 31.233ZM45.059 50.0671L43.319 49.1699L38.1126 51.3381L41.579 53.887L41.579 53.8326L41.613 53.8734L45.059 50.0671ZM41.7013 58.1554L42.9588 56.1163L41.6742 54.6278L41.1236 55.5386C41.2795 55.6341 41.3911 55.7877 41.4338 55.9655C41.4765 56.1433 41.4469 56.3308 41.3513 56.4867C41.2558 56.6427 41.1022 56.7543 40.9244 56.797C40.7466 56.8397 40.5591 56.81 40.4031 56.7145L39.8254 57.6592L41.7013 58.1554ZM35.7473 61.5538L37.3378 62.6889L39.1661 57.9311L39.1117 57.9311L39.1117 57.8835L35.2647 55.9668L35.7473 61.5538ZM21.9972 64.1502C22.0451 64.1776 22.1018 64.1851 22.1552 64.1712C22.2086 64.1572 22.2544 64.1228 22.2827 64.0755L23.5741 61.9684C23.5887 61.9444 23.5984 61.9177 23.6026 61.8899C23.6067 61.8621 23.6053 61.8338 23.5983 61.8066C23.5913 61.7793 23.579 61.7537 23.562 61.7313C23.545 61.709 23.5237 61.6902 23.4993 61.6762L22.6021 61.1324L21.0932 63.5997L21.9972 64.1502ZM20.4679 63.7492L22.4458 60.5003L21.1612 59.7119L21.0117 60.0381L19.5775 63.2123L20.4679 63.7492ZM17.9803 65.6659L17.9803 65.5844L19.0474 63.2055L20.8213 59.2905L24.6276 50.3798L16.7976 46.3016L15.8732 45.8191L15.3227 55.7697L15.18 58.2573L14.7925 65.3669L17.9055 67.5827L17.9803 65.6659Z" fill="#B5B7BA"/>
<path d="M115.859 62.4978L115.998 61.9791C116.005 61.951 116.007 61.9216 116.003 61.8927C115.999 61.8639 115.989 61.8361 115.974 61.8111C115.959 61.7861 115.94 61.7643 115.916 61.7471C115.893 61.7299 115.866 61.7176 115.837 61.711C115.809 61.7034 115.78 61.7016 115.751 61.7056C115.722 61.7097 115.694 61.7194 115.669 61.7344C115.644 61.7493 115.623 61.7692 115.605 61.7927C115.588 61.8162 115.576 61.843 115.569 61.8714C115.455 62.2981 115.342 62.7183 115.232 63.1319C115.215 63.1878 115.22 63.2481 115.247 63.2999C115.274 63.3518 115.32 63.3912 115.375 63.4096C115.432 63.425 115.493 63.418 115.545 63.3901C115.597 63.3621 115.636 63.3154 115.655 63.2594L115.859 62.4978ZM116.265 60.7207C116.379 60.2939 116.421 59.8479 116.483 59.4071C116.487 59.3785 116.486 59.3494 116.478 59.3215C116.471 59.2935 116.459 59.2673 116.441 59.2443C116.424 59.2213 116.402 59.202 116.377 59.1875C116.352 59.173 116.324 59.1636 116.296 59.1599C116.267 59.1557 116.238 59.1573 116.21 59.1644C116.182 59.1716 116.156 59.1843 116.133 59.2017C116.11 59.2191 116.091 59.2409 116.076 59.2659C116.062 59.2908 116.052 59.3184 116.049 59.347C115.989 59.7812 115.915 60.212 115.831 60.6326C115.821 60.6903 115.834 60.7496 115.867 60.7979C115.9 60.8462 115.95 60.8797 116.008 60.8912C116.036 60.8969 116.065 60.897 116.093 60.8915C116.121 60.8861 116.148 60.8751 116.172 60.8593C116.196 60.8434 116.216 60.823 116.232 60.7992C116.248 60.7755 116.259 60.7488 116.265 60.7207ZM115.243 64.5351C115.257 64.4821 115.252 64.4254 115.227 64.3761C115.203 64.3267 115.161 64.288 115.11 64.2675C115.055 64.2487 114.994 64.2523 114.941 64.2776C114.889 64.3029 114.848 64.3479 114.828 64.4029C114.705 64.7289 114.58 65.04 114.436 65.3673L114.336 65.608C114.324 65.6344 114.317 65.6629 114.316 65.6919C114.315 65.7209 114.32 65.7498 114.331 65.7769C114.341 65.8039 114.357 65.8286 114.377 65.8495C114.397 65.8704 114.421 65.887 114.448 65.8984C114.501 65.9206 114.56 65.9211 114.613 65.8998C114.667 65.8785 114.709 65.837 114.732 65.7845L114.838 65.5456C114.98 65.2248 115.106 64.9137 115.237 64.5548L115.243 64.5351ZM116.666 58.1192L116.675 58.0864C116.714 57.6534 116.749 57.2055 116.77 56.7607C116.772 56.7032 116.751 56.6472 116.713 56.6042C116.675 56.5612 116.622 56.5346 116.564 56.5298C116.535 56.5277 116.505 56.5316 116.478 56.5413C116.45 56.5509 116.424 56.5661 116.403 56.5859C116.381 56.6058 116.363 56.6298 116.351 56.6566C116.339 56.6834 116.332 56.7124 116.332 56.7418C116.306 57.1783 116.281 57.6148 116.235 58.046C116.23 58.1034 116.248 58.1605 116.285 58.2047C116.322 58.2489 116.375 58.2766 116.433 58.2818C116.48 58.2792 116.526 58.261 116.562 58.23C116.598 58.199 116.623 58.157 116.633 58.1104L116.666 58.1192ZM114.183 66.9393C114.196 66.8907 114.191 66.8394 114.17 66.794C114.148 66.7485 114.112 66.7118 114.067 66.69C114.042 66.676 114.014 66.6674 113.985 66.6647C113.956 66.6621 113.927 66.6654 113.899 66.6746C113.872 66.6837 113.846 66.6984 113.825 66.7178C113.803 66.7372 113.786 66.7609 113.774 66.7873C113.581 67.1649 113.372 67.5521 113.149 67.9358C113.135 67.9607 113.126 67.9881 113.123 68.0165C113.119 68.0449 113.121 68.0736 113.129 68.1012C113.137 68.1287 113.15 68.1545 113.167 68.177C113.185 68.1995 113.207 68.2183 113.232 68.2323C113.283 68.2612 113.343 68.2689 113.4 68.2538C113.456 68.2387 113.505 68.2021 113.535 68.1517C113.757 67.768 113.968 67.3742 114.164 66.9835L114.183 66.9393ZM116.801 55.4885L116.815 55.4359C116.813 54.999 116.812 54.5555 116.791 54.1067C116.789 54.0492 116.764 53.995 116.722 53.9559C116.679 53.9169 116.623 53.8962 116.566 53.8984C116.537 53.8987 116.509 53.9048 116.482 53.9165C116.456 53.9282 116.432 53.9451 116.413 53.9662C116.393 53.9874 116.378 54.0123 116.369 54.0394C116.359 54.0666 116.355 54.0954 116.357 54.1241C116.367 54.5628 116.376 55.0015 116.373 55.4301C116.372 55.459 116.377 55.4877 116.387 55.5147C116.398 55.5416 116.413 55.5661 116.434 55.5867C116.454 55.6073 116.478 55.6235 116.505 55.6344C116.531 55.6452 116.56 55.6505 116.589 55.6498C116.633 55.6439 116.674 55.6243 116.706 55.5938C116.738 55.5632 116.76 55.5233 116.768 55.4797L116.801 55.4885ZM112.877 69.214C112.889 69.1683 112.886 69.1202 112.868 69.0764C112.851 69.0326 112.82 68.9954 112.781 68.97C112.732 68.9393 112.673 68.9292 112.617 68.9418C112.561 68.9545 112.512 68.9889 112.481 69.0375C112.249 69.4045 112.004 69.7681 111.747 70.1215C111.715 70.17 111.703 70.2288 111.712 70.286C111.722 70.3433 111.752 70.395 111.798 70.4307C111.847 70.4641 111.907 70.4768 111.965 70.4661C112.024 70.4553 112.075 70.422 112.109 70.3733C112.366 70.0198 112.614 69.6432 112.846 69.2761L112.877 69.214ZM116.707 52.8456L116.726 52.7734C116.689 52.3342 116.646 51.8933 116.594 51.4572C116.59 51.4284 116.582 51.4006 116.568 51.3753C116.554 51.35 116.535 51.3278 116.512 51.3099C116.489 51.292 116.463 51.2788 116.435 51.2711C116.407 51.2634 116.378 51.2614 116.35 51.2651C116.321 51.2682 116.293 51.2771 116.268 51.2911C116.242 51.3051 116.22 51.3241 116.202 51.3468C116.184 51.3695 116.171 51.3956 116.164 51.4235C116.156 51.4513 116.154 51.4805 116.157 51.5092C116.211 51.9387 116.257 52.3731 116.287 52.8105C116.292 52.8679 116.32 52.9208 116.364 52.9577C116.409 52.9946 116.466 53.0125 116.523 53.0074C116.56 52.9969 116.593 52.9768 116.619 52.949C116.645 52.9213 116.663 52.8871 116.671 52.85L116.707 52.8456ZM111.352 71.3597C111.363 71.3184 111.361 71.275 111.349 71.2343C111.336 71.1937 111.312 71.1573 111.28 71.1293C111.256 71.1012 111.226 71.0795 111.192 71.0659C111.158 71.0523 111.121 71.0474 111.084 71.0515C111.048 71.0556 111.013 71.0687 110.982 71.0895C110.952 71.1103 110.927 71.1382 110.91 71.1709C110.644 71.5077 110.37 71.8493 110.084 72.1808C110.065 72.2025 110.05 72.2277 110.041 72.2551C110.032 72.2824 110.028 72.3112 110.031 72.3399C110.033 72.3687 110.041 72.3967 110.054 72.4223C110.067 72.448 110.085 72.4709 110.107 72.4895C110.151 72.5261 110.208 72.5441 110.265 72.5399C110.323 72.5356 110.377 72.5094 110.415 72.4667C110.703 72.1286 110.986 71.7822 111.26 71.4406L111.352 71.3597ZM116.388 50.227C116.402 50.2006 116.41 50.1715 116.411 50.1417C116.338 49.7068 116.258 49.2702 116.169 48.8384C116.164 48.8101 116.153 48.7831 116.138 48.759C116.122 48.7349 116.102 48.7141 116.078 48.6979C116.054 48.6817 116.027 48.6704 115.999 48.6646C115.971 48.6589 115.942 48.6587 115.913 48.6643C115.855 48.676 115.804 48.7102 115.771 48.7593C115.739 48.8085 115.726 48.8687 115.738 48.9268C115.828 49.352 115.91 49.7821 115.978 50.2086C115.982 50.2369 115.992 50.2642 116.006 50.2889C116.021 50.3136 116.04 50.3351 116.063 50.3524C116.085 50.3696 116.111 50.3821 116.139 50.3893C116.167 50.3965 116.196 50.3981 116.224 50.3941C116.257 50.3793 116.286 50.3567 116.308 50.3284C116.33 50.3001 116.345 50.2668 116.352 50.2314L116.388 50.227ZM109.629 73.3537C109.639 73.3165 109.639 73.2774 109.629 73.2401C109.62 73.2029 109.6 73.1689 109.573 73.1417C109.552 73.1214 109.527 73.1054 109.5 73.0948C109.473 73.0842 109.444 73.0791 109.415 73.0798C109.386 73.0806 109.358 73.0871 109.331 73.0991C109.305 73.1111 109.281 73.1283 109.261 73.1496C108.959 73.4627 108.651 73.7741 108.313 74.0636C108.272 74.1054 108.249 74.1612 108.247 74.2196C108.246 74.278 108.267 74.3347 108.306 74.3783C108.326 74.399 108.349 74.4155 108.376 74.4269C108.402 74.4384 108.43 74.4445 108.459 74.445C108.487 74.4454 108.516 74.4403 108.542 74.4297C108.569 74.4192 108.593 74.4035 108.614 74.3835C108.934 74.0822 109.244 73.7643 109.57 73.4433C109.591 73.4205 109.607 73.3939 109.619 73.365L109.629 73.3537ZM115.861 47.6511C115.88 47.6194 115.89 47.583 115.889 47.5461C115.78 47.1156 115.668 46.6916 115.53 46.2606C115.512 46.2052 115.473 46.1587 115.422 46.1306C115.371 46.1026 115.311 46.0949 115.254 46.1093C115.199 46.1276 115.152 46.1663 115.124 46.2175C115.096 46.2688 115.088 46.3287 115.103 46.3853C115.229 46.8062 115.343 47.2236 115.467 47.6511C115.474 47.6794 115.486 47.7062 115.503 47.7298C115.52 47.7535 115.541 47.7735 115.566 47.7886C115.591 47.8038 115.618 47.8139 115.647 47.8182C115.676 47.8225 115.705 47.821 115.733 47.8138C115.756 47.7932 115.774 47.768 115.787 47.7398C115.799 47.7115 115.806 47.681 115.805 47.6502L115.861 47.6511ZM107.733 75.1749C107.742 75.1394 107.742 75.1023 107.733 75.0668C107.724 75.0313 107.707 74.9985 107.682 74.9713C107.642 74.9297 107.588 74.9045 107.531 74.9008C107.473 74.8971 107.416 74.9151 107.371 74.9512C107.048 75.2376 106.705 75.5187 106.366 75.7867C106.322 75.8239 106.294 75.8766 106.288 75.9339C106.282 75.9912 106.298 76.0487 106.333 76.0944C106.35 76.1172 106.372 76.1363 106.397 76.1507C106.422 76.165 106.449 76.1743 106.478 76.178C106.506 76.1817 106.535 76.1797 106.563 76.1722C106.59 76.1647 106.616 76.1518 106.639 76.1342C106.987 75.8614 107.331 75.5737 107.662 75.2825C107.692 75.2574 107.713 75.2239 107.723 75.1863L107.733 75.1749ZM115.086 45.1073C115.097 45.0646 115.094 45.0197 115.079 44.9786C114.937 44.5607 114.781 44.1459 114.623 43.7377C114.613 43.7098 114.597 43.6842 114.577 43.6626C114.557 43.641 114.533 43.6237 114.505 43.6118C114.478 43.5999 114.449 43.5937 114.419 43.5935C114.39 43.5934 114.361 43.5992 114.333 43.6108C114.307 43.6216 114.283 43.6376 114.262 43.6578C114.242 43.6781 114.226 43.7021 114.215 43.7286C114.204 43.7551 114.198 43.7834 114.198 43.8121C114.198 43.8408 114.204 43.8692 114.215 43.8957C114.373 44.3039 114.531 44.6841 114.659 45.1265C114.68 45.1805 114.721 45.2244 114.773 45.2489C114.826 45.2735 114.886 45.2768 114.94 45.2582C114.973 45.2476 115.002 45.2294 115.025 45.2051C115.049 45.1808 115.066 45.1512 115.076 45.1187L115.086 45.1073ZM105.63 76.7998C105.638 76.7683 105.639 76.7354 105.633 76.7034C105.627 76.6714 105.614 76.6411 105.596 76.6146C105.579 76.5915 105.557 76.5721 105.533 76.5573C105.508 76.5425 105.481 76.5327 105.453 76.5284C105.425 76.524 105.396 76.5254 105.368 76.5322C105.34 76.539 105.314 76.5513 105.291 76.5682C104.944 76.813 104.57 77.0788 104.209 77.2986C104.159 77.3285 104.122 77.3767 104.107 77.4331C104.092 77.4895 104.1 77.5496 104.128 77.6006C104.142 77.6261 104.161 77.6484 104.184 77.6664C104.207 77.6843 104.234 77.6975 104.262 77.705C104.29 77.7126 104.319 77.7144 104.348 77.7103C104.377 77.7063 104.405 77.6965 104.43 77.6815C104.803 77.4437 105.177 77.178 105.529 76.9415C105.556 76.9253 105.578 76.9038 105.596 76.8782C105.614 76.8527 105.626 76.8238 105.632 76.7932L105.63 76.7998ZM114.119 42.6526C114.132 42.6049 114.128 42.5541 114.108 42.5089C113.928 42.102 113.732 41.7047 113.543 41.3091C113.529 41.2836 113.509 41.2612 113.486 41.2432C113.463 41.2253 113.437 41.2121 113.409 41.2046C113.381 41.197 113.351 41.1952 113.322 41.1993C113.294 41.2033 113.266 41.2132 113.241 41.2282C113.191 41.2571 113.155 41.3043 113.14 41.3596C113.126 41.4149 113.133 41.4738 113.162 41.5236C113.353 41.9126 113.537 42.3279 113.722 42.7151C113.751 42.7646 113.798 42.8006 113.853 42.8154C113.909 42.8302 113.968 42.8227 114.017 42.7943C114.041 42.7807 114.063 42.7622 114.079 42.7401C114.096 42.718 114.108 42.6927 114.115 42.6657L114.119 42.6526ZM103.389 78.2328C103.4 78.1753 103.391 78.1157 103.363 78.0642C103.332 78.0153 103.284 77.9799 103.228 77.9649C103.172 77.9499 103.113 77.9565 103.061 77.9833C102.687 78.1995 102.299 78.4123 101.915 78.6119C101.866 78.6408 101.829 78.6881 101.815 78.7434C101.8 78.7987 101.807 78.8576 101.836 78.9073C101.866 78.9555 101.913 78.9904 101.968 79.0051C102.023 79.0198 102.081 79.0131 102.131 78.9865C102.53 78.7838 102.944 78.5781 103.301 78.35C103.342 78.3215 103.373 78.2803 103.389 78.2328ZM112.912 40.3026C112.926 40.2466 112.919 40.1873 112.893 40.1358C112.674 39.7463 112.446 39.3616 112.215 38.9901C112.185 38.9399 112.137 38.9034 112.08 38.8883C112.024 38.8732 111.964 38.8807 111.913 38.9091C111.864 38.9381 111.827 38.9853 111.813 39.0406C111.798 39.0959 111.805 39.1548 111.834 39.2046C112.058 39.5744 112.281 39.9507 112.496 40.3319C112.526 40.3821 112.574 40.4186 112.63 40.4337C112.687 40.4488 112.747 40.4413 112.798 40.4128C112.827 40.4071 112.855 40.3948 112.879 40.377C112.904 40.3591 112.924 40.3361 112.938 40.3097L112.912 40.3026ZM101.021 79.4278C101.035 79.3782 101.032 79.3252 101.012 79.2776C100.982 79.2275 100.934 79.191 100.877 79.1759C100.821 79.1608 100.761 79.1682 100.71 79.1967C100.318 79.3731 99.9125 79.546 99.506 79.6974C99.4528 79.7195 99.4101 79.7613 99.3868 79.814C99.3635 79.8667 99.3614 79.9264 99.3809 79.9806C99.3903 80.0081 99.4053 80.0333 99.425 80.0548C99.4446 80.0762 99.4685 80.0933 99.4951 80.1051C99.5217 80.1168 99.5504 80.123 99.5795 80.1231C99.6086 80.1232 99.6374 80.1173 99.664 80.1057C100.079 79.9495 100.458 79.7695 100.891 79.5971C100.932 79.5898 100.97 79.5713 101.001 79.5436C101.032 79.5158 101.055 79.48 101.067 79.4401L101.021 79.4278ZM111.494 38.058C111.504 38.0273 111.507 37.9947 111.502 37.9628C111.497 37.9309 111.484 37.9006 111.465 37.8745C111.211 37.5108 110.955 37.1536 110.684 36.7995C110.666 36.7768 110.645 36.7577 110.62 36.7433C110.595 36.729 110.568 36.7197 110.539 36.716C110.511 36.7123 110.482 36.7143 110.454 36.7218C110.426 36.7293 110.401 36.7422 110.378 36.7598C110.331 36.7959 110.301 36.849 110.293 36.9075C110.285 36.966 110.301 37.0253 110.336 37.0723C110.598 37.4098 110.854 37.7669 111.103 38.1223C111.133 38.1724 111.182 38.2089 111.238 38.224C111.294 38.2391 111.354 38.2317 111.405 38.2032C111.436 38.1914 111.463 38.1735 111.486 38.1506C111.509 38.1278 111.527 38.1004 111.54 38.0703L111.494 38.058ZM98.5648 80.3741C98.5779 80.3348 98.5769 80.2922 98.5619 80.2537C98.5436 80.198 98.5043 80.1518 98.4524 80.1247C98.4005 80.0977 98.3401 80.092 98.284 80.1089C97.8745 80.2454 97.4536 80.3719 97.038 80.4787C97.01 80.4858 96.9838 80.4984 96.9607 80.5158C96.9377 80.5331 96.9183 80.5549 96.9038 80.5798C96.8893 80.6047 96.8798 80.6323 96.876 80.6609C96.8723 80.6895 96.8742 80.7186 96.8818 80.7464C96.8977 80.8019 96.9345 80.8491 96.9843 80.8782C97.0342 80.9073 97.0934 80.916 97.1495 80.9026C97.5752 80.7845 98.0027 80.6598 98.4219 80.5399C98.4622 80.5321 98.4994 80.513 98.5294 80.4849C98.5593 80.4568 98.5807 80.4208 98.591 80.3811L98.5648 80.3741ZM109.893 35.9685C109.903 35.9338 109.904 35.8972 109.897 35.8619C109.889 35.8267 109.872 35.7939 109.849 35.7666C109.566 35.4304 109.268 35.0973 108.967 34.7774C108.928 34.7353 108.874 34.7105 108.816 34.7083C108.759 34.7061 108.703 34.7267 108.66 34.7656C108.618 34.8057 108.593 34.8609 108.59 34.9194C108.587 34.9779 108.608 35.035 108.647 35.0787C108.943 35.3903 109.235 35.7216 109.519 36.0512C109.538 36.0735 109.56 36.092 109.586 36.1054C109.612 36.1189 109.64 36.1271 109.668 36.1296C109.697 36.132 109.726 36.1287 109.754 36.1199C109.781 36.111 109.807 36.0967 109.829 36.0779C109.874 36.056 109.912 36.0225 109.939 35.9808L109.893 35.9685ZM96.0241 81.0584C96.0417 81.0286 96.0509 80.9946 96.0505 80.96C96.0385 80.9036 96.0047 80.8543 95.9564 80.8229C95.908 80.7914 95.8492 80.7805 95.7928 80.7924C95.361 80.8807 94.931 80.9625 94.5062 81.0246C94.4779 81.0285 94.4507 81.038 94.4262 81.0527C94.4017 81.0674 94.3804 81.0869 94.3636 81.11C94.3469 81.1332 94.335 81.1595 94.3288 81.1874C94.3226 81.2153 94.322 81.2442 94.3273 81.2723C94.3312 81.3006 94.3407 81.3279 94.3552 81.3525C94.3697 81.3772 94.3889 81.3988 94.4117 81.416C94.4346 81.4332 94.4606 81.4458 94.4883 81.4529C94.516 81.4601 94.5448 81.4617 94.5731 81.4577C95.0062 81.3908 95.4428 81.3108 95.8812 81.2242C95.9241 81.2195 95.9648 81.2025 95.9983 81.1753C96.0318 81.1481 96.0567 81.1118 96.0701 81.0707L96.0241 81.0584ZM108.094 34.0438C108.104 34.0067 108.103 33.9677 108.094 33.9306C108.084 33.8935 108.065 33.8595 108.038 33.8319C107.716 33.5297 107.388 33.2307 107.054 32.9349C107.032 32.916 107.007 32.9015 106.98 32.8924C106.953 32.8833 106.924 32.8797 106.895 32.8818C106.866 32.884 106.838 32.8917 106.813 32.9048C106.787 32.9178 106.764 32.9358 106.745 32.9578C106.726 32.9794 106.712 33.0046 106.703 33.032C106.694 33.0593 106.69 33.0882 106.692 33.1169C106.694 33.1456 106.702 33.1736 106.715 33.1993C106.728 33.2249 106.746 33.2478 106.768 33.2664C107.093 33.5505 107.421 33.8495 107.728 34.1498C107.749 34.1701 107.773 34.1861 107.8 34.1967C107.827 34.2073 107.856 34.2124 107.885 34.2117C107.914 34.2109 107.943 34.2044 107.969 34.1924C107.996 34.1804 108.02 34.1632 108.04 34.1418C108.082 34.1256 108.117 34.0954 108.14 34.0562L108.094 34.0438ZM93.4138 81.4778L93.4331 81.4056C93.4266 81.3474 93.3977 81.2941 93.3524 81.2569C93.3071 81.2198 93.2491 81.2019 93.1908 81.207C92.8654 81.2394 92.5353 81.2635 92.2087 81.2745L91.8886 81.2873C91.8311 81.2897 91.7769 81.3148 91.7379 81.3571C91.6988 81.3994 91.6782 81.4554 91.6804 81.5129C91.6807 81.5418 91.6868 81.5703 91.6983 81.5969C91.7098 81.6234 91.7264 81.6473 91.7473 81.6673C91.7681 81.6873 91.7927 81.7029 91.8197 81.7133C91.8467 81.7237 91.8754 81.7286 91.9043 81.7277L92.2243 81.715C92.5659 81.701 92.896 81.6768 93.2345 81.6479C93.2899 81.6495 93.344 81.6311 93.3869 81.5961C93.4299 81.5611 93.4588 81.5118 93.4685 81.4573L93.4138 81.4778ZM90.7793 81.567L90.7933 81.5145C90.7939 81.4565 90.7719 81.4005 90.732 81.3583C90.6922 81.3161 90.6375 81.291 90.5795 81.2883C90.1526 81.2795 89.7144 81.2606 89.2731 81.2268C89.2449 81.2243 89.2164 81.2274 89.1895 81.2362C89.1625 81.2449 89.1376 81.2589 89.1162 81.2775C89.0948 81.2961 89.0774 81.3188 89.0649 81.3443C89.0525 81.3697 89.0454 81.3974 89.0439 81.4257C89.0388 81.4831 89.0567 81.5402 89.0937 81.5844C89.1307 81.6286 89.1837 81.6564 89.2411 81.6615C89.6889 81.6971 90.1337 81.7177 90.5672 81.7283C90.5967 81.7345 90.6271 81.7346 90.6567 81.7287C90.6862 81.7229 90.7143 81.7111 90.7392 81.6941C90.7641 81.6771 90.7853 81.6553 90.8016 81.63C90.8179 81.6046 90.8289 81.5762 90.834 81.5465L90.7793 81.567ZM88.1512 81.3695L88.16 81.3367C88.1666 81.2798 88.1504 81.2226 88.115 81.1776C88.0797 81.1325 88.028 81.1032 87.9712 81.0961C87.5182 81.0357 87.084 80.9756 86.6684 80.9159C86.6404 80.9109 86.6116 80.9118 86.5839 80.9183C86.5562 80.9248 86.5301 80.9368 86.5071 80.9537C86.4842 80.9705 86.4649 80.9919 86.4505 81.0164C86.436 81.041 86.4267 81.0682 86.423 81.0964C86.4181 81.1247 86.4188 81.1537 86.4251 81.1817C86.4315 81.2097 86.4433 81.2362 86.4599 81.2597C86.4765 81.2831 86.4976 81.303 86.522 81.3182C86.5463 81.3334 86.5734 81.3437 86.6018 81.3484C87.0408 81.4168 87.4751 81.4768 87.9177 81.5321C87.9486 81.5444 87.9821 81.5492 88.0153 81.5461C88.0485 81.543 88.0805 81.5321 88.1086 81.5142C88.1368 81.4963 88.1603 81.472 88.1772 81.4433C88.1941 81.4146 88.204 81.3822 88.206 81.349L88.1512 81.3695ZM85.5515 80.9614C85.5564 80.9331 85.5557 80.9041 85.5494 80.8761C85.543 80.8481 85.5312 80.8216 85.5146 80.7981C85.498 80.7747 85.4769 80.7548 85.4525 80.7396C85.4282 80.7244 85.401 80.7141 85.3727 80.7094C84.9525 80.5968 84.5183 80.5368 84.0928 80.4439C84.0644 80.4372 84.035 80.4362 84.0062 80.4411C83.9774 80.446 83.9499 80.4566 83.9254 80.4724C83.9008 80.4881 83.8797 80.5086 83.8632 80.5327C83.8467 80.5568 83.8352 80.584 83.8295 80.6126C83.8228 80.641 83.8218 80.6704 83.8267 80.6992C83.8316 80.728 83.8422 80.7554 83.858 80.78C83.8737 80.8046 83.8942 80.8257 83.9183 80.8422C83.9424 80.8587 83.9696 80.8701 83.9982 80.8759C84.4249 80.9903 84.864 81.0586 85.2929 81.1384C85.3263 81.1548 85.3632 81.1623 85.4003 81.1603C85.4374 81.1584 85.4733 81.1469 85.5047 81.1271C85.5361 81.1073 85.5619 81.0798 85.5797 81.0472C85.5975 81.0146 85.6066 80.978 85.6062 80.9409L85.5515 80.9614ZM82.9773 80.4053C82.9848 80.3775 82.9865 80.3484 82.9823 80.3198C82.9782 80.2913 82.9682 80.2639 82.953 80.2394C82.9378 80.2149 82.9177 80.1937 82.894 80.1773C82.8703 80.1608 82.8435 80.1494 82.8152 80.1438C82.3884 80.0294 81.9682 79.9168 81.5481 79.8042C81.4923 79.7893 81.433 79.7971 81.383 79.826C81.3331 79.8548 81.2966 79.9023 81.2817 79.958C81.2751 79.9859 81.2741 80.0147 81.2787 80.0429C81.2834 80.0711 81.2935 80.0981 81.3085 80.1224C81.3236 80.1467 81.3433 80.1678 81.3665 80.1845C81.3897 80.2012 81.416 80.2131 81.4438 80.2196C81.864 80.3322 82.2907 80.4465 82.7175 80.5609C82.7492 80.5769 82.7845 80.5849 82.8201 80.5841C82.8556 80.5833 82.8905 80.5738 82.9215 80.5564C82.9526 80.539 82.9789 80.5143 82.9982 80.4844C83.0174 80.4545 83.0291 80.4203 83.032 80.3848L82.9773 80.4053ZM80.4194 79.7622C80.4343 79.7069 80.4276 79.6481 80.4005 79.5977C80.3735 79.5473 80.3282 79.5091 80.2739 79.491C79.8735 79.3837 79.4533 79.2711 79.031 79.0876C78.9755 79.0688 78.9149 79.0724 78.8622 79.0977C78.8094 79.123 78.7685 79.168 78.7484 79.223C78.7314 79.2785 78.7358 79.3383 78.7609 79.3907C78.786 79.443 78.8299 79.484 78.8838 79.5055C79.3197 79.6645 79.7477 79.8003 80.1793 79.923C80.235 79.9379 80.2944 79.9301 80.3443 79.9013C80.3943 79.8724 80.4307 79.8249 80.4457 79.7692L80.4194 79.7622ZM77.9415 78.873C77.9557 78.8217 77.9505 78.7669 77.927 78.7191C77.9035 78.6713 77.8633 78.6338 77.814 78.6137C77.4227 78.4455 77.0267 78.2691 76.6211 78.0759C76.5681 78.0514 76.5075 78.0485 76.4524 78.0679C76.3972 78.0873 76.3519 78.1274 76.3259 78.1798C76.3013 78.2328 76.2984 78.2934 76.3178 78.3485C76.3372 78.4036 76.3774 78.449 76.4297 78.475C76.8419 78.6699 77.2445 78.8481 77.6423 79.0181C77.6968 79.0407 77.7581 79.0409 77.8128 79.0187C77.8675 78.9965 77.9112 78.9536 77.9345 78.8993L77.9415 78.873ZM75.5549 77.748C75.5686 77.6995 75.5644 77.6476 75.5431 77.6019C75.5218 77.5561 75.4848 77.5195 75.4388 77.4988C75.0629 77.2996 74.6757 77.0902 74.2902 76.8744C74.2382 76.8455 74.1769 76.8385 74.1198 76.8549C74.0626 76.8712 74.0143 76.9096 73.9854 76.9616C73.9588 77.0132 73.9531 77.073 73.9697 77.1287C73.9863 77.1843 74.0238 77.2313 74.0744 77.2598C74.4664 77.4775 74.8536 77.6868 75.2426 77.8895C75.2947 77.914 75.3541 77.9176 75.4088 77.8995C75.4634 77.8814 75.509 77.843 75.5361 77.7922L75.5549 77.748ZM73.2535 76.4629C73.2649 76.4163 73.261 76.3673 73.2425 76.3231C73.2239 76.2788 73.1917 76.2417 73.1505 76.2171C72.7799 75.9982 72.4063 75.7644 72.0327 75.5306C72.0088 75.5145 71.982 75.5034 71.9537 75.4981C71.9254 75.4928 71.8964 75.4933 71.8683 75.4996C71.8402 75.5059 71.8137 75.5179 71.7905 75.5349C71.7672 75.5518 71.7477 75.5733 71.7331 75.5981C71.717 75.6219 71.7059 75.6488 71.7006 75.6771C71.6952 75.7054 71.6958 75.7344 71.7021 75.7625C71.7084 75.7906 71.7204 75.817 71.7374 75.8403C71.7543 75.8635 71.7758 75.8831 71.8006 75.8977C72.1725 76.138 72.5461 76.3719 72.9232 76.5925C72.9478 76.6077 72.9752 76.6178 73.0037 76.6223C73.0322 76.6268 73.0614 76.6256 73.0894 76.6187C73.1175 76.6118 73.1439 76.5994 73.1671 76.5822C73.1903 76.565 73.2098 76.5433 73.2246 76.5185L73.2535 76.4629ZM71.0302 75.0439C71.0431 74.9992 71.0413 74.9515 71.0251 74.908C71.0089 74.8644 70.9792 74.8271 70.9403 74.8016C70.5767 74.5565 70.2215 74.3065 69.8681 74.0499C69.8451 74.0324 69.8188 74.0196 69.7908 74.0123C69.7629 74.005 69.7337 74.0034 69.7051 74.0075C69.6764 74.0116 69.6489 74.0214 69.6241 74.0363C69.5993 74.0512 69.5778 74.0709 69.5607 74.0942C69.5271 74.1422 69.5137 74.2014 69.5232 74.2592C69.5327 74.3169 69.5644 74.3687 69.6115 74.4034C69.965 74.6599 70.325 74.9182 70.6951 75.1652C70.7422 75.1982 70.8006 75.2113 70.8573 75.2014C70.914 75.1916 70.9645 75.1596 70.9977 75.1126L71.0302 75.0439ZM68.8998 73.4879C68.9107 73.4458 68.909 73.4014 68.8951 73.3602C68.8811 73.3189 68.8555 73.2827 68.8213 73.2558C68.4714 72.9861 68.1298 72.7116 67.803 72.4341C67.7813 72.4143 67.7557 72.3993 67.7279 72.39C67.7 72.3807 67.6705 72.3773 67.6413 72.3801C67.6121 72.3829 67.5837 72.3917 67.5581 72.4061C67.5325 72.4204 67.5102 72.44 67.4926 72.4635C67.4739 72.4847 67.4597 72.5095 67.4508 72.5363C67.4419 72.5632 67.4385 72.5916 67.4408 72.6198C67.4431 72.648 67.451 72.6754 67.4641 72.7005C67.4773 72.7255 67.4953 72.7477 67.5172 72.7656C67.8553 73.0532 68.1969 73.3277 68.5516 73.6057C68.5742 73.6233 68.5999 73.6363 68.6275 73.644C68.6551 73.6516 68.6839 73.6538 68.7123 73.6503C68.7407 73.6468 68.7681 73.6377 68.793 73.6236C68.8179 73.6094 68.8397 73.5906 68.8573 73.568L68.8998 73.4879ZM68.743 67.324C68.8574 66.8973 68.9144 66.4481 68.9745 66.0139C68.9796 65.9852 68.9788 65.9558 68.972 65.9275C68.9653 65.8991 68.9527 65.8725 68.9351 65.8493C68.9175 65.826 68.8953 65.8067 68.8699 65.7925C68.8445 65.7783 68.8164 65.7695 68.7874 65.7667C68.7588 65.7625 68.7297 65.7641 68.7018 65.7713C68.6738 65.7784 68.6476 65.7911 68.6246 65.8085C68.6016 65.8259 68.5823 65.8477 68.5678 65.8727C68.5533 65.8976 68.5439 65.9252 68.5402 65.9538C68.4837 66.3749 68.4022 66.8105 68.311 67.2294C68.3043 67.2578 68.3033 67.2872 68.3082 67.316C68.3131 67.3447 68.3238 67.3722 68.3395 67.3968C68.3552 67.4214 68.3758 67.4425 68.3999 67.459C68.4239 67.4755 68.4511 67.4869 68.4797 67.4927C68.5128 67.508 68.5491 67.515 68.5855 67.5132C68.6219 67.5113 68.6573 67.5006 68.6886 67.4819C68.7199 67.4633 68.7463 67.4373 68.7653 67.4062C68.7843 67.3751 68.7955 67.3399 68.7978 67.3035L68.743 67.324ZM68.4018 68.5977C68.4182 68.5435 68.4129 68.4851 68.387 68.4348C68.361 68.3845 68.3165 68.3463 68.2628 68.3283C68.207 68.3113 68.1467 68.3169 68.0948 68.3437C68.0429 68.3706 68.0036 68.4166 67.9851 68.472C67.8707 68.8987 67.6991 69.3031 67.5327 69.6877C67.5118 69.7424 67.5124 69.803 67.5345 69.8572C67.5565 69.9114 67.5983 69.9553 67.6514 69.9799C67.6781 69.9909 67.7066 69.9966 67.7355 69.9965C67.7643 69.9965 67.7929 69.9906 67.8194 69.9794C67.846 69.9682 67.8701 69.9518 67.8903 69.9312C67.9105 69.9106 67.9264 69.8862 67.937 69.8594C68.1069 69.4616 68.2624 69.0388 68.407 68.578L68.4018 68.5977ZM69.0968 64.7168L69.1092 64.6708C69.1316 64.224 69.127 63.7764 69.0954 63.3302C69.0918 63.2718 69.0654 63.2172 69.022 63.1779C68.9787 63.1387 68.9217 63.118 68.8632 63.1202C68.8344 63.1219 68.8062 63.1294 68.7804 63.1422C68.7545 63.155 68.7314 63.1728 68.7125 63.1945C68.6935 63.2163 68.6791 63.2417 68.6701 63.2691C68.661 63.2965 68.6575 63.3254 68.6598 63.3542C68.6895 63.7861 68.6932 64.2195 68.6709 64.6519C68.6698 64.6809 68.6744 64.7098 68.6846 64.7369C68.6948 64.7641 68.7103 64.7889 68.7302 64.81C68.7501 64.8311 68.7741 64.848 68.8006 64.8597C68.8271 64.8713 68.8558 64.8776 68.8848 64.8781C68.914 64.8842 68.9442 64.8843 68.9735 64.8782C69.0027 64.8722 69.0304 64.8602 69.0549 64.843C69.0793 64.8257 69.0999 64.8037 69.1154 64.7781C69.1309 64.7526 69.141 64.7241 69.145 64.6945L69.0968 64.7168ZM67.3621 71.0071C67.3746 70.9605 67.3713 70.9111 67.3526 70.8666C67.334 70.8221 67.3011 70.7851 67.2591 70.7614C67.2085 70.7347 67.1496 70.7284 67.0945 70.7437C67.0393 70.759 66.9922 70.7948 66.9626 70.8437C66.8555 71.0332 66.7353 71.2191 66.6187 71.3919C66.3654 71.1552 66.114 70.9119 65.8756 70.6721C65.8337 70.6302 65.7768 70.6067 65.7175 70.6066C65.6581 70.6065 65.6012 70.6299 65.5591 70.6718C65.5209 70.7144 65.4998 70.7697 65.5001 70.827C65.5004 70.8843 65.5219 70.9394 65.5605 70.9817C65.8167 71.2334 66.0844 71.4951 66.3669 71.7537L66.2424 71.9033C66.2063 71.9497 66.1898 72.0084 66.1965 72.0668C66.2033 72.1251 66.2326 72.1786 66.2783 72.2155C66.3009 72.2332 66.3267 72.2461 66.3542 72.2538C66.3818 72.2614 66.4106 72.2636 66.439 72.2601C66.4674 72.2566 66.4948 72.2475 66.5197 72.2334C66.5446 72.2193 66.5664 72.2004 66.584 72.1778L66.7844 71.9289L66.8313 71.8852C66.8503 71.851 66.8605 71.8127 66.8612 71.7736C67.02 71.5487 67.1691 71.3072 67.3134 71.0574L67.3621 71.0071ZM68.8986 62.0953C68.914 62.0646 68.923 62.0311 68.925 61.9968C68.8292 61.5473 68.6735 61.1127 68.462 60.7046C68.4321 60.6545 68.3838 60.618 68.3274 60.6029C68.271 60.5878 68.211 60.5952 68.16 60.6237C68.1345 60.6379 68.1121 60.657 68.0941 60.68C68.0762 60.703 68.0631 60.7294 68.0555 60.7576C68.048 60.7857 68.0462 60.8151 68.0502 60.844C68.0542 60.8729 68.0641 60.9007 68.0791 60.9257C68.2681 61.3009 68.4099 61.6982 68.501 62.1083C68.5068 62.1363 68.5183 62.1628 68.5346 62.1862C68.551 62.2096 68.572 62.2294 68.5962 62.2445C68.6205 62.2595 68.6476 62.2695 68.6758 62.2738C68.704 62.2781 68.7328 62.2765 68.7605 62.2693C68.8091 62.2625 68.8541 62.2393 68.8879 62.2037C68.9217 62.168 68.9425 62.1219 68.9468 62.073L68.8986 62.0953ZM65.7008 73.0318C65.7099 72.9987 65.7111 72.9639 65.7042 72.9303C65.6973 72.8966 65.6826 72.8651 65.6611 72.8382C65.6239 72.7942 65.5712 72.7662 65.5139 72.76C65.4566 72.7539 65.3991 72.77 65.3534 72.805C65.1119 73.0003 64.8479 73.1658 64.5669 73.298C64.4705 73.3425 64.3724 73.3936 64.2695 73.4364C64.2213 73.4665 64.1864 73.5137 64.1717 73.5685C64.157 73.6234 64.1637 73.6817 64.1903 73.7318C64.2045 73.7573 64.2236 73.7797 64.2466 73.7977C64.2696 73.8156 64.296 73.8288 64.3241 73.8363C64.3523 73.8439 64.3817 73.8457 64.4106 73.8416C64.4395 73.8376 64.4673 73.8278 64.4923 73.8128C64.5952 73.77 64.6934 73.7189 64.7981 73.6695C65.1002 73.515 65.3857 73.3297 65.6499 73.1167C65.693 73.0919 65.7276 73.0545 65.7489 73.0095L65.7008 73.0318ZM65.0193 69.929C65.0292 69.8943 65.0303 69.8577 65.0226 69.8224C65.0148 69.7872 64.9984 69.7544 64.9749 69.7271C64.6723 69.3857 64.3894 69.0495 64.1394 68.7222C64.1012 68.6775 64.0475 68.649 63.9891 68.6425C63.9308 68.636 63.8721 68.652 63.8251 68.6872C63.8025 68.7051 63.7838 68.7273 63.7699 68.7526C63.756 68.7778 63.7472 68.8055 63.7441 68.8341C63.7411 68.8628 63.7437 68.8917 63.7519 68.9193C63.7601 68.9469 63.7737 68.9727 63.7919 68.995C64.0467 69.3306 64.3147 69.6698 64.6435 70.0183C64.6836 70.061 64.7388 70.0863 64.7973 70.0888C64.8558 70.0913 64.9129 70.0709 64.9565 70.0318C64.9839 70.0217 65.0084 70.0051 65.0277 69.9832C65.0471 69.9614 65.0607 69.9351 65.0675 69.9067L65.0193 69.929ZM67.5803 59.8984C67.5928 59.8518 67.5895 59.8024 67.5708 59.7579C67.5522 59.7134 67.5193 59.6764 67.4773 59.6527C67.3356 59.5725 67.1843 59.5106 67.027 59.4687C66.7094 59.3882 66.378 59.3787 66.0563 59.4408C66.028 59.446 66.001 59.4568 65.9769 59.4725C65.9528 59.4882 65.932 59.5086 65.9158 59.5324C65.8996 59.5562 65.8883 59.583 65.8825 59.6112C65.8768 59.6394 65.8767 59.6685 65.8822 59.6967C65.8868 59.7246 65.897 59.7513 65.9121 59.7752C65.9273 59.7991 65.947 59.8198 65.9703 59.8358C65.9936 59.8519 66.0199 59.8632 66.0476 59.8689C66.0753 59.8746 66.1038 59.8747 66.1316 59.8691C66.3909 59.8229 66.657 59.8319 66.9126 59.8954C67.0349 59.9266 67.1523 59.9746 67.2614 60.0381C67.2863 60.0522 67.3137 60.0612 67.342 60.0647C67.3704 60.0682 67.3992 60.0661 67.4267 60.0584C67.4543 60.0507 67.48 60.0377 67.5025 60.0201C67.525 60.0025 67.5438 59.9806 67.5579 59.9558L67.5803 59.8984ZM63.3579 74.2124C63.3699 74.1678 63.3678 74.1206 63.3519 74.0771C63.3423 74.0499 63.3274 74.0248 63.308 74.0033C63.2886 73.9818 63.2651 73.9645 63.2389 73.9522C63.2127 73.9399 63.1843 73.933 63.1554 73.9319C63.1265 73.9307 63.0976 73.9353 63.0705 73.9455C62.664 74.0969 62.2479 74.2317 61.8376 74.3188C61.81 74.3266 61.7843 74.3398 61.7619 74.3576C61.7394 74.3753 61.7207 74.3974 61.7068 74.4224C61.6929 74.4475 61.6841 74.475 61.6808 74.5035C61.6776 74.532 61.68 74.5608 61.688 74.5883C61.6958 74.6159 61.709 74.6416 61.7268 74.664C61.7446 74.6865 61.7666 74.7052 61.7917 74.7191C61.8167 74.733 61.8442 74.7418 61.8727 74.7451C61.9012 74.7483 61.93 74.7458 61.9575 74.7379C62.3814 74.6263 62.8059 74.4867 63.2272 74.3323C63.2675 74.3283 63.3059 74.3127 63.3376 74.2875C63.3693 74.2623 63.393 74.2285 63.406 74.1902L63.3579 74.2124ZM63.4106 67.8443C63.4184 67.8144 63.4198 67.7831 63.4147 67.7526C63.4095 67.7221 63.3979 67.6931 63.3806 67.6674C63.1482 67.3058 62.9387 66.9301 62.7532 66.5423C62.7233 66.4922 62.675 66.4557 62.6186 66.4406C62.5622 66.4255 62.5022 66.433 62.4512 66.4614C62.4018 66.4903 62.3657 66.5375 62.3509 66.5929C62.3361 66.6482 62.3437 66.7071 62.372 66.7568C62.5672 67.1613 62.7863 67.5536 63.0282 67.9319C63.0424 67.9574 63.0616 67.9798 63.0846 67.9977C63.1075 68.0157 63.1339 68.0288 63.1621 68.0364C63.1903 68.0439 63.2197 68.0457 63.2486 68.0417C63.2775 68.0376 63.3052 68.0278 63.3302 68.0128C63.3673 67.9962 63.3991 67.9695 63.4218 67.9358C63.4445 67.9021 63.4573 67.8627 63.4588 67.8221L63.4106 67.8443ZM65.0778 60.1778C65.0915 60.125 65.0866 60.069 65.064 60.0193C65.0329 59.9704 64.9847 59.935 64.9287 59.92C64.8728 59.905 64.8133 59.9116 64.762 59.9384C64.3571 60.1408 63.9694 60.3758 63.6026 60.641C63.5796 60.6579 63.5601 60.6792 63.5453 60.7037C63.5306 60.7282 63.5207 60.7553 63.5164 60.7835C63.5121 60.8118 63.5134 60.8406 63.5203 60.8684C63.5271 60.8961 63.5394 60.9222 63.5563 60.9453C63.5915 60.9924 63.6437 61.0239 63.7019 61.0329C63.76 61.0419 63.8193 61.0277 63.8671 60.9934C64.2112 60.7432 64.5762 60.5231 64.9581 60.3357C64.9998 60.3239 65.0376 60.3008 65.0672 60.2691C65.0968 60.2373 65.1171 60.198 65.126 60.1555L65.0778 60.1778ZM60.822 74.9051C60.8363 74.8765 60.8447 74.8452 60.8466 74.8132C60.8414 74.7849 60.8307 74.7579 60.8149 74.7338C60.7992 74.7096 60.7789 74.6889 60.7551 74.6727C60.7313 74.6565 60.7045 74.6452 60.6763 74.6394C60.6481 74.6336 60.619 74.6335 60.5907 74.6391C60.1624 74.7143 59.7329 74.7681 59.3002 74.807C59.2429 74.8122 59.19 74.84 59.1531 74.8842C59.1162 74.9283 59.0983 74.9854 59.1034 75.0427C59.1052 75.0715 59.1127 75.0997 59.1254 75.1256C59.1382 75.1514 59.156 75.1745 59.1778 75.1935C59.1995 75.2124 59.2249 75.2268 59.2523 75.2358C59.2797 75.2449 59.3086 75.2484 59.3374 75.2462C59.7849 75.2042 60.2293 75.1474 60.666 75.0674C60.7165 75.0662 60.7649 75.0469 60.8024 75.0131C60.8399 74.9792 60.8639 74.933 60.8702 74.8828L60.822 74.9051ZM62.3066 65.4516C62.3149 65.4139 62.3133 65.3747 62.3019 65.3378C62.1894 64.9352 62.1304 64.5196 62.1265 64.1016C62.1268 64.073 62.1215 64.0446 62.1108 64.0181C62.1001 63.9916 62.0843 63.9675 62.0643 63.9471C62.0442 63.9267 62.0204 63.9105 61.9941 63.8993C61.9678 63.8881 61.9395 63.8822 61.9109 63.882C61.8821 63.8807 61.8534 63.8855 61.8264 63.8958C61.7995 63.9061 61.775 63.9219 61.7544 63.9421C61.7338 63.9623 61.7176 63.9866 61.7067 64.0133C61.6959 64.04 61.6906 64.0687 61.6913 64.0976C61.6937 64.5565 61.7558 65.0131 61.8762 65.4559C61.8931 65.5123 61.9316 65.5599 61.9832 65.5882C62.0349 65.6165 62.0956 65.6234 62.1523 65.6073C62.1984 65.6037 62.2423 65.5859 62.2779 65.5564C62.3135 65.5269 62.3392 65.4871 62.3513 65.4425L62.3066 65.4516ZM62.9923 61.737C63.0027 61.6957 63.0015 61.6524 62.9888 61.6117C62.9761 61.5711 62.9524 61.5347 62.9203 61.5067C62.8758 61.4709 62.8189 61.4541 62.762 61.4599C62.7051 61.4657 62.6528 61.4937 62.6165 61.5378C62.3143 61.9008 62.0775 62.3136 61.9167 62.7577C61.9066 62.7845 61.9019 62.8131 61.9029 62.8419C61.9039 62.8706 61.9106 62.8988 61.9226 62.9249C61.9345 62.951 61.9516 62.9745 61.9727 62.994C61.9938 63.0135 62.0185 63.0286 62.0455 63.0384C62.0723 63.0495 62.1011 63.055 62.1301 63.0544C62.1591 63.0539 62.1876 63.0474 62.214 63.0353C62.2404 63.0232 62.2639 63.0058 62.2833 62.9842C62.3026 62.9625 62.3172 62.9372 62.3263 62.9096C62.4733 62.5211 62.682 62.1588 62.9445 61.8368C62.9871 61.8124 63.0198 61.7739 63.037 61.7279L62.9923 61.737ZM58.2053 75.1117L58.2194 75.0592C58.2186 75.0006 58.195 74.9446 58.1534 74.9032C58.1119 74.8618 58.0559 74.8384 57.9972 74.8378C57.5686 74.8355 57.1321 74.8101 56.7075 74.7667C56.6787 74.7632 56.6495 74.7656 56.6216 74.7736C56.5937 74.7816 56.5677 74.7951 56.5451 74.8133C56.5226 74.8315 56.5039 74.8541 56.4901 74.8796C56.4764 74.9052 56.4679 74.9332 56.4651 74.9621C56.46 75.0199 56.4775 75.0775 56.514 75.1227C56.5504 75.1679 56.603 75.1972 56.6606 75.2044C57.0983 75.2514 57.5497 75.2738 57.9915 75.2796C58.0491 75.2896 58.1084 75.2768 58.1568 75.2437C58.2051 75.2106 58.2385 75.16 58.25 75.1026L58.2053 75.1117ZM55.5835 74.8384C55.5902 74.81 55.5912 74.7806 55.5863 74.7518C55.5814 74.723 55.5708 74.6956 55.555 74.671C55.5393 74.6464 55.5187 74.6253 55.4947 74.6088C55.4706 74.5923 55.4434 74.5809 55.4148 74.5751C55.1456 74.503 54.883 74.4326 54.6139 74.3605C54.4629 74.32 54.3119 74.2796 54.1609 74.2391C54.1335 74.2308 54.1048 74.228 54.0763 74.2309C54.0479 74.2337 54.0203 74.2421 53.9951 74.2556C53.9699 74.2691 53.9477 74.2875 53.9296 74.3096C53.9115 74.3317 53.8979 74.3572 53.8897 74.3846C53.8804 74.4122 53.8767 74.4415 53.8789 74.4705C53.8812 74.4996 53.8892 74.528 53.9026 74.5539C53.916 74.5798 53.9345 74.6028 53.957 74.6214C53.9795 74.64 54.0054 74.6539 54.0334 74.6623C54.1909 74.7045 54.342 74.745 54.4995 74.7872C54.7753 74.8611 55.051 74.935 55.3267 75.0089C55.3582 75.0222 55.3924 75.028 55.4265 75.0256C55.4606 75.0233 55.4936 75.013 55.523 74.9955C55.5523 74.978 55.5772 74.9538 55.5954 74.925C55.6137 74.8961 55.6249 74.8633 55.6282 74.8293L55.5835 74.8384ZM53.0656 74.0723C53.0798 74.0209 53.0747 73.9662 53.0512 73.9184C53.0276 73.8706 52.9874 73.833 52.9381 73.8129C52.5451 73.6513 52.1508 73.4683 51.7619 73.2656C51.7362 73.2525 51.7083 73.2447 51.6796 73.2426C51.6509 73.2404 51.6221 73.2439 51.5948 73.253C51.5675 73.262 51.5423 73.2764 51.5206 73.2953C51.4989 73.3141 51.4812 73.3371 51.4684 73.3628C51.4421 73.4136 51.437 73.4727 51.4539 73.5273C51.4709 73.5819 51.5087 73.6276 51.5591 73.6545C51.9612 73.8608 52.3669 74.0539 52.773 74.219C52.7996 74.2301 52.8282 74.2358 52.857 74.2357C52.8859 74.2356 52.9144 74.2298 52.941 74.2186C52.9676 74.2074 52.9917 74.191 53.0119 74.1704C53.032 74.1498 53.0479 74.1254 53.0586 74.0985L53.0656 74.0723ZM50.7299 72.8624C50.7493 72.8259 50.7575 72.7845 50.7535 72.7434C50.7495 72.7023 50.7335 72.6633 50.7075 72.6312C50.347 72.4009 49.9852 72.1492 49.6401 71.8878C49.6175 71.8702 49.5917 71.8572 49.5642 71.8495C49.5366 71.8419 49.5078 71.8398 49.4794 71.8433C49.451 71.8468 49.4236 71.8558 49.3987 71.87C49.3738 71.8841 49.352 71.903 49.3344 71.9255C49.3002 71.9734 49.2855 72.0326 49.2934 72.0909C49.3013 72.1493 49.3312 72.2024 49.3769 72.2395C49.7269 72.5092 50.1018 72.7644 50.4671 73.0031C50.5175 73.0341 50.5783 73.044 50.636 73.0304C50.6936 73.0169 50.7436 72.981 50.775 72.9308L50.7299 72.8624ZM48.6399 71.261C48.6505 71.2231 48.6503 71.183 48.6393 71.1452C48.6283 71.1074 48.6069 71.0735 48.5776 71.0472C48.2544 70.7566 47.9496 70.4497 47.6549 70.1315C47.6138 70.0892 47.5578 70.0648 47.4989 70.0635C47.44 70.0622 47.383 70.0841 47.3401 70.1246C47.3186 70.1439 47.3013 70.1675 47.2893 70.1938C47.2774 70.2201 47.2709 70.2486 47.2704 70.2775C47.27 70.3065 47.2754 70.3352 47.2865 70.3619C47.2976 70.3886 47.3141 70.4127 47.3349 70.4328C47.6344 70.7593 47.9523 71.0697 48.2751 71.3884C48.3189 71.4274 48.3762 71.4478 48.4348 71.4451C48.4934 71.4424 48.5486 71.4168 48.5886 71.3739L48.6399 71.261ZM46.8472 69.3381C46.8545 69.3058 46.8546 69.2723 46.8474 69.2399C46.8403 69.2076 46.8261 69.1773 46.8058 69.1511C46.5378 68.8119 46.2882 68.4565 46.047 68.0963C46.0171 68.0462 45.9688 68.0097 45.9124 67.9946C45.856 67.9795 45.796 67.9869 45.745 68.0154C45.7195 68.0296 45.6971 68.0487 45.6791 68.0717C45.6612 68.0947 45.6481 68.1211 45.6405 68.1492C45.633 68.1774 45.6311 68.2068 45.6352 68.2357C45.6392 68.2646 45.6491 68.2924 45.6641 68.3174C45.9101 68.6859 46.1728 69.0448 46.4456 69.3923C46.4818 69.439 46.5349 69.4695 46.5934 69.4773C46.6519 69.4851 46.7111 69.4694 46.7582 69.4338C46.8138 69.416 46.8612 69.3788 46.8918 69.3289L46.8472 69.3381ZM45.3936 67.1472C45.4009 67.1205 45.4028 67.0925 45.3993 67.065C45.3958 67.0375 45.3869 67.011 45.3732 66.9869C45.1652 66.6075 44.9674 66.2167 44.791 65.8247C44.7795 65.7985 44.763 65.7748 44.7424 65.755C44.7218 65.7352 44.6975 65.7197 44.6708 65.7093C44.6442 65.6989 44.6158 65.6938 44.5872 65.6944C44.5587 65.695 44.5305 65.7012 44.5043 65.7127C44.4781 65.7242 44.4545 65.7407 44.4347 65.7613C44.4149 65.7819 44.3993 65.8062 44.3889 65.8328C44.3785 65.8594 44.3735 65.8878 44.374 65.9164C44.3746 65.945 44.3808 65.9732 44.3923 65.9994C44.5718 66.4063 44.7744 66.8054 44.9854 67.1997C45.0154 67.2498 45.0636 67.2863 45.12 67.3014C45.1764 67.3165 45.2365 67.3091 45.2875 67.2806C45.3213 67.2689 45.3522 67.2502 45.3782 67.2256C45.4042 67.201 45.4247 67.1712 45.4382 67.1381L45.3936 67.1472ZM44.3194 64.7484C44.3288 64.7065 44.3284 64.6631 44.3182 64.6214C44.1751 64.2101 44.0469 63.7958 43.9467 63.3819C43.9403 63.3536 43.9282 63.3268 43.9113 63.3032C43.8944 63.2795 43.8729 63.2595 43.8481 63.2444C43.8233 63.2292 43.7957 63.2192 43.7669 63.2148C43.7382 63.2105 43.7088 63.212 43.6807 63.2192C43.6243 63.2337 43.5759 63.2696 43.5455 63.3193C43.5152 63.3689 43.5053 63.4284 43.5179 63.4852C43.6277 63.9157 43.7524 64.3432 43.8807 64.7575C43.8896 64.7852 43.904 64.8108 43.923 64.8328C43.942 64.8548 43.9652 64.8728 43.9913 64.8857C44.0173 64.8986 44.0457 64.9061 44.0748 64.9078C44.1038 64.9096 44.1329 64.9055 44.1603 64.8957C44.2094 64.8978 44.2578 64.8831 44.2975 64.8541C44.3372 64.8252 44.3659 64.7836 44.3789 64.7362L44.3194 64.7484ZM43.688 62.1938L43.7091 62.115C43.642 61.6861 43.5981 61.2539 43.5776 60.8202C43.5723 60.7627 43.545 60.7094 43.5014 60.6715C43.4578 60.6336 43.4013 60.614 43.3436 60.6168C43.2852 60.6205 43.2306 60.6468 43.1914 60.6902C43.1522 60.7336 43.1314 60.7906 43.1336 60.849C43.1642 61.2864 43.2061 61.7339 43.2713 62.1736C43.2804 62.2317 43.312 62.2838 43.3592 62.3188C43.4064 62.3538 43.4654 62.3689 43.5237 62.3609C43.5746 62.3599 43.6237 62.3411 43.6622 62.3077C43.7008 62.2743 43.7263 62.2284 43.7345 62.1781L43.688 62.1938Z" fill="#B5B7BA"/>
</svg>
