<svg width="170" height="159" viewBox="0 0 170 159" fill="none" xmlns="http://www.w3.org/2000/svg">
<path d="M82.9129 58.6402L82.5764 56.3605L90.4582 49.7217L89.838 47.2261C89.2626 45.2007 89.6444 43.4861 90.3254 42.7989L90.2904 42.6109C90.0776 41.2029 90.7702 40.5887 91.4321 40.4943C92.0941 40.3999 92.9101 40.7739 93.1374 42.1858L93.1653 42.3719C93.8489 42.7181 94.8893 43.7035 94.9174 46.4674L95.0434 49.0402L104.5 53.1271L104.844 55.4088L95.2981 54.5514L95.733 60.9262L97.8362 62.437L98.0026 64.2209L95.7982 63.7544L95.6937 64.3476L94.3421 64.5523L94.0312 64.003L92.0259 65.1118L91.6661 63.3538L93.2397 61.3063L91.8036 55.0748L82.9129 58.6402ZM93.7841 61.3901L92.1994 63.4501L92.382 64.2755L94.2074 63.2583L94.6018 63.9308L95.2401 63.8378L95.3691 63.0959L97.4266 63.5308L97.3484 62.6635L95.238 61.1507L94.7553 53.9401L104.239 54.7964L104.039 53.4304L94.5357 49.37L94.3971 46.4678C94.3767 43.7913 93.393 42.9997 92.8111 42.7661L92.659 42.7254L92.6471 42.5669C92.6456 42.4678 92.6357 42.3691 92.6175 42.2717C92.492 41.4072 92.0563 40.9178 91.489 41.0065C90.9217 41.0952 90.6408 41.6799 90.7736 42.5463C90.7855 42.643 90.8039 42.7387 90.8288 42.8329L90.8716 42.9919L90.7425 43.097C90.2096 43.521 89.7237 45.0447 90.3039 47.1103L91.0136 49.9093L83.1042 56.564L83.305 57.93L92.1378 54.3491L93.7841 61.3901Z" fill="#999999"/>
<path d="M3.32472 112.46C3.31363 112.499 3.31298 112.541 3.32286 112.58C3.33272 112.619 3.35276 112.656 3.38096 112.685C3.70711 113.052 4.04085 113.4 4.38218 113.73C4.42642 113.777 4.48732 113.805 4.55186 113.807C4.6164 113.81 4.67947 113.788 4.72761 113.745C4.77424 113.699 4.8012 113.637 4.80263 113.572C4.80406 113.507 4.77986 113.444 4.73527 113.397C4.40282 113.044 4.07762 112.693 3.7413 112.354C3.72045 112.33 3.69493 112.31 3.66623 112.296C3.63753 112.281 3.60625 112.273 3.57423 112.271C3.54221 112.269 3.51009 112.273 3.47979 112.284C3.44949 112.294 3.42161 112.311 3.39781 112.332C3.36344 112.368 3.33835 112.412 3.32472 112.46ZM5.34163 114.554C5.33103 114.595 5.33112 114.638 5.3419 114.679C5.35268 114.719 5.37379 114.757 5.4032 114.787C5.75402 115.13 6.10483 115.472 6.44788 115.844C6.49413 115.888 6.5555 115.912 6.61921 115.912C6.68292 115.911 6.74408 115.887 6.78993 115.842C6.83337 115.795 6.85674 115.733 6.85511 115.669C6.85347 115.604 6.82697 115.543 6.78118 115.498C6.42841 115.163 6.08483 114.823 5.74126 114.482C5.69597 114.435 5.63415 114.408 5.56915 114.407C5.50416 114.406 5.44121 114.43 5.39391 114.474C5.36326 114.507 5.34185 114.546 5.33193 114.59L5.34163 114.554ZM7.45819 116.565C7.44703 116.609 7.44803 116.655 7.46109 116.698C7.47415 116.741 7.49877 116.78 7.53229 116.81C7.89424 117.14 8.26536 117.464 8.63119 117.78C8.65512 117.801 8.68296 117.817 8.7131 117.827C8.74324 117.837 8.77508 117.841 8.80677 117.838C8.83845 117.836 8.86937 117.827 8.8977 117.813C8.92603 117.799 8.95122 117.779 8.97181 117.755C8.99272 117.731 9.00867 117.703 9.01872 117.673C9.02878 117.643 9.03274 117.611 9.0304 117.579C9.02806 117.547 9.01944 117.517 9.00506 117.488C8.99068 117.46 8.97082 117.435 8.94662 117.414C8.5808 117.099 8.21691 116.776 7.85496 116.446C7.83103 116.425 7.8032 116.409 7.77306 116.399C7.74292 116.389 7.71108 116.385 7.6794 116.387C7.6477 116.39 7.61679 116.398 7.58846 116.413C7.56013 116.427 7.53494 116.447 7.51435 116.471C7.49456 116.487 7.47841 116.506 7.46704 116.529C7.45566 116.551 7.44933 116.576 7.44848 116.601L7.45819 116.565ZM9.68018 118.472C9.6687 118.518 9.67005 118.566 9.68406 118.611C9.69807 118.656 9.72422 118.696 9.75959 118.727L10.9049 119.639C10.9571 119.679 11.0229 119.696 11.0879 119.687C11.1528 119.679 11.2116 119.644 11.2514 119.592C11.2886 119.54 11.3043 119.476 11.2952 119.413C11.286 119.35 11.2529 119.292 11.2025 119.253C10.8236 118.957 10.4467 118.655 10.0625 118.35C10.0385 118.329 10.0107 118.314 9.98058 118.304C9.95049 118.295 9.91879 118.292 9.88742 118.295C9.85605 118.298 9.82567 118.308 9.79811 118.323C9.77056 118.338 9.74642 118.359 9.72714 118.384C9.69618 118.419 9.67644 118.462 9.67047 118.509L9.68018 118.472ZM11.9878 120.263C11.9759 120.31 11.9777 120.359 11.9931 120.404C12.0085 120.45 12.0367 120.49 12.0745 120.519C12.477 120.814 12.8743 121.099 13.2716 121.384C13.2978 121.402 13.3274 121.414 13.3586 121.421C13.3898 121.427 13.4219 121.427 13.4532 121.421C13.4844 121.415 13.5142 121.403 13.5406 121.385C13.5671 121.368 13.5898 121.345 13.6074 121.318C13.642 121.266 13.6553 121.202 13.6445 121.14C13.6337 121.078 13.5997 121.022 13.5494 120.984C13.1502 120.707 12.7601 120.424 12.3648 120.131C12.3129 120.094 12.2486 120.078 12.1854 120.088C12.1222 120.097 12.0649 120.13 12.0256 120.18L11.9878 120.263ZM14.3792 121.944C14.3668 121.993 14.3699 122.044 14.3881 122.091C14.4062 122.137 14.4385 122.177 14.4803 122.205C14.8868 122.484 15.2971 122.749 15.7094 123.007C15.764 123.042 15.8299 123.053 15.893 123.04C15.9561 123.026 16.0114 122.989 16.0472 122.935C16.0815 122.88 16.0931 122.814 16.0796 122.751C16.066 122.688 16.0284 122.633 15.9746 122.597C15.5623 122.339 15.1592 122.076 14.7508 121.803C14.6962 121.769 14.6303 121.757 14.5672 121.771C14.5041 121.784 14.4488 121.822 14.4131 121.876L14.3792 121.944ZM16.8489 123.507C16.8364 123.558 16.8407 123.612 16.8611 123.661C16.8816 123.71 16.9172 123.751 16.9626 123.778C17.3841 124.031 17.8055 124.283 18.2236 124.52C18.2799 124.552 18.3465 124.56 18.409 124.543C18.4715 124.527 18.525 124.486 18.5581 124.431C18.5736 124.403 18.5835 124.373 18.5874 124.342C18.5912 124.31 18.5889 124.279 18.5804 124.248C18.572 124.218 18.5576 124.189 18.5382 124.165C18.5188 124.14 18.4946 124.119 18.4671 124.104C18.051 123.86 17.6276 123.615 17.2134 123.364C17.1863 123.347 17.1561 123.336 17.1246 123.331C17.0931 123.326 17.0609 123.327 17.03 123.335C16.999 123.343 16.9699 123.356 16.9443 123.375C16.9187 123.394 16.8972 123.418 16.8809 123.446L16.8489 123.507ZM19.386 124.963C19.3736 125.016 19.3788 125.071 19.4006 125.12C19.4224 125.169 19.4598 125.21 19.5069 125.236C19.9414 125.469 20.376 125.702 20.8071 125.919C20.8347 125.934 20.865 125.944 20.8964 125.947C20.9277 125.95 20.9594 125.947 20.9896 125.938C21.0197 125.928 21.0475 125.913 21.0715 125.892C21.0955 125.872 21.1151 125.847 21.129 125.818C21.1446 125.79 21.1544 125.76 21.1578 125.728C21.1613 125.696 21.1584 125.664 21.1492 125.633C21.1401 125.603 21.1249 125.574 21.1046 125.549C21.0842 125.525 21.0592 125.504 21.0308 125.489C20.5997 125.273 20.1724 125.042 19.7379 124.809C19.681 124.78 19.6149 124.773 19.5535 124.792C19.4921 124.81 19.4403 124.851 19.4088 124.907L19.386 124.963ZM21.9942 126.299C21.9786 126.353 21.9827 126.411 22.0058 126.463C22.0289 126.515 22.0695 126.556 22.1204 126.581C22.5608 126.792 23.0011 127.003 23.4434 127.207C23.5011 127.234 23.5671 127.237 23.6268 127.215C23.6865 127.193 23.7351 127.148 23.7619 127.091C23.7764 127.062 23.7849 127.03 23.7869 126.998C23.7889 126.966 23.7845 126.934 23.7738 126.904C23.7631 126.873 23.7464 126.845 23.7246 126.821C23.7029 126.798 23.6766 126.778 23.6473 126.765C23.2123 126.563 22.77 126.359 22.3316 126.141C22.3028 126.126 22.2714 126.118 22.2392 126.116C22.207 126.114 22.1748 126.118 22.1444 126.129C22.114 126.139 22.086 126.156 22.0622 126.178C22.0384 126.2 22.0192 126.226 22.0058 126.255L21.9942 126.299ZM24.6479 127.522C24.6306 127.578 24.6347 127.638 24.6594 127.69C24.6841 127.743 24.7277 127.784 24.7814 127.806C25.2329 128.005 25.6863 128.196 26.1344 128.379C26.1638 128.391 26.1954 128.397 26.2272 128.397C26.259 128.397 26.2905 128.391 26.3198 128.378C26.3492 128.366 26.3757 128.348 26.398 128.325C26.4203 128.302 26.4378 128.275 26.4496 128.246C26.4629 128.216 26.47 128.185 26.4705 128.153C26.4709 128.12 26.4647 128.089 26.4522 128.059C26.4397 128.029 26.4212 128.003 26.3979 127.981C26.3745 127.958 26.3469 127.941 26.3166 127.931C25.8782 127.751 25.432 127.562 24.9781 127.362C24.9191 127.337 24.8527 127.336 24.7929 127.359C24.7331 127.383 24.6846 127.428 24.6576 127.486L24.6479 127.522ZM27.3564 128.628C27.3388 128.686 27.3444 128.749 27.372 128.803C27.3996 128.856 27.4471 128.897 27.5044 128.917C27.9617 129.093 28.419 129.27 28.8729 129.431C28.9341 129.452 29.001 129.447 29.0592 129.42C29.1175 129.392 29.1625 129.342 29.1847 129.281C29.1969 129.252 29.2028 129.221 29.2021 129.189C29.2013 129.158 29.1939 129.126 29.1803 129.098C29.1667 129.069 29.1472 129.044 29.1231 129.023C29.0991 129.003 29.071 128.988 29.0406 128.979C28.5886 128.811 28.1294 128.641 27.6721 128.465C27.6424 128.453 27.6108 128.448 27.5792 128.449C27.5475 128.45 27.5164 128.458 27.4875 128.471C27.4587 128.484 27.4328 128.503 27.4113 128.526C27.3898 128.55 27.3731 128.577 27.3622 128.607L27.3564 128.628ZM30.1032 129.621C30.0873 129.68 30.0944 129.743 30.1233 129.796C30.1521 129.85 30.2005 129.891 30.2584 129.911C30.7438 130.041 31.1992 130.225 31.6879 130.371C31.7184 130.382 31.7507 130.386 31.7828 130.383C31.8149 130.381 31.8462 130.372 31.8748 130.357C31.9034 130.342 31.9287 130.322 31.9492 130.297C31.9698 130.272 31.9851 130.244 31.9944 130.213C32.0079 130.151 31.9994 130.087 31.9704 130.031C31.9415 129.975 31.8938 129.931 31.8358 129.906C31.3722 129.782 30.9013 129.656 30.4478 129.465C30.3867 129.444 30.3198 129.448 30.2615 129.476C30.2033 129.504 30.1583 129.553 30.1361 129.614L30.1032 129.621ZM32.8994 130.486C32.8829 130.548 32.8916 130.613 32.9234 130.669C32.9552 130.724 33.0076 130.764 33.0691 130.78C33.4024 130.87 33.7284 130.957 34.0544 131.044L34.4818 131.159C34.5433 131.175 34.6088 131.167 34.6639 131.135C34.719 131.103 34.7592 131.051 34.7757 130.989C34.7922 130.928 34.7836 130.862 34.7517 130.807C34.7199 130.752 34.6675 130.712 34.606 130.695L34.1786 130.581C33.8526 130.493 33.5266 130.406 33.2006 130.319C33.1698 130.309 33.1375 130.306 33.1055 130.31C33.0735 130.313 33.0426 130.323 33.0145 130.339C32.9864 130.354 32.9617 130.376 32.942 130.401C32.9222 130.426 32.9077 130.455 32.8994 130.486ZM35.7247 131.243C35.7164 131.275 35.7144 131.307 35.7188 131.339C35.7233 131.371 35.7341 131.401 35.7506 131.429C35.7671 131.456 35.7889 131.48 35.8149 131.499C35.8409 131.518 35.8704 131.532 35.9017 131.539C36.3871 131.669 36.8696 131.752 37.3681 131.862C37.4317 131.873 37.4972 131.859 37.5505 131.823C37.6038 131.786 37.6407 131.73 37.6533 131.667C37.6596 131.636 37.6598 131.604 37.6537 131.573C37.6477 131.542 37.6356 131.513 37.6181 131.486C37.6007 131.46 37.5782 131.437 37.5519 131.42C37.5257 131.402 37.4962 131.39 37.4653 131.384C37.0089 131.261 36.5244 131.186 36.0424 131.072C36.0091 131.06 35.9735 131.055 35.9381 131.058C35.9028 131.061 35.8684 131.071 35.8377 131.089C35.8069 131.107 35.7805 131.131 35.7603 131.16C35.7401 131.19 35.7266 131.223 35.7209 131.258L35.7247 131.243ZM38.5875 131.832C38.582 131.863 38.5828 131.895 38.5898 131.926C38.5968 131.957 38.6098 131.986 38.6282 132.012C38.6465 132.038 38.6698 132.06 38.6967 132.077C38.7235 132.093 38.7535 132.105 38.7847 132.11C39.2794 132.196 39.7759 132.275 40.2744 132.346C40.306 132.352 40.3385 132.351 40.3698 132.343C40.401 132.336 40.4304 132.322 40.456 132.303C40.4817 132.283 40.503 132.259 40.5187 132.231C40.5343 132.203 40.544 132.172 40.5471 132.14C40.5544 132.076 40.537 132.013 40.4986 131.962C40.4601 131.911 40.4036 131.877 40.3407 131.867C39.8832 131.806 39.3988 131.731 38.9017 131.644C38.8668 131.632 38.8296 131.628 38.7928 131.632C38.756 131.636 38.7207 131.649 38.6897 131.67C38.6587 131.69 38.6328 131.717 38.6141 131.749C38.5953 131.781 38.5842 131.817 38.5817 131.854L38.5875 131.832ZM41.4843 132.235C41.4787 132.299 41.4984 132.362 41.5392 132.411C41.58 132.459 41.6385 132.49 41.7018 132.496L41.996 132.528C42.383 132.562 42.7573 132.584 43.1679 132.617C43.1996 132.619 43.2314 132.614 43.2614 132.604C43.2913 132.594 43.319 132.578 43.3427 132.556C43.3664 132.535 43.3857 132.51 43.3994 132.481C43.4132 132.453 43.4211 132.422 43.4228 132.39C43.4259 132.358 43.4224 132.326 43.4124 132.295C43.4025 132.265 43.3864 132.237 43.3651 132.213C43.3438 132.189 43.3178 132.17 43.2887 132.156C43.2596 132.143 43.2281 132.136 43.1961 132.135C42.8072 132.109 42.4347 132.079 42.0406 132.043L41.7517 132.02C41.7183 132.014 41.684 132.016 41.6513 132.025C41.6186 132.034 41.5883 132.05 41.5625 132.072C41.5366 132.094 41.5159 132.121 41.5017 132.152C41.4875 132.183 41.4802 132.216 41.4804 132.25L41.4843 132.235ZM44.4011 132.419L44.3875 132.47C44.3855 132.501 44.3898 132.533 44.4003 132.563C44.4109 132.592 44.4273 132.62 44.4487 132.643C44.4701 132.666 44.496 132.684 44.5248 132.697C44.5536 132.71 44.5847 132.717 44.6162 132.717C45.109 132.733 45.5945 132.747 46.0911 132.748C46.123 132.747 46.1545 132.741 46.1837 132.728C46.213 132.715 46.2394 132.697 46.2615 132.674C46.2835 132.651 46.3008 132.624 46.3122 132.594C46.3237 132.564 46.3291 132.532 46.3282 132.501C46.3285 132.469 46.3226 132.438 46.3108 132.409C46.299 132.379 46.2815 132.353 46.2594 132.33C46.2374 132.308 46.211 132.29 46.182 132.277C46.153 132.265 46.1218 132.259 46.0903 132.258C45.6009 132.259 45.1207 132.255 44.6371 132.234C44.5802 132.235 44.5254 132.255 44.4817 132.291C44.438 132.328 44.4082 132.378 44.3972 132.434L44.4011 132.419ZM47.3191 132.425L47.3017 132.49C47.302 132.522 47.3088 132.553 47.3214 132.582C47.3341 132.612 47.3525 132.638 47.3755 132.66C47.3985 132.682 47.4257 132.699 47.4554 132.711C47.4851 132.722 47.5169 132.728 47.5487 132.727C48.042 132.711 48.53 132.687 49.0199 132.655C49.0517 132.653 49.0828 132.645 49.1113 132.631C49.1399 132.617 49.1653 132.597 49.1862 132.573C49.2071 132.549 49.223 132.521 49.233 132.491C49.243 132.461 49.2469 132.429 49.2444 132.397C49.2424 132.365 49.2342 132.334 49.2201 132.305C49.206 132.277 49.1863 132.251 49.1623 132.231C49.1383 132.21 49.1103 132.194 49.0801 132.184C49.0499 132.174 49.0179 132.17 48.9862 132.172C48.5035 132.206 48.0175 132.223 47.5314 132.241C47.4799 132.245 47.4312 132.266 47.3926 132.301C47.354 132.335 47.3275 132.381 47.3172 132.432L47.3191 132.425ZM50.2422 132.237C50.2285 132.262 50.2211 132.289 50.2209 132.317C50.2266 132.38 50.2573 132.439 50.306 132.479C50.3548 132.52 50.4177 132.54 50.481 132.534C50.9676 132.486 51.4561 132.43 51.9412 132.359C51.9729 132.355 52.0036 132.345 52.0315 132.33C52.0594 132.314 52.084 132.293 52.1037 132.268C52.1234 132.243 52.138 132.215 52.1465 132.184C52.155 132.153 52.1572 132.121 52.1531 132.089C52.1488 132.058 52.1383 132.028 52.1223 132.001C52.1063 131.973 52.0852 131.95 52.06 131.931C52.0348 131.912 52.0061 131.898 51.9755 131.89C51.9449 131.882 51.9131 131.88 51.8819 131.885C51.3987 131.949 50.9174 132.007 50.4328 132.048C50.3848 132.058 50.3409 132.082 50.3066 132.117C50.2723 132.152 50.2493 132.196 50.2403 132.244L50.2422 132.237ZM53.0921 131.859C53.0763 131.891 53.0671 131.926 53.0649 131.961C53.0767 132.024 53.1125 132.08 53.1648 132.117C53.2172 132.154 53.2819 132.17 53.3454 132.16C53.8271 132.072 54.3089 131.984 54.7946 131.881C54.8558 131.866 54.909 131.828 54.9434 131.775C54.9777 131.722 54.9906 131.659 54.9795 131.596C54.9666 131.532 54.9289 131.476 54.8746 131.44C54.8204 131.403 54.7539 131.39 54.6898 131.402C54.2187 131.509 53.7441 131.599 53.2643 131.68C53.2216 131.691 53.1828 131.713 53.1523 131.745C53.1218 131.777 53.1009 131.816 53.0921 131.859ZM55.9548 131.26C55.9354 131.293 55.9253 131.33 55.9257 131.369C55.9328 131.4 55.946 131.429 55.9647 131.456C55.9834 131.482 56.0072 131.504 56.0345 131.52C56.0619 131.537 56.0923 131.548 56.1241 131.553C56.1558 131.558 56.1881 131.556 56.2192 131.548C56.6943 131.427 57.1712 131.299 57.6376 131.152C57.6686 131.144 57.6977 131.13 57.723 131.111C57.7483 131.091 57.7694 131.067 57.7849 131.039C57.8004 131.011 57.8099 130.98 57.813 130.949C57.8161 130.917 57.8126 130.885 57.8027 130.854C57.7941 130.824 57.7796 130.796 57.7599 130.771C57.7403 130.746 57.716 130.725 57.6883 130.71C57.6607 130.695 57.6303 130.685 57.5989 130.681C57.5675 130.678 57.5357 130.681 57.5053 130.689C57.0409 130.829 56.5731 130.952 56.0942 131.088C56.0677 131.106 56.0454 131.13 56.0286 131.158C56.0119 131.185 56.001 131.216 55.9968 131.248L55.9548 131.26ZM58.7554 130.457C58.7311 130.496 58.719 130.542 58.7205 130.588C58.7303 130.618 58.7462 130.647 58.7672 130.671C58.7881 130.695 58.8138 130.715 58.8425 130.729C58.8713 130.744 58.9026 130.752 58.9347 130.754C58.9667 130.756 58.9988 130.751 59.029 130.74C59.492 130.577 59.9551 130.414 60.4147 130.234C60.4735 130.21 60.5206 130.164 60.5463 130.106C60.572 130.048 60.5743 129.982 60.5528 129.922C60.5284 129.863 60.4824 129.816 60.4242 129.79C60.366 129.765 60.3002 129.762 60.2404 129.784C59.7899 129.958 59.3341 130.123 58.873 130.279C58.8339 130.318 58.8093 130.369 58.8033 130.424L58.7554 130.457ZM68.8975 99.0109L68.8179 99.3079C68.8116 99.3389 68.8114 99.3708 68.8175 99.4018C68.8235 99.4328 68.8356 99.4623 68.8531 99.4886C68.8706 99.515 68.8931 99.5376 68.9193 99.5552C68.9455 99.5728 68.975 99.5851 69.006 99.5913C69.037 99.5987 69.0692 99.5996 69.1006 99.594C69.132 99.5884 69.162 99.5764 69.1885 99.5588C69.2151 99.5412 69.2378 99.5182 69.2551 99.4915C69.2724 99.4647 69.2841 99.4346 69.2893 99.4032C69.3381 99.1192 69.4128 98.8404 69.5125 98.5701C69.5779 98.4096 69.6534 98.2535 69.7387 98.1027C69.7705 98.0464 69.779 97.9798 69.7624 97.9173C69.7458 97.8548 69.7053 97.8013 69.6497 97.7682C69.6218 97.7527 69.591 97.7429 69.5592 97.7394C69.5273 97.736 69.4952 97.7389 69.4645 97.748C69.4338 97.7571 69.4053 97.7723 69.3806 97.7927C69.3559 97.813 69.3355 97.8381 69.3206 97.8664C69.2209 98.0356 69.1345 98.2124 69.0625 98.3951C69.018 98.5752 68.9822 98.7574 68.9551 98.9409L68.8975 99.0109ZM68.7336 100.753L68.7141 100.825C68.7533 101.34 68.8809 101.844 69.0911 102.316C69.1241 102.371 69.1774 102.412 69.2396 102.428C69.3018 102.445 69.3681 102.437 69.4244 102.405C69.4525 102.39 69.4772 102.369 69.497 102.343C69.5168 102.318 69.5313 102.289 69.5397 102.258C69.548 102.227 69.55 102.194 69.5455 102.162C69.541 102.13 69.5302 102.1 69.5137 102.072C69.3299 101.652 69.2164 101.205 69.1775 100.748C69.1756 100.716 69.1673 100.685 69.1532 100.656C69.1391 100.628 69.1195 100.602 69.0955 100.581C69.0714 100.56 69.0435 100.544 69.0133 100.534C68.983 100.524 68.9511 100.521 68.9194 100.523C68.8878 100.539 68.86 100.562 68.8379 100.589C68.8158 100.617 68.7999 100.649 68.7911 100.683L68.7336 100.753ZM61.4669 129.437C61.4522 129.49 61.4564 129.546 61.4788 129.595C61.5118 129.651 61.5651 129.691 61.6273 129.708C61.6896 129.724 61.7558 129.716 61.8121 129.685C62.2611 129.487 62.6996 129.27 63.1433 129.063C63.1987 129.03 63.2389 128.977 63.2556 128.915C63.2723 128.852 63.264 128.786 63.2326 128.73C63.1996 128.675 63.1463 128.634 63.0841 128.618C63.0219 128.601 62.9556 128.609 62.8994 128.641C62.4701 128.852 62.0119 129.055 61.5865 129.252C61.5561 129.284 61.5348 129.324 61.5245 129.367L61.4669 129.437ZM70.25 96.8032C70.2408 96.8416 70.2405 96.8816 70.249 96.9202C70.2575 96.9588 70.2746 96.9949 70.299 97.026C70.3432 97.0731 70.4041 97.101 70.4686 97.1037C70.5332 97.1065 70.5963 97.084 70.6444 97.0409C70.9927 96.7337 71.3807 96.4747 71.798 96.2708C71.8526 96.2389 71.8923 96.1867 71.9087 96.1257C71.925 96.0646 71.9167 95.9996 71.8854 95.9447C71.8524 95.8894 71.7991 95.8491 71.7369 95.8324C71.6747 95.8158 71.6084 95.824 71.5521 95.8555C71.0913 96.0764 70.6644 96.362 70.2844 96.7037C70.2796 96.71 70.2753 96.7167 70.2713 96.7235L70.25 96.8032ZM69.9344 103.342C69.9243 103.384 69.9254 103.428 69.9375 103.469C69.9495 103.51 69.9722 103.548 70.0032 103.578C70.3902 103.938 70.8398 104.224 71.3298 104.422C71.3592 104.435 71.3907 104.441 71.4225 104.441C71.4544 104.441 71.4859 104.434 71.5152 104.422C71.5445 104.409 71.5711 104.391 71.5934 104.369C71.6156 104.346 71.6332 104.319 71.6449 104.289C71.6694 104.231 71.67 104.166 71.6464 104.107C71.6229 104.048 71.5772 104.001 71.5192 103.976C71.0955 103.798 70.7053 103.549 70.3654 103.24C70.3425 103.218 70.3153 103.2 70.2854 103.188C70.2556 103.176 70.2237 103.171 70.1916 103.172C70.1595 103.172 70.128 103.18 70.0987 103.193C70.0695 103.206 70.0432 103.225 70.0215 103.249C70.0112 103.256 70.0013 103.264 69.992 103.272L69.9344 103.342ZM64.0687 128.131C64.0514 128.193 64.0588 128.259 64.0892 128.315C64.1222 128.37 64.1755 128.411 64.2377 128.427C64.2999 128.444 64.3662 128.436 64.4224 128.404C64.8522 128.162 65.2767 127.911 65.6939 127.658C65.7493 127.625 65.7895 127.572 65.8062 127.509C65.8229 127.447 65.8146 127.381 65.7832 127.325C65.7513 127.27 65.6992 127.23 65.6382 127.214C65.5771 127.198 65.5121 127.206 65.4572 127.237C65.0492 127.485 64.6266 127.729 64.206 127.966C64.1782 127.994 64.1581 128.029 64.148 128.067L64.0687 128.131ZM72.8038 95.5308C72.7873 95.5649 72.7774 95.6018 72.7747 95.6395C72.7908 95.7016 72.8298 95.7554 72.8839 95.79C72.9379 95.8246 73.0031 95.8376 73.0662 95.8263C73.5241 95.7304 73.9928 95.6966 74.4597 95.7261C74.4916 95.7274 74.5236 95.7222 74.5535 95.711C74.5835 95.6998 74.6109 95.6826 74.6342 95.6607C74.6574 95.6387 74.676 95.6123 74.6889 95.583C74.7018 95.5537 74.7087 95.5221 74.7093 95.4901C74.7113 95.4585 74.707 95.4267 74.6966 95.3967C74.6863 95.3667 74.6701 95.3391 74.6491 95.3154C74.628 95.2917 74.6024 95.2724 74.5738 95.2586C74.5452 95.2449 74.5142 95.2369 74.4825 95.2353C73.9751 95.2119 73.4668 95.2504 72.9688 95.3499C72.9376 95.3789 72.9144 95.4155 72.9015 95.4561L72.8038 95.5308ZM66.5339 126.61C66.5252 126.643 66.5237 126.677 66.5294 126.711C66.5351 126.744 66.5479 126.776 66.567 126.805C66.6 126.86 66.6533 126.9 66.7155 126.917C66.7777 126.934 66.844 126.925 66.9002 126.894L67.3789 126.556L68.0883 126.024C68.1398 125.985 68.1735 125.926 68.182 125.861C68.1906 125.797 68.1734 125.731 68.1341 125.68C68.0941 125.63 68.0369 125.598 67.974 125.59C67.9112 125.582 67.8477 125.598 67.7965 125.636L67.0963 126.162L66.6195 126.493C66.6222 126.507 66.6263 126.521 66.6316 126.535L66.5339 126.61ZM72.5235 104.517C72.5141 104.581 72.5302 104.646 72.5685 104.699C72.6067 104.751 72.664 104.786 72.728 104.797C73.2343 104.873 73.7467 104.901 74.2584 104.881C74.2903 104.881 74.3217 104.874 74.351 104.861C74.3802 104.848 74.4066 104.83 74.4287 104.807C74.4508 104.784 74.468 104.757 74.4795 104.727C74.4909 104.697 74.4964 104.666 74.4954 104.634C74.4951 104.602 74.4883 104.571 74.4755 104.542C74.4626 104.513 74.4439 104.487 74.4206 104.465C74.3973 104.444 74.3698 104.427 74.3398 104.417C74.3098 104.406 74.278 104.402 74.2464 104.404C73.7731 104.418 73.2995 104.392 72.8305 104.327C72.7886 104.327 72.7472 104.337 72.7105 104.357C72.6738 104.377 72.643 104.406 72.6211 104.442L72.5235 104.517ZM75.6646 95.6918C75.6487 95.7508 75.6559 95.8137 75.6847 95.8676C75.7136 95.9215 75.7619 95.9623 75.8198 95.9818C76.2563 96.1346 76.6663 96.3544 77.0351 96.6335C77.0599 96.653 77.0884 96.6674 77.1188 96.6758C77.1492 96.6842 77.181 96.6866 77.2123 96.6827C77.2437 96.6788 77.2739 96.6688 77.3014 96.6532C77.3288 96.6377 77.3529 96.6168 77.3723 96.5919C77.3918 96.5671 77.4061 96.5386 77.4146 96.5082C77.423 96.4778 77.4254 96.446 77.4215 96.4146C77.4176 96.3833 77.4076 96.3531 77.392 96.3256C77.3765 96.2982 77.3556 96.2741 77.3307 96.2547C76.9211 95.9391 76.4624 95.6929 75.973 95.5259C75.9428 95.5146 75.9106 95.5095 75.8784 95.511C75.8461 95.5124 75.8145 95.5204 75.7854 95.5343C75.7563 95.5483 75.7303 95.568 75.709 95.5922C75.6876 95.6164 75.6714 95.6447 75.6613 95.6753L75.6646 95.6918ZM68.972 124.755C68.961 124.793 68.9598 124.834 68.9683 124.872C68.9769 124.911 68.995 124.948 69.021 124.978C69.0631 125.026 69.1222 125.056 69.1859 125.061C69.2495 125.067 69.3128 125.047 69.3625 125.007C69.7354 124.688 70.1049 124.352 70.458 124.019C70.5046 123.974 70.5316 123.912 70.533 123.847C70.5344 123.782 70.5102 123.719 70.4656 123.672C70.4437 123.649 70.4175 123.631 70.3885 123.618C70.3596 123.606 70.3284 123.599 70.2968 123.599C70.2652 123.598 70.2338 123.604 70.2044 123.615C70.175 123.627 70.1482 123.644 70.1255 123.666C69.7731 123.996 69.4147 124.32 69.0504 124.636C69.0129 124.667 68.9855 124.708 68.972 124.755ZM75.5547 104.39C75.539 104.419 75.5304 104.451 75.5295 104.484C75.5396 104.548 75.5744 104.605 75.6265 104.644C75.6786 104.683 75.7437 104.699 75.808 104.69C76.2694 104.62 76.7604 104.526 77.2591 104.404C77.2904 104.397 77.32 104.383 77.346 104.365C77.3721 104.346 77.3941 104.322 77.4109 104.295C77.4276 104.268 77.4387 104.237 77.4435 104.205C77.4483 104.174 77.4466 104.141 77.4387 104.11C77.4226 104.048 77.383 103.995 77.3282 103.961C77.2735 103.928 77.2078 103.917 77.1452 103.931C76.6629 104.05 76.1864 104.147 75.7341 104.213C75.6875 104.218 75.6436 104.238 75.6079 104.268C75.5721 104.298 75.5461 104.339 75.533 104.384L75.5547 104.39ZM71.075 122.702C71.0625 122.744 71.0622 122.79 71.074 122.833C71.0858 122.876 71.1093 122.914 71.1419 122.945C71.1892 122.988 71.2515 123.012 71.3157 123.01C71.3799 123.008 71.4409 122.982 71.4859 122.936C71.8211 122.583 72.153 122.214 72.4776 121.843C72.4985 121.819 72.5144 121.791 72.5245 121.761C72.5346 121.731 72.5385 121.699 72.5362 121.667C72.5338 121.636 72.5252 121.605 72.5108 121.576C72.4965 121.548 72.4766 121.523 72.4524 121.502C72.4285 121.481 72.4006 121.466 72.3705 121.455C72.3403 121.445 72.3085 121.441 72.2768 121.444C72.2451 121.446 72.2142 121.455 72.1859 121.469C72.1576 121.484 72.1324 121.503 72.1118 121.528C71.7963 121.893 71.4664 122.255 71.1331 122.601C71.1047 122.628 71.0845 122.663 71.075 122.702ZM78.0657 97.3367C78.0569 97.3716 78.0557 97.4079 78.0624 97.4432C78.069 97.4785 78.0832 97.5119 78.1041 97.5411C78.3682 97.9258 78.5883 98.3391 78.7601 98.7729C78.7705 98.8033 78.7871 98.8312 78.8088 98.8548C78.8305 98.8784 78.8568 98.8973 78.8861 98.9103C78.9155 98.9233 78.9472 98.93 78.9793 98.9301C79.0113 98.9303 79.0431 98.9237 79.0726 98.911C79.1029 98.9006 79.1308 98.884 79.1544 98.8623C79.1781 98.8407 79.197 98.8143 79.2099 98.785C79.2229 98.7556 79.2296 98.724 79.2298 98.6919C79.2299 98.6598 79.2234 98.628 79.2106 98.5986C79.0249 98.1263 78.7859 97.6766 78.4982 97.2585C78.465 97.2054 78.4129 97.1669 78.3524 97.1507C78.2919 97.1345 78.2275 97.1418 78.1722 97.1712C78.1351 97.1955 78.105 97.2291 78.0849 97.2687C78.0647 97.3082 78.0553 97.3523 78.0574 97.3966L78.0657 97.3367ZM72.986 120.496C72.9758 120.543 72.9785 120.591 72.9938 120.636C73.0091 120.681 73.0363 120.721 73.0727 120.752C73.0975 120.772 73.126 120.786 73.1564 120.795C73.1868 120.803 73.2186 120.805 73.2499 120.801C73.2812 120.798 73.3115 120.788 73.339 120.772C73.3664 120.756 73.3905 120.736 73.4099 120.711C73.7167 120.319 74.009 119.924 74.294 119.527C74.331 119.474 74.3459 119.408 74.3354 119.345C74.3249 119.281 74.2899 119.224 74.2379 119.186C74.1839 119.149 74.1175 119.135 74.0533 119.146C73.989 119.158 73.932 119.195 73.8948 119.249C73.6189 119.641 73.3286 120.029 73.033 120.408C73.0043 120.444 72.987 120.488 72.9835 120.534L72.986 120.496ZM79.1538 100.028C79.1344 100.058 79.1249 100.093 79.1266 100.129C79.2156 100.597 79.2781 101.07 79.3139 101.546C79.3158 101.577 79.3241 101.609 79.3382 101.637C79.3523 101.666 79.3719 101.691 79.3959 101.712C79.42 101.733 79.4479 101.749 79.4781 101.759C79.5084 101.769 79.5403 101.773 79.5721 101.77C79.6038 101.768 79.6349 101.76 79.6635 101.746C79.692 101.732 79.7175 101.712 79.7384 101.688C79.7593 101.664 79.7752 101.636 79.7851 101.606C79.7951 101.576 79.799 101.544 79.7965 101.512C79.7601 101.015 79.6955 100.521 79.6031 100.031C79.5886 99.9684 79.55 99.9135 79.4954 99.8786C79.4409 99.8437 79.3749 99.8315 79.3115 99.8446C79.2655 99.8608 79.2256 99.8907 79.197 99.9302C79.1684 99.9697 79.1524 100.017 79.1514 100.066L79.1538 100.028ZM78.3789 103.702C78.3643 103.746 78.3655 103.793 78.3821 103.835C78.3905 103.866 78.4052 103.894 78.425 103.919C78.4449 103.943 78.4696 103.964 78.4977 103.979C78.5257 103.993 78.5565 104.002 78.5881 104.005C78.6197 104.007 78.6514 104.003 78.6814 103.993C78.9008 103.927 79.1149 103.853 79.3435 103.782L79.3012 104.462C79.2956 104.525 79.3154 104.588 79.3562 104.637C79.3969 104.686 79.4554 104.716 79.5188 104.722C79.5509 104.725 79.5832 104.722 79.6139 104.712C79.6447 104.702 79.6731 104.686 79.6976 104.665C79.722 104.644 79.742 104.619 79.7563 104.59C79.7706 104.561 79.779 104.529 79.7809 104.497C79.8059 104.201 79.8236 103.903 79.8322 103.61L80.0739 103.52C80.104 103.509 80.1317 103.493 80.1553 103.471C80.179 103.45 80.1982 103.424 80.2117 103.395C80.2252 103.366 80.2329 103.335 80.2342 103.303C80.2354 103.271 80.2303 103.239 80.2191 103.209C80.2086 103.179 80.1921 103.151 80.1707 103.128C80.1493 103.104 80.1234 103.085 80.0944 103.071C80.0655 103.058 80.0342 103.05 80.0023 103.049C79.9704 103.048 79.9386 103.053 79.9087 103.064L79.8483 103.087L79.8638 103.029C79.863 102.964 79.8373 102.901 79.7921 102.855C79.7469 102.808 79.6856 102.78 79.6206 102.777C79.5565 102.78 79.4958 102.806 79.4505 102.852C79.4053 102.897 79.3788 102.958 79.3763 103.022L79.3669 103.26C79.0904 103.365 78.8106 103.453 78.5182 103.53C78.4848 103.545 78.4556 103.569 78.433 103.598C78.4104 103.627 78.395 103.661 78.388 103.697L78.3789 103.702ZM74.6759 118.13C74.6604 118.18 74.6617 118.233 74.6797 118.281C74.6977 118.329 74.7312 118.37 74.7751 118.398C74.8297 118.432 74.8956 118.444 74.9587 118.43C75.0218 118.417 75.0771 118.379 75.1129 118.325C75.3709 117.913 75.6327 117.486 75.8709 117.061C75.8875 117.034 75.8983 117.003 75.9027 116.972C75.9071 116.94 75.905 116.908 75.8965 116.877C75.8879 116.847 75.8732 116.818 75.8532 116.793C75.8332 116.769 75.8082 116.748 75.78 116.734C75.7526 116.718 75.7223 116.708 75.691 116.704C75.6597 116.7 75.628 116.703 75.5976 116.711C75.5672 116.72 75.5388 116.734 75.5139 116.753C75.4891 116.773 75.4683 116.797 75.4528 116.825C75.2166 117.243 74.9586 117.655 74.7006 118.067L74.6759 118.13ZM76.1302 115.601C76.1151 115.654 76.1197 115.711 76.1432 115.762C76.1667 115.812 76.2076 115.853 76.2584 115.876C76.2867 115.89 76.3175 115.899 76.3491 115.901C76.3808 115.903 76.4126 115.9 76.4427 115.89C76.4728 115.88 76.5006 115.864 76.5246 115.843C76.5485 115.822 76.5681 115.797 76.5822 115.768C76.8079 115.332 77.021 114.884 77.2176 114.44C77.2444 114.382 77.2471 114.316 77.2253 114.257C77.2034 114.197 77.1587 114.148 77.1011 114.122C77.0722 114.107 77.0405 114.099 77.0083 114.097C76.976 114.096 76.9437 114.101 76.9136 114.113C76.8834 114.124 76.856 114.142 76.8331 114.165C76.8102 114.188 76.7924 114.215 76.7806 114.245C76.5787 114.68 76.3675 115.121 76.151 115.552L76.1302 115.601ZM79.1628 105.877C79.1057 106.351 79.0302 106.835 78.9422 107.308C78.9311 107.372 78.9453 107.437 78.9818 107.491C79.0183 107.544 79.0742 107.581 79.1375 107.594C79.1688 107.599 79.2007 107.598 79.2317 107.591C79.2626 107.584 79.2918 107.571 79.3176 107.553C79.3435 107.535 79.3655 107.511 79.3823 107.484C79.3991 107.458 79.4104 107.428 79.4155 107.396C79.5417 106.925 79.5829 106.424 79.6517 105.907C79.6563 105.875 79.6545 105.844 79.6464 105.813C79.6383 105.783 79.624 105.754 79.6045 105.729C79.585 105.704 79.5607 105.684 79.5329 105.669C79.5052 105.654 79.4747 105.644 79.4433 105.641C79.4074 105.634 79.3704 105.636 79.3352 105.646C79.3 105.655 79.2675 105.673 79.24 105.697C79.2126 105.721 79.191 105.751 79.177 105.785C79.1629 105.818 79.1567 105.855 79.1589 105.891L79.1628 105.877ZM77.3339 112.934C77.3182 112.992 77.3246 113.053 77.352 113.107C77.3794 113.16 77.4257 113.201 77.4819 113.222C77.5407 113.244 77.6058 113.243 77.6634 113.217C77.721 113.192 77.7664 113.145 77.7898 113.087C77.9739 112.632 78.1455 112.165 78.3084 111.673C78.3186 111.643 78.3227 111.611 78.3206 111.58C78.3184 111.548 78.3101 111.518 78.296 111.489C78.282 111.461 78.2625 111.436 78.2386 111.415C78.2148 111.394 78.1871 111.379 78.1571 111.369C78.1272 111.357 78.0954 111.352 78.0635 111.354C78.0317 111.356 78.0005 111.364 77.9719 111.378C77.9434 111.392 77.918 111.412 77.8975 111.437C77.877 111.461 77.8617 111.489 77.8526 111.52C77.6921 111.974 77.5297 112.435 77.3495 112.876L77.3339 112.934ZM78.6414 108.75C78.5152 109.221 78.391 109.684 78.2648 110.155C78.2558 110.185 78.2529 110.216 78.2562 110.247C78.2595 110.278 78.269 110.308 78.2842 110.335C78.2993 110.363 78.3198 110.387 78.3444 110.406C78.369 110.425 78.3972 110.439 78.4273 110.447C78.4575 110.456 78.4892 110.459 78.5206 110.456C78.552 110.453 78.5824 110.444 78.6102 110.429C78.638 110.414 78.6626 110.394 78.6825 110.369C78.7025 110.345 78.7175 110.317 78.7266 110.287C78.8547 109.808 78.9808 109.338 79.1148 108.838C79.1222 108.806 79.1232 108.774 79.1178 108.742C79.1124 108.71 79.1007 108.68 79.0833 108.653C79.066 108.626 79.0433 108.602 79.0167 108.584C78.9902 108.566 78.9602 108.553 78.9286 108.547C78.895 108.54 78.8602 108.54 78.8265 108.547C78.7928 108.554 78.7611 108.568 78.7335 108.589C78.7058 108.61 78.683 108.636 78.6664 108.666C78.6499 108.696 78.64 108.73 78.6375 108.764L78.6414 108.75ZM81.1246 102.699C81.1099 102.751 81.1141 102.807 81.1365 102.857C81.1684 102.912 81.2206 102.951 81.2816 102.968C81.3426 102.984 81.4076 102.976 81.4625 102.944C81.9169 102.756 82.3462 102.545 82.8116 102.343C82.8662 102.311 82.9059 102.259 82.9223 102.198C82.9387 102.137 82.9303 102.072 82.899 102.017C82.866 101.962 82.8127 101.922 82.7505 101.905C82.6883 101.888 82.622 101.897 82.5657 101.928C82.1384 102.132 81.6802 102.335 81.2495 102.522C81.2094 102.536 81.1737 102.561 81.146 102.593C81.1182 102.625 81.0996 102.664 81.0918 102.705L81.1246 102.699ZM83.791 101.441C83.783 101.47 83.7808 101.501 83.7847 101.532C83.7885 101.562 83.7983 101.591 83.8135 101.618C83.8286 101.646 83.8491 101.67 83.8739 101.69C83.8987 101.709 83.9272 101.723 83.9578 101.732C83.9883 101.74 84.0201 101.742 84.0513 101.737C84.0826 101.733 84.1126 101.722 84.1395 101.705C84.5746 101.472 84.9991 101.221 85.411 100.959C85.4388 100.944 85.4632 100.923 85.4827 100.898C85.5023 100.874 85.5166 100.845 85.5248 100.815C85.533 100.784 85.5348 100.752 85.5303 100.721C85.5257 100.69 85.5149 100.66 85.4984 100.633C85.4827 100.605 85.4616 100.58 85.4362 100.56C85.4109 100.54 85.3818 100.526 85.3507 100.518C85.3196 100.509 85.2871 100.507 85.2553 100.512C85.2234 100.516 85.1927 100.527 85.1651 100.543C84.7624 100.8 84.3398 101.044 83.9192 101.281C83.8794 101.291 83.8432 101.312 83.8147 101.341C83.7862 101.371 83.7666 101.408 83.7582 101.448L83.791 101.441ZM86.264 99.8907C86.2474 99.9596 86.2586 100.032 86.2952 100.093C86.3282 100.148 86.3815 100.189 86.4437 100.205C86.5059 100.222 86.5722 100.214 86.6284 100.182C87.0317 99.8945 87.4166 99.6172 87.8006 99.2852C87.8252 99.2649 87.8456 99.2399 87.8604 99.2116C87.8752 99.1834 87.8843 99.1524 87.887 99.1206C87.8898 99.0888 87.8861 99.0568 87.8763 99.0264C87.8665 98.9961 87.8508 98.9679 87.83 98.9437C87.8102 98.9188 87.7857 98.8981 87.7579 98.8828C87.73 98.8675 87.6994 98.8578 87.6679 98.8544C87.6363 98.851 87.6043 98.8539 87.5738 98.8629C87.5434 98.872 87.515 98.887 87.4904 98.9071C87.119 99.2113 86.7375 99.505 86.3458 99.7883C86.296 99.8102 86.2555 99.8488 86.2312 99.8974L86.264 99.8907ZM88.5166 98.0329C88.5063 98.0721 88.506 98.1132 88.5158 98.1525C88.5257 98.1918 88.5453 98.2279 88.5729 98.2576C88.6171 98.3046 88.678 98.3326 88.7426 98.3354C88.8071 98.3381 88.8701 98.3156 88.9183 98.2725C89.2733 97.9328 89.625 97.5767 89.9766 97.2205C90.0197 97.1722 90.0422 97.109 90.0392 97.0443C90.0362 96.9797 90.008 96.9187 89.9606 96.8746C89.9133 96.8321 89.851 96.8102 89.7875 96.8136C89.724 96.8169 89.6645 96.8453 89.6219 96.8926C89.2939 97.2473 88.9534 97.5908 88.5714 97.9155C88.5492 97.9293 88.53 97.9474 88.515 97.9687C88.4999 97.99 88.4893 98.0141 88.4838 98.0396L88.5166 98.0329ZM90.4923 95.8757C90.4789 95.9212 90.4793 95.9696 90.4935 96.0148C90.5076 96.0601 90.5348 96.1001 90.5717 96.1299C90.5965 96.1494 90.625 96.1637 90.6554 96.1722C90.6858 96.1806 90.7176 96.1829 90.7489 96.1791C90.7803 96.1752 90.8105 96.1652 90.838 96.1496C90.8654 96.134 90.8895 96.1132 90.9089 96.0883C91.2137 95.7041 91.508 95.3015 91.7877 94.8951C91.8057 94.8688 91.8183 94.8393 91.8248 94.8081C91.8313 94.7769 91.8315 94.7447 91.8254 94.7135C91.8193 94.6822 91.8071 94.6525 91.7894 94.626C91.7717 94.5995 91.7489 94.5768 91.7224 94.5592C91.6961 94.5412 91.6666 94.5286 91.6354 94.5221C91.6042 94.5157 91.5721 94.5154 91.5408 94.5215C91.5096 94.5276 91.4798 94.5398 91.4533 94.5575C91.4268 94.5752 91.4041 94.598 91.3866 94.6245C91.118 95.0184 90.8257 95.4138 90.532 95.7854C90.4999 95.811 90.4749 95.8444 90.4594 95.8824L90.4923 95.8757ZM95.9053 77.9923L95.8917 78.043L95.8126 79.4971C95.8096 79.5292 95.8131 79.5616 95.8228 79.5923C95.8326 79.623 95.8484 79.6514 95.8694 79.6759C95.8904 79.7004 95.9161 79.7204 95.945 79.7347C95.9738 79.749 96.0053 79.7574 96.0374 79.7593C96.1009 79.7614 96.1627 79.739 96.2102 79.6968C96.2576 79.6546 96.287 79.5958 96.2923 79.5325C96.3296 79.0456 96.3524 78.5548 96.3752 78.0639C96.3773 78.0005 96.355 77.9386 96.3128 77.8912C96.2706 77.8437 96.2117 77.8143 96.1485 77.8091C96.0873 77.802 96.0256 77.8174 95.9748 77.8523C95.9241 77.8873 95.8877 77.9394 95.8724 77.9991L95.9053 77.9923ZM92.1339 93.4582C92.1181 93.5104 92.1206 93.5664 92.1409 93.617C92.1612 93.6676 92.1981 93.7098 92.2456 93.7366C92.2731 93.7522 92.3033 93.7621 92.3346 93.7659C92.3659 93.7698 92.3977 93.7674 92.4281 93.759C92.4585 93.7505 92.4869 93.7362 92.5117 93.7168C92.5366 93.6973 92.5573 93.6732 92.5728 93.6457C92.8183 93.2223 93.0584 92.7897 93.2788 92.3441C93.3059 92.2855 93.3091 92.2188 93.2877 92.1579C93.2663 92.0971 93.2219 92.047 93.1642 92.0183C93.1067 91.9912 93.0411 91.9873 92.9808 92.0073C92.9205 92.0273 92.8703 92.0696 92.8404 92.1256C92.6292 92.566 92.3982 92.9933 92.1567 93.4022L92.1339 93.4582ZM95.7143 80.9072L95.7027 80.9507C95.6554 81.4556 95.6036 81.9387 95.5473 82.3999C95.5416 82.4637 95.561 82.5272 95.6012 82.5771C95.6414 82.6269 95.6994 82.6593 95.7629 82.6673C95.7942 82.6719 95.826 82.6701 95.8566 82.662C95.8871 82.6539 95.9157 82.6397 95.9405 82.6202C95.9653 82.6007 95.9859 82.5763 96.0011 82.5486C96.0162 82.5208 96.0255 82.4903 96.0284 82.4589C96.0894 81.9705 96.1412 81.4875 96.1877 80.9952C96.1933 80.9319 96.1735 80.8689 96.1327 80.8201C96.0919 80.7714 96.0334 80.7407 95.9701 80.7351C95.9394 80.7267 95.9073 80.7249 95.8758 80.7295C95.8443 80.7341 95.814 80.7451 95.787 80.7619C95.7599 80.7787 95.7366 80.8008 95.7184 80.827C95.7003 80.8532 95.6877 80.8827 95.6814 80.914L95.7143 80.9072ZM93.4313 90.8476C93.4172 90.9042 93.4237 90.964 93.4494 91.0163C93.4752 91.0687 93.5186 91.1103 93.572 91.1337C93.6014 91.146 93.6329 91.1522 93.6648 91.1521C93.6966 91.152 93.7281 91.1456 93.7574 91.1332C93.7868 91.1209 93.8133 91.1028 93.8356 91.08C93.8579 91.0573 93.8754 91.0303 93.8872 91.0008C94.0766 90.5546 94.2554 90.09 94.4275 89.5926C94.4386 89.5633 94.4436 89.5322 94.4423 89.5009C94.441 89.4696 94.4333 89.4389 94.4199 89.4107C94.4064 89.3824 94.3874 89.3571 94.364 89.3364C94.3405 89.3157 94.3131 89.2999 94.2834 89.29C94.2538 89.2789 94.2222 89.2737 94.1905 89.2748C94.1588 89.2759 94.1277 89.2833 94.0989 89.2965C94.0701 89.3097 94.0442 89.3285 94.0227 89.3518C94.0012 89.3751 93.9845 89.4024 93.9736 89.4322C93.8112 89.8934 93.6343 90.3506 93.4487 90.7823L93.4313 90.8476ZM95.3562 83.8084C95.2827 84.2857 95.1928 84.7663 95.1047 85.2396C95.0984 85.2706 95.0983 85.3025 95.1043 85.3335C95.1104 85.3645 95.1225 85.394 95.1399 85.4203C95.1574 85.4466 95.1799 85.4693 95.2062 85.4869C95.2324 85.5045 95.2618 85.5167 95.2928 85.5229C95.3244 85.5295 95.357 85.5296 95.3887 85.5232C95.4203 85.5169 95.4504 85.5042 95.477 85.4859C95.5036 85.4677 95.5263 85.4443 95.5437 85.4171C95.5611 85.3899 95.5728 85.3594 95.5781 85.3276C95.7043 84.8567 95.758 84.3664 95.8432 83.8457C95.8486 83.8145 95.8478 83.7825 95.8409 83.7516C95.8339 83.7207 95.8208 83.6914 95.8025 83.6656C95.7841 83.6397 95.7609 83.6178 95.734 83.601C95.7071 83.5842 95.6772 83.5729 95.6459 83.5677C95.6078 83.5535 95.5668 83.5493 95.5266 83.5553C95.4864 83.5614 95.4485 83.5775 95.4162 83.6022C95.384 83.627 95.3586 83.6595 95.3423 83.6967C95.3261 83.7339 95.3196 83.7747 95.3234 83.8151L95.3562 83.8084ZM94.411 88.0896C94.3945 88.1506 94.402 88.2155 94.4318 88.2711C94.4617 88.3268 94.5116 88.3689 94.5715 88.3889C94.6023 88.3982 94.6346 88.4012 94.6666 88.3977C94.6986 88.3943 94.7295 88.3844 94.7576 88.3688C94.7857 88.3531 94.8104 88.332 94.8301 88.3066C94.8499 88.2813 94.8644 88.2522 94.8727 88.2211C94.9988 87.7502 95.127 87.2721 95.2609 86.7722C95.2692 86.7412 95.2713 86.7088 95.2668 86.6769C95.2624 86.6451 95.2516 86.6144 95.2351 86.5868C95.2186 86.5592 95.1967 86.5352 95.1707 86.5162C95.1448 86.4973 95.1153 86.4837 95.084 86.4763C95.0232 86.4621 94.9593 86.472 94.9058 86.5041C94.8523 86.5361 94.8134 86.5877 94.7972 86.648L94.4187 88.0607L94.411 88.0896Z" fill="#999999"/>
<path d="M141.809 61.9958L141.473 59.716L149.355 53.0773L148.734 50.5817C148.159 48.5563 148.541 46.8417 149.222 46.1545L149.187 45.9665C148.974 44.5585 149.667 43.9443 150.329 43.8499C150.991 43.7555 151.807 44.1295 152.034 45.5414L152.062 45.7275C152.745 46.0737 153.786 47.0591 153.814 49.823L153.94 52.3958L163.397 56.4827L163.74 58.7644L154.195 57.907L154.63 64.2818L156.733 65.7926L156.899 67.5765L154.695 67.11L154.59 67.7032L153.239 67.9079L152.928 67.3586L150.922 68.4674L150.563 66.7094L152.136 64.6619L150.7 58.4304L141.809 61.9958ZM152.681 64.7457L151.096 66.8057L151.278 67.6311L153.104 66.6139L153.498 67.2864L154.137 67.1934L154.266 66.4515L156.323 66.8864L156.245 66.0191L154.135 64.5063L153.652 57.2957L163.136 58.152L162.935 56.786L153.432 52.7256L153.294 49.8234C153.273 47.1469 152.289 46.3553 151.708 46.1217L151.555 46.081L151.544 45.9225C151.542 45.8234 151.532 45.7247 151.514 45.6273C151.388 44.7628 150.953 44.2734 150.385 44.3621C149.818 44.4508 149.537 45.0355 149.67 45.9019C149.682 45.9985 149.7 46.0943 149.725 46.1885L149.768 46.3475L149.639 46.4526C149.106 46.8766 148.62 48.4003 149.2 50.4658L149.91 53.2649L142.001 59.9196L142.202 61.2856L151.034 57.7047L152.681 64.7457Z" fill="#999999"/>
<path d="M62.2202 115.816C62.2091 115.855 62.2085 115.896 62.2184 115.936C62.2282 115.975 62.2483 116.011 62.2765 116.041C62.6026 116.407 62.9364 116.756 63.2777 117.085C63.3219 117.132 63.3828 117.16 63.4474 117.163C63.5119 117.166 63.575 117.143 63.6231 117.1C63.6698 117.055 63.6967 116.993 63.6981 116.928C63.6996 116.863 63.6754 116.8 63.6308 116.753C63.2983 116.4 62.9731 116.049 62.6368 115.71C62.616 115.686 62.5904 115.666 62.5617 115.651C62.533 115.637 62.5018 115.628 62.4697 115.626C62.4377 115.624 62.4056 115.629 62.3753 115.639C62.345 115.65 62.3171 115.666 62.2933 115.688C62.2589 115.724 62.2339 115.768 62.2202 115.816ZM64.2371 117.909C64.2265 117.95 64.2266 117.993 64.2374 118.034C64.2482 118.075 64.2693 118.113 64.2987 118.143C64.6495 118.485 65.0003 118.828 65.3434 119.199C65.3896 119.243 65.451 119.268 65.5147 119.267C65.5784 119.267 65.6396 119.242 65.6854 119.198C65.7289 119.151 65.7522 119.088 65.7506 119.024C65.749 118.96 65.7225 118.899 65.6767 118.854C65.3239 118.519 64.9803 118.178 64.6368 117.838C64.5915 117.791 64.5297 117.764 64.4647 117.763C64.3997 117.761 64.3367 117.785 64.2894 117.83C64.2588 117.862 64.2374 117.902 64.2274 117.945L64.2371 117.909ZM66.3537 119.92C66.3425 119.964 66.3435 120.01 66.3566 120.053C66.3697 120.097 66.3943 120.135 66.4278 120.166C66.7897 120.495 67.1609 120.82 67.5267 121.136C67.5506 121.156 67.5785 121.172 67.6086 121.182C67.6387 121.192 67.6706 121.196 67.7023 121.194C67.734 121.192 67.7649 121.183 67.7932 121.169C67.8215 121.154 67.8467 121.134 67.8673 121.11C67.8882 121.086 67.9042 121.058 67.9142 121.028C67.9243 120.998 67.9283 120.966 67.9259 120.935C67.9236 120.903 67.9149 120.872 67.9006 120.844C67.8862 120.815 67.8663 120.79 67.8421 120.77C67.4763 120.454 67.1124 120.132 66.7505 119.802C66.7265 119.781 66.6987 119.765 66.6686 119.755C66.6384 119.745 66.6066 119.741 66.5749 119.743C66.5432 119.745 66.5123 119.754 66.484 119.768C66.4556 119.783 66.4304 119.803 66.4099 119.827C66.3901 119.842 66.3739 119.862 66.3625 119.884C66.3512 119.907 66.3448 119.932 66.344 119.957L66.3537 119.92ZM68.5757 121.828C68.5642 121.874 68.5656 121.921 68.5796 121.966C68.5936 122.011 68.6197 122.051 68.6551 122.082L69.8004 122.995C69.8526 123.034 69.9184 123.052 69.9834 123.043C70.0483 123.034 70.1071 123 70.1469 122.948C70.1841 122.896 70.1998 122.832 70.1907 122.768C70.1816 122.705 70.1484 122.648 70.098 122.609C69.7191 122.313 69.3422 122.01 68.958 121.705C68.934 121.685 68.9062 121.669 68.8761 121.66C68.846 121.651 68.8143 121.647 68.7829 121.651C68.7516 121.654 68.7212 121.663 68.6936 121.679C68.6661 121.694 68.6419 121.715 68.6227 121.74C68.5917 121.775 68.5719 121.818 68.566 121.864L68.5757 121.828ZM70.8833 123.619C70.8714 123.665 70.8732 123.714 70.8886 123.76C70.904 123.805 70.9322 123.845 70.97 123.875C71.3725 124.169 71.7698 124.454 72.1671 124.739C72.1933 124.757 72.2229 124.77 72.2541 124.776C72.2853 124.783 72.3174 124.783 72.3487 124.777C72.3799 124.771 72.4097 124.759 72.4361 124.741C72.4626 124.723 72.4853 124.701 72.5029 124.674C72.5375 124.621 72.5508 124.558 72.54 124.496C72.5292 124.434 72.4952 124.378 72.4449 124.34C72.0457 124.062 71.6556 123.779 71.2603 123.487C71.2084 123.45 71.1441 123.434 71.0809 123.443C71.0177 123.452 70.9604 123.485 70.9211 123.536L70.8833 123.619ZM73.2747 125.3C73.2623 125.349 73.2654 125.4 73.2836 125.446C73.3017 125.493 73.334 125.533 73.3758 125.56C73.7823 125.84 74.1926 126.105 74.6049 126.363C74.6595 126.397 74.7254 126.409 74.7885 126.396C74.8516 126.382 74.9069 126.344 74.9427 126.291C74.977 126.236 74.9886 126.17 74.9751 126.107C74.9615 126.044 74.9239 125.988 74.8701 125.953C74.4578 125.695 74.0547 125.431 73.6464 125.159C73.5917 125.125 73.5258 125.113 73.4627 125.127C73.3996 125.14 73.3443 125.178 73.3086 125.232L73.2747 125.3ZM75.7444 126.863C75.7319 126.914 75.7362 126.968 75.7566 127.017C75.7771 127.066 75.8127 127.107 75.8581 127.134C76.2796 127.386 76.701 127.639 77.1191 127.875C77.1755 127.907 77.242 127.916 77.3045 127.899C77.367 127.882 77.4205 127.842 77.4536 127.786C77.4691 127.759 77.4791 127.729 77.4829 127.697C77.4867 127.666 77.4844 127.634 77.4759 127.604C77.4675 127.574 77.4531 127.545 77.4337 127.52C77.4143 127.495 77.3901 127.475 77.3626 127.459C76.9465 127.216 76.5231 126.97 76.1089 126.719C76.0818 126.703 76.0516 126.692 76.0201 126.687C75.9886 126.682 75.9565 126.683 75.9255 126.691C75.8946 126.698 75.8654 126.712 75.8398 126.731C75.8142 126.75 75.7927 126.774 75.7764 126.801L75.7444 126.863ZM78.2815 128.319C78.2691 128.371 78.2743 128.426 78.2961 128.476C78.3179 128.525 78.3553 128.566 78.4024 128.592C78.8369 128.825 79.2715 129.058 79.7026 129.274C79.7302 129.29 79.7605 129.299 79.7919 129.302C79.8232 129.306 79.855 129.303 79.8851 129.293C79.9152 129.284 79.9431 129.268 79.967 129.248C79.991 129.227 80.0106 129.202 80.0245 129.174C80.0401 129.146 80.0499 129.115 80.0533 129.084C80.0568 129.052 80.0539 129.019 80.0448 128.989C80.0356 128.958 80.0204 128.93 80.0001 128.905C79.9797 128.88 79.9547 128.86 79.9264 128.845C79.4952 128.628 79.0679 128.398 78.6334 128.165C78.5765 128.135 78.5104 128.129 78.449 128.147C78.3876 128.166 78.3358 128.207 78.3043 128.263L78.2815 128.319ZM80.8897 129.654C80.8741 129.709 80.8782 129.767 80.9013 129.819C80.9244 129.87 80.965 129.912 81.0159 129.937C81.4563 130.148 81.8966 130.359 82.3389 130.563C82.3966 130.59 82.4626 130.592 82.5223 130.571C82.582 130.549 82.6306 130.504 82.6574 130.446C82.6719 130.418 82.6804 130.386 82.6824 130.354C82.6844 130.322 82.68 130.29 82.6693 130.259C82.6586 130.229 82.6419 130.201 82.6202 130.177C82.5984 130.153 82.5721 130.134 82.5429 130.121C82.1078 129.919 81.6655 129.715 81.2271 129.496C81.1983 129.482 81.1669 129.473 81.1347 129.471C81.1025 129.469 81.0703 129.474 81.0399 129.484C81.0095 129.495 80.9816 129.512 80.9578 129.534C80.9339 129.555 80.9147 129.582 80.9013 129.611L80.8897 129.654ZM83.5434 130.878C83.5261 130.933 83.5302 130.993 83.5549 131.046C83.5797 131.099 83.6232 131.14 83.6769 131.162C84.1284 131.361 84.5818 131.552 85.0299 131.734C85.0593 131.747 85.0909 131.753 85.1227 131.753C85.1545 131.753 85.186 131.746 85.2154 131.734C85.2447 131.721 85.2712 131.703 85.2935 131.681C85.3158 131.658 85.3333 131.631 85.3451 131.601C85.3584 131.572 85.3655 131.54 85.366 131.508C85.3664 131.476 85.3602 131.444 85.3477 131.415C85.3352 131.385 85.3167 131.358 85.2934 131.336C85.27 131.314 85.2424 131.297 85.2121 131.286C84.7737 131.107 84.3275 130.917 83.8736 130.718C83.8146 130.693 83.7482 130.692 83.6884 130.715C83.6286 130.738 83.5801 130.784 83.5531 130.842L83.5434 130.878ZM86.2519 131.984C86.2343 132.042 86.2399 132.104 86.2675 132.158C86.2951 132.212 86.3426 132.253 86.3999 132.272C86.8572 132.449 87.3145 132.626 87.7684 132.786C87.8296 132.807 87.8965 132.803 87.9547 132.775C88.013 132.747 88.058 132.698 88.0802 132.637C88.0924 132.608 88.0983 132.576 88.0976 132.545C88.0968 132.513 88.0894 132.482 88.0758 132.454C88.0622 132.425 88.0427 132.4 88.0186 132.379C87.9946 132.359 87.9665 132.343 87.9361 132.334C87.4841 132.167 87.0249 131.997 86.5676 131.82C86.5379 131.809 86.5063 131.804 86.4747 131.805C86.443 131.806 86.4119 131.813 86.3831 131.827C86.3542 131.84 86.3283 131.859 86.3068 131.882C86.2853 131.905 86.2686 131.933 86.2577 131.962L86.2519 131.984ZM88.9987 132.976C88.9828 133.035 88.99 133.098 89.0188 133.152C89.0476 133.206 89.096 133.247 89.1539 133.266C89.6393 133.396 90.0947 133.581 90.5834 133.727C90.6139 133.737 90.6462 133.741 90.6783 133.739C90.7104 133.736 90.7417 133.728 90.7703 133.713C90.7989 133.698 90.8242 133.678 90.8448 133.653C90.8653 133.628 90.8806 133.599 90.8899 133.568C90.9034 133.507 90.8949 133.443 90.866 133.387C90.837 133.331 90.7894 133.287 90.7313 133.262C90.2677 133.138 89.7968 133.012 89.3434 132.82C89.2822 132.799 89.2153 132.804 89.1571 132.831C89.0988 132.859 89.0538 132.909 89.0316 132.97L88.9987 132.976ZM91.7949 133.842C91.7784 133.904 91.7871 133.969 91.8189 134.024C91.8507 134.079 91.9031 134.12 91.9646 134.136C92.2979 134.225 92.6239 134.313 92.9499 134.4L93.3773 134.515C93.4388 134.531 93.5043 134.522 93.5594 134.491C93.6145 134.459 93.6548 134.406 93.6712 134.345C93.6877 134.283 93.6791 134.218 93.6473 134.163C93.6154 134.108 93.563 134.067 93.5015 134.051L93.0741 133.936C92.7481 133.849 92.4221 133.762 92.0961 133.674C92.0653 133.665 92.033 133.662 92.001 133.665C91.969 133.669 91.9381 133.679 91.91 133.694C91.8819 133.71 91.8572 133.731 91.8375 133.757C91.8177 133.782 91.8032 133.811 91.7949 133.842ZM94.6203 134.599C94.6119 134.63 94.6099 134.663 94.6143 134.694C94.6188 134.726 94.6296 134.757 94.6461 134.784C94.6626 134.812 94.6845 134.836 94.7104 134.855C94.7364 134.874 94.7659 134.888 94.7972 134.895C95.2826 135.025 95.7651 135.108 96.2636 135.218C96.3272 135.229 96.3927 135.215 96.446 135.178C96.4993 135.142 96.5362 135.086 96.5488 135.023C96.5552 134.992 96.5553 134.96 96.5493 134.929C96.5432 134.898 96.5311 134.868 96.5136 134.842C96.4962 134.816 96.4737 134.793 96.4474 134.775C96.4212 134.758 96.3917 134.746 96.3608 134.739C95.9044 134.617 95.4199 134.542 94.9379 134.428C94.9046 134.415 94.869 134.41 94.8337 134.413C94.7983 134.416 94.7639 134.427 94.7332 134.445C94.7024 134.462 94.676 134.487 94.6558 134.516C94.6356 134.545 94.6221 134.579 94.6164 134.614L94.6203 134.599ZM97.483 135.188C97.4775 135.219 97.4783 135.251 97.4853 135.282C97.4923 135.313 97.5053 135.342 97.5237 135.368C97.542 135.394 97.5653 135.415 97.5922 135.432C97.6191 135.449 97.649 135.46 97.6803 135.466C98.1749 135.552 98.6714 135.63 99.1699 135.702C99.2015 135.707 99.234 135.707 99.2653 135.699C99.2965 135.692 99.3259 135.678 99.3515 135.658C99.3772 135.639 99.3985 135.614 99.4142 135.586C99.4299 135.558 99.4395 135.527 99.4426 135.495C99.4499 135.432 99.4326 135.368 99.3941 135.317C99.3556 135.267 99.2991 135.233 99.2362 135.222C98.7787 135.162 98.2943 135.087 97.7972 135C97.7624 134.988 97.7251 134.983 97.6883 134.988C97.6515 134.992 97.6162 135.005 97.5852 135.025C97.5542 135.045 97.5283 135.073 97.5096 135.105C97.4908 135.137 97.4798 135.172 97.4772 135.209L97.483 135.188ZM100.38 135.591C100.374 135.654 100.394 135.717 100.435 135.766C100.476 135.815 100.534 135.846 100.597 135.851L100.892 135.883C101.278 135.917 101.653 135.94 102.063 135.972C102.095 135.974 102.127 135.97 102.157 135.96C102.187 135.949 102.214 135.933 102.238 135.912C102.262 135.891 102.281 135.865 102.295 135.837C102.309 135.808 102.317 135.777 102.318 135.746C102.321 135.714 102.318 135.681 102.308 135.651C102.298 135.621 102.282 135.593 102.261 135.569C102.239 135.545 102.213 135.525 102.184 135.512C102.155 135.499 102.124 135.491 102.092 135.491C101.703 135.464 101.33 135.434 100.936 135.398L100.647 135.375C100.614 135.37 100.58 135.371 100.547 135.38C100.514 135.389 100.484 135.405 100.458 135.427C100.432 135.449 100.411 135.477 100.397 135.507C100.383 135.538 100.376 135.572 100.376 135.606L100.38 135.591ZM103.297 135.775L103.283 135.825C103.281 135.857 103.285 135.888 103.296 135.918C103.306 135.948 103.323 135.975 103.344 135.998C103.366 136.022 103.392 136.04 103.42 136.053C103.449 136.066 103.48 136.073 103.512 136.073C104.004 136.089 104.49 136.102 104.987 136.103C105.019 136.103 105.05 136.096 105.079 136.084C105.108 136.071 105.135 136.053 105.157 136.03C105.179 136.007 105.196 135.979 105.208 135.95C105.219 135.92 105.225 135.888 105.224 135.856C105.224 135.825 105.218 135.793 105.206 135.764C105.194 135.735 105.177 135.708 105.155 135.686C105.133 135.663 105.107 135.645 105.078 135.633C105.048 135.621 105.017 135.614 104.986 135.614C104.496 135.615 104.016 135.61 103.533 135.59C103.476 135.59 103.421 135.61 103.377 135.647C103.334 135.683 103.304 135.733 103.293 135.789L103.297 135.775ZM106.215 135.78L106.197 135.845C106.198 135.877 106.204 135.909 106.217 135.938C106.23 135.967 106.248 135.994 106.271 136.016C106.294 136.038 106.321 136.055 106.351 136.066C106.381 136.078 106.412 136.083 106.444 136.082C106.938 136.067 107.425 136.042 107.915 136.011C107.947 136.009 107.978 136 108.007 135.986C108.035 135.972 108.061 135.953 108.082 135.929C108.103 135.905 108.119 135.877 108.129 135.846C108.139 135.816 108.142 135.784 108.14 135.753C108.138 135.721 108.13 135.69 108.116 135.661C108.101 135.633 108.082 135.607 108.058 135.586C108.034 135.565 108.006 135.549 107.976 135.539C107.945 135.529 107.913 135.526 107.882 135.528C107.399 135.562 106.913 135.579 106.427 135.596C106.375 135.601 106.327 135.622 106.288 135.656C106.249 135.691 106.223 135.737 106.213 135.787L106.215 135.78ZM109.138 135.593C109.124 135.617 109.117 135.645 109.116 135.673C109.122 135.736 109.153 135.794 109.202 135.835C109.25 135.876 109.313 135.895 109.377 135.89C109.863 135.842 110.352 135.786 110.837 135.714C110.868 135.711 110.899 135.701 110.927 135.685C110.955 135.67 110.979 135.649 110.999 135.624C111.019 135.599 111.033 135.57 111.042 135.539C111.05 135.509 111.053 135.477 111.049 135.445C111.044 135.414 111.034 135.384 111.018 135.356C111.002 135.329 110.981 135.305 110.955 135.286C110.93 135.267 110.902 135.253 110.871 135.245C110.84 135.238 110.809 135.236 110.777 135.24C110.294 135.305 109.813 135.362 109.328 135.403C109.28 135.413 109.236 135.437 109.202 135.472C109.168 135.507 109.145 135.552 109.136 135.6L109.138 135.593ZM111.988 135.215C111.972 135.247 111.963 135.281 111.96 135.316C111.972 135.38 112.008 135.436 112.06 135.473C112.113 135.51 112.177 135.525 112.241 135.516C112.723 135.428 113.204 135.339 113.69 135.236C113.751 135.221 113.805 135.184 113.839 135.131C113.873 135.078 113.886 135.014 113.875 134.952C113.862 134.888 113.824 134.832 113.77 134.795C113.716 134.759 113.649 134.746 113.585 134.758C113.114 134.865 112.64 134.955 112.16 135.036C112.117 135.047 112.078 135.069 112.048 135.101C112.017 135.132 111.996 135.172 111.988 135.215ZM114.85 134.616C114.831 134.648 114.821 134.686 114.821 134.724C114.828 134.756 114.842 134.785 114.86 134.811C114.879 134.837 114.903 134.859 114.93 134.876C114.957 134.893 114.988 134.904 115.02 134.909C115.051 134.913 115.084 134.912 115.115 134.904C115.59 134.783 116.067 134.654 116.533 134.507C116.564 134.5 116.593 134.486 116.618 134.466C116.644 134.447 116.665 134.423 116.68 134.395C116.696 134.367 116.705 134.336 116.709 134.304C116.712 134.272 116.708 134.24 116.698 134.21C116.69 134.18 116.675 134.151 116.655 134.126C116.636 134.102 116.611 134.081 116.584 134.066C116.556 134.05 116.526 134.041 116.494 134.037C116.463 134.033 116.431 134.036 116.401 134.045C115.936 134.184 115.469 134.308 114.99 134.443C114.963 134.462 114.941 134.486 114.924 134.513C114.907 134.541 114.897 134.572 114.892 134.604L114.85 134.616ZM117.651 133.813C117.627 133.852 117.614 133.897 117.616 133.943C117.626 133.974 117.642 134.002 117.663 134.027C117.684 134.051 117.709 134.071 117.738 134.085C117.767 134.099 117.798 134.107 117.83 134.109C117.862 134.111 117.894 134.107 117.925 134.096C118.388 133.933 118.851 133.77 119.31 133.59C119.369 133.566 119.416 133.52 119.442 133.461C119.468 133.403 119.47 133.337 119.448 133.278C119.424 133.219 119.378 133.172 119.32 133.146C119.262 133.12 119.196 133.118 119.136 133.139C118.685 133.314 118.23 133.479 117.769 133.635C117.729 133.674 117.705 133.725 117.699 133.779L117.651 133.813ZM127.793 102.367L127.713 102.664C127.707 102.695 127.707 102.726 127.713 102.757C127.719 102.788 127.731 102.818 127.749 102.844C127.766 102.871 127.789 102.893 127.815 102.911C127.841 102.928 127.87 102.941 127.901 102.947C127.933 102.954 127.965 102.955 127.996 102.95C128.028 102.944 128.057 102.932 128.084 102.914C128.111 102.897 128.133 102.874 128.151 102.847C128.168 102.82 128.18 102.79 128.185 102.759C128.234 102.475 128.308 102.196 128.408 101.926C128.473 101.765 128.549 101.609 128.634 101.458C128.666 101.402 128.675 101.335 128.658 101.273C128.641 101.21 128.601 101.157 128.545 101.124C128.517 101.108 128.486 101.099 128.455 101.095C128.423 101.092 128.391 101.094 128.36 101.104C128.329 101.113 128.301 101.128 128.276 101.148C128.251 101.169 128.231 101.194 128.216 101.222C128.116 101.391 128.03 101.568 127.958 101.751C127.914 101.931 127.878 102.113 127.851 102.297L127.793 102.367ZM127.629 104.108L127.61 104.181C127.649 104.696 127.776 105.2 127.987 105.672C128.02 105.727 128.073 105.767 128.135 105.784C128.197 105.801 128.264 105.792 128.32 105.761C128.348 105.745 128.373 105.724 128.393 105.699C128.412 105.674 128.427 105.644 128.435 105.613C128.443 105.582 128.445 105.55 128.441 105.518C128.437 105.486 128.426 105.455 128.409 105.428C128.225 105.008 128.112 104.56 128.073 104.103C128.071 104.071 128.063 104.04 128.049 104.012C128.035 103.983 128.015 103.958 127.991 103.937C127.967 103.916 127.939 103.9 127.909 103.89C127.879 103.88 127.847 103.876 127.815 103.879C127.783 103.895 127.756 103.917 127.733 103.945C127.711 103.972 127.695 104.004 127.687 104.038L127.629 104.108ZM120.362 132.793C120.348 132.845 120.352 132.901 120.374 132.951C120.407 133.006 120.461 133.047 120.523 133.063C120.585 133.08 120.651 133.072 120.708 133.04C121.157 132.842 121.595 132.626 122.039 132.419C122.094 132.386 122.134 132.332 122.151 132.27C122.168 132.208 122.16 132.142 122.128 132.085C122.095 132.03 122.042 131.99 121.98 131.973C121.917 131.957 121.851 131.965 121.795 131.996C121.366 132.207 120.907 132.411 120.482 132.607C120.452 132.64 120.43 132.679 120.42 132.723L120.362 132.793ZM129.145 100.159C129.136 100.197 129.136 100.237 129.145 100.276C129.153 100.314 129.17 100.351 129.194 100.382C129.239 100.429 129.3 100.457 129.364 100.459C129.429 100.462 129.492 100.44 129.54 100.396C129.888 100.089 130.276 99.8303 130.694 99.6264C130.748 99.5945 130.788 99.5423 130.804 99.4813C130.821 99.4203 130.812 99.3553 130.781 99.3004C130.748 99.245 130.695 99.2047 130.632 99.1881C130.57 99.1714 130.504 99.1797 130.448 99.2111C129.987 99.432 129.56 99.7176 129.18 100.059C129.175 100.066 129.171 100.072 129.167 100.079L129.145 100.159ZM128.83 106.697C128.82 106.739 128.821 106.783 128.833 106.825C128.845 106.866 128.868 106.903 128.899 106.933C129.286 107.293 129.735 107.58 130.225 107.778C130.255 107.79 130.286 107.796 130.318 107.796C130.35 107.796 130.381 107.79 130.411 107.777C130.44 107.765 130.467 107.747 130.489 107.724C130.511 107.701 130.529 107.675 130.54 107.645C130.565 107.587 130.565 107.521 130.542 107.463C130.518 107.404 130.473 107.357 130.415 107.332C129.991 107.154 129.601 106.905 129.261 106.596C129.238 106.573 129.211 106.556 129.181 106.544C129.151 106.532 129.119 106.526 129.087 106.527C129.055 106.528 129.023 106.535 128.994 106.549C128.965 106.562 128.939 106.581 128.917 106.604C128.907 106.611 128.897 106.619 128.887 106.627L128.83 106.697ZM122.964 131.486C122.947 131.548 122.954 131.614 122.985 131.671C123.018 131.726 123.071 131.766 123.133 131.783C123.195 131.799 123.262 131.791 123.318 131.76C123.748 131.518 124.172 131.267 124.589 131.013C124.645 130.98 124.685 130.927 124.702 130.865C124.718 130.803 124.71 130.737 124.679 130.68C124.647 130.626 124.595 130.586 124.534 130.57C124.473 130.553 124.408 130.562 124.353 130.593C123.945 130.841 123.522 131.085 123.102 131.321C123.074 131.349 123.054 131.384 123.043 131.422L122.964 131.486ZM131.699 98.8864C131.683 98.9205 131.673 98.9574 131.67 98.9951C131.686 99.0573 131.725 99.111 131.779 99.1456C131.833 99.1802 131.899 99.1932 131.962 99.182C132.42 99.086 132.888 99.0523 133.355 99.0817C133.387 99.083 133.419 99.0779 133.449 99.0666C133.479 99.0554 133.506 99.0383 133.53 99.0163C133.553 98.9943 133.572 98.9679 133.584 98.9386C133.597 98.9093 133.604 98.8777 133.605 98.8458C133.607 98.8141 133.602 98.7823 133.592 98.7523C133.582 98.7223 133.566 98.6947 133.545 98.671C133.523 98.6473 133.498 98.628 133.469 98.6142C133.441 98.6005 133.41 98.5926 133.378 98.5909C132.871 98.5676 132.362 98.606 131.864 98.7055C131.833 98.7345 131.81 98.7711 131.797 98.8117L131.699 98.8864ZM125.429 129.965C125.421 129.998 125.419 130.033 125.425 130.066C125.431 130.1 125.443 130.132 125.462 130.16C125.495 130.216 125.549 130.256 125.611 130.273C125.673 130.289 125.739 130.281 125.796 130.25L126.274 129.912L126.984 129.38C127.035 129.34 127.069 129.282 127.078 129.217C127.086 129.152 127.069 129.087 127.03 129.035C126.99 128.986 126.932 128.954 126.87 128.946C126.807 128.938 126.743 128.954 126.692 128.991L125.992 129.518L125.515 129.848C125.518 129.863 125.522 129.877 125.527 129.89L125.429 129.965ZM131.419 107.873C131.41 107.937 131.426 108.002 131.464 108.054C131.502 108.107 131.56 108.142 131.623 108.153C132.13 108.229 132.642 108.257 133.154 108.237C133.186 108.236 133.217 108.229 133.246 108.217C133.276 108.204 133.302 108.186 133.324 108.163C133.346 108.14 133.364 108.113 133.375 108.083C133.386 108.053 133.392 108.021 133.391 107.989C133.391 107.958 133.384 107.926 133.371 107.897C133.358 107.868 133.339 107.842 133.316 107.821C133.293 107.799 133.265 107.783 133.235 107.772C133.205 107.762 133.174 107.757 133.142 107.76C132.669 107.774 132.195 107.748 131.726 107.683C131.684 107.682 131.643 107.692 131.606 107.713C131.569 107.733 131.538 107.762 131.517 107.798L131.419 107.873ZM134.56 99.0474C134.544 99.1064 134.551 99.1693 134.58 99.2232C134.609 99.2771 134.657 99.318 134.715 99.3374C135.152 99.4902 135.562 99.7101 135.931 99.9892C135.955 100.009 135.984 100.023 136.014 100.031C136.045 100.04 136.077 100.042 136.108 100.038C136.139 100.034 136.169 100.024 136.197 100.009C136.224 99.9933 136.248 99.9725 136.268 99.9475C136.287 99.9227 136.302 99.8942 136.31 99.8638C136.319 99.8334 136.321 99.8016 136.317 99.7703C136.313 99.7389 136.303 99.7087 136.288 99.6812C136.272 99.6538 136.251 99.6297 136.226 99.6103C135.817 99.2947 135.358 99.0485 134.869 98.8816C134.838 98.8703 134.806 98.8652 134.774 98.8666C134.742 98.8681 134.71 98.876 134.681 98.8899C134.652 98.9039 134.626 98.9236 134.604 98.9478C134.583 98.972 134.567 99.0003 134.557 99.0309L134.56 99.0474ZM127.867 128.11C127.857 128.149 127.855 128.189 127.864 128.228C127.872 128.267 127.891 128.303 127.917 128.333C127.959 128.381 128.018 128.411 128.081 128.417C128.145 128.422 128.208 128.403 128.258 128.363C128.631 128.043 129 127.707 129.353 127.375C129.4 127.33 129.427 127.268 129.429 127.203C129.43 127.138 129.406 127.075 129.361 127.028C129.339 127.005 129.313 126.987 129.284 126.974C129.255 126.961 129.224 126.955 129.192 126.954C129.161 126.954 129.129 126.959 129.1 126.971C129.071 126.983 129.044 127 129.021 127.022C128.669 127.352 128.31 127.675 127.946 127.992C127.908 128.022 127.881 128.064 127.867 128.11ZM134.45 107.745C134.435 107.774 134.426 107.807 134.425 107.839C134.435 107.904 134.47 107.961 134.522 108C134.574 108.038 134.639 108.055 134.703 108.046C135.165 107.976 135.656 107.882 136.155 107.759C136.186 107.752 136.215 107.739 136.242 107.72C136.268 107.702 136.29 107.678 136.306 107.651C136.323 107.623 136.334 107.593 136.339 107.561C136.344 107.529 136.342 107.497 136.334 107.466C136.318 107.404 136.279 107.35 136.224 107.317C136.169 107.283 136.103 107.272 136.041 107.286C135.558 107.406 135.082 107.503 134.63 107.568C134.583 107.574 134.539 107.593 134.503 107.624C134.468 107.654 134.442 107.694 134.428 107.739L134.45 107.745ZM129.971 126.057C129.958 126.1 129.958 126.145 129.969 126.188C129.981 126.231 130.005 126.27 130.037 126.3C130.085 126.344 130.147 126.367 130.211 126.366C130.275 126.364 130.336 126.337 130.381 126.292C130.717 125.939 131.048 125.57 131.373 125.199C131.394 125.175 131.41 125.147 131.42 125.117C131.43 125.087 131.434 125.055 131.432 125.023C131.429 124.991 131.421 124.96 131.406 124.932C131.392 124.904 131.372 124.879 131.348 124.858C131.324 124.837 131.296 124.821 131.266 124.811C131.236 124.801 131.204 124.797 131.172 124.799C131.141 124.802 131.11 124.81 131.081 124.825C131.053 124.839 131.028 124.859 131.007 124.883C130.692 125.249 130.362 125.611 130.029 125.956C130 125.984 129.98 126.019 129.971 126.057ZM136.961 100.692C136.952 100.727 136.951 100.764 136.958 100.799C136.965 100.834 136.979 100.868 137 100.897C137.264 101.281 137.484 101.695 137.656 102.129C137.666 102.159 137.683 102.187 137.704 102.21C137.726 102.234 137.752 102.253 137.782 102.266C137.811 102.279 137.843 102.286 137.875 102.286C137.907 102.286 137.939 102.279 137.968 102.267C137.998 102.256 138.026 102.24 138.05 102.218C138.074 102.196 138.092 102.17 138.105 102.141C138.118 102.111 138.125 102.08 138.125 102.047C138.125 102.015 138.119 101.984 138.106 101.954C137.92 101.482 137.681 101.032 137.394 100.614C137.36 100.561 137.308 100.523 137.248 100.506C137.187 100.49 137.123 100.497 137.068 100.527C137.031 100.551 137 100.585 136.98 100.624C136.96 100.664 136.951 100.708 136.953 100.752L136.961 100.692ZM131.882 123.852C131.871 123.898 131.874 123.947 131.889 123.992C131.905 124.037 131.932 124.077 131.968 124.108C131.993 124.127 132.021 124.142 132.052 124.15C132.082 124.159 132.114 124.161 132.145 124.157C132.177 124.153 132.207 124.143 132.234 124.128C132.262 124.112 132.286 124.091 132.305 124.066C132.612 123.675 132.904 123.28 133.189 122.882C133.227 122.829 133.241 122.764 133.231 122.7C133.22 122.637 133.185 122.579 133.133 122.541C133.079 122.504 133.013 122.49 132.949 122.502C132.884 122.514 132.828 122.551 132.79 122.605C132.514 122.996 132.224 123.385 131.928 123.763C131.9 123.8 131.883 123.844 131.879 123.89L131.882 123.852ZM138.049 103.383C138.03 103.413 138.02 103.449 138.022 103.485C138.111 103.953 138.174 104.426 138.209 104.901C138.211 104.933 138.22 104.964 138.234 104.993C138.248 105.021 138.267 105.047 138.291 105.068C138.315 105.089 138.343 105.104 138.374 105.114C138.404 105.124 138.436 105.128 138.468 105.126C138.499 105.124 138.53 105.116 138.559 105.101C138.588 105.087 138.613 105.068 138.634 105.044C138.655 105.02 138.671 104.992 138.681 104.962C138.691 104.931 138.695 104.899 138.692 104.868C138.656 104.371 138.591 103.877 138.499 103.387C138.484 103.324 138.445 103.269 138.391 103.234C138.336 103.199 138.27 103.187 138.207 103.2C138.161 103.216 138.121 103.246 138.092 103.286C138.064 103.325 138.048 103.373 138.047 103.421L138.049 103.383ZM137.274 107.058C137.26 107.101 137.261 107.148 137.278 107.191C137.286 107.221 137.301 107.25 137.321 107.274C137.34 107.299 137.365 107.319 137.393 107.334C137.421 107.349 137.452 107.358 137.484 107.36C137.515 107.363 137.547 107.359 137.577 107.349C137.796 107.283 138.01 107.208 138.239 107.138L138.197 107.817C138.191 107.881 138.211 107.944 138.252 107.993C138.292 108.041 138.351 108.072 138.414 108.078C138.446 108.081 138.479 108.077 138.509 108.067C138.54 108.058 138.569 108.042 138.593 108.021C138.618 108 138.637 107.974 138.652 107.945C138.666 107.916 138.674 107.885 138.676 107.853C138.701 107.557 138.719 107.259 138.728 106.966L138.969 106.875C138.999 106.865 139.027 106.848 139.051 106.827C139.075 106.805 139.094 106.78 139.107 106.751C139.121 106.722 139.128 106.69 139.13 106.658C139.131 106.627 139.126 106.595 139.115 106.565C139.104 106.535 139.088 106.507 139.066 106.483C139.045 106.46 139.019 106.44 138.99 106.427C138.961 106.413 138.93 106.406 138.898 106.405C138.866 106.403 138.834 106.408 138.804 106.42L138.744 106.442L138.759 106.384C138.758 106.319 138.733 106.257 138.688 106.21C138.642 106.163 138.581 106.136 138.516 106.133C138.452 106.135 138.391 106.162 138.346 106.207C138.301 106.253 138.274 106.314 138.272 106.378L138.262 106.616C137.986 106.72 137.706 106.809 137.414 106.886C137.38 106.901 137.351 106.924 137.329 106.953C137.306 106.982 137.29 107.016 137.284 107.053L137.274 107.058ZM133.571 121.486C133.556 121.535 133.557 121.588 133.575 121.637C133.593 121.685 133.627 121.726 133.671 121.753C133.725 121.788 133.791 121.799 133.854 121.786C133.917 121.772 133.973 121.735 134.008 121.681C134.266 121.268 134.528 120.842 134.766 120.416C134.783 120.389 134.794 120.359 134.798 120.327C134.803 120.296 134.801 120.264 134.792 120.233C134.783 120.202 134.769 120.174 134.749 120.149C134.729 120.124 134.704 120.104 134.676 120.089C134.648 120.074 134.618 120.064 134.587 120.06C134.555 120.056 134.523 120.058 134.493 120.067C134.463 120.075 134.434 120.09 134.409 120.109C134.385 120.129 134.364 120.153 134.348 120.18C134.112 120.598 133.854 121.011 133.596 121.423L133.571 121.486ZM135.026 118.956C135.011 119.01 135.015 119.067 135.039 119.118C135.062 119.168 135.103 119.208 135.154 119.231C135.182 119.246 135.213 119.254 135.245 119.257C135.276 119.259 135.308 119.255 135.338 119.245C135.368 119.235 135.396 119.219 135.42 119.199C135.444 119.178 135.464 119.152 135.478 119.124C135.703 118.687 135.916 118.24 136.113 117.796C136.14 117.738 136.143 117.672 136.121 117.612C136.099 117.553 136.054 117.504 135.997 117.477C135.968 117.463 135.936 117.454 135.904 117.453C135.871 117.451 135.839 117.457 135.809 117.468C135.779 117.48 135.752 117.498 135.729 117.521C135.706 117.543 135.688 117.571 135.676 117.601C135.474 118.036 135.263 118.476 135.047 118.907L135.026 118.956ZM138.058 109.232C138.001 109.706 137.926 110.191 137.838 110.664C137.827 110.728 137.841 110.793 137.877 110.846C137.914 110.9 137.97 110.937 138.033 110.949C138.064 110.955 138.096 110.954 138.127 110.947C138.158 110.94 138.187 110.927 138.213 110.909C138.239 110.89 138.261 110.867 138.278 110.84C138.295 110.813 138.306 110.783 138.311 110.752C138.437 110.281 138.478 109.78 138.547 109.262C138.552 109.231 138.55 109.199 138.542 109.169C138.534 109.138 138.52 109.11 138.5 109.085C138.481 109.06 138.456 109.039 138.428 109.024C138.401 109.009 138.37 109 138.339 108.997C138.303 108.99 138.266 108.992 138.231 109.001C138.196 109.011 138.163 109.028 138.136 109.052C138.108 109.076 138.087 109.107 138.072 109.14C138.058 109.174 138.052 109.21 138.054 109.247L138.058 109.232ZM136.229 116.289C136.214 116.347 136.22 116.409 136.247 116.462C136.275 116.516 136.321 116.557 136.377 116.578C136.436 116.6 136.501 116.598 136.559 116.573C136.617 116.548 136.662 116.501 136.685 116.443C136.869 115.987 137.041 115.521 137.204 115.029C137.214 114.999 137.218 114.967 137.216 114.936C137.214 114.904 137.206 114.873 137.192 114.845C137.177 114.817 137.158 114.791 137.134 114.771C137.11 114.75 137.083 114.734 137.053 114.724C137.023 114.713 136.991 114.708 136.959 114.71C136.927 114.711 136.896 114.719 136.867 114.734C136.839 114.748 136.814 114.768 136.793 114.792C136.772 114.817 136.757 114.845 136.748 114.875C136.588 115.329 136.425 115.791 136.245 116.231L136.229 116.289ZM137.537 112.105C137.411 112.576 137.287 113.04 137.16 113.511C137.151 113.541 137.148 113.572 137.152 113.603C137.155 113.634 137.165 113.664 137.18 113.691C137.195 113.718 137.215 113.742 137.24 113.761C137.265 113.781 137.293 113.795 137.323 113.803C137.353 113.812 137.385 113.815 137.416 113.812C137.447 113.809 137.478 113.799 137.506 113.784C137.533 113.77 137.558 113.749 137.578 113.725C137.598 113.7 137.613 113.672 137.622 113.642C137.75 113.164 137.876 112.693 138.01 112.193C138.018 112.162 138.019 112.129 138.013 112.098C138.008 112.066 137.996 112.036 137.979 112.009C137.961 111.981 137.939 111.958 137.912 111.94C137.886 111.922 137.856 111.909 137.824 111.903C137.791 111.895 137.756 111.895 137.722 111.902C137.688 111.91 137.657 111.924 137.629 111.945C137.601 111.965 137.578 111.992 137.562 112.022C137.545 112.052 137.536 112.085 137.533 112.12L137.537 112.105ZM140.02 106.054C140.005 106.107 140.01 106.163 140.032 106.213C140.064 106.267 140.116 106.307 140.177 106.323C140.238 106.34 140.303 106.331 140.358 106.3C140.812 106.111 141.242 105.9 141.707 105.699C141.762 105.667 141.801 105.615 141.818 105.554C141.834 105.493 141.826 105.428 141.794 105.373C141.761 105.317 141.708 105.277 141.646 105.261C141.584 105.244 141.517 105.252 141.461 105.284C141.034 105.487 140.576 105.691 140.145 105.878C140.105 105.892 140.069 105.916 140.041 105.948C140.014 105.98 139.995 106.019 139.987 106.061L140.02 106.054ZM142.687 104.797C142.678 104.826 142.676 104.857 142.68 104.887C142.684 104.918 142.694 104.947 142.709 104.973C142.724 105.001 142.745 105.026 142.769 105.045C142.794 105.065 142.823 105.079 142.853 105.087C142.884 105.095 142.916 105.097 142.947 105.093C142.978 105.088 143.008 105.077 143.035 105.061C143.47 104.828 143.895 104.577 144.307 104.314C144.334 104.299 144.359 104.279 144.378 104.254C144.398 104.229 144.412 104.201 144.42 104.17C144.428 104.14 144.43 104.108 144.426 104.077C144.421 104.045 144.41 104.015 144.394 103.988C144.378 103.96 144.357 103.936 144.332 103.916C144.306 103.896 144.277 103.881 144.246 103.873C144.215 103.865 144.183 103.863 144.151 103.867C144.119 103.872 144.088 103.883 144.061 103.899C143.658 104.156 143.235 104.4 142.815 104.637C142.775 104.647 142.739 104.667 142.71 104.697C142.682 104.726 142.662 104.763 142.654 104.803L142.687 104.797ZM145.16 103.246C145.143 103.315 145.154 103.388 145.191 103.449C145.224 103.504 145.277 103.544 145.339 103.561C145.401 103.578 145.468 103.569 145.524 103.538C145.927 103.25 146.312 102.973 146.696 102.641C146.721 102.621 146.741 102.596 146.756 102.567C146.771 102.539 146.78 102.508 146.783 102.476C146.785 102.444 146.782 102.412 146.772 102.382C146.762 102.352 146.746 102.324 146.725 102.299C146.706 102.274 146.681 102.254 146.653 102.238C146.626 102.223 146.595 102.213 146.563 102.21C146.532 102.207 146.5 102.21 146.469 102.219C146.439 102.228 146.411 102.243 146.386 102.263C146.015 102.567 145.633 102.861 145.241 103.144C145.192 103.166 145.151 103.204 145.127 103.253L145.16 103.246ZM147.412 101.389C147.402 101.428 147.402 101.469 147.411 101.508C147.421 101.547 147.441 101.584 147.468 101.613C147.513 101.66 147.574 101.688 147.638 101.691C147.703 101.694 147.766 101.671 147.814 101.628C148.169 101.288 148.52 100.932 148.872 100.576C148.915 100.528 148.938 100.465 148.935 100.4C148.932 100.335 148.903 100.274 148.856 100.23C148.809 100.188 148.747 100.166 148.683 100.169C148.62 100.173 148.56 100.201 148.517 100.248C148.189 100.603 147.849 100.946 147.467 101.271C147.445 101.285 147.426 101.303 147.41 101.324C147.395 101.346 147.385 101.37 147.379 101.395L147.412 101.389ZM149.388 99.2313C149.374 99.2768 149.375 99.3252 149.389 99.3705C149.403 99.4157 149.43 99.4557 149.467 99.4855C149.492 99.505 149.52 99.5193 149.551 99.5278C149.581 99.5362 149.613 99.5386 149.644 99.5347C149.676 99.5308 149.706 99.5208 149.733 99.5052C149.761 99.4897 149.785 99.4688 149.804 99.4439C150.109 99.0597 150.403 98.6571 150.683 98.2507C150.701 98.2244 150.714 98.1949 150.72 98.1637C150.727 98.1325 150.727 98.1003 150.721 98.0691C150.715 98.0378 150.703 98.0081 150.685 97.9816C150.667 97.9551 150.644 97.9324 150.618 97.9149C150.592 97.8968 150.562 97.8842 150.531 97.8777C150.5 97.8713 150.468 97.8711 150.436 97.8771C150.405 97.8832 150.375 97.8955 150.349 97.9131C150.322 97.9308 150.3 97.9536 150.282 97.9802C150.013 98.3741 149.721 98.7694 149.427 99.141C149.395 99.1666 149.37 99.2 149.355 99.2381L149.388 99.2313ZM154.801 81.3479L154.787 81.3986L154.708 82.8528C154.705 82.8848 154.709 82.9172 154.718 82.9479C154.728 82.9786 154.744 83.0071 154.765 83.0315C154.786 83.056 154.812 83.076 154.84 83.0903C154.869 83.1046 154.901 83.113 154.933 83.1149C154.996 83.117 155.058 83.0946 155.106 83.0524C155.153 83.0102 155.183 82.9514 155.188 82.8881C155.225 82.4012 155.248 81.9104 155.271 81.4196C155.273 81.3561 155.25 81.2942 155.208 81.2468C155.166 81.1994 155.107 81.17 155.044 81.1647C154.983 81.1577 154.921 81.173 154.87 81.208C154.82 81.2429 154.783 81.295 154.768 81.3547L154.801 81.3479ZM151.029 96.8138C151.014 96.866 151.016 96.922 151.036 96.9726C151.057 97.0232 151.094 97.0654 151.141 97.0923C151.169 97.1078 151.199 97.1177 151.23 97.1216C151.261 97.1254 151.293 97.123 151.324 97.1146C151.354 97.1062 151.382 97.0918 151.407 97.0724C151.432 97.0529 151.453 97.0288 151.468 97.0013C151.714 96.5779 151.954 96.1453 152.174 95.6997C152.201 95.6412 152.205 95.5744 152.183 95.5135C152.162 95.4527 152.117 95.4026 152.06 95.3739C152.002 95.3469 151.937 95.3429 151.876 95.3629C151.816 95.3829 151.766 95.4253 151.736 95.4813C151.525 95.9216 151.294 96.3489 151.052 96.7578L151.029 96.8138ZM154.61 84.2628L154.598 84.3063C154.551 84.8113 154.499 85.2944 154.443 85.7555C154.437 85.8193 154.456 85.8828 154.497 85.9327C154.537 85.9826 154.595 86.0149 154.658 86.0229C154.69 86.0275 154.722 86.0258 154.752 86.0177C154.783 86.0096 154.811 85.9953 154.836 85.9758C154.861 85.9563 154.881 85.9319 154.897 85.9042C154.912 85.8765 154.921 85.846 154.924 85.8145C154.985 85.3262 155.037 84.8431 155.083 84.3509C155.089 84.2875 155.069 84.2245 155.028 84.1758C154.987 84.127 154.929 84.0964 154.866 84.0907C154.835 84.0824 154.803 84.0805 154.771 84.0851C154.74 84.0897 154.71 84.1008 154.682 84.1175C154.655 84.1343 154.632 84.1565 154.614 84.1826C154.596 84.2088 154.583 84.2384 154.577 84.2696L154.61 84.2628ZM152.327 94.2032C152.313 94.2598 152.319 94.3196 152.345 94.372C152.371 94.4243 152.414 94.4659 152.468 94.4894C152.497 94.5016 152.528 94.5078 152.56 94.5077C152.592 94.5076 152.624 94.5012 152.653 94.4889C152.682 94.4765 152.709 94.4584 152.731 94.4356C152.753 94.4129 152.771 94.386 152.783 94.3564C152.972 93.9102 153.151 93.4457 153.323 92.9482C153.334 92.919 153.339 92.8878 153.338 92.8565C153.336 92.8252 153.329 92.7946 153.315 92.7663C153.302 92.738 153.283 92.7128 153.259 92.692C153.236 92.6713 153.209 92.6556 153.179 92.6457C153.149 92.6345 153.118 92.6293 153.086 92.6304C153.054 92.6316 153.023 92.6389 152.994 92.6521C152.966 92.6654 152.94 92.6842 152.918 92.7074C152.897 92.7307 152.88 92.758 152.869 92.7878C152.707 93.249 152.53 93.7063 152.344 94.138L152.327 94.2032ZM154.252 87.1641C154.178 87.6413 154.088 88.1219 154 88.5952C153.994 88.6262 153.994 88.6581 154 88.6891C154.006 88.7201 154.018 88.7496 154.035 88.7759C154.053 88.8023 154.075 88.8249 154.102 88.8425C154.128 88.8601 154.157 88.8723 154.188 88.8785C154.22 88.8851 154.253 88.8852 154.284 88.8788C154.316 88.8725 154.346 88.8598 154.372 88.8415C154.399 88.8233 154.422 88.7999 154.439 88.7727C154.457 88.7455 154.468 88.715 154.474 88.6832C154.6 88.2123 154.654 87.722 154.739 87.2013C154.744 87.1701 154.743 87.1381 154.736 87.1072C154.729 87.0763 154.716 87.0471 154.698 87.0212C154.68 86.9954 154.656 86.9734 154.629 86.9566C154.603 86.9398 154.573 86.9285 154.541 86.9233C154.503 86.9092 154.462 86.9049 154.422 86.911C154.382 86.917 154.344 86.9331 154.312 86.9579C154.28 86.9826 154.254 87.0151 154.238 87.0523C154.222 87.0896 154.215 87.1303 154.219 87.1707L154.252 87.1641ZM153.306 91.4453C153.29 91.5062 153.297 91.5711 153.327 91.6268C153.357 91.6824 153.407 91.7245 153.467 91.7445C153.498 91.7538 153.53 91.7568 153.562 91.7534C153.594 91.7499 153.625 91.74 153.653 91.7244C153.681 91.7087 153.706 91.6876 153.726 91.6623C153.745 91.6369 153.76 91.6078 153.768 91.5767C153.894 91.1059 154.022 90.6277 154.156 90.1279C154.165 90.0968 154.167 90.0644 154.162 90.0325C154.158 90.0007 154.147 89.97 154.131 89.9424C154.114 89.9148 154.092 89.8908 154.066 89.8719C154.04 89.8529 154.011 89.8393 153.979 89.832C153.919 89.8177 153.855 89.8276 153.801 89.8597C153.748 89.8917 153.709 89.9434 153.693 90.0036L153.314 91.4163L153.306 91.4453Z" fill="#999999"/>
<path d="M109.417 40.8931L109.08 38.6134L116.962 31.9746L116.342 29.479C115.767 27.4536 116.148 25.739 116.829 25.0518L116.794 24.8638C116.581 23.4558 117.274 22.8416 117.936 22.7472C118.598 22.6528 119.414 23.0268 119.641 24.4387L119.669 24.6248C120.353 24.971 121.393 25.9564 121.421 28.7203L121.547 31.2931L131.004 35.38L131.348 37.6617L121.802 36.8043L122.237 43.1791L124.34 44.6899L124.507 46.4738L122.302 46.0073L122.198 46.6005L120.846 46.8052L120.535 46.2559L118.53 47.3647L118.17 45.6067L119.744 43.5592L118.307 37.3277L109.417 40.8931ZM120.288 43.643L118.703 45.703L118.886 46.5284L120.711 45.5112L121.106 46.1837L121.744 46.0907L121.873 45.3488L123.931 45.7837L123.852 44.9164L121.742 43.4036L121.259 36.193L130.743 37.0493L130.542 35.6833L121.04 31.6229L120.901 28.7207C120.881 26.0442 119.897 25.2526 119.315 25.019L119.163 24.9783L119.151 24.8198C119.149 24.7207 119.14 24.622 119.121 24.5246C118.996 23.6601 118.56 23.1707 117.993 23.2594C117.426 23.3481 117.145 23.9328 117.278 24.7992C117.289 24.8959 117.308 24.9916 117.333 25.0858L117.376 25.2448L117.246 25.3499C116.713 25.7739 116.228 27.2976 116.808 29.3632L117.517 32.1622L109.608 38.8169L109.809 40.1829L118.642 36.602L120.288 43.643Z" fill="#999999"/>
</svg>
