<svg width="113" height="122" viewBox="0 0 113 122" fill="none" xmlns="http://www.w3.org/2000/svg">
<path d="M104.543 9.42737V10.795H112.387V9.42737H104.543ZM107.734 6.08697V14.4183H109.188V6.08697H107.734Z" fill="#EEC52D"/>
<path d="M104.543 35.0364V36.404H112.387V35.0364H104.543ZM107.734 31.696V40.0273H109.188V31.696H107.734Z" fill="#AFB2B7"/>
<path d="M104.543 60.6444V62.012H112.387V60.6444H104.543ZM107.734 57.304V65.6354H109.188V57.304H107.734Z" fill="#AFB2B7"/>
<path d="M78.9345 9.42737V10.795H86.7785V9.42737H78.9345ZM82.1256 6.08697V14.4183H83.5796V6.08697H82.1256Z" fill="#AFB2B7"/>
<path d="M78.9345 35.0364V36.404H86.7785V35.0364H78.9345ZM82.1256 31.696V40.0273H83.5796V31.696H82.1256Z" fill="#AFB2B7"/>
<path d="M78.9345 60.6445V62.0121H86.7785V60.6445H78.9345ZM82.1256 57.3041V65.6354H83.5796V57.3041H82.1256Z" fill="#AFB2B7"/>
<path d="M78.9345 86.253V87.6206H86.7785V86.253H78.9345ZM82.1256 82.9126V91.244H83.5796V82.9126H82.1256Z" fill="#AFB2B7"/>
<path d="M53.3261 9.42737V10.795H61.1701V9.42737H53.3261ZM56.5172 6.08697V14.4183H57.9712V6.08697H56.5172Z" fill="#AFB2B7"/>
<path d="M53.3261 35.0364V36.404H61.1701V35.0364H53.3261ZM56.5172 31.696V40.0273H57.9712V31.696H56.5172Z" fill="#AFB2B7"/>
<path d="M53.3261 60.6444V62.012H61.1701V60.6444H53.3261ZM56.5172 57.304V65.6354H57.9712V57.304H56.5172Z" fill="#3E10DA"/>
<path d="M53.3261 86.2531V87.6207H61.1701V86.2531H53.3261ZM56.5172 82.9126V91.244H57.9712V82.9126H56.5172Z" fill="#AFB2B7"/>
<path d="M53.3261 111.862V113.229H61.1701V111.862H53.3261ZM56.5172 108.521V116.853H57.9712V108.521H56.5172Z" fill="#AFB2B7"/>
<path d="M27.7167 9.42737V10.795H35.5608V9.42737H27.7167ZM30.9078 6.08697V14.4183H32.3618V6.08697H30.9078Z" fill="#AFB2B7"/>
<path d="M27.7167 35.0364V36.404H35.5608V35.0364H27.7167ZM30.9078 31.696V40.0273H32.3618V31.696H30.9078Z" fill="#AFB2B7"/>
<path d="M27.7167 60.6444V62.012H35.5608V60.6444H27.7167ZM30.9078 57.304V65.6354H32.3618V57.304H30.9078Z" fill="#AFB2B7"/>
<path d="M27.7167 86.2531V87.6207H35.5608V86.2531H27.7167ZM30.9078 82.9126V91.244H32.3618V82.9126H30.9078Z" fill="#AFB2B7"/>
<path d="M27.7167 111.862V113.229H35.5608V111.862H27.7167ZM30.9078 108.521V116.853H32.3618V108.521H30.9078Z" fill="#AFB2B7"/>
<path d="M2.10831 9.42737V10.795H9.95237V9.42737H2.10831ZM5.29938 6.08697V14.4183H6.75344V6.08697H5.29938Z" fill="#AFB2B7"/>
<path d="M2.10831 35.0364V36.404H9.95237V35.0364H2.10831ZM5.29938 31.696V40.0273H6.75344V31.696H5.29938Z" fill="#AFB2B7"/>
<path d="M2.10831 60.6444V62.012H9.95237V60.6444H2.10831ZM5.29938 57.304V65.6354H6.75344V57.304H5.29938Z" fill="#AFB2B7"/>
<path d="M2.10831 86.2531V87.6207H9.95237V86.2531H2.10831ZM5.29938 82.9126V91.244H6.75344V82.9126H5.29938Z" fill="#AFB2B7"/>
<path d="M2.10831 111.862V113.229H9.95237V111.862H2.10831ZM5.29938 108.521V116.853H6.75344V108.521H5.29938Z" fill="#AFB2B7"/>
</svg>
