<svg width="123" height="90" viewBox="0 0 123 90" fill="none" xmlns="http://www.w3.org/2000/svg">
<path d="M77.298 38.3279C77.2683 38.3044 77.2443 38.2744 77.2279 38.2403C77.2114 38.2061 77.2028 38.1687 77.2028 38.1308L77.4679 33.373L75.1774 31.9728C75.0054 31.8689 74.8558 31.732 74.737 31.57C74.6182 31.408 74.5326 31.2241 74.4852 31.0288C74.4378 30.8336 74.4296 30.6309 74.4609 30.4325C74.4922 30.2341 74.5624 30.0438 74.6676 29.8726L75.5308 28.4521C75.7432 28.1057 76.0842 27.8576 76.4791 27.7621C76.874 27.6665 77.2906 27.7313 77.6379 27.9423L77.7602 28.017L78.2972 18.2431L67.4222 12.6357C66.8529 12.2892 66.358 11.8332 65.966 11.2942C65.574 10.7553 65.2927 10.1439 65.1384 9.49556L65.0976 9.31205L63.6295 6.98073C63.3862 6.58892 63.2573 6.13691 63.2573 5.67572C63.2573 5.21454 63.3862 4.76252 63.6295 4.37071C63.87 3.97502 64.2165 3.65454 64.6297 3.44554C65.0429 3.23653 65.5063 3.14734 65.9676 3.18806L68.6864 3.42596C69.3601 3.23382 70.0664 3.18416 70.7604 3.28012C71.4543 3.37608 72.1207 3.61556 72.7169 3.98331L82.7355 11.0589L91.1772 6.11071L91.0549 6.03595C90.7085 5.82355 90.4604 5.48259 90.3649 5.08769C90.2694 4.6928 90.3342 4.27615 90.5451 3.92892L91.4083 2.50837C91.622 2.16342 91.9629 1.91651 92.3572 1.82109C92.7516 1.72568 93.1677 1.78946 93.5153 1.99861L95.8059 3.39876L99.884 0.992683C99.9185 0.974239 99.957 0.964598 99.9962 0.964598C100.035 0.964598 100.074 0.974239 100.108 0.992683L103.996 2.99775C104.033 3.01818 104.064 3.04758 104.087 3.08321C104.109 3.11884 104.123 3.15956 104.125 3.20165C104.135 3.24181 104.135 3.28385 104.125 3.32401C104.103 3.35794 104.073 3.38592 104.037 3.40557L102.039 4.52024L100.605 6.32143L101.638 6.95354C101.664 6.96952 101.686 6.99048 101.704 7.01522C101.722 7.03996 101.735 7.068 101.742 7.09769C101.748 7.12739 101.749 7.15817 101.744 7.18826C101.739 7.21834 101.729 7.24714 101.712 7.27299L101.597 7.4633L102.494 8.01385C102.645 8.10796 102.753 8.25744 102.795 8.43025C102.837 8.60306 102.809 8.78542 102.718 8.93821L101.434 11.0452C101.34 11.1961 101.19 11.3041 101.017 11.346C100.844 11.388 100.662 11.3605 100.509 11.2696L99.6121 10.719L99.4966 10.9093C99.4642 10.9616 99.4128 10.9992 99.3533 11.0144C99.2937 11.0296 99.2306 11.0212 99.1772 10.9909L97.6479 10.0529L91.755 17.4683L100.523 23.7078L106.266 21.3153L108.727 22.5795L104.873 26.8684L106.45 28.6967L104.839 31.3407L102.535 30.7086L100.496 36.0849L98.246 34.4809L97.743 28.2753L87.9895 23.232L84.2852 31.966L85.8213 32.904C85.8731 32.9351 85.9106 32.9853 85.9258 33.0437C85.941 33.1021 85.9328 33.1642 85.9029 33.2167L85.7805 33.4138L86.6845 33.9643C86.8324 34.0594 86.9377 34.2081 86.9783 34.3792C87.0188 34.5503 86.9915 34.7305 86.902 34.8819L85.6174 36.9889C85.5234 37.138 85.3751 37.2447 85.2039 37.2865C85.0327 37.3284 84.852 37.3021 84.6998 37.2132L83.7958 36.6695L83.6803 36.8598C83.6643 36.8858 83.6433 36.9083 83.6186 36.9261C83.5938 36.944 83.5658 36.9567 83.5361 36.9637C83.5064 36.9706 83.4757 36.9717 83.4456 36.9667C83.4155 36.9616 83.3867 36.9507 83.3608 36.9345L82.3277 36.3092L81.3829 38.4027L81.3082 40.6932C81.3041 40.7335 81.2926 40.7727 81.2742 40.8088C81.2493 40.8448 81.2168 40.875 81.179 40.8971C81.1426 40.9174 81.1017 40.928 81.0601 40.928C81.0185 40.928 80.9775 40.9174 80.9411 40.8971L77.298 38.3279ZM95.3029 3.66385L93.2639 2.39962C93.0213 2.25129 92.7298 2.2052 92.4534 2.27145C92.1769 2.33771 91.9379 2.51092 91.789 2.75307L90.919 4.17362C90.773 4.41745 90.729 4.70893 90.7964 4.98498C90.8639 5.26102 91.0373 5.49941 91.2792 5.64853L91.6122 5.85245L93.4746 4.75814L95.3029 3.66385ZM100.693 10.8753C100.74 10.9033 100.796 10.9119 100.849 10.8992C100.903 10.8865 100.949 10.8536 100.978 10.8074L102.263 8.69353C102.278 8.67047 102.288 8.64466 102.292 8.61766C102.297 8.59066 102.296 8.56301 102.29 8.53637C102.283 8.50973 102.272 8.48463 102.255 8.46259C102.239 8.44054 102.219 8.42199 102.195 8.40806L101.298 7.85751L99.7889 10.3248L100.693 10.8753ZM99.1568 10.4743L101.141 7.22541L100.258 6.68845L97.8721 9.69268L99.1568 10.4743ZM97.3488 9.61112L100.02 6.21268L101.638 4.17362C101.657 4.14979 101.68 4.12914 101.706 4.11245L103.371 3.18806L99.9724 1.43446L93.8552 5.00962L91.6734 6.29424L83.0822 11.3307L91.3336 17.1488L97.3488 9.61112ZM77.4 28.3501C77.1574 28.2018 76.8659 28.1557 76.5895 28.2219C76.313 28.2882 76.074 28.4614 75.9251 28.7035L75.0618 30.1241C74.9135 30.3666 74.8674 30.6581 74.9337 30.9346C74.9999 31.2111 75.1731 31.45 75.4153 31.599L77.4951 32.8632L77.6107 30.7086L77.733 28.5472L77.4 28.3501ZM65.92 3.65024C65.5438 3.61317 65.1649 3.68432 64.8277 3.8553C64.4906 4.02628 64.2093 4.28999 64.0169 4.61541C63.8158 4.93374 63.709 5.30258 63.709 5.67912C63.709 6.05567 63.8158 6.4245 64.0169 6.74284L64.9889 8.29252L64.9889 8.22455C64.9889 8.04705 65.0026 7.86981 65.0297 7.69439C65.023 7.64249 65.023 7.58996 65.0297 7.53806C65.0567 7.33835 65.0975 7.14077 65.152 6.94673L65.152 6.89237C65.2064 6.71252 65.2699 6.53557 65.3423 6.36221L65.4103 6.21946C65.4918 6.0292 65.5872 5.84518 65.6957 5.66892C65.8045 5.4922 65.9268 5.32228 66.0492 5.15915L66.1511 5.03681C66.2732 4.89214 66.4025 4.75376 66.5386 4.62221L66.5725 4.58822C66.7234 4.45192 66.8823 4.32482 67.0483 4.20759L67.1707 4.11923C67.3192 4.01744 67.4735 3.92439 67.6329 3.84056C67.6494 3.82683 67.6676 3.8154 67.6872 3.80658L65.92 3.65024ZM68.7883 3.88134C67.6803 4.20451 66.7341 4.93231 66.1375 5.9204C65.5376 6.90757 65.3291 8.08362 65.553 9.21689L65.5938 9.4072C65.8795 10.5958 66.625 11.6224 67.6668 12.2619L78.637 17.9305L87.9011 22.6883L102.249 30.1105L102.875 29.0842C101.175 28.042 99.4762 27.0043 97.777 25.9712C97.6291 25.8771 97.5232 25.7296 97.4815 25.5593C97.4398 25.389 97.4655 25.2092 97.5532 25.0574C97.6409 24.9057 97.7839 24.7937 97.9523 24.7448C98.1206 24.696 98.3014 24.7141 98.4567 24.7953L103.561 27.9015L104.166 26.9091L82.5792 11.555L82.5044 11.5074L72.5402 4.36393C71.9875 4.02479 71.3695 3.80592 70.7266 3.7216C70.0837 3.63728 69.4302 3.6894 68.8087 3.87455L68.7883 3.88134ZM107.925 22.7155L106.185 21.8183L100.978 23.9865L104.445 26.5353L104.445 26.4809L104.479 26.5217L107.925 22.7155ZM104.567 30.8038L105.824 28.7647L104.54 27.2762L103.989 28.187C104.145 28.2825 104.257 28.4361 104.3 28.6139C104.342 28.7917 104.313 28.9792 104.217 29.1351C104.122 29.2911 103.968 29.4026 103.79 29.4453C103.612 29.488 103.425 29.4584 103.269 29.3628L102.691 30.3076L104.567 30.8038ZM98.613 34.2022L100.203 35.3373L102.032 30.5795L101.977 30.5795L101.977 30.5319L98.1304 28.6152L98.613 34.2022ZM84.8629 36.7986C84.9108 36.826 84.9676 36.8335 85.0209 36.8195C85.0743 36.8056 85.1201 36.7712 85.1484 36.7238L86.4398 34.6168C86.4545 34.5928 86.4641 34.5661 86.4683 34.5383C86.4724 34.5105 86.471 34.4822 86.464 34.4549C86.4571 34.4277 86.4447 34.4021 86.4277 34.3797C86.4107 34.3573 86.3894 34.3386 86.365 34.3245L85.4678 33.7808L83.9589 36.2481L84.8629 36.7986ZM83.3336 36.3976L85.3115 33.1487L84.0269 32.3603L83.8774 32.6865L82.4433 35.8606L83.3336 36.3976ZM80.846 38.3143L80.846 38.2327L81.9131 35.8538L83.6871 31.9388L87.4933 23.0281L79.6633 18.95L78.7389 18.4674L78.1884 28.4181L78.0457 30.9057L77.6582 38.0152L80.7712 40.231L80.846 38.3143Z" fill="#B5B7BA"/>
<path d="M14.7668 66.1951C14.7371 66.1715 14.7131 66.1416 14.6966 66.1074C14.6801 66.0733 14.6716 66.0359 14.6716 65.998L14.9367 61.2402L12.6461 59.84C12.4742 59.7361 12.3245 59.5992 12.2057 59.4372C12.0869 59.2752 12.0014 59.0913 11.954 58.896C11.9066 58.7008 11.8983 58.4981 11.9296 58.2997C11.9609 58.1012 12.0312 57.9109 12.1364 57.7398L12.9996 56.3192C13.212 55.9729 13.5529 55.7248 13.9478 55.6293C14.3427 55.5337 14.7594 55.5985 15.1066 55.8095L15.2289 55.8842L15.7659 46.1103L4.8909 40.5029C4.32164 40.1563 3.82671 39.7004 3.43472 39.1614C3.04273 38.6224 2.76144 38.0111 2.60714 37.3627L2.56636 37.1792L1.09826 34.8479C0.854993 34.4561 0.726074 34.0041 0.726074 33.5429C0.726074 33.0817 0.854993 32.6297 1.09826 32.2379C1.33878 31.8422 1.68523 31.5217 2.09843 31.3127C2.51164 31.1037 2.9751 31.0145 3.43636 31.0552L6.15511 31.2931C6.8288 31.101 7.53515 31.0513 8.2291 31.1473C8.92305 31.2433 9.5894 31.4827 10.1857 31.8505L20.2043 38.926L28.646 33.9779L28.5236 33.9031C28.1773 33.6907 27.9292 33.3498 27.8337 32.9549C27.7381 32.56 27.8029 32.1433 28.0139 31.7961L28.8771 30.3756C29.0907 30.0306 29.4316 29.7837 29.826 29.6883C30.2204 29.5929 30.6364 29.6566 30.9841 29.8658L33.2747 31.2659L37.3528 28.8599C37.3873 28.8414 37.4258 28.8318 37.4649 28.8318C37.504 28.8318 37.5426 28.8414 37.5771 28.8599L41.4649 30.8649C41.5018 30.8854 41.5329 30.9148 41.5555 30.9504C41.5781 30.986 41.5913 31.0267 41.594 31.0688C41.6041 31.109 41.6041 31.151 41.594 31.1912C41.5716 31.2251 41.5413 31.2531 41.5057 31.2728L39.5074 32.3874L38.0733 34.1886L39.1064 34.8207C39.1323 34.8367 39.1549 34.8577 39.1727 34.8824C39.1906 34.9072 39.2033 34.9352 39.2103 34.9649C39.2172 34.9946 39.2182 35.0254 39.2132 35.0554C39.2082 35.0855 39.1973 35.1143 39.1811 35.1402L39.0656 35.3305L39.9628 35.881C40.1137 35.9751 40.2216 36.1246 40.2636 36.2974C40.3055 36.4702 40.278 36.6526 40.1871 36.8054L38.9025 38.9124C38.8084 39.0633 38.6589 39.1713 38.486 39.2132C38.3132 39.2552 38.1309 39.2277 37.9781 39.1367L37.0809 38.5862L36.9654 38.7765C36.933 38.8287 36.8816 38.8664 36.822 38.8816C36.7625 38.8968 36.6994 38.8884 36.6459 38.8581L35.1166 37.9201L29.2237 45.3355L37.9917 51.575L43.735 49.1825L46.1955 50.4467L42.3417 54.7356L43.9186 56.5639L42.3077 59.2079L40.0036 58.5758L37.9645 63.9521L35.7147 62.3481L35.2118 56.1425L25.4583 51.0992L21.7539 59.8332L23.29 60.7712C23.3418 60.8023 23.3793 60.8525 23.3945 60.9109C23.4098 60.9693 23.4016 61.0314 23.3716 61.0838L23.2493 61.281L24.1532 61.8315C24.3012 61.9266 24.4064 62.0753 24.447 62.2464C24.4876 62.4175 24.4602 62.5977 24.3708 62.7491L23.0861 64.8561C22.9921 65.0052 22.8439 65.1119 22.6727 65.1537C22.5015 65.1956 22.3208 65.1693 22.1686 65.0804L21.2646 64.5367L21.149 64.727C21.1331 64.7529 21.1121 64.7755 21.0873 64.7933C21.0626 64.8112 21.0346 64.8239 21.0049 64.8309C20.9752 64.8378 20.9444 64.8388 20.9143 64.8338C20.8842 64.8288 20.8554 64.8179 20.8296 64.8017L19.7964 64.1764L18.8517 66.2699L18.7769 68.5604C18.7729 68.6007 18.7613 68.6399 18.7429 68.676C18.7181 68.712 18.6856 68.7422 18.6478 68.7643C18.6114 68.7846 18.5705 68.7952 18.5288 68.7952C18.4872 68.7952 18.4463 68.7846 18.4099 68.7643L14.7668 66.1951ZM32.7717 31.531L30.7326 30.2668C30.4901 30.1185 30.1986 30.0724 29.9221 30.1386C29.6456 30.2049 29.4067 30.3781 29.2577 30.6203L28.3877 32.0408C28.2418 32.2846 28.1978 32.5761 28.2652 32.8522C28.3326 33.1282 28.506 33.3666 28.7479 33.5157L29.081 33.7196L30.9433 32.6253L32.7717 31.531ZM38.1616 38.7425C38.2087 38.7705 38.2648 38.7791 38.3181 38.7664C38.3714 38.7537 38.4177 38.7208 38.4471 38.6745L39.7317 36.5607C39.7465 36.5377 39.7564 36.5118 39.761 36.4848C39.7656 36.4578 39.7647 36.4302 39.7583 36.4036C39.752 36.3769 39.7403 36.3518 39.7241 36.3298C39.7078 36.3077 39.6873 36.2892 39.6637 36.2752L38.7665 35.7247L37.2576 38.192L38.1616 38.7425ZM36.6255 38.3415L38.6102 35.0926L37.7266 34.5556L35.3409 37.5599L36.6255 38.3415ZM34.8175 37.4783L37.4887 34.0799L39.1064 32.0408C39.1257 32.017 39.1486 31.9963 39.1743 31.9796L40.8396 31.0552L37.4411 29.3016L31.3239 32.8768L29.1421 34.1614L20.5509 39.1979L28.8023 45.016L34.8175 37.4783ZM14.8687 56.2173C14.6262 56.0689 14.3347 56.0229 14.0582 56.0891C13.7817 56.1554 13.5428 56.3286 13.3938 56.5707L12.5306 57.9913C12.3823 58.2338 12.3362 58.5253 12.4024 58.8018C12.4687 59.0783 12.6419 59.3172 12.884 59.4662L14.9639 60.7304L15.0794 58.5758L15.2018 56.4144L14.8687 56.2173ZM3.3888 31.5174C3.0126 31.4804 2.63363 31.5515 2.29648 31.7225C1.95934 31.8935 1.67803 32.1572 1.48566 32.4826C1.28454 32.8009 1.17778 33.1698 1.17778 33.5463C1.17778 33.9229 1.28454 34.2917 1.48566 34.61L2.45763 36.1597L2.45763 36.0917C2.45768 35.9142 2.47132 35.737 2.49841 35.5616C2.4918 35.5097 2.4918 35.4571 2.49841 35.4052C2.52542 35.2055 2.5663 35.008 2.62075 34.8139L2.62075 34.7596C2.67511 34.5797 2.73863 34.4028 2.81106 34.2294L2.87903 34.0866C2.96056 33.8964 3.05596 33.7124 3.16449 33.5361C3.27324 33.3594 3.3956 33.1895 3.51794 33.0263L3.61989 32.904C3.74192 32.7593 3.87124 32.621 4.00732 32.4894L4.04129 32.4554C4.19211 32.3191 4.351 32.192 4.51708 32.0748L4.63942 31.9864C4.78794 31.8846 4.94226 31.7916 5.1016 31.7077C5.11811 31.694 5.13639 31.6826 5.15597 31.6738L3.3888 31.5174ZM6.25708 31.7485C5.14902 32.0717 4.20287 32.7995 3.60628 33.7876C3.00633 34.7748 2.7978 35.9508 3.02176 37.0841L3.06254 37.2744C3.34822 38.4629 4.09377 39.4896 5.13558 40.1291L16.1057 45.7977L25.3699 50.5555L39.7181 57.9777L40.3434 56.9513C38.6442 55.9092 36.945 54.8715 35.2458 53.8384C35.0978 53.7443 34.9919 53.5968 34.9502 53.4265C34.9085 53.2562 34.9342 53.0764 35.0219 52.9246C35.1097 52.7728 35.2526 52.6609 35.421 52.612C35.5894 52.5632 35.7701 52.5813 35.9254 52.6625L41.0299 55.7687L41.6348 54.7763L20.0479 39.4222L19.9732 39.3746L10.0089 32.2311C9.45626 31.892 8.8383 31.6731 8.19536 31.5888C7.55241 31.5045 6.89892 31.5566 6.27747 31.7417L6.25708 31.7485ZM45.3935 50.5827L43.6535 49.6855L38.4471 51.8537L41.9135 54.4025L41.9135 54.3481L41.9475 54.3889L45.3935 50.5827ZM42.0358 58.671L43.2932 56.6319L42.0086 55.1434L41.4581 56.0542C41.614 56.1497 41.7256 56.3033 41.7683 56.4811C41.811 56.6589 41.7813 56.8464 41.6858 57.0023C41.5903 57.1582 41.4367 57.2698 41.2589 57.3125C41.081 57.3552 40.8935 57.3256 40.7376 57.23L40.1599 58.1748L42.0358 58.671ZM36.0818 62.0694L37.6722 63.2045L39.5006 58.4466L39.4462 58.4466L39.4462 58.3991L35.5992 56.4824L36.0818 62.0694ZM22.3317 64.6658C22.3796 64.6932 22.4363 64.7007 22.4897 64.6867C22.5431 64.6728 22.5888 64.6384 22.6171 64.591L23.9086 62.484C23.9232 62.46 23.9329 62.4333 23.937 62.4055C23.9412 62.3777 23.9397 62.3494 23.9328 62.3221C23.9258 62.2949 23.9135 62.2693 23.8965 62.2469C23.8795 62.2245 23.8582 62.2058 23.8338 62.1917L22.9366 61.648L21.4277 64.1153L22.3317 64.6658ZM20.8024 64.2648L22.7803 61.0159L21.4957 60.2274L21.3461 60.5537L19.912 63.7278L20.8024 64.2648ZM18.3147 66.1815L18.3147 66.0999L19.3818 63.721L21.1558 59.806L24.9621 50.8953L17.1321 46.8172L16.2077 46.3346L15.6572 56.2852L15.5144 58.7729L15.127 65.8824L18.24 68.0982L18.3147 66.1815Z" fill="#B5B7BA"/>
<path d="M116.193 63.0134L116.332 62.4947C116.34 62.4665 116.342 62.4372 116.338 62.4083C116.334 62.3794 116.324 62.3517 116.309 62.3267C116.294 62.3016 116.274 62.2799 116.251 62.2627C116.227 62.2455 116.2 62.2332 116.172 62.2265C116.144 62.219 116.114 62.2172 116.086 62.2212C116.057 62.2252 116.029 62.235 116.004 62.2499C115.979 62.2649 115.957 62.2847 115.94 62.3083C115.923 62.3318 115.91 62.3585 115.904 62.3869C115.789 62.8137 115.677 63.2338 115.566 63.6474C115.549 63.7033 115.555 63.7636 115.581 63.8155C115.608 63.8674 115.654 63.9067 115.71 63.9252C115.767 63.9406 115.827 63.9336 115.879 63.9056C115.931 63.8777 115.971 63.8309 115.989 63.7749L116.193 63.0134ZM116.599 61.2363C116.713 60.8095 116.756 60.3634 116.817 59.9226C116.822 59.8941 116.82 59.865 116.813 59.837C116.806 59.8091 116.793 59.7829 116.776 59.7599C116.758 59.7368 116.736 59.7176 116.711 59.7031C116.687 59.6886 116.659 59.6792 116.63 59.6755C116.602 59.6713 116.573 59.6728 116.545 59.68C116.517 59.6872 116.491 59.6998 116.468 59.7172C116.445 59.7347 116.425 59.7565 116.411 59.7814C116.396 59.8064 116.387 59.8339 116.383 59.8625C116.323 60.2968 116.25 60.7275 116.165 61.1482C116.155 61.2058 116.168 61.2652 116.201 61.3135C116.234 61.3618 116.285 61.3952 116.342 61.4067C116.37 61.4124 116.399 61.4126 116.427 61.4071C116.456 61.4016 116.482 61.3907 116.506 61.3748C116.53 61.359 116.55 61.3386 116.566 61.3148C116.582 61.291 116.594 61.2643 116.599 61.2363ZM115.577 65.0507C115.592 64.9976 115.586 64.941 115.562 64.8916C115.537 64.8423 115.496 64.8036 115.445 64.783C115.389 64.7642 115.329 64.7679 115.276 64.7932C115.223 64.8185 115.182 64.8634 115.162 64.9184C115.04 65.2445 114.914 65.5556 114.77 65.8829L114.67 66.1236C114.658 66.15 114.652 66.1785 114.651 66.2075C114.65 66.2365 114.655 66.2654 114.665 66.2924C114.676 66.3195 114.691 66.3442 114.712 66.3651C114.732 66.3859 114.756 66.4026 114.783 66.414C114.835 66.4362 114.895 66.4367 114.948 66.4154C115.001 66.394 115.044 66.3526 115.066 66.3001L115.173 66.0612C115.315 65.7404 115.44 65.4293 115.572 65.0704L115.577 65.0507ZM117.001 58.6348L117.009 58.6019C117.048 58.169 117.084 57.7211 117.104 57.2763C117.106 57.2188 117.086 57.1627 117.048 57.1198C117.009 57.0768 116.956 57.0501 116.899 57.0453C116.869 57.0433 116.84 57.0472 116.812 57.0568C116.784 57.0665 116.759 57.0817 116.737 57.1015C116.715 57.1213 116.698 57.1454 116.686 57.1722C116.673 57.199 116.667 57.228 116.666 57.2574C116.641 57.6939 116.615 58.1304 116.57 58.5616C116.565 58.619 116.583 58.676 116.62 58.7202C116.657 58.7644 116.71 58.7922 116.767 58.7973C116.815 58.7947 116.86 58.7765 116.896 58.7456C116.933 58.7146 116.958 58.6726 116.968 58.626L117.001 58.6348ZM114.518 67.4548C114.53 67.4063 114.525 67.3549 114.504 67.3095C114.483 67.2641 114.447 67.2274 114.402 67.2056C114.376 67.1916 114.348 67.183 114.319 67.1803C114.29 67.1776 114.261 67.181 114.234 67.1901C114.206 67.1993 114.181 67.214 114.159 67.2334C114.137 67.2528 114.12 67.2764 114.108 67.3029C113.915 67.6805 113.706 68.0677 113.484 68.4514C113.47 68.4763 113.461 68.5037 113.457 68.5321C113.454 68.5604 113.456 68.5892 113.463 68.6167C113.471 68.6443 113.484 68.67 113.502 68.6925C113.519 68.7151 113.541 68.7339 113.566 68.7479C113.617 68.7767 113.677 68.7844 113.734 68.7694C113.791 68.7543 113.839 68.7176 113.869 68.6673C114.092 68.2836 114.303 67.8898 114.499 67.499L114.518 67.4548ZM117.136 56.004L117.15 55.9515C117.147 55.5145 117.146 55.071 117.126 54.6222C117.123 54.5647 117.098 54.5105 117.056 54.4715C117.014 54.4325 116.958 54.4118 116.9 54.414C116.871 54.4142 116.843 54.4204 116.817 54.4321C116.79 54.4437 116.767 54.4607 116.747 54.4818C116.728 54.5029 116.713 54.5279 116.703 54.555C116.694 54.5822 116.69 54.611 116.692 54.6397C116.701 55.0784 116.71 55.5171 116.708 55.9457C116.707 55.9745 116.711 56.0033 116.722 56.0302C116.732 56.0572 116.748 56.0817 116.768 56.1023C116.788 56.1229 116.812 56.1391 116.839 56.1499C116.866 56.1608 116.895 56.166 116.923 56.1653C116.967 56.1595 117.008 56.1399 117.041 56.1093C117.073 56.0788 117.095 56.0388 117.103 55.9952L117.136 56.004ZM113.212 69.7295C113.223 69.6839 113.22 69.6357 113.203 69.592C113.185 69.5482 113.155 69.5109 113.115 69.4855C113.066 69.4549 113.008 69.4447 112.951 69.4574C112.895 69.47 112.846 69.5044 112.816 69.553C112.583 69.9201 112.338 70.2836 112.082 70.6371C112.05 70.6856 112.037 70.7443 112.047 70.8016C112.056 70.8589 112.087 70.9105 112.133 70.9463C112.182 70.9797 112.242 70.9924 112.3 70.9817C112.358 70.9709 112.41 70.9375 112.444 70.8888C112.7 70.5354 112.949 70.1587 113.181 69.7917L113.212 69.7295ZM117.042 53.3612L117.061 53.289C117.024 52.8498 116.98 52.4088 116.928 51.9727C116.925 51.944 116.916 51.9161 116.902 51.8908C116.888 51.8656 116.869 51.8433 116.846 51.8254C116.824 51.8075 116.798 51.7944 116.77 51.7867C116.742 51.779 116.713 51.777 116.684 51.7807C116.655 51.7838 116.627 51.7926 116.602 51.8067C116.577 51.8207 116.555 51.8396 116.537 51.8624C116.519 51.8851 116.506 51.9111 116.498 51.939C116.49 51.9669 116.488 51.996 116.492 52.0247C116.546 52.4543 116.591 52.8887 116.622 53.3261C116.627 53.3834 116.655 53.4364 116.699 53.4733C116.743 53.5102 116.8 53.528 116.857 53.523C116.894 53.5125 116.927 53.4923 116.953 53.4646C116.979 53.4369 116.997 53.4026 117.005 53.3655L117.042 53.3612ZM111.687 71.8752C111.697 71.8339 111.696 71.7906 111.683 71.7499C111.67 71.7092 111.647 71.6729 111.615 71.6448C111.591 71.6168 111.561 71.595 111.526 71.5815C111.492 71.5679 111.455 71.563 111.419 71.5671C111.382 71.5712 111.347 71.5842 111.317 71.605C111.286 71.6259 111.262 71.6538 111.245 71.6864C110.979 72.0232 110.704 72.3649 110.418 72.6964C110.399 72.7181 110.385 72.7433 110.376 72.7706C110.367 72.7979 110.363 72.8268 110.365 72.8555C110.367 72.8842 110.375 72.9122 110.388 72.9379C110.401 72.9636 110.419 72.9864 110.441 73.0051C110.486 73.0417 110.542 73.0597 110.6 73.0555C110.657 73.0512 110.711 73.025 110.75 72.9822C111.037 72.6442 111.32 72.2977 111.595 71.9561L111.687 71.8752ZM116.723 50.7426C116.737 50.7162 116.744 50.687 116.746 50.6573C116.672 50.2224 116.592 49.7858 116.504 49.354C116.499 49.3257 116.488 49.2987 116.472 49.2745C116.456 49.2504 116.436 49.2297 116.412 49.2135C116.389 49.1973 116.362 49.186 116.333 49.1802C116.305 49.1744 116.276 49.1743 116.248 49.1799C116.19 49.1916 116.139 49.2257 116.106 49.2749C116.073 49.3241 116.061 49.3843 116.072 49.4424C116.162 49.8676 116.244 50.2976 116.313 50.7242C116.317 50.7525 116.326 50.7798 116.341 50.8045C116.355 50.8291 116.374 50.8507 116.397 50.8679C116.42 50.8852 116.446 50.8977 116.474 50.9049C116.501 50.912 116.53 50.9137 116.558 50.9097C116.591 50.8948 116.62 50.8723 116.642 50.844C116.665 50.8156 116.68 50.7824 116.687 50.747L116.723 50.7426ZM109.963 73.8692C109.973 73.8321 109.974 73.7929 109.964 73.7557C109.954 73.7185 109.935 73.6845 109.907 73.6572C109.887 73.6369 109.862 73.621 109.835 73.6104C109.808 73.5997 109.779 73.5946 109.75 73.5954C109.721 73.5961 109.692 73.6027 109.666 73.6147C109.639 73.6267 109.615 73.6438 109.596 73.6652C109.294 73.9783 108.985 74.2897 108.647 74.5791C108.606 74.621 108.583 74.6767 108.582 74.7351C108.58 74.7935 108.601 74.8503 108.64 74.8939C108.66 74.9145 108.684 74.931 108.71 74.9425C108.736 74.9539 108.765 74.96 108.793 74.9605C108.822 74.961 108.85 74.9558 108.877 74.9453C108.904 74.9347 108.928 74.919 108.948 74.8991C109.268 74.5978 109.579 74.2799 109.904 73.9589C109.925 73.9361 109.942 73.9095 109.953 73.8806L109.963 73.8692ZM116.196 48.1667C116.215 48.135 116.225 48.0986 116.224 48.0616C116.114 47.6311 116.003 47.2072 115.865 46.7762C115.846 46.7207 115.808 46.6743 115.756 46.6462C115.705 46.6181 115.645 46.6105 115.589 46.6248C115.533 46.6432 115.487 46.6819 115.459 46.7331C115.431 46.7843 115.423 46.8443 115.437 46.9009C115.564 47.3218 115.677 47.7392 115.802 48.1667C115.808 48.195 115.82 48.2218 115.837 48.2454C115.854 48.269 115.876 48.289 115.9 48.3042C115.925 48.3194 115.953 48.3294 115.981 48.3338C116.01 48.3381 116.04 48.3366 116.068 48.3294C116.091 48.3088 116.109 48.2835 116.121 48.2553C116.134 48.2271 116.14 48.1966 116.14 48.1657L116.196 48.1667ZM108.068 75.6905C108.077 75.655 108.077 75.6178 108.068 75.5823C108.059 75.5468 108.041 75.5141 108.017 75.4868C107.977 75.4452 107.923 75.4201 107.865 75.4164C107.808 75.4126 107.751 75.4306 107.706 75.4668C107.383 75.7532 107.04 76.0343 106.701 76.3023C106.657 76.3395 106.629 76.3922 106.622 76.4495C106.616 76.5068 106.632 76.5643 106.667 76.61C106.685 76.6328 106.707 76.6519 106.731 76.6662C106.756 76.6806 106.784 76.6899 106.812 76.6935C106.841 76.6972 106.87 76.6953 106.897 76.6878C106.925 76.6803 106.951 76.6673 106.973 76.6498C107.321 76.377 107.665 76.0893 107.997 75.7981C108.026 75.773 108.048 75.7394 108.058 75.7019L108.068 75.6905ZM115.421 45.6229C115.431 45.5802 115.429 45.5353 115.413 45.4941C115.272 45.0763 115.115 44.6615 114.957 44.2532C114.947 44.2254 114.932 44.1998 114.912 44.1782C114.892 44.1565 114.867 44.1392 114.84 44.1274C114.813 44.1155 114.784 44.1093 114.754 44.1091C114.724 44.1089 114.695 44.1148 114.668 44.1264C114.641 44.1372 114.617 44.1532 114.597 44.1734C114.576 44.1936 114.56 44.2177 114.549 44.2441C114.538 44.2706 114.533 44.299 114.533 44.3277C114.533 44.3564 114.538 44.3848 114.549 44.4112C114.707 44.8195 114.866 45.1997 114.993 45.6421C115.014 45.6961 115.055 45.74 115.108 45.7645C115.16 45.789 115.22 45.7924 115.275 45.7738C115.307 45.7632 115.336 45.7449 115.36 45.7206C115.384 45.6963 115.401 45.6667 115.411 45.6343L115.421 45.6229ZM105.965 77.3154C105.973 77.2838 105.974 77.2509 105.968 77.2189C105.962 77.1869 105.949 77.1566 105.93 77.1301C105.913 77.1071 105.892 77.0876 105.867 77.0728C105.843 77.058 105.816 77.0482 105.787 77.0439C105.759 77.0396 105.73 77.0409 105.703 77.0478C105.675 77.0546 105.649 77.0668 105.626 77.0838C105.279 77.3286 104.905 77.5943 104.543 77.8141C104.493 77.844 104.457 77.8923 104.442 77.9487C104.427 78.0051 104.434 78.0651 104.463 78.1161C104.477 78.1416 104.496 78.164 104.519 78.1819C104.542 78.1999 104.568 78.213 104.596 78.2206C104.625 78.2281 104.654 78.2299 104.683 78.2259C104.712 78.2218 104.74 78.212 104.765 78.197C105.138 77.9593 105.512 77.6936 105.863 77.4571C105.89 77.4409 105.913 77.4193 105.931 77.3938C105.948 77.3683 105.961 77.3393 105.967 77.3088L105.965 77.3154ZM114.453 43.1681C114.466 43.1205 114.463 43.0696 114.442 43.0245C114.263 42.6176 114.067 42.2202 113.877 41.8246C113.863 41.7991 113.844 41.7768 113.821 41.7588C113.798 41.7409 113.772 41.7277 113.743 41.7202C113.715 41.7126 113.686 41.7108 113.657 41.7149C113.628 41.7189 113.6 41.7287 113.575 41.7437C113.526 41.7726 113.49 41.8199 113.475 41.8752C113.46 41.9305 113.468 41.9894 113.496 42.0392C113.687 42.4282 113.872 42.8434 114.056 43.2307C114.085 43.2801 114.132 43.3162 114.188 43.331C114.243 43.3458 114.302 43.3382 114.352 43.3099C114.376 43.2962 114.397 43.2778 114.414 43.2557C114.431 43.2335 114.443 43.2082 114.45 43.1813L114.453 43.1681ZM103.723 78.7483C103.735 78.6909 103.726 78.6313 103.698 78.5797C103.667 78.5309 103.619 78.4954 103.563 78.4805C103.507 78.4655 103.447 78.472 103.396 78.4988C103.021 78.7151 102.634 78.9278 102.249 79.1275C102.2 79.1564 102.164 79.2036 102.149 79.2589C102.134 79.3142 102.142 79.3732 102.17 79.4229C102.2 79.471 102.248 79.506 102.302 79.5207C102.357 79.5353 102.416 79.5287 102.466 79.5021C102.865 79.2994 103.279 79.0937 103.635 78.8656C103.677 78.837 103.707 78.7959 103.723 78.7483ZM113.246 40.8182C113.26 40.7622 113.254 40.7029 113.228 40.6514C113.008 40.2619 112.781 39.8772 112.549 39.5056C112.52 39.4555 112.471 39.419 112.415 39.4039C112.358 39.3888 112.298 39.3962 112.247 39.4247C112.198 39.4536 112.162 39.5009 112.147 39.5562C112.132 39.6115 112.14 39.6704 112.168 39.7202C112.393 40.0899 112.616 40.4663 112.83 40.8475C112.86 40.8976 112.908 40.9341 112.965 40.9492C113.021 40.9643 113.081 40.9569 113.132 40.9284C113.162 40.9226 113.19 40.9104 113.214 40.8925C113.238 40.8747 113.258 40.8517 113.272 40.8252L113.246 40.8182ZM101.355 79.9434C101.37 79.8938 101.366 79.8407 101.346 79.7932C101.316 79.7431 101.268 79.7066 101.212 79.6914C101.155 79.6763 101.095 79.6838 101.044 79.7123C100.652 79.8887 100.247 80.0616 99.8405 80.213C99.7873 80.2351 99.7446 80.2768 99.7213 80.3295C99.698 80.3823 99.6959 80.4419 99.7154 80.4961C99.7248 80.5237 99.7398 80.5489 99.7595 80.5703C99.7791 80.5918 99.803 80.6089 99.8296 80.6206C99.8562 80.6324 99.8849 80.6385 99.914 80.6386C99.9431 80.6387 99.9718 80.6328 99.9985 80.6213C100.413 80.465 100.792 80.2851 101.225 80.1127C101.266 80.1054 101.305 80.0868 101.336 80.0591C101.367 80.0314 101.389 79.9956 101.401 79.9557L101.355 79.9434ZM111.828 38.5735C111.838 38.5429 111.841 38.5103 111.836 38.4784C111.831 38.4465 111.819 38.4162 111.8 38.39C111.545 38.0263 111.289 37.6692 111.018 37.3151C111.001 37.2923 110.979 37.2732 110.954 37.2589C110.929 37.2446 110.902 37.2353 110.874 37.2316C110.845 37.2279 110.816 37.2299 110.789 37.2374C110.761 37.2449 110.735 37.2578 110.712 37.2753C110.666 37.3115 110.635 37.3646 110.627 37.4231C110.62 37.4816 110.635 37.5408 110.671 37.5879C110.932 37.9253 111.188 38.2825 111.438 38.6378C111.468 38.688 111.516 38.7245 111.573 38.7396C111.629 38.7547 111.689 38.7472 111.74 38.7188C111.77 38.7069 111.798 38.6891 111.821 38.6662C111.844 38.6433 111.862 38.616 111.874 38.5858L111.828 38.5735ZM98.8993 80.8896C98.9124 80.8504 98.9114 80.8078 98.8963 80.7692C98.8781 80.7136 98.8388 80.6673 98.7869 80.6403C98.735 80.6132 98.6745 80.6075 98.6185 80.6244C98.209 80.761 97.7881 80.8874 97.3724 80.9942C97.3445 81.0013 97.3182 81.014 97.2952 81.0313C97.2722 81.0487 97.2528 81.0705 97.2383 81.0954C97.2237 81.1203 97.2143 81.1479 97.2105 81.1765C97.2067 81.2051 97.2087 81.2341 97.2163 81.262C97.2322 81.3175 97.2689 81.3647 97.3188 81.3938C97.3687 81.4229 97.4278 81.4316 97.484 81.4182C97.9097 81.3 98.3372 81.1753 98.7563 81.0554C98.7966 81.0476 98.8339 81.0286 98.8639 81.0005C98.8938 80.9724 98.9152 80.9364 98.9255 80.8967L98.8993 80.8896ZM110.228 36.484C110.238 36.4493 110.239 36.4127 110.231 36.3775C110.223 36.3422 110.207 36.3095 110.183 36.2822C109.9 35.946 109.603 35.6129 109.301 35.2929C109.262 35.2509 109.208 35.2261 109.151 35.2238C109.093 35.2216 109.037 35.2423 108.995 35.2812C108.952 35.3213 108.927 35.3765 108.924 35.435C108.922 35.4934 108.942 35.5506 108.981 35.5942C109.278 35.9059 109.569 36.2372 109.854 36.5668C109.872 36.5891 109.895 36.6075 109.92 36.621C109.946 36.6344 109.974 36.6426 110.003 36.6451C110.032 36.6476 110.061 36.6443 110.088 36.6354C110.116 36.6266 110.141 36.6123 110.163 36.5934C110.208 36.5716 110.246 36.538 110.274 36.4964L110.228 36.484ZM96.3586 81.574C96.3762 81.5442 96.3853 81.5101 96.385 81.4755C96.373 81.4191 96.3391 81.3698 96.2908 81.3384C96.2425 81.307 96.1837 81.296 96.1273 81.3079C95.6955 81.3963 95.2655 81.4781 94.8407 81.5402C94.8124 81.544 94.7852 81.5536 94.7606 81.5683C94.7361 81.5829 94.7149 81.6024 94.6981 81.6256C94.6814 81.6488 94.6695 81.6751 94.6633 81.703C94.657 81.7308 94.6565 81.7597 94.6618 81.7878C94.6657 81.8161 94.6752 81.8434 94.6897 81.8681C94.7042 81.8928 94.7234 81.9143 94.7462 81.9316C94.769 81.9488 94.7951 81.9613 94.8228 81.9685C94.8505 81.9757 94.8793 81.9773 94.9076 81.9733C95.3407 81.9064 95.7773 81.8264 96.2157 81.7398C96.2586 81.7351 96.2992 81.7181 96.3327 81.6909C96.3663 81.6637 96.3912 81.6273 96.4046 81.5863L96.3586 81.574ZM108.428 34.5594C108.438 34.5223 108.438 34.4832 108.428 34.4461C108.418 34.409 108.399 34.3751 108.373 34.3475C108.05 34.0453 107.722 33.7463 107.389 33.4505C107.367 33.4315 107.342 33.4171 107.314 33.4079C107.287 33.3988 107.258 33.3953 107.229 33.3974C107.201 33.3995 107.173 33.4073 107.147 33.4203C107.121 33.4334 107.099 33.4514 107.08 33.4733C107.061 33.495 107.046 33.5202 107.037 33.5475C107.028 33.5748 107.025 33.6037 107.027 33.6324C107.029 33.6611 107.037 33.6891 107.05 33.7148C107.063 33.7405 107.081 33.7633 107.103 33.782C107.428 34.0661 107.756 34.3651 108.062 34.6653C108.083 34.6857 108.108 34.7016 108.135 34.7123C108.162 34.7229 108.191 34.728 108.22 34.7272C108.249 34.7265 108.277 34.7199 108.304 34.7079C108.33 34.696 108.354 34.6787 108.374 34.6574C108.416 34.6412 108.452 34.611 108.474 34.5717L108.428 34.5594ZM93.7482 81.9934L93.7676 81.9212C93.7611 81.863 93.7321 81.8096 93.6869 81.7725C93.6416 81.7354 93.5836 81.7175 93.5253 81.7225C93.1999 81.755 92.8698 81.7791 92.5431 81.7901L92.2231 81.8028C92.1656 81.8052 92.1114 81.8303 92.0723 81.8726C92.0333 81.9149 92.0126 81.971 92.0148 82.0285C92.0152 82.0574 92.0213 82.0859 92.0328 82.1124C92.0443 82.1389 92.0609 82.1629 92.0818 82.1829C92.1026 82.2029 92.1272 82.2185 92.1542 82.2289C92.1811 82.2393 92.2099 82.2442 92.2387 82.2433L92.5588 82.2306C92.9003 82.2165 93.2305 82.1924 93.569 82.1635C93.6243 82.165 93.6784 82.1466 93.7214 82.1116C93.7643 82.0767 93.7933 82.0274 93.803 81.9729L93.7482 81.9934ZM91.1137 82.0826L91.1278 82.0301C91.1284 81.972 91.1064 81.916 91.0665 81.8739C91.0266 81.8317 90.972 81.8066 90.914 81.8039C90.4871 81.7951 90.0489 81.7762 89.6076 81.7424C89.5794 81.7398 89.5509 81.743 89.524 81.7517C89.497 81.7604 89.4721 81.7745 89.4507 81.7931C89.4293 81.8116 89.4118 81.8344 89.3994 81.8598C89.387 81.8853 89.3798 81.913 89.3784 81.9413C89.3733 81.9987 89.3912 82.0558 89.4282 82.1C89.4651 82.1442 89.5181 82.1719 89.5755 82.1771C90.0234 82.2126 90.4682 82.2333 90.9016 82.2439C90.9311 82.25 90.9616 82.2502 90.9911 82.2443C91.0207 82.2384 91.0488 82.2267 91.0737 82.2097C91.0986 82.1927 91.1198 82.1709 91.1361 82.1455C91.1524 82.1202 91.1634 82.0918 91.1685 82.0621L91.1137 82.0826ZM88.4857 81.8851L88.4945 81.8522C88.501 81.7953 88.4849 81.7382 88.4495 81.6931C88.4142 81.6481 88.3624 81.6188 88.3056 81.6116C87.8527 81.5513 87.4185 81.4912 87.0029 81.4314C86.9748 81.4265 86.9461 81.4273 86.9184 81.4338C86.8906 81.4403 86.8645 81.4524 86.8416 81.4692C86.8187 81.4861 86.7994 81.5075 86.7849 81.532C86.7705 81.5565 86.7611 81.5837 86.7575 81.612C86.7526 81.6403 86.7533 81.6693 86.7596 81.6973C86.7659 81.7253 86.7777 81.7518 86.7944 81.7752C86.811 81.7986 86.8321 81.8185 86.8564 81.8338C86.8808 81.849 86.9079 81.8592 86.9363 81.8639C87.3753 81.9323 87.8096 81.9924 88.2521 82.0477C88.2831 82.06 88.3166 82.0648 88.3498 82.0617C88.383 82.0586 88.4149 82.0476 88.4431 82.0298C88.4712 82.0119 88.4947 81.9876 88.5117 81.9589C88.5286 81.9302 88.5385 81.8978 88.5405 81.8645L88.4857 81.8851ZM85.8859 81.477C85.8909 81.4487 85.8902 81.4197 85.8838 81.3917C85.8775 81.3636 85.8657 81.3371 85.8491 81.3137C85.8324 81.2903 85.8113 81.2704 85.787 81.2552C85.7626 81.2399 85.7355 81.2297 85.7072 81.225C85.287 81.1124 84.8527 81.0523 84.4273 80.9595C84.3989 80.9527 84.3694 80.9518 84.3407 80.9567C84.3119 80.9616 84.2844 80.9722 84.2599 80.9879C84.2353 81.0037 84.2141 81.0242 84.1977 81.0483C84.1812 81.0724 84.1697 81.0995 84.164 81.1281C84.1572 81.1565 84.1563 81.186 84.1612 81.2148C84.1661 81.2435 84.1767 81.271 84.1925 81.2956C84.2082 81.3201 84.2287 81.3413 84.2528 81.3578C84.2769 81.3743 84.304 81.3857 84.3326 81.3915C84.7594 81.5058 85.1984 81.5742 85.6274 81.654C85.6607 81.6703 85.6977 81.6779 85.7348 81.6759C85.7719 81.6739 85.8078 81.6625 85.8392 81.6427C85.8706 81.6229 85.8964 81.5954 85.9142 81.5628C85.932 81.5302 85.9411 81.4936 85.9407 81.4564L85.8859 81.477ZM83.3118 80.9209C83.3193 80.8931 83.321 80.8639 83.3168 80.8354C83.3126 80.8069 83.3026 80.7795 83.2874 80.7549C83.2722 80.7304 83.2522 80.7093 83.2285 80.6928C83.2048 80.6764 83.1779 80.665 83.1496 80.6593C82.7229 80.545 82.3027 80.4324 81.8825 80.3198C81.8268 80.3049 81.7674 80.3127 81.7175 80.3415C81.6675 80.3704 81.6311 80.4179 81.6162 80.4736C81.6096 80.5014 81.6086 80.5303 81.6132 80.5585C81.6178 80.5867 81.628 80.6137 81.643 80.638C81.6581 80.6623 81.6778 80.6834 81.701 80.7C81.7242 80.7167 81.7505 80.7287 81.7783 80.7352C82.1985 80.8478 82.6252 80.9621 83.0519 81.0764C83.0837 81.0924 83.119 81.1004 83.1545 81.0996C83.1901 81.0989 83.2249 81.0894 83.256 81.072C83.2871 81.0546 83.3134 81.0299 83.3326 81C83.3519 80.97 83.3635 80.9358 83.3665 80.9004L83.3118 80.9209ZM80.7539 80.2777C80.7688 80.2225 80.762 80.1637 80.735 80.1133C80.7079 80.0628 80.6627 80.0247 80.6084 80.0065C80.2079 79.8992 79.7877 79.7867 79.3655 79.6031C79.31 79.5844 79.2494 79.588 79.1966 79.6133C79.1438 79.6386 79.103 79.6835 79.0829 79.7385C79.0659 79.794 79.0703 79.8539 79.0954 79.9063C79.1205 79.9586 79.1644 79.9996 79.2183 80.0211C79.6542 80.1801 80.0822 80.3159 80.5138 80.4386C80.5695 80.4535 80.6288 80.4457 80.6788 80.4168C80.7288 80.388 80.7652 80.3405 80.7801 80.2848L80.7539 80.2777ZM78.276 79.3886C78.2902 79.3373 78.285 79.2825 78.2615 79.2347C78.238 79.1869 78.1978 79.1494 78.1484 79.1293C77.7572 78.9611 77.3612 78.7846 76.9556 78.5915C76.9025 78.5669 76.842 78.564 76.7868 78.5834C76.7317 78.6028 76.6863 78.643 76.6603 78.6954C76.6358 78.7484 76.6329 78.8089 76.6523 78.8641C76.6717 78.9192 76.7118 78.9646 76.7642 78.9906C77.1764 79.1855 77.579 79.3637 77.9768 79.5336C78.0313 79.5563 78.0925 79.5565 78.1472 79.5343C78.2019 79.512 78.2457 79.4691 78.2689 79.4149L78.276 79.3886ZM75.8894 78.2636C75.9031 78.215 75.8989 78.1632 75.8776 78.1174C75.8563 78.0717 75.8193 78.0351 75.7733 78.0143C75.3974 77.8151 75.0102 77.6058 74.6247 77.3899C74.5727 77.3611 74.5114 77.3541 74.4542 77.3705C74.3971 77.3868 74.3488 77.4252 74.3199 77.4771C74.2932 77.5287 74.2876 77.5886 74.3042 77.6442C74.3208 77.6998 74.3583 77.7469 74.4088 77.7754C74.8009 77.993 75.1881 78.2024 75.5771 78.4051C75.6291 78.4296 75.6886 78.4332 75.7432 78.4151C75.7979 78.397 75.8434 78.3586 75.8705 78.3078L75.8894 78.2636ZM73.588 76.9784C73.5993 76.9319 73.5955 76.8829 73.5769 76.8386C73.5584 76.7944 73.5261 76.7573 73.485 76.7327C73.1144 76.5138 72.7408 76.28 72.3671 76.0462C72.3433 76.0301 72.3164 76.019 72.2882 76.0137C72.2599 76.0083 72.2308 76.0088 72.2028 76.0152C72.1747 76.0215 72.1482 76.0335 72.125 76.0504C72.1017 76.0674 72.0822 76.0889 72.0676 76.1137C72.0515 76.1375 72.0404 76.1644 72.0351 76.1927C72.0297 76.2209 72.0302 76.25 72.0366 76.2781C72.0429 76.3061 72.0549 76.3326 72.0718 76.3558C72.0888 76.3791 72.1103 76.3986 72.1351 76.4132C72.507 76.6536 72.8806 76.8874 73.2577 77.1081C73.2823 77.1233 73.3096 77.1334 73.3382 77.1379C73.3667 77.1424 73.3959 77.1411 73.4239 77.1342C73.452 77.1273 73.4783 77.1149 73.5015 77.0977C73.5247 77.0805 73.5443 77.0589 73.559 77.034L73.588 76.9784ZM71.3647 75.5594C71.3775 75.5148 71.3758 75.4671 71.3596 75.4235C71.3434 75.3799 71.3137 75.3427 71.2748 75.3172C70.9112 75.072 70.556 74.822 70.2026 74.5655C70.1796 74.5479 70.1533 74.5352 70.1253 74.5279C70.0973 74.5206 70.0682 74.519 70.0395 74.5231C70.0109 74.5272 69.9834 74.537 69.9586 74.5519C69.9338 74.5668 69.9122 74.5865 69.8951 74.6098C69.8616 74.6578 69.8481 74.717 69.8576 74.7747C69.8671 74.8325 69.8988 74.8842 69.946 74.919C70.2994 75.1755 70.6595 75.4338 71.0296 75.6807C71.0767 75.7138 71.135 75.7268 71.1918 75.717C71.2485 75.7071 71.299 75.6752 71.3322 75.6281L71.3647 75.5594ZM69.2343 74.0035C69.2451 73.9613 69.2435 73.9169 69.2296 73.8757C69.2156 73.8345 69.19 73.7982 69.1558 73.7713C68.8058 73.5016 68.4642 73.2272 68.1375 72.9496C68.1158 72.9299 68.0902 72.9149 68.0623 72.9056C68.0345 72.8963 68.005 72.8929 67.9758 72.8957C67.9465 72.8984 67.9182 72.9073 67.8926 72.9216C67.867 72.936 67.8447 72.9555 67.8271 72.979C67.8084 73.0003 67.7941 73.025 67.7852 73.0519C67.7763 73.0788 67.7729 73.1071 67.7752 73.1353C67.7775 73.1635 67.7855 73.191 67.7986 73.216C67.8117 73.2411 67.8298 73.2632 67.8516 73.2812C68.1897 73.5688 68.5314 73.8433 68.8861 74.1213C68.9086 74.1389 68.9344 74.1519 68.962 74.1596C68.9895 74.1672 69.0184 74.1693 69.0467 74.1658C69.0751 74.1623 69.1026 74.1532 69.1275 74.1391C69.1523 74.125 69.1742 74.1061 69.1917 74.0836L69.2343 74.0035ZM69.0775 67.8396C69.1919 67.4128 69.2489 66.9637 69.3089 66.5295C69.3141 66.5008 69.3133 66.4713 69.3065 66.443C69.2997 66.4147 69.2872 66.3881 69.2696 66.3648C69.252 66.3416 69.2298 66.3223 69.2044 66.3081C69.1789 66.2939 69.1508 66.2851 69.1218 66.2823C69.0933 66.2781 69.0642 66.2797 69.0363 66.2868C69.0083 66.294 68.9821 66.3067 68.9591 66.3241C68.9361 66.3415 68.9168 66.3633 68.9023 66.3882C68.8878 66.4132 68.8784 66.4408 68.8747 66.4694C68.8181 66.8905 68.7366 67.326 68.6455 67.7449C68.6388 67.7733 68.6378 67.8028 68.6427 67.8315C68.6476 67.8603 68.6582 67.8878 68.674 67.9124C68.6897 67.9369 68.7102 67.9581 68.7343 67.9746C68.7584 67.991 68.7856 68.0025 68.8142 68.0083C68.8472 68.0236 68.8836 68.0306 68.92 68.0287C68.9564 68.0268 68.9918 68.0161 69.0231 67.9975C69.0544 67.9789 69.0807 67.9529 69.0997 67.9218C69.1188 67.8907 69.1299 67.8554 69.1323 67.8191L69.0775 67.8396ZM68.7362 69.1132C68.7527 69.0591 68.7474 69.0007 68.7214 68.9504C68.6955 68.9 68.651 68.8618 68.5973 68.8438C68.5414 68.8269 68.4811 68.8325 68.4293 68.8593C68.3774 68.8861 68.338 68.9321 68.3196 68.9875C68.2052 69.4143 68.0335 69.8186 67.8671 70.2033C67.8463 70.258 67.8469 70.3185 67.8689 70.3728C67.891 70.427 67.9328 70.4708 67.9859 70.4954C68.0125 70.5065 68.0411 70.5122 68.07 70.5121C68.0988 70.512 68.1273 70.5062 68.1539 70.495C68.1805 70.4838 68.2046 70.4674 68.2248 70.4468C68.245 70.4262 68.2608 70.4017 68.2715 70.3749C68.4414 69.9772 68.5969 69.5544 68.7415 69.0936L68.7362 69.1132ZM69.4313 65.2323L69.4436 65.1864C69.466 64.7396 69.4615 64.2919 69.4299 63.8457C69.4262 63.7873 69.3999 63.7327 69.3565 63.6935C69.3131 63.6543 69.2561 63.6335 69.1977 63.6357C69.1689 63.6375 69.1407 63.645 69.1148 63.6578C69.089 63.6705 69.0659 63.6883 69.047 63.7101C69.028 63.7319 69.0136 63.7572 69.0046 63.7846C68.9955 63.812 68.992 63.841 68.9943 63.8697C69.024 64.3017 69.0277 64.735 69.0054 65.1675C69.0042 65.1964 69.0089 65.2253 69.0191 65.2525C69.0292 65.2797 69.0447 65.3045 69.0647 65.3256C69.0846 65.3466 69.1085 65.3635 69.1351 65.3752C69.1616 65.3869 69.1902 65.3932 69.2192 65.3936C69.2485 65.3998 69.2787 65.3998 69.3079 65.3938C69.3372 65.3878 69.3649 65.3757 69.3893 65.3585C69.4138 65.3413 69.4344 65.3192 69.4499 65.2937C69.4654 65.2681 69.4755 65.2397 69.4795 65.21L69.4313 65.2323ZM67.6966 71.5227C67.7091 71.4761 67.7058 71.4266 67.6871 71.3822C67.6684 71.3377 67.6355 71.3007 67.5935 71.2769C67.5429 71.2503 67.484 71.2439 67.4289 71.2593C67.3738 71.2746 67.3266 71.3104 67.297 71.3593C67.19 71.5488 67.0698 71.7347 66.9531 71.9075C66.6999 71.6708 66.4484 71.4275 66.2101 71.1877C66.1681 71.1458 66.1113 71.1222 66.0519 71.1222C65.9926 71.1221 65.9357 71.1455 65.8936 71.1873C65.8553 71.23 65.8343 71.2853 65.8346 71.3426C65.8348 71.3999 65.8563 71.455 65.8949 71.4973C66.1512 71.7489 66.4188 72.0106 66.7014 72.2693L66.5769 72.4189C66.5408 72.4652 66.5243 72.5239 66.531 72.5823C66.5377 72.6407 66.5671 72.6941 66.6128 72.7311C66.6354 72.7487 66.6611 72.7617 66.6887 72.7694C66.7163 72.777 66.7451 72.7791 66.7735 72.7756C66.8019 72.7721 66.8293 72.7631 66.8542 72.7489C66.879 72.7348 66.9009 72.7159 66.9185 72.6934L67.1189 72.4445L67.1658 72.4007C67.1847 72.3666 67.195 72.3282 67.1957 72.2891C67.3544 72.0643 67.5036 71.8228 67.6479 71.573L67.6966 71.5227ZM69.2331 62.6108C69.2485 62.5801 69.2575 62.5466 69.2594 62.5123C69.1637 62.0628 69.008 61.6282 68.7965 61.2202C68.7666 61.1701 68.7183 61.1336 68.6619 61.1185C68.6055 61.1033 68.5454 61.1108 68.4945 61.1393C68.469 61.1534 68.4466 61.1726 68.4286 61.1956C68.4107 61.2186 68.3975 61.2449 68.39 61.2731C68.3824 61.3013 68.3806 61.3307 68.3847 61.3596C68.3887 61.3885 68.3985 61.4163 68.4135 61.4413C68.6026 61.8165 68.7443 62.2138 68.8355 62.6239C68.8413 62.6519 68.8527 62.6784 68.8691 62.7018C68.8855 62.7252 68.9064 62.745 68.9307 62.76C68.955 62.7751 68.982 62.7851 69.0103 62.7894C69.0385 62.7936 69.0673 62.7921 69.0949 62.7849C69.1436 62.778 69.1885 62.7549 69.2224 62.7192C69.2562 62.6836 69.277 62.6375 69.2812 62.5885L69.2331 62.6108ZM66.0352 73.5474C66.0444 73.5143 66.0456 73.4795 66.0387 73.4458C66.0318 73.4122 66.017 73.3807 65.9956 73.3538C65.9584 73.3098 65.9057 73.2818 65.8484 73.2756C65.7911 73.2694 65.7336 73.2855 65.6879 73.3206C65.4464 73.5158 65.1823 73.6813 64.9014 73.8135C64.805 73.8581 64.7069 73.9092 64.6039 73.952C64.5558 73.9821 64.5209 74.0293 64.5062 74.0841C64.4915 74.1389 64.4981 74.1973 64.5248 74.2474C64.5389 74.2729 64.5581 74.2953 64.5811 74.3132C64.6041 74.3312 64.6304 74.3443 64.6586 74.3519C64.6868 74.3594 64.7162 74.3612 64.7451 74.3572C64.774 74.3531 64.8018 74.3433 64.8268 74.3283C64.9297 74.2855 65.0278 74.2344 65.1325 74.1851C65.4347 74.0305 65.7201 73.8453 65.9843 73.6323C66.0275 73.6074 66.0621 73.5701 66.0834 73.5251L66.0352 73.5474ZM65.3537 70.4446C65.3637 70.4099 65.3648 70.3733 65.3571 70.338C65.3493 70.3028 65.3329 70.27 65.3093 70.2427C65.0068 69.9012 64.7239 69.5651 64.4739 69.2377C64.4357 69.193 64.382 69.1646 64.3236 69.1581C64.2652 69.1516 64.2066 69.1676 64.1595 69.2028C64.137 69.2207 64.1182 69.2429 64.1043 69.2681C64.0905 69.2933 64.0817 69.3211 64.0786 69.3497C64.0755 69.3783 64.0782 69.4073 64.0863 69.4349C64.0945 69.4625 64.1081 69.4882 64.1263 69.5105C64.3812 69.8462 64.6492 70.1854 64.978 70.5339C65.0181 70.5765 65.0733 70.6018 65.1318 70.6043C65.1902 70.6069 65.2474 70.5864 65.291 70.5474C65.3184 70.5373 65.3428 70.5206 65.3622 70.4988C65.3816 70.477 65.3952 70.4507 65.4019 70.4223L65.3537 70.4446ZM67.9148 60.414C67.9273 60.3674 67.924 60.318 67.9053 60.2735C67.8866 60.229 67.8537 60.192 67.8117 60.1682C67.6701 60.088 67.5187 60.0262 67.3614 59.9842C67.0439 59.9037 66.7125 59.8942 66.3908 59.9564C66.3625 59.9616 66.3355 59.9724 66.3114 59.9881C66.2872 60.0038 66.2665 60.0241 66.2503 60.048C66.2341 60.0718 66.2228 60.0986 66.217 60.1268C66.2112 60.155 66.2111 60.184 66.2167 60.2123C66.2213 60.2402 66.2315 60.2669 66.2466 60.2908C66.2617 60.3147 66.2815 60.3353 66.3048 60.3514C66.328 60.3675 66.3543 60.3787 66.382 60.3844C66.4097 60.3902 66.4383 60.3902 66.466 60.3847C66.7254 60.3385 66.9915 60.3475 67.2471 60.411C67.3694 60.4421 67.4868 60.4902 67.5959 60.5537C67.6207 60.5678 67.6482 60.5768 67.6765 60.5803C67.7049 60.5838 67.7337 60.5816 67.7612 60.574C67.7887 60.5663 67.8145 60.5533 67.837 60.5357C67.8595 60.5181 67.8783 60.4962 67.8924 60.4713L67.9148 60.414ZM63.6923 74.728C63.7043 74.6834 63.7022 74.6361 63.6864 74.5927C63.6768 74.5654 63.6618 74.5403 63.6424 74.5189C63.623 74.4974 63.5995 74.48 63.5733 74.4678C63.5471 74.4555 63.5188 74.4486 63.4898 74.4474C63.4609 74.4463 63.4321 74.4509 63.405 74.461C62.9985 74.6125 62.5824 74.7473 62.1721 74.8343C62.1445 74.8422 62.1188 74.8553 62.0963 74.8731C62.0739 74.8909 62.0552 74.913 62.0413 74.938C62.0274 74.9631 62.0185 74.9906 62.0153 75.0191C62.0121 75.0475 62.0145 75.0763 62.0224 75.1039C62.0303 75.1314 62.0434 75.1572 62.0612 75.1796C62.079 75.202 62.1011 75.2208 62.1261 75.2347C62.1512 75.2486 62.1787 75.2574 62.2072 75.2606C62.2356 75.2638 62.2644 75.2614 62.292 75.2535C62.7159 75.1419 63.1403 75.0023 63.5617 74.8478C63.602 74.8438 63.6403 74.8283 63.672 74.8031C63.7037 74.7779 63.7275 74.7441 63.7405 74.7057L63.6923 74.728ZM63.745 68.3599C63.7529 68.33 63.7543 68.2987 63.7491 68.2682C63.744 68.2377 63.7323 68.2086 63.715 68.183C63.4827 67.8214 63.2731 67.4456 63.0877 67.0579C63.0578 67.0078 63.0095 66.9713 62.9531 66.9562C62.8967 66.941 62.8366 66.9485 62.7857 66.977C62.7362 67.0059 62.7002 67.0531 62.6854 67.1084C62.6706 67.1637 62.6782 67.2227 62.7065 67.2724C62.9016 67.6768 63.1208 68.0692 63.3627 68.4475C63.3769 68.473 63.396 68.4953 63.419 68.5133C63.442 68.5312 63.4684 68.5444 63.4966 68.5519C63.5247 68.5595 63.5541 68.5613 63.583 68.5572C63.6119 68.5532 63.6397 68.5434 63.6647 68.5284C63.7018 68.5118 63.7335 68.4851 63.7563 68.4514C63.779 68.4177 63.7918 68.3783 63.7932 68.3376L63.745 68.3599ZM65.4123 60.6934C65.426 60.6405 65.4211 60.5846 65.3985 60.5349C65.3674 60.486 65.3191 60.4506 65.2632 60.4356C65.2073 60.4206 65.1478 60.4271 65.0964 60.4539C64.6916 60.6563 64.3039 60.8913 63.9371 61.1566C63.9141 61.1735 63.8946 61.1948 63.8798 61.2193C63.865 61.2437 63.8552 61.2709 63.8509 61.2991C63.8466 61.3274 63.8479 61.3562 63.8547 61.3839C63.8616 61.4117 63.8738 61.4378 63.8908 61.4608C63.9259 61.508 63.9782 61.5395 64.0363 61.5485C64.0945 61.5575 64.1538 61.5433 64.2016 61.5089C64.5456 61.2587 64.9106 61.0387 65.2926 60.8513C65.3343 60.8394 65.372 60.8164 65.4016 60.7846C65.4312 60.7529 65.4516 60.7136 65.4605 60.6711L65.4123 60.6934ZM61.1565 75.4207C61.1708 75.392 61.1792 75.3607 61.1811 75.3288C61.1759 75.3004 61.1651 75.2734 61.1494 75.2493C61.1337 75.2252 61.1134 75.2044 61.0895 75.1882C61.0657 75.172 61.0389 75.1607 61.0107 75.155C60.9825 75.1492 60.9534 75.1491 60.9252 75.1546C60.4969 75.2299 60.0673 75.2837 59.6347 75.3225C59.5774 75.3278 59.5245 75.3555 59.4876 75.3997C59.4507 75.4439 59.4328 75.5009 59.4379 75.5583C59.4396 75.5871 59.4471 75.6152 59.4599 75.6411C59.4727 75.667 59.4905 75.6901 59.5122 75.709C59.534 75.728 59.5593 75.7424 59.5867 75.7514C59.6141 75.7605 59.6431 75.764 59.6718 75.7617C60.1194 75.7198 60.5638 75.663 61.0004 75.5829C61.0509 75.5818 61.0993 75.5625 61.1368 75.5286C61.1743 75.4948 61.1984 75.4485 61.2047 75.3984L61.1565 75.4207ZM62.6411 65.9672C62.6493 65.9295 62.6477 65.8902 62.6364 65.8533C62.5239 65.4508 62.4649 65.0351 62.461 64.6171C62.4613 64.5886 62.4559 64.5602 62.4452 64.5337C62.4346 64.5072 62.4187 64.4831 62.3987 64.4627C62.3787 64.4423 62.3549 64.426 62.3286 64.4148C62.3022 64.4037 62.274 64.3978 62.2454 64.3975C62.2166 64.3963 62.1878 64.401 62.1609 64.4114C62.134 64.4217 62.1094 64.4375 62.0888 64.4577C62.0683 64.4779 62.052 64.5021 62.0412 64.5289C62.0304 64.5556 62.0251 64.5843 62.0258 64.6131C62.0282 65.072 62.0903 65.5286 62.2107 65.9715C62.2276 66.0279 62.2661 66.0754 62.3177 66.1038C62.3694 66.1321 62.4301 66.1389 62.4868 66.1229C62.5329 66.1193 62.5768 66.1015 62.6124 66.072C62.648 66.0425 62.6736 66.0027 62.6858 65.958L62.6411 65.9672ZM63.3268 62.2526C63.3372 62.2113 63.336 62.1679 63.3233 62.1273C63.3106 62.0866 63.2869 62.0503 63.2548 62.0222C63.2102 61.9864 63.1534 61.9696 63.0965 61.9755C63.0396 61.9813 62.9873 62.0093 62.9509 62.0534C62.6488 62.4164 62.412 62.8292 62.2511 63.2732C62.241 63.3001 62.2363 63.3287 62.2374 63.3574C62.2384 63.3861 62.2451 63.4143 62.257 63.4404C62.269 63.4666 62.286 63.49 62.3071 63.5095C62.3282 63.529 62.353 63.5441 62.38 63.554C62.4068 63.5651 62.4356 63.5705 62.4646 63.57C62.4935 63.5695 62.5221 63.5629 62.5485 63.5509C62.5748 63.5388 62.5984 63.5214 62.6177 63.4997C62.6371 63.4781 62.6517 63.4527 62.6608 63.4252C62.8078 63.0367 63.0165 62.6744 63.2789 62.3524C63.3215 62.328 63.3542 62.2894 63.3715 62.2435L63.3268 62.2526ZM58.5398 75.6273L58.5539 75.5747C58.5531 75.5161 58.5294 75.4601 58.4879 75.4188C58.4464 75.3774 58.3903 75.3539 58.3317 75.3534C57.9031 75.3511 57.4666 75.3256 57.042 75.2822C57.0132 75.2788 56.984 75.2811 56.9561 75.2891C56.9282 75.2972 56.9022 75.3107 56.8796 75.3289C56.857 75.3471 56.8383 75.3696 56.8246 75.3952C56.8108 75.4207 56.8024 75.4488 56.7996 75.4776C56.7945 75.5355 56.812 75.593 56.8484 75.6382C56.8849 75.6834 56.9374 75.7128 56.995 75.72C57.4328 75.7669 57.8842 75.7893 58.3259 75.7951C58.3836 75.8052 58.4429 75.7923 58.4912 75.7593C58.5395 75.7262 58.573 75.6755 58.5845 75.6181L58.5398 75.6273ZM55.918 75.354C55.9247 75.3256 55.9256 75.2961 55.9208 75.2674C55.9159 75.2386 55.9052 75.2111 55.8895 75.1865C55.8737 75.162 55.8532 75.1408 55.8291 75.1244C55.805 75.1079 55.7779 75.0964 55.7493 75.0907C55.4801 75.0185 55.2175 74.9482 54.9483 74.876C54.7973 74.8356 54.6463 74.7951 54.4953 74.7547C54.468 74.7464 54.4393 74.7436 54.4108 74.7464C54.3824 74.7493 54.3548 74.7577 54.3296 74.7712C54.3044 74.7847 54.2821 74.803 54.264 74.8252C54.2459 74.8473 54.2324 74.8728 54.2241 74.9001C54.2148 74.9278 54.2112 74.957 54.2134 74.9861C54.2156 75.0152 54.2237 75.0436 54.2371 75.0695C54.2505 75.0954 54.269 75.1183 54.2915 75.137C54.3139 75.1556 54.3399 75.1695 54.3679 75.1779C54.5254 75.2201 54.6764 75.2606 54.834 75.3028C55.1097 75.3767 55.3855 75.4505 55.6612 75.5244C55.6927 75.5378 55.7268 75.5435 55.7609 75.5412C55.795 75.5389 55.8281 75.5285 55.8575 75.511C55.8868 75.4936 55.9116 75.4694 55.9299 75.4405C55.9482 75.4117 55.9594 75.3789 55.9627 75.3449L55.918 75.354ZM53.4001 74.5878C53.4143 74.5365 53.4091 74.4817 53.3856 74.4339C53.3621 74.3861 53.3219 74.3486 53.2726 74.3285C52.8796 74.1669 52.4853 73.9839 52.0963 73.7811C52.0707 73.7681 52.0428 73.7603 52.0141 73.7581C51.9854 73.756 51.9566 73.7595 51.9293 73.7685C51.902 73.7776 51.8768 73.792 51.8551 73.8108C51.8334 73.8297 51.8156 73.8526 51.8029 73.8784C51.7766 73.9292 51.7714 73.9883 51.7884 74.0429C51.8054 74.0975 51.8432 74.1432 51.8936 74.1701C52.2957 74.3764 52.7013 74.5695 53.1074 74.7346C53.1341 74.7457 53.1627 74.7513 53.1915 74.7513C53.2204 74.7512 53.2489 74.7454 53.2755 74.7342C53.3021 74.723 53.3261 74.7066 53.3463 74.6859C53.3665 74.6653 53.3824 74.6409 53.393 74.6141L53.4001 74.5878ZM51.0644 73.378C51.0837 73.3415 51.0919 73.3001 51.0879 73.259C51.0839 73.2179 51.0679 73.1789 51.0419 73.1468C50.6814 72.9165 50.3197 72.6647 49.9745 72.4034C49.952 72.3858 49.9262 72.3727 49.8986 72.3651C49.8711 72.3574 49.8423 72.3553 49.8139 72.3588C49.7855 72.3623 49.7581 72.3714 49.7332 72.3855C49.7083 72.3996 49.6865 72.4185 49.6689 72.4411C49.6346 72.489 49.62 72.5482 49.6279 72.6065C49.6358 72.6649 49.6656 72.718 49.7114 72.7551C50.0613 73.0248 50.4363 73.28 50.8016 73.5186C50.852 73.5497 50.9127 73.5595 50.9704 73.546C51.0281 73.5324 51.0781 73.4966 51.1094 73.4463L51.0644 73.378ZM48.9744 71.7765C48.985 71.7386 48.9848 71.6985 48.9738 71.6608C48.9627 71.623 48.9414 71.589 48.9121 71.5628C48.5888 71.2721 48.2841 70.9653 47.9893 70.6471C47.9483 70.6048 47.8923 70.5804 47.8334 70.5791C47.7745 70.5778 47.7174 70.5997 47.6746 70.6401C47.6531 70.6595 47.6358 70.6831 47.6238 70.7094C47.6118 70.7357 47.6054 70.7642 47.6049 70.7931C47.6044 70.822 47.6099 70.8507 47.621 70.8774C47.6321 70.9041 47.6485 70.9283 47.6694 70.9484C47.9689 71.2749 48.2868 71.5853 48.6096 71.9039C48.6533 71.943 48.7107 71.9634 48.7693 71.9606C48.8279 71.9579 48.8831 71.9324 48.9231 71.8894L48.9744 71.7765ZM47.1816 69.8536C47.189 69.8214 47.1891 69.7878 47.1819 69.7555C47.1748 69.7232 47.1605 69.6928 47.1403 69.6666C46.8723 69.3274 46.6227 68.9721 46.3815 68.6119C46.3515 68.5617 46.3033 68.5252 46.2469 68.5101C46.1905 68.495 46.1304 68.5025 46.0795 68.531C46.054 68.5451 46.0316 68.5643 46.0136 68.5873C45.9957 68.6103 45.9825 68.6366 45.975 68.6648C45.9674 68.693 45.9656 68.7224 45.9697 68.7513C45.9737 68.7802 45.9835 68.808 45.9985 68.833C46.2446 69.2015 46.5073 69.5604 46.7801 69.9079C46.8162 69.9545 46.8693 69.9851 46.9278 69.9928C46.9863 70.0006 47.0456 69.985 47.0926 69.9494C47.1483 69.9315 47.1957 69.8943 47.2263 69.8445L47.1816 69.8536ZM45.728 67.6628C45.7353 67.636 45.7373 67.6081 45.7338 67.5806C45.7303 67.5531 45.7214 67.5266 45.7076 67.5025C45.4997 67.1231 45.3018 66.7323 45.1254 66.3402C45.114 66.3141 45.0975 66.2904 45.0769 66.2706C45.0562 66.2508 45.0319 66.2353 45.0053 66.2249C44.9787 66.2145 44.9503 66.2094 44.9217 66.21C44.8931 66.2106 44.8649 66.2168 44.8388 66.2283C44.8126 66.2397 44.7889 66.2562 44.7691 66.2768C44.7493 66.2974 44.7338 66.3217 44.7234 66.3484C44.713 66.375 44.7079 66.4034 44.7085 66.432C44.7091 66.4606 44.7153 66.4887 44.7268 66.5149C44.9063 66.9219 45.1089 67.321 45.3199 67.7153C45.3498 67.7654 45.3981 67.8019 45.4545 67.817C45.5109 67.8321 45.571 67.8246 45.6219 67.7962C45.6558 67.7845 45.6867 67.7658 45.7127 67.7412C45.7387 67.7166 45.7592 67.6868 45.7727 67.6536L45.728 67.6628ZM44.6539 65.264C44.6633 65.2221 44.6629 65.1786 44.6527 65.137C44.5096 64.7257 44.3814 64.3114 44.2812 63.8975C44.2747 63.8691 44.2627 63.8424 44.2458 63.8187C44.2288 63.7951 44.2073 63.7751 44.1825 63.7599C44.1577 63.7448 44.1301 63.7347 44.1014 63.7304C44.0726 63.7261 44.0433 63.7275 44.0152 63.7347C43.9588 63.7493 43.9104 63.7852 43.88 63.8348C43.8496 63.8845 43.8397 63.9439 43.8524 64.0007C43.9622 64.4313 44.0869 64.8587 44.2151 65.2731C44.2241 65.3007 44.2385 65.3263 44.2575 65.3484C44.2764 65.3704 44.2997 65.3884 44.3257 65.4013C44.3518 65.4142 44.3802 65.4217 44.4092 65.4234C44.4383 65.4251 44.4673 65.421 44.4948 65.4113C44.5439 65.4133 44.5922 65.3987 44.6319 65.3697C44.6716 65.3407 44.7004 65.2992 44.7134 65.2518L44.6539 65.264ZM44.0225 62.7094L44.0436 62.6306C43.9765 62.2017 43.9326 61.7694 43.9121 61.3358C43.9068 61.2782 43.8795 61.225 43.8359 61.1871C43.7923 61.1492 43.7358 61.1296 43.6781 61.1323C43.6197 61.136 43.5651 61.1624 43.5259 61.2058C43.4866 61.2491 43.4659 61.3061 43.4681 61.3646C43.4986 61.802 43.5406 62.2495 43.6057 62.6892C43.6149 62.7472 43.6464 62.7994 43.6936 62.8344C43.7408 62.8694 43.7999 62.8845 43.8581 62.8764C43.9091 62.8755 43.9582 62.8567 43.9967 62.8233C44.0352 62.7899 44.0608 62.744 44.0689 62.6936L44.0225 62.7094Z" fill="#B5B7BA"/>
</svg>
