<svg width="170" height="159" viewBox="0 0 170 159" fill="none" xmlns="http://www.w3.org/2000/svg">
<path d="M82.4021 59.0056L82.0657 56.7258L89.9475 50.0871L89.3273 47.5915C88.7519 45.5661 89.1337 43.8515 89.8147 43.1643L89.7797 42.9763C89.5668 41.5683 90.2594 40.9541 90.9214 40.8597C91.5834 40.7653 92.3994 41.1393 92.6267 42.5512L92.6545 42.7372C93.3382 43.0835 94.3786 44.0689 94.4067 46.8328L94.5326 49.4056L103.99 53.4925L104.333 55.7742L94.7874 54.9168L95.2223 61.2916L97.3254 62.8024L97.4919 64.5863L95.2875 64.1198L95.1829 64.7129L93.8314 64.9176L93.5204 64.3684L91.5151 65.4772L91.1554 63.7192L92.7289 61.6717L91.2928 55.4402L82.4021 59.0056ZM93.2733 61.7555L91.6886 63.8155L91.8712 64.6409L93.6967 63.6237L94.0911 64.2962L94.7294 64.2032L94.8583 63.4613L96.9159 63.8962L96.8377 63.0289L94.7273 61.5161L94.2446 54.3055L103.729 55.1618L103.528 53.7958L94.0249 49.7354L93.8864 46.8332C93.8659 44.1567 92.8823 43.3651 92.3004 43.1315L92.1483 43.0908L92.1364 42.9323C92.1348 42.8332 92.1249 42.7345 92.1068 42.6371C91.9812 41.7726 91.5456 41.2832 90.9783 41.3719C90.411 41.4606 90.1301 42.0453 90.2629 42.9117C90.2747 43.0083 90.2932 43.1041 90.3181 43.1983L90.3609 43.3573L90.2318 43.4624C89.6988 43.8864 89.2129 45.4101 89.7931 47.4756L90.5028 50.2747L82.5935 56.9293L82.7943 58.2954L91.6271 54.7145L93.2733 61.7555Z" fill="#999999"/>
<path d="M2.81397 112.826C2.80289 112.865 2.80224 112.906 2.81211 112.945C2.82198 112.985 2.84202 113.021 2.87022 113.05C3.19637 113.417 3.5301 113.765 3.87144 114.095C3.91568 114.142 3.97658 114.17 4.04112 114.173C4.10565 114.176 4.16873 114.153 4.21686 114.11C4.2635 114.065 4.29045 114.003 4.29189 113.938C4.29332 113.873 4.26912 113.81 4.22452 113.763C3.89208 113.409 3.56688 113.058 3.23055 112.72C3.20971 112.695 3.18418 112.675 3.15549 112.661C3.12679 112.647 3.09551 112.638 3.06349 112.636C3.03146 112.634 2.99935 112.638 2.96905 112.649C2.93875 112.66 2.91087 112.676 2.88707 112.698C2.85269 112.734 2.82761 112.778 2.81397 112.826ZM4.83089 114.919C4.82029 114.96 4.82038 115.003 4.83116 115.044C4.84194 115.085 4.86305 115.122 4.89246 115.153C5.24327 115.495 5.59409 115.838 5.93714 116.209C5.98339 116.253 6.04475 116.277 6.10847 116.277C6.17218 116.277 6.23333 116.252 6.27919 116.208C6.32263 116.16 6.346 116.098 6.34436 116.034C6.34272 115.97 6.31622 115.909 6.27043 115.864C5.91767 115.528 5.57409 115.188 5.23052 114.847C5.18523 114.801 5.12341 114.774 5.05841 114.772C4.99342 114.771 4.93047 114.795 4.88317 114.84C4.85252 114.872 4.83111 114.912 4.82119 114.955L4.83089 114.919ZM6.94744 116.93C6.93628 116.974 6.93729 117.02 6.95035 117.063C6.96341 117.106 6.98803 117.145 7.02155 117.175C7.38349 117.505 7.75462 117.83 8.12044 118.145C8.14438 118.166 8.17222 118.182 8.20236 118.192C8.2325 118.202 8.26434 118.206 8.29602 118.204C8.32771 118.201 8.35863 118.193 8.38696 118.178C8.41529 118.164 8.44047 118.144 8.46107 118.12C8.48198 118.096 8.49793 118.068 8.50798 118.038C8.51804 118.008 8.522 117.976 8.51966 117.944C8.51732 117.913 8.5087 117.882 8.49432 117.854C8.47994 117.825 8.46007 117.8 8.43588 117.779C8.07005 117.464 7.70616 117.141 7.34422 116.811C7.32029 116.791 7.29246 116.775 7.26232 116.764C7.23218 116.754 7.20034 116.75 7.16866 116.753C7.13696 116.755 7.10605 116.764 7.07772 116.778C7.04939 116.793 7.0242 116.812 7.00361 116.837C6.98382 116.852 6.96767 116.872 6.9563 116.894C6.94492 116.917 6.93858 116.941 6.93774 116.966L6.94744 116.93ZM9.16943 118.838C9.15796 118.883 9.15931 118.931 9.17332 118.976C9.18733 119.021 9.21348 119.061 9.24885 119.092L10.3942 120.005C10.4464 120.044 10.5122 120.062 10.5771 120.053C10.6421 120.044 10.7009 120.01 10.7406 119.958C10.7778 119.906 10.7935 119.841 10.7844 119.778C10.7753 119.715 10.7421 119.658 10.6918 119.618C10.3129 119.323 9.93592 119.02 9.55172 118.715C9.52779 118.695 9.49993 118.679 9.46984 118.67C9.43975 118.66 9.40804 118.657 9.37668 118.66C9.34531 118.664 9.31493 118.673 9.28737 118.688C9.25982 118.704 9.23568 118.725 9.2164 118.749C9.18544 118.784 9.1657 118.828 9.15973 118.874L9.16943 118.838ZM11.4771 120.629C11.4651 120.675 11.4669 120.724 11.4823 120.77C11.4977 120.815 11.526 120.855 11.5637 120.885C11.9663 121.179 12.3636 121.464 12.7608 121.749C12.7871 121.767 12.8167 121.78 12.8478 121.786C12.879 121.793 12.9112 121.793 12.9424 121.787C12.9737 121.781 13.0034 121.768 13.0299 121.751C13.0564 121.733 13.0791 121.71 13.0967 121.684C13.1313 121.631 13.1445 121.567 13.1338 121.505C13.123 121.443 13.089 121.388 13.0386 121.35C12.6394 121.072 12.2494 120.789 11.8541 120.497C11.8021 120.46 11.7378 120.444 11.6746 120.453C11.6114 120.462 11.5542 120.495 11.5149 120.546L11.4771 120.629ZM13.8684 122.31C13.8561 122.358 13.8592 122.409 13.8773 122.456C13.8955 122.503 13.9277 122.542 13.9696 122.57C14.376 122.85 14.7864 123.115 15.1986 123.373C15.2533 123.407 15.3192 123.419 15.3823 123.405C15.4454 123.392 15.5007 123.354 15.5364 123.3C15.5708 123.246 15.5824 123.18 15.5688 123.117C15.5553 123.054 15.5176 122.998 15.4639 122.963C15.0516 122.705 14.6485 122.441 14.2401 122.169C14.1855 122.134 14.1196 122.123 14.0565 122.136C13.9934 122.15 13.9381 122.188 13.9023 122.241L13.8684 122.31ZM16.3382 123.872C16.3257 123.924 16.3299 123.978 16.3504 124.027C16.3709 124.075 16.4064 124.116 16.4519 124.143C16.8733 124.396 17.2948 124.649 17.7129 124.885C17.7692 124.917 17.8357 124.925 17.8983 124.909C17.9608 124.892 18.0143 124.852 18.0473 124.796C18.0629 124.769 18.0728 124.738 18.0766 124.707C18.0805 124.676 18.0781 124.644 18.0697 124.614C18.0612 124.583 18.0469 124.555 18.0274 124.53C18.008 124.505 17.9839 124.484 17.9564 124.469C17.5402 124.225 17.1168 123.98 16.7026 123.729C16.6755 123.713 16.6453 123.701 16.6139 123.696C16.5824 123.691 16.5502 123.693 16.5193 123.7C16.4883 123.708 16.4592 123.722 16.4336 123.741C16.408 123.76 16.3864 123.784 16.3702 123.811L16.3382 123.872ZM18.8752 125.329C18.8629 125.381 18.868 125.436 18.8899 125.485C18.9117 125.535 18.949 125.576 18.9962 125.602C19.4307 125.835 19.8652 126.067 20.2964 126.284C20.3239 126.299 20.3543 126.309 20.3856 126.312C20.417 126.315 20.4487 126.312 20.4788 126.303C20.5089 126.294 20.5368 126.278 20.5608 126.258C20.5848 126.237 20.6043 126.212 20.6183 126.184C20.6338 126.156 20.6436 126.125 20.6471 126.093C20.6506 126.061 20.6476 126.029 20.6385 125.999C20.6294 125.968 20.6142 125.939 20.5938 125.915C20.5735 125.89 20.5484 125.87 20.5201 125.855C20.0889 125.638 19.6617 125.407 19.2271 125.174C19.1702 125.145 19.1041 125.139 19.0428 125.157C18.9814 125.175 18.9295 125.217 18.898 125.273L18.8752 125.329ZM21.4834 126.664C21.4678 126.719 21.4719 126.777 21.495 126.828C21.5181 126.88 21.5587 126.922 21.6097 126.946C22.05 127.158 22.4904 127.369 22.9327 127.573C22.9904 127.599 23.0563 127.602 23.116 127.58C23.1758 127.558 23.2244 127.514 23.2512 127.456C23.2656 127.427 23.2741 127.396 23.2762 127.364C23.2782 127.332 23.2737 127.299 23.263 127.269C23.2523 127.239 23.2356 127.211 23.2139 127.187C23.1922 127.163 23.1659 127.144 23.1366 127.13C22.7016 126.928 22.2593 126.724 21.8208 126.506C21.792 126.492 21.7606 126.483 21.7284 126.481C21.6963 126.479 21.664 126.483 21.6336 126.494C21.6032 126.505 21.5753 126.522 21.5515 126.543C21.5277 126.565 21.5085 126.591 21.4951 126.621L21.4834 126.664ZM24.1372 127.888C24.1199 127.943 24.124 128.003 24.1487 128.056C24.1734 128.108 24.2169 128.15 24.2707 128.172C24.7221 128.37 25.1756 128.562 25.6237 128.744C25.6531 128.756 25.6846 128.763 25.7164 128.762C25.7483 128.762 25.7798 128.756 25.8091 128.744C25.8384 128.731 25.865 128.713 25.8873 128.69C25.9095 128.668 25.9271 128.641 25.9388 128.611C25.9522 128.582 25.9593 128.55 25.9597 128.518C25.9602 128.486 25.954 128.454 25.9415 128.424C25.929 128.395 25.9105 128.368 25.8871 128.346C25.8638 128.324 25.8361 128.307 25.8059 128.296C25.3674 128.116 24.9212 127.927 24.4674 127.728C24.4083 127.703 24.3419 127.702 24.2822 127.725C24.2224 127.748 24.1739 127.793 24.1469 127.851L24.1372 127.888ZM26.8457 128.994C26.828 129.052 26.8336 129.114 26.8612 129.168C26.8889 129.222 26.9364 129.263 26.9936 129.282C27.4509 129.459 27.9082 129.636 28.3622 129.796C28.4234 129.817 28.4902 129.813 28.5485 129.785C28.6067 129.757 28.6518 129.707 28.674 129.647C28.6862 129.618 28.6921 129.586 28.6913 129.555C28.6905 129.523 28.6831 129.492 28.6695 129.463C28.6559 129.435 28.6365 129.409 28.6124 129.389C28.5883 129.368 28.5602 129.353 28.5299 129.344C28.0779 129.177 27.6186 129.007 27.1613 128.83C27.1317 128.819 27.1001 128.814 27.0684 128.815C27.0367 128.816 27.0056 128.823 26.9768 128.836C26.948 128.85 26.9221 128.868 26.9006 128.892C26.8791 128.915 26.8624 128.942 26.8515 128.972L26.8457 128.994ZM29.5925 129.986C29.5765 130.045 29.5837 130.108 29.6126 130.162C29.6414 130.216 29.6897 130.257 29.7477 130.276C30.233 130.406 30.6884 130.59 31.1772 130.737C31.2077 130.747 31.2399 130.751 31.272 130.749C31.3041 130.746 31.3354 130.737 31.364 130.723C31.3926 130.708 31.418 130.687 31.4385 130.663C31.4591 130.638 31.4744 130.609 31.4836 130.578C31.4971 130.517 31.4887 130.452 31.4597 130.396C31.4307 130.34 31.3831 130.296 31.3251 130.272C30.8614 130.148 30.3905 130.021 29.9371 129.83C29.8759 129.809 29.8091 129.813 29.7508 129.841C29.6925 129.869 29.6475 129.919 29.6253 129.979L29.5925 129.986ZM32.3887 130.852C32.3722 130.913 32.3808 130.979 32.4126 131.034C32.4445 131.089 32.4969 131.129 32.5584 131.146C32.8916 131.235 33.2176 131.322 33.5436 131.41L33.971 131.524C34.0325 131.541 34.098 131.532 34.1532 131.5C34.2083 131.468 34.2485 131.416 34.265 131.355C34.2815 131.293 34.2728 131.228 34.241 131.172C34.2092 131.117 34.1568 131.077 34.0953 131.061L33.6679 130.946C33.3419 130.859 33.0159 130.771 32.6899 130.684C32.6591 130.675 32.6267 130.672 32.5948 130.675C32.5628 130.679 32.5318 130.688 32.5037 130.704C32.4756 130.72 32.451 130.741 32.4312 130.766C32.4114 130.792 32.397 130.821 32.3887 130.852ZM35.214 131.609C35.2057 131.64 35.2037 131.672 35.2081 131.704C35.2125 131.736 35.2233 131.767 35.2398 131.794C35.2563 131.822 35.2782 131.846 35.3042 131.865C35.3301 131.884 35.3596 131.897 35.391 131.905C35.8763 132.035 36.3589 132.117 36.8573 132.228C36.921 132.239 36.9864 132.225 37.0397 132.188C37.093 132.152 37.1299 132.096 37.1426 132.032C37.1489 132.001 37.149 131.97 37.143 131.939C37.137 131.908 37.1249 131.878 37.1074 131.852C37.0899 131.825 37.0674 131.803 37.0412 131.785C37.0149 131.768 36.9855 131.755 36.9545 131.749C36.4981 131.627 36.0136 131.551 35.5316 131.438C35.4984 131.425 35.4628 131.42 35.4274 131.423C35.392 131.426 35.3577 131.437 35.3269 131.454C35.2962 131.472 35.2698 131.497 35.2496 131.526C35.2294 131.555 35.2159 131.588 35.2101 131.623L35.214 131.609ZM38.0767 132.197C38.0713 132.229 38.0721 132.261 38.0791 132.291C38.0861 132.322 38.0991 132.352 38.1174 132.377C38.1358 132.403 38.1591 132.425 38.1859 132.442C38.2128 132.459 38.2427 132.47 38.274 132.475C38.7686 132.561 39.2652 132.64 39.7637 132.711C39.7953 132.717 39.8278 132.716 39.859 132.709C39.8903 132.701 39.9197 132.687 39.9453 132.668C39.9709 132.649 39.9922 132.624 40.0079 132.596C40.0236 132.568 40.0333 132.537 40.0364 132.505C40.0437 132.442 40.0263 132.378 39.9879 132.327C39.9494 132.276 39.8928 132.242 39.8299 132.232C39.3725 132.172 38.888 132.096 38.391 132.01C38.3561 131.997 38.3188 131.993 38.282 131.997C38.2453 132.002 38.21 132.015 38.179 132.035C38.148 132.055 38.1221 132.082 38.1033 132.114C38.0846 132.146 38.0735 132.182 38.0709 132.219L38.0767 132.197ZM40.9735 132.601C40.9679 132.664 40.9877 132.727 41.0285 132.776C41.0693 132.825 41.1278 132.855 41.1911 132.861L41.4853 132.893C41.8722 132.927 42.2466 132.95 42.6572 132.982C42.6889 132.984 42.7206 132.98 42.7506 132.969C42.7806 132.959 42.8082 132.943 42.8319 132.922C42.8556 132.901 42.8749 132.875 42.8887 132.847C42.9025 132.818 42.9104 132.787 42.9121 132.755C42.9152 132.723 42.9116 132.691 42.9017 132.661C42.8918 132.63 42.8757 132.602 42.8544 132.578C42.8331 132.554 42.8071 132.535 42.778 132.522C42.7489 132.508 42.7173 132.501 42.6853 132.5C42.2964 132.474 41.924 132.444 41.5298 132.408L41.2409 132.385C41.2075 132.38 41.1733 132.381 41.1406 132.39C41.1079 132.399 41.0776 132.415 41.0517 132.437C41.0259 132.459 41.0051 132.486 40.991 132.517C40.9768 132.548 40.9695 132.581 40.9696 132.615L40.9735 132.601ZM43.8904 132.784L43.8768 132.835C43.8747 132.867 43.8791 132.898 43.8896 132.928C43.9001 132.958 43.9166 132.985 43.938 133.008C43.9594 133.031 43.9853 133.05 44.014 133.063C44.0428 133.076 44.0739 133.082 44.1055 133.083C44.5982 133.098 45.0837 133.112 45.5804 133.113C45.6123 133.113 45.6437 133.106 45.673 133.093C45.7022 133.081 45.7287 133.062 45.7507 133.039C45.7728 133.016 45.79 132.989 45.8015 132.959C45.8129 132.93 45.8184 132.898 45.8174 132.866C45.8177 132.834 45.8118 132.803 45.8 132.774C45.7882 132.745 45.7708 132.718 45.7487 132.696C45.7266 132.673 45.7003 132.655 45.6713 132.643C45.6422 132.63 45.6111 132.624 45.5795 132.624C45.0901 132.625 44.6099 132.62 44.1263 132.599C44.0695 132.6 44.0146 132.62 43.971 132.657C43.9273 132.693 43.8974 132.743 43.8865 132.799L43.8904 132.784ZM46.8084 132.79L46.7909 132.855C46.7913 132.887 46.798 132.918 46.8107 132.948C46.8234 132.977 46.8418 133.003 46.8648 133.025C46.8878 133.047 46.9149 133.065 46.9447 133.076C46.9744 133.088 47.0061 133.093 47.038 133.092C47.5313 133.077 48.0192 133.052 48.5092 133.02C48.541 133.019 48.572 133.01 48.6006 132.996C48.6291 132.982 48.6546 132.962 48.6755 132.938C48.6964 132.914 48.7123 132.886 48.7223 132.856C48.7323 132.826 48.7361 132.794 48.7336 132.762C48.7317 132.731 48.7234 132.699 48.7093 132.671C48.6952 132.642 48.6756 132.617 48.6516 132.596C48.6275 132.575 48.5996 132.559 48.5694 132.549C48.5391 132.539 48.5072 132.535 48.4754 132.538C47.9928 132.572 47.5067 132.589 47.0207 132.606C46.9692 132.611 46.9205 132.632 46.8819 132.666C46.8432 132.701 46.8168 132.746 46.8064 132.797L46.8084 132.79ZM49.7315 132.603C49.7177 132.627 49.7104 132.654 49.7101 132.682C49.7159 132.746 49.7465 132.804 49.7953 132.845C49.8441 132.885 49.907 132.905 49.9703 132.9C50.4568 132.851 50.9453 132.796 51.4305 132.724C51.4622 132.72 51.4929 132.711 51.5208 132.695C51.5487 132.68 51.5732 132.659 51.593 132.634C51.6127 132.609 51.6272 132.58 51.6357 132.549C51.6442 132.518 51.6465 132.486 51.6424 132.455C51.638 132.423 51.6276 132.393 51.6116 132.366C51.5956 132.339 51.5744 132.315 51.5492 132.296C51.524 132.277 51.4953 132.263 51.4648 132.255C51.4342 132.247 51.4024 132.246 51.3711 132.25C50.8879 132.315 50.4067 132.372 49.9221 132.413C49.8741 132.423 49.8302 132.447 49.7959 132.482C49.7616 132.517 49.7385 132.562 49.7295 132.61L49.7315 132.603ZM52.5814 132.225C52.5656 132.256 52.5563 132.291 52.5542 132.326C52.5659 132.389 52.6018 132.445 52.6541 132.483C52.7064 132.52 52.7712 132.535 52.8346 132.526C53.3164 132.437 53.7982 132.349 54.2838 132.246C54.3451 132.231 54.3983 132.194 54.4326 132.141C54.467 132.088 54.4799 132.024 54.4687 131.962C54.4558 131.898 54.4181 131.842 54.3639 131.805C54.3096 131.769 54.2432 131.755 54.1791 131.768C53.7079 131.874 53.2334 131.965 52.7536 132.046C52.7109 132.056 52.672 132.079 52.6415 132.11C52.6111 132.142 52.5902 132.182 52.5814 132.225ZM55.4441 131.625C55.4247 131.658 55.4146 131.696 55.4149 131.734C55.422 131.765 55.4353 131.795 55.454 131.821C55.4727 131.847 55.4964 131.869 55.5238 131.886C55.5511 131.903 55.5816 131.914 55.6133 131.918C55.645 131.923 55.6774 131.922 55.7085 131.914C56.1835 131.792 56.6605 131.664 57.1269 131.517C57.1579 131.51 57.1869 131.496 57.2122 131.476C57.2376 131.457 57.2586 131.432 57.2741 131.404C57.2896 131.376 57.2992 131.346 57.3023 131.314C57.3053 131.282 57.3018 131.25 57.292 131.22C57.2834 131.189 57.2688 131.161 57.2492 131.136C57.2296 131.111 57.2052 131.091 57.1776 131.075C57.15 131.06 57.1196 131.05 57.0882 131.047C57.0568 131.043 57.025 131.046 56.9946 131.055C56.5301 131.194 56.0623 131.317 55.5834 131.453C55.557 131.471 55.5346 131.495 55.5179 131.523C55.5011 131.551 55.4903 131.581 55.4861 131.613L55.4441 131.625ZM58.2447 130.823C58.2204 130.862 58.2082 130.907 58.2098 130.953C58.2196 130.984 58.2355 131.012 58.2564 131.036C58.2774 131.061 58.303 131.08 58.3318 131.095C58.3606 131.109 58.3919 131.117 58.4239 131.119C58.4559 131.121 58.488 131.117 58.5183 131.106C58.9813 130.943 59.4443 130.779 59.904 130.6C59.9627 130.575 60.0098 130.529 60.0355 130.471C60.0613 130.413 60.0636 130.347 60.0421 130.287C60.0177 130.229 59.9716 130.181 59.9135 130.156C59.8553 130.13 59.7895 130.128 59.7296 130.149C59.2792 130.324 58.8234 130.489 58.3623 130.645C58.3232 130.683 58.2986 130.734 58.2926 130.789L58.2447 130.823ZM68.3867 99.3763L68.3072 99.6733C68.3008 99.7043 68.3007 99.7362 68.3067 99.7672C68.3128 99.7982 68.3249 99.8277 68.3424 99.854C68.3598 99.8803 68.3823 99.903 68.4086 99.9206C68.4348 99.9382 68.4642 99.9504 68.4952 99.9566C68.5263 99.964 68.5585 99.965 68.5899 99.9594C68.6213 99.9538 68.6512 99.9418 68.6778 99.9242C68.7044 99.9065 68.727 99.8836 68.7444 99.8569C68.7617 99.8301 68.7733 99.8 68.7786 99.7685C68.8274 99.4846 68.9021 99.2058 69.0018 98.9355C69.0672 98.775 69.1427 98.6189 69.228 98.4681C69.2598 98.4118 69.2683 98.3452 69.2516 98.2827C69.235 98.2202 69.1946 98.1667 69.139 98.1336C69.111 98.1181 69.0802 98.1083 69.0484 98.1048C69.0166 98.1013 68.9844 98.1042 68.9538 98.1134C68.9231 98.1225 68.8946 98.1377 68.8699 98.1581C68.8451 98.1784 68.8248 98.2035 68.8099 98.2318C68.7101 98.401 68.6238 98.5778 68.5517 98.7605C68.5073 98.9406 68.4714 99.1228 68.4443 99.3063L68.3867 99.3763ZM68.2228 101.118L68.2034 101.191C68.2426 101.706 68.3701 102.21 68.5804 102.682C68.6134 102.737 68.6667 102.777 68.7289 102.794C68.7911 102.81 68.8574 102.802 68.9136 102.771C68.9418 102.755 68.9665 102.734 68.9863 102.709C69.0061 102.683 69.0206 102.654 69.0289 102.623C69.0372 102.592 69.0392 102.56 69.0348 102.528C69.0303 102.496 69.0195 102.465 69.0029 102.438C68.8192 102.017 68.7056 101.57 68.6668 101.113C68.6648 101.081 68.6566 101.05 68.6425 101.022C68.6284 100.993 68.6088 100.967 68.5847 100.947C68.5607 100.926 68.5328 100.91 68.5025 100.9C68.4723 100.89 68.4404 100.886 68.4086 100.888C68.3771 100.904 68.3493 100.927 68.3272 100.954C68.3051 100.982 68.2891 101.014 68.2804 101.048L68.2228 101.118ZM60.9562 129.802C60.9414 129.855 60.9456 129.911 60.9681 129.961C61.0011 130.016 61.0544 130.056 61.1166 130.073C61.1788 130.09 61.2451 130.082 61.3013 130.05C61.7504 129.852 62.1888 129.636 62.6326 129.428C62.6879 129.395 62.7282 129.342 62.7449 129.28C62.7615 129.218 62.7533 129.151 62.7219 129.095C62.6889 129.04 62.6356 129 62.5734 128.983C62.5112 128.966 62.4449 128.975 62.3886 129.006C61.9594 129.217 61.5011 129.42 61.0757 129.617C61.0454 129.649 61.024 129.689 61.0138 129.732L60.9562 129.802ZM69.7392 97.1686C69.7301 97.207 69.7298 97.247 69.7383 97.2856C69.7467 97.3242 69.7638 97.3603 69.7882 97.3914C69.8325 97.4385 69.8934 97.4663 69.9579 97.4691C70.0224 97.4719 70.0855 97.4493 70.1336 97.4063C70.482 97.0991 70.87 96.8401 71.2873 96.6361C71.3418 96.6042 71.3816 96.5521 71.3979 96.4911C71.4143 96.43 71.4059 96.365 71.3746 96.3101C71.3416 96.2548 71.2884 96.2145 71.2261 96.1978C71.1639 96.1812 71.0976 96.1894 71.0414 96.2208C70.5805 96.4417 70.1536 96.7274 69.7736 97.0691C69.7689 97.0754 69.7645 97.0821 69.7606 97.0889L69.7392 97.1686ZM69.4236 103.707C69.4136 103.749 69.4147 103.793 69.4267 103.834C69.4388 103.876 69.4614 103.913 69.4925 103.943C69.8795 104.303 70.329 104.589 70.819 104.788C70.8484 104.8 70.88 104.806 70.9118 104.806C70.9436 104.806 70.9751 104.8 71.0045 104.787C71.0338 104.775 71.0604 104.757 71.0826 104.734C71.1049 104.711 71.1224 104.684 71.1342 104.655C71.1587 104.597 71.1592 104.531 71.1357 104.472C71.1121 104.414 71.0664 104.367 71.0085 104.342C70.5848 104.164 70.1946 103.915 69.8547 103.605C69.8318 103.583 69.8046 103.565 69.7747 103.554C69.7448 103.542 69.7129 103.536 69.6809 103.537C69.6488 103.538 69.6172 103.545 69.588 103.558C69.5588 103.572 69.5325 103.591 69.5107 103.614C69.5004 103.621 69.4906 103.629 69.4812 103.637L69.4236 103.707ZM63.5579 128.496C63.5407 128.558 63.548 128.624 63.5785 128.68C63.6115 128.736 63.6647 128.776 63.727 128.793C63.7892 128.809 63.8555 128.801 63.9117 128.77C64.3415 128.528 64.766 128.276 65.1832 128.023C65.2385 127.99 65.2788 127.937 65.2955 127.875C65.3121 127.813 65.3039 127.746 65.2725 127.69C65.2406 127.635 65.1885 127.596 65.1274 127.579C65.0664 127.563 65.0014 127.571 64.9465 127.603C64.5384 127.851 64.1159 128.094 63.6953 128.331C63.6674 128.359 63.6474 128.394 63.6372 128.432L63.5579 128.496ZM72.2931 95.8962C72.2766 95.9303 72.2667 95.9672 72.2639 96.0049C72.2801 96.067 72.3191 96.1207 72.3731 96.1554C72.4272 96.19 72.4923 96.203 72.5555 96.1917C73.0134 96.0958 73.4821 96.062 73.9489 96.0915C73.9809 96.0928 74.0128 96.0876 74.0428 96.0764C74.0727 96.0652 74.1002 96.048 74.1234 96.026C74.1467 96.0041 74.1653 95.9776 74.1782 95.9484C74.1911 95.9191 74.198 95.8875 74.1985 95.8555C74.2005 95.8239 74.1962 95.7921 74.1859 95.7621C74.1756 95.7321 74.1594 95.7045 74.1383 95.6808C74.1172 95.6571 74.0916 95.6378 74.063 95.624C74.0345 95.6103 74.0034 95.6023 73.9718 95.6006C73.4644 95.5773 72.9561 95.6158 72.458 95.7152C72.4268 95.7443 72.4036 95.7809 72.3907 95.8215L72.2931 95.8962ZM66.0232 126.975C66.0145 127.008 66.0129 127.042 66.0186 127.076C66.0243 127.11 66.0371 127.142 66.0562 127.17C66.0892 127.225 66.1425 127.266 66.2047 127.282C66.267 127.299 66.3332 127.291 66.3895 127.259L66.8682 126.922L67.5775 126.39C67.629 126.35 67.6627 126.291 67.6713 126.227C67.6799 126.162 67.6627 126.097 67.6234 126.045C67.5834 125.996 67.5261 125.964 67.4633 125.956C67.4005 125.948 67.337 125.964 67.2857 126.001L66.5855 126.528L66.1088 126.858C66.1115 126.872 66.1155 126.887 66.1208 126.9L66.0232 126.975ZM72.0127 104.882C72.0033 104.947 72.0195 105.012 72.0577 105.064C72.096 105.117 72.1533 105.152 72.2172 105.162C72.7236 105.239 73.236 105.267 73.7476 105.246C73.7795 105.246 73.811 105.239 73.8402 105.227C73.8695 105.214 73.8959 105.195 73.9179 105.172C73.94 105.149 73.9573 105.122 73.9687 105.093C73.9802 105.063 73.9856 105.031 73.9847 104.999C73.9844 104.967 73.9776 104.936 73.9647 104.907C73.9518 104.878 73.9332 104.852 73.9098 104.83C73.8865 104.809 73.859 104.792 73.8291 104.782C73.7991 104.771 73.7673 104.767 73.7356 104.769C73.2624 104.783 72.7888 104.758 72.3197 104.693C72.2779 104.692 72.2365 104.702 72.1998 104.722C72.163 104.742 72.1322 104.772 72.1104 104.808L72.0127 104.882ZM75.1539 96.0571C75.1379 96.1162 75.1451 96.179 75.174 96.233C75.2028 96.2869 75.2512 96.3277 75.3091 96.3472C75.7456 96.5 76.1556 96.7198 76.5243 96.9989C76.5492 97.0184 76.5776 97.0327 76.6081 97.0412C76.6385 97.0496 76.6703 97.052 76.7016 97.0481C76.7329 97.0442 76.7632 97.0342 76.7906 97.0186C76.8181 97.0031 76.8422 96.9822 76.8616 96.9573C76.881 96.9325 76.8954 96.904 76.9038 96.8736C76.9123 96.8431 76.9146 96.8114 76.9108 96.78C76.9069 96.7487 76.8969 96.7185 76.8813 96.691C76.8657 96.6635 76.8449 96.6394 76.82 96.6201C76.4103 96.3045 75.9517 96.0583 75.4623 95.8913C75.4321 95.88 75.3999 95.8749 75.3676 95.8764C75.3354 95.8778 75.3038 95.8858 75.2747 95.8997C75.2456 95.9137 75.2195 95.9333 75.1982 95.9576C75.1769 95.9818 75.1607 96.0101 75.1505 96.0407L75.1539 96.0571ZM68.4612 125.12C68.4503 125.159 68.449 125.199 68.4576 125.238C68.4661 125.277 68.4843 125.313 68.5103 125.343C68.5524 125.391 68.6115 125.421 68.6751 125.426C68.7388 125.432 68.8021 125.413 68.8518 125.372C69.2247 125.053 69.5942 124.717 69.9472 124.385C69.9939 124.339 70.0208 124.278 70.0223 124.213C70.0237 124.148 69.9995 124.085 69.9549 124.037C69.933 124.015 69.9068 123.996 69.8778 123.984C69.8488 123.971 69.8176 123.964 69.786 123.964C69.7544 123.963 69.723 123.969 69.6936 123.981C69.6643 123.992 69.6374 124.01 69.6148 124.032C69.2623 124.362 68.904 124.685 68.5397 125.002C68.5021 125.032 68.4748 125.074 68.4612 125.12ZM75.044 104.755C75.0283 104.784 75.0196 104.816 75.0187 104.849C75.0288 104.913 75.0636 104.971 75.1157 105.009C75.1678 105.048 75.233 105.065 75.2972 105.056C75.7587 104.985 76.2496 104.892 76.7484 104.769C76.7797 104.762 76.8092 104.749 76.8353 104.73C76.8614 104.711 76.8834 104.688 76.9001 104.66C76.9169 104.633 76.928 104.603 76.9328 104.571C76.9375 104.539 76.9359 104.507 76.928 104.476C76.9119 104.413 76.8723 104.36 76.8175 104.327C76.7627 104.293 76.6971 104.282 76.6344 104.296C76.1521 104.415 75.6757 104.513 75.2234 104.578C75.1768 104.584 75.1329 104.603 75.0971 104.633C75.0614 104.664 75.0353 104.704 75.0222 104.749L75.044 104.755ZM70.5643 123.067C70.5518 123.11 70.5514 123.155 70.5632 123.198C70.575 123.241 70.5986 123.28 70.6312 123.31C70.6785 123.354 70.7408 123.377 70.8049 123.375C70.8691 123.374 70.9301 123.347 70.9751 123.301C71.3104 122.949 71.6422 122.579 71.9669 122.208C71.9878 122.184 72.0037 122.157 72.0138 122.126C72.0238 122.096 72.0278 122.064 72.0254 122.033C72.0231 122.001 72.0145 121.97 72.0001 121.942C71.9857 121.914 71.9658 121.888 71.9416 121.868C71.9177 121.847 71.8899 121.831 71.8597 121.821C71.8296 121.811 71.7978 121.807 71.7661 121.809C71.7344 121.811 71.7035 121.82 71.6752 121.835C71.6468 121.849 71.6216 121.869 71.601 121.893C71.2856 122.259 70.9557 122.621 70.6224 122.966C70.5939 122.994 70.5738 123.029 70.5643 123.067ZM77.5549 97.7021C77.5461 97.7369 77.545 97.7733 77.5516 97.8086C77.5583 97.8439 77.5725 97.8773 77.5933 97.9065C77.8575 98.2912 78.0776 98.7045 78.2494 99.1383C78.2598 99.1687 78.2763 99.1965 78.298 99.2202C78.3197 99.2438 78.346 99.2627 78.3754 99.2757C78.4047 99.2887 78.4364 99.2954 78.4685 99.2955C78.5006 99.2956 78.5324 99.2891 78.5618 99.2764C78.5922 99.266 78.62 99.2494 78.6437 99.2277C78.6673 99.206 78.6862 99.1797 78.6992 99.1504C78.7122 99.121 78.7189 99.0893 78.719 99.0573C78.7191 99.0252 78.7126 98.9934 78.6999 98.964C78.5142 98.4916 78.2751 98.042 77.9874 97.6239C77.9542 97.5708 77.9021 97.5323 77.8416 97.5161C77.7811 97.4998 77.7167 97.5072 77.6614 97.5365C77.6243 97.5609 77.5942 97.5945 77.5741 97.634C77.554 97.6736 77.5445 97.7177 77.5467 97.762L77.5549 97.7021ZM72.4753 120.862C72.4651 120.908 72.4678 120.957 72.4831 121.002C72.4983 121.047 72.5256 121.087 72.5619 121.118C72.5868 121.137 72.6152 121.152 72.6457 121.16C72.6761 121.168 72.7078 121.171 72.7392 121.167C72.7705 121.163 72.8008 121.153 72.8282 121.137C72.8557 121.122 72.8798 121.101 72.8992 121.076C73.2059 120.685 73.4982 120.289 73.7832 119.892C73.8203 119.839 73.8351 119.774 73.8246 119.71C73.8142 119.646 73.7791 119.589 73.7271 119.551C73.6732 119.514 73.6068 119.5 73.5425 119.512C73.4782 119.524 73.4213 119.561 73.384 119.614C73.1082 120.006 72.8179 120.394 72.5222 120.773C72.4935 120.81 72.4763 120.854 72.4728 120.9L72.4753 120.862ZM78.6431 100.393C78.6237 100.423 78.6142 100.459 78.6159 100.494C78.7048 100.963 78.7673 101.436 78.8031 101.911C78.8051 101.943 78.8133 101.974 78.8274 102.003C78.8415 102.031 78.8612 102.057 78.8852 102.077C78.9092 102.098 78.9372 102.114 78.9674 102.124C78.9976 102.134 79.0296 102.138 79.0613 102.136C79.0931 102.134 79.1242 102.125 79.1527 102.111C79.1813 102.097 79.2067 102.078 79.2276 102.054C79.2485 102.029 79.2644 102.002 79.2744 101.971C79.2844 101.941 79.2883 101.909 79.2858 101.877C79.2493 101.381 79.1848 100.886 79.0924 100.397C79.0779 100.334 79.0392 100.279 78.9847 100.244C78.9302 100.209 78.8642 100.197 78.8008 100.21C78.7548 100.226 78.7148 100.256 78.6862 100.296C78.6576 100.335 78.6417 100.382 78.6406 100.431L78.6431 100.393ZM77.8681 104.068C77.8536 104.111 77.8547 104.158 77.8713 104.2C77.8798 104.231 77.8944 104.259 77.9143 104.284C77.9342 104.309 77.9589 104.329 77.9869 104.344C78.015 104.359 78.0457 104.368 78.0773 104.37C78.1089 104.373 78.1407 104.369 78.1707 104.358C78.3901 104.293 78.6042 104.218 78.8328 104.148L78.7904 104.827C78.7848 104.891 78.8046 104.953 78.8454 105.002C78.8862 105.051 78.9447 105.082 79.008 105.087C79.0401 105.09 79.0725 105.087 79.1032 105.077C79.1339 105.067 79.1623 105.052 79.1868 105.031C79.2113 105.01 79.2312 104.984 79.2456 104.955C79.2599 104.926 79.2682 104.895 79.2701 104.863C79.2951 104.566 79.3129 104.268 79.3214 103.976L79.5631 103.885C79.5932 103.874 79.6209 103.858 79.6446 103.837C79.6683 103.815 79.6874 103.789 79.701 103.76C79.7145 103.731 79.7221 103.7 79.7234 103.668C79.7247 103.636 79.7196 103.604 79.7084 103.575C79.6978 103.544 79.6814 103.517 79.6599 103.493C79.6385 103.469 79.6126 103.45 79.5837 103.437C79.5548 103.423 79.5235 103.416 79.4916 103.414C79.4597 103.413 79.4279 103.418 79.398 103.429L79.3375 103.452L79.3531 103.394C79.3522 103.329 79.3266 103.267 79.2814 103.22C79.2362 103.173 79.1748 103.145 79.1099 103.142C79.0458 103.145 78.9851 103.172 78.9398 103.217C78.8945 103.263 78.868 103.323 78.8656 103.388L78.8561 103.626C78.5797 103.73 78.2998 103.818 78.0075 103.895C77.9741 103.911 77.9449 103.934 77.9223 103.963C77.8996 103.992 77.8842 104.026 77.8773 104.062L77.8681 104.068ZM74.1651 118.496C74.1497 118.545 74.151 118.598 74.169 118.646C74.1869 118.695 74.2205 118.736 74.2643 118.763C74.319 118.797 74.3849 118.809 74.448 118.796C74.5111 118.782 74.5664 118.744 74.6021 118.691C74.8601 118.278 75.122 117.852 75.3602 117.426C75.3768 117.399 75.3876 117.369 75.392 117.337C75.3964 117.306 75.3943 117.274 75.3857 117.243C75.3772 117.212 75.3625 117.184 75.3424 117.159C75.3224 117.134 75.2975 117.114 75.2693 117.099C75.2418 117.083 75.2116 117.073 75.1803 117.07C75.149 117.066 75.1172 117.068 75.0868 117.077C75.0565 117.085 75.028 117.099 75.0032 117.119C74.9784 117.138 74.9576 117.162 74.9421 117.19C74.7058 117.608 74.4478 118.02 74.1898 118.433L74.1651 118.496ZM75.6195 115.966C75.6043 116.02 75.6089 116.077 75.6325 116.127C75.656 116.178 75.6969 116.218 75.7476 116.241C75.7759 116.255 75.8068 116.264 75.8384 116.266C75.87 116.269 75.9018 116.265 75.9319 116.255C75.9621 116.245 75.9899 116.229 76.0138 116.208C76.0378 116.188 76.0574 116.162 76.0715 116.134C76.2971 115.697 76.5102 115.25 76.7069 114.805C76.7336 114.748 76.7364 114.682 76.7145 114.622C76.6927 114.562 76.648 114.514 76.5903 114.487C76.5614 114.472 76.5298 114.464 76.4975 114.463C76.4652 114.461 76.433 114.466 76.4028 114.478C76.3727 114.49 76.3453 114.508 76.3224 114.53C76.2995 114.553 76.2816 114.581 76.2699 114.611C76.0679 115.046 75.8568 115.486 75.6403 115.917L75.6195 115.966ZM78.652 106.242C78.5949 106.716 78.5195 107.2 78.4315 107.674C78.4203 107.737 78.4346 107.803 78.4711 107.856C78.5075 107.909 78.5634 107.946 78.6268 107.959C78.658 107.965 78.69 107.964 78.7209 107.957C78.7518 107.95 78.7811 107.937 78.8069 107.918C78.8328 107.9 78.8547 107.877 78.8715 107.85C78.8883 107.823 78.8996 107.793 78.9048 107.762C79.031 107.291 79.0722 106.789 79.1409 106.272C79.1455 106.241 79.1437 106.209 79.1356 106.179C79.1275 106.148 79.1133 106.119 79.0938 106.095C79.0743 106.07 79.0499 106.049 79.0222 106.034C78.9945 106.019 78.964 106.01 78.9325 106.007C78.8967 106 78.8597 106.001 78.8245 106.011C78.7893 106.021 78.7567 106.038 78.7293 106.062C78.7019 106.086 78.6803 106.116 78.6662 106.15C78.6522 106.184 78.646 106.22 78.6481 106.257L78.652 106.242ZM76.8232 113.299C76.8074 113.357 76.8139 113.419 76.8412 113.472C76.8686 113.525 76.915 113.566 76.9712 113.587C77.0299 113.61 77.0951 113.608 77.1527 113.583C77.2103 113.558 77.2556 113.511 77.2791 113.452C77.4632 112.997 77.6348 112.531 77.7977 112.038C77.8078 112.009 77.8119 111.977 77.8098 111.945C77.8077 111.914 77.7993 111.883 77.7853 111.855C77.7712 111.826 77.7517 111.801 77.7279 111.78C77.704 111.76 77.6763 111.744 77.6464 111.734C77.6165 111.723 77.5846 111.718 77.5528 111.719C77.5209 111.721 77.4898 111.729 77.4612 111.743C77.4326 111.758 77.4073 111.777 77.3868 111.802C77.3662 111.826 77.3509 111.855 77.3418 111.885C77.1814 112.339 77.019 112.8 76.8387 113.241L76.8232 113.299ZM78.1307 109.115C78.0045 109.586 77.8803 110.05 77.7541 110.52C77.7451 110.55 77.7421 110.582 77.7454 110.613C77.7488 110.644 77.7583 110.674 77.7734 110.701C77.7886 110.728 77.8091 110.752 77.8337 110.771C77.8583 110.79 77.8864 110.804 77.9166 110.812C77.9467 110.822 77.9785 110.825 78.0098 110.822C78.0412 110.818 78.0717 110.809 78.0994 110.794C78.1272 110.779 78.1518 110.759 78.1718 110.735C78.1918 110.71 78.2067 110.682 78.2158 110.652C78.3439 110.174 78.4701 109.703 78.604 109.203C78.6115 109.172 78.6125 109.139 78.6071 109.107C78.6017 109.076 78.5899 109.045 78.5726 109.018C78.5552 108.991 78.5326 108.968 78.506 108.95C78.4794 108.931 78.4495 108.919 78.4179 108.912C78.3843 108.905 78.3494 108.905 78.3157 108.912C78.2821 108.919 78.2503 108.934 78.2227 108.954C78.1951 108.975 78.1722 109.001 78.1557 109.032C78.1391 109.062 78.1293 109.095 78.1268 109.13L78.1307 109.115ZM80.6139 103.064C80.5991 103.117 80.6033 103.173 80.6258 103.223C80.6577 103.277 80.7098 103.317 80.7708 103.333C80.8319 103.35 80.8969 103.341 80.9518 103.31C81.4062 103.121 81.8354 102.91 82.3009 102.709C82.3554 102.677 82.3952 102.625 82.4116 102.564C82.4279 102.502 82.4195 102.437 82.3882 102.383C82.3552 102.327 82.302 102.287 82.2397 102.27C82.1775 102.254 82.1112 102.262 82.055 102.293C81.6277 102.497 81.1695 102.7 80.7388 102.888C80.6987 102.902 80.6629 102.926 80.6352 102.958C80.6075 102.99 80.5888 103.029 80.581 103.071L80.6139 103.064ZM83.2803 101.806C83.2722 101.836 83.27 101.867 83.2739 101.897C83.2778 101.927 83.2876 101.957 83.3028 101.983C83.3178 102.011 83.3384 102.035 83.3632 102.055C83.388 102.074 83.4165 102.089 83.447 102.097C83.4775 102.105 83.5093 102.107 83.5406 102.102C83.5719 102.098 83.6019 102.087 83.6288 102.071C84.0639 101.838 84.4883 101.586 84.9003 101.324C84.928 101.309 84.9524 101.289 84.972 101.264C84.9916 101.239 85.0059 101.21 85.014 101.18C85.0222 101.149 85.0241 101.118 85.0195 101.086C85.015 101.055 85.0041 101.025 84.9876 100.998C84.972 100.97 84.9509 100.945 84.9255 100.926C84.9001 100.906 84.871 100.891 84.8399 100.883C84.8088 100.875 84.7764 100.873 84.7445 100.877C84.7126 100.882 84.682 100.892 84.6544 100.909C84.2516 101.166 83.8291 101.41 83.4085 101.647C83.3687 101.656 83.3325 101.677 83.304 101.707C83.2755 101.736 83.2559 101.773 83.2474 101.813L83.2803 101.806ZM85.7533 100.256C85.7367 100.325 85.7479 100.398 85.7844 100.459C85.8174 100.514 85.8707 100.554 85.933 100.571C85.9952 100.587 86.0615 100.579 86.1177 100.548C86.521 100.26 86.9058 99.9825 87.2898 99.6506C87.3145 99.6303 87.3348 99.6053 87.3497 99.577C87.3645 99.5488 87.3736 99.5178 87.3763 99.486C87.379 99.4542 87.3754 99.4222 87.3656 99.3918C87.3558 99.3614 87.34 99.3333 87.3192 99.3091C87.2995 99.2842 87.275 99.2635 87.2471 99.2482C87.2193 99.2329 87.1887 99.2232 87.1571 99.2198C87.1255 99.2164 87.0936 99.2193 87.0631 99.2283C87.0326 99.2373 87.0043 99.2524 86.9797 99.2724C86.6083 99.5767 86.2267 99.8704 85.8351 100.154C85.7853 100.176 85.7447 100.214 85.7204 100.263L85.7533 100.256ZM88.0059 98.3983C87.9955 98.4374 87.9953 98.4786 88.0051 98.5179C88.0149 98.5572 88.0346 98.5933 88.0621 98.623C88.1064 98.67 88.1673 98.698 88.2318 98.7007C88.2964 98.7035 88.3594 98.681 88.4075 98.6379C88.7626 98.2982 89.1142 97.9421 89.4659 97.5859C89.509 97.5376 89.5314 97.4744 89.5284 97.4097C89.5254 97.3451 89.4972 97.2841 89.4499 97.24C89.4025 97.1975 89.3403 97.1756 89.2768 97.1789C89.2133 97.1823 89.1537 97.2107 89.1112 97.258C88.7832 97.6127 88.4427 97.9562 88.0606 98.2809C88.0385 98.2947 88.0193 98.3128 88.0042 98.3341C87.9892 98.3554 87.9786 98.3795 87.973 98.405L88.0059 98.3983ZM89.9815 96.2411C89.9682 96.2866 89.9686 96.335 89.9827 96.3802C89.9968 96.4255 90.0241 96.4655 90.0609 96.4953C90.0858 96.5147 90.1142 96.5291 90.1447 96.5375C90.1751 96.546 90.2069 96.5483 90.2382 96.5445C90.2695 96.5406 90.2998 96.5306 90.3272 96.515C90.3547 96.4994 90.3788 96.4786 90.3982 96.4537C90.703 96.0695 90.9972 95.6669 91.277 95.2604C91.295 95.2342 91.3076 95.2046 91.3141 95.1735C91.3205 95.1423 91.3207 95.1101 91.3147 95.0789C91.3086 95.0476 91.2964 95.0179 91.2787 94.9914C91.261 94.9649 91.2382 94.9422 91.2117 94.9246C91.1854 94.9066 91.1558 94.894 91.1246 94.8875C91.0935 94.881 91.0613 94.8808 91.0301 94.8869C90.9988 94.893 90.9691 94.9052 90.9426 94.9229C90.9161 94.9406 90.8934 94.9634 90.8758 94.9899C90.6072 95.3838 90.3149 95.7791 90.0212 96.1508C89.9891 96.1764 89.9641 96.2098 89.9486 96.2478L89.9815 96.2411ZM95.3945 78.3577L95.3809 78.4084L95.3019 79.8625C95.2989 79.8946 95.3023 79.927 95.3121 79.9577C95.3218 79.9884 95.3377 80.0168 95.3587 80.0413C95.3796 80.0657 95.4053 80.0857 95.4342 80.1001C95.4631 80.1144 95.4945 80.1227 95.5267 80.1246C95.5902 80.1268 95.652 80.1044 95.6994 80.0622C95.7469 80.02 95.7763 79.9612 95.7816 79.8979C95.8189 79.4109 95.8417 78.9201 95.8645 78.4293C95.8666 78.3659 95.8442 78.304 95.802 78.2566C95.7598 78.2091 95.701 78.1797 95.6377 78.1744C95.5765 78.1674 95.5149 78.1828 95.4641 78.2177C95.4133 78.2527 95.377 78.3048 95.3617 78.3644L95.3945 78.3577ZM91.6231 93.8236C91.6074 93.8758 91.6099 93.9318 91.6302 93.9824C91.6505 94.033 91.6874 94.0752 91.7349 94.102C91.7623 94.1175 91.7926 94.1275 91.8239 94.1313C91.8552 94.1352 91.8869 94.1328 91.9173 94.1244C91.9477 94.1159 91.9761 94.1016 92.001 94.0821C92.0258 94.0627 92.0466 94.0385 92.0621 94.0111C92.3075 93.5877 92.5477 93.1551 92.768 92.7094C92.7951 92.6509 92.7983 92.5842 92.7769 92.5233C92.7555 92.4625 92.7112 92.4123 92.6534 92.3837C92.596 92.3566 92.5303 92.3527 92.4701 92.3727C92.4098 92.3926 92.3595 92.435 92.3296 92.491C92.1185 92.9314 91.8875 93.3587 91.6459 93.7676L91.6231 93.8236ZM95.2036 81.2726L95.1919 81.3161C95.1446 81.821 95.0928 82.3041 95.0365 82.7653C95.0309 82.8291 95.0502 82.8926 95.0904 82.9425C95.1307 82.9923 95.1886 83.0247 95.2522 83.0327C95.2835 83.0373 95.3153 83.0355 95.3458 83.0274C95.3763 83.0193 95.4049 83.0051 95.4298 82.9856C95.4546 82.9661 95.4752 82.9417 95.4903 82.914C95.5054 82.8862 95.5147 82.8557 95.5177 82.8243C95.5787 82.3359 95.6305 81.8529 95.6769 81.3606C95.6825 81.2973 95.6628 81.2343 95.622 81.1855C95.5812 81.1367 95.5227 81.1061 95.4593 81.1004C95.4286 81.0921 95.3965 81.0903 95.365 81.0949C95.3335 81.0995 95.3033 81.1105 95.2762 81.1273C95.2492 81.1441 95.2258 81.1662 95.2077 81.1924C95.1895 81.2185 95.1769 81.2481 95.1707 81.2793L95.2036 81.2726ZM92.9205 91.2129C92.9065 91.2696 92.9129 91.3294 92.9387 91.3817C92.9644 91.4341 93.0078 91.4757 93.0613 91.4991C93.0906 91.5113 93.1222 91.5176 93.154 91.5175C93.1859 91.5174 93.2174 91.511 93.2467 91.4986C93.276 91.4862 93.3026 91.4681 93.3249 91.4454C93.3472 91.4227 93.3647 91.3957 93.3764 91.3661C93.5659 90.92 93.7447 90.4554 93.9168 89.958C93.9278 89.9287 93.9328 89.8976 93.9315 89.8663C93.9302 89.835 93.9226 89.8043 93.9091 89.7761C93.8957 89.7478 93.8767 89.7225 93.8532 89.7018C93.8298 89.6811 93.8024 89.6653 93.7727 89.6554C93.743 89.6443 93.7114 89.6391 93.6798 89.6402C93.6481 89.6413 93.617 89.6487 93.5882 89.6619C93.5593 89.6751 93.5334 89.6939 93.5119 89.7172C93.4904 89.7405 93.4737 89.7678 93.4629 89.7976C93.3005 90.2588 93.1236 90.716 92.938 91.1477L92.9205 91.2129ZM94.8455 84.1738C94.772 84.6511 94.682 85.1316 94.594 85.605C94.5877 85.6359 94.5875 85.6678 94.5936 85.6989C94.5996 85.7299 94.6117 85.7594 94.6292 85.7857C94.6467 85.812 94.6692 85.8346 94.6954 85.8522C94.7216 85.8699 94.7511 85.8821 94.7821 85.8883C94.8137 85.8948 94.8463 85.895 94.8779 85.8886C94.9096 85.8822 94.9396 85.8695 94.9662 85.8513C94.9929 85.8331 95.0156 85.8097 95.0329 85.7825C95.0503 85.7553 95.062 85.7248 95.0674 85.693C95.1935 85.2221 95.2473 84.7318 95.3324 84.2111C95.3379 84.1799 95.3371 84.1479 95.3301 84.117C95.3231 84.086 95.3101 84.0568 95.2917 84.031C95.2734 84.0051 95.2501 83.9832 95.2232 83.9664C95.1964 83.9496 95.1665 83.9382 95.1352 83.9331C95.0971 83.9189 95.056 83.9147 95.0159 83.9207C94.9757 83.9268 94.9377 83.9429 94.9055 83.9676C94.8733 83.9924 94.8478 84.0249 94.8316 84.0621C94.8154 84.0993 94.8088 84.1401 94.8126 84.1805L94.8455 84.1738ZM93.9002 88.455C93.8838 88.516 93.8912 88.5809 93.9211 88.6365C93.9509 88.6921 94.0009 88.7343 94.0608 88.7543C94.0915 88.7636 94.1239 88.7666 94.1558 88.7631C94.1878 88.7597 94.2188 88.7498 94.2469 88.7342C94.275 88.7185 94.2996 88.6974 94.3194 88.672C94.3392 88.6467 94.3536 88.6176 94.3619 88.5865C94.4881 88.1156 94.6162 87.6375 94.7502 87.1376C94.7585 87.1066 94.7605 87.0741 94.7561 87.0423C94.7516 87.0104 94.7409 86.9798 94.7243 86.9522C94.7078 86.9246 94.6859 86.9006 94.66 86.8816C94.634 86.8626 94.6045 86.8491 94.5732 86.8417C94.5125 86.8275 94.4486 86.8374 94.3951 86.8695C94.3416 86.9015 94.3026 86.9531 94.2865 87.0134L93.908 88.4261L93.9002 88.455Z" fill="#999999"/>
<path d="M141.296 62.3611L140.96 60.0814L148.842 53.4427L148.221 50.9471C147.646 48.9217 148.028 47.2071 148.709 46.5199L148.674 46.3319C148.461 44.9238 149.153 44.3097 149.815 44.2153C150.477 44.1209 151.293 44.4949 151.521 45.9068L151.549 46.0928C152.232 46.4391 153.273 47.4245 153.301 50.1884L153.427 52.7611L162.884 56.848L163.227 59.1297L153.681 58.2724L154.116 64.6472L156.219 66.158L156.386 67.9419L154.182 67.4754L154.077 68.0685L152.725 68.2732L152.414 67.724L150.409 68.8328L150.049 67.0748L151.623 65.0273L150.187 58.7958L141.296 62.3611ZM152.167 65.111L150.583 67.1711L150.765 67.9965L152.591 66.9793L152.985 67.6518L153.623 67.5588L153.752 66.8169L155.81 67.2518L155.732 66.3844L153.621 64.8717L153.139 57.6611L162.623 58.5174L162.422 57.1514L152.919 53.091L152.78 50.1888C152.76 47.5123 151.776 46.7207 151.194 46.4871L151.042 46.4464L151.03 46.2879C151.029 46.1888 151.019 46.0901 151.001 45.9927C150.875 45.1282 150.44 44.6388 149.872 44.7275C149.305 44.8162 149.024 45.4009 149.157 46.2673C149.169 46.3639 149.187 46.4597 149.212 46.5538L149.255 46.7128L149.126 46.818C148.593 47.242 148.107 48.7657 148.687 50.8312L149.397 53.6303L141.488 60.2849L141.688 61.651L150.521 58.0701L152.167 65.111Z" fill="#999999"/>
<path d="M61.707 116.181C61.696 116.22 61.6953 116.262 61.7052 116.301C61.715 116.34 61.7351 116.377 61.7633 116.406C62.0894 116.773 62.4232 117.121 62.7645 117.451C62.8087 117.498 62.8696 117.526 62.9342 117.528C62.9987 117.531 63.0618 117.509 63.1099 117.466C63.1566 117.42 63.1835 117.358 63.185 117.293C63.1864 117.228 63.1622 117.165 63.1176 117.118C62.7851 116.765 62.4599 116.414 62.1236 116.075C62.1028 116.051 62.0773 116.031 62.0486 116.017C62.0199 116.002 61.9886 115.994 61.9566 115.992C61.9245 115.99 61.8924 115.994 61.8621 116.005C61.8318 116.015 61.8039 116.032 61.7801 116.053C61.7458 116.089 61.7207 116.133 61.707 116.181ZM63.724 118.275C63.7134 118.316 63.7134 118.359 63.7242 118.4C63.735 118.44 63.7561 118.478 63.7855 118.508C64.1363 118.851 64.4872 119.193 64.8302 119.565C64.8765 119.609 64.9378 119.633 65.0015 119.633C65.0652 119.632 65.1264 119.608 65.1723 119.563C65.2157 119.516 65.2391 119.454 65.2374 119.39C65.2358 119.325 65.2093 119.264 65.1635 119.219C64.8107 118.884 64.4672 118.544 64.1236 118.203C64.0783 118.156 64.0165 118.129 63.9515 118.128C63.8865 118.127 63.8235 118.151 63.7762 118.195C63.7456 118.228 63.7242 118.267 63.7143 118.311L63.724 118.275ZM65.8405 120.286C65.8293 120.33 65.8304 120.376 65.8434 120.419C65.8565 120.462 65.8811 120.501 65.9146 120.531C66.2766 120.861 66.6477 121.185 67.0135 121.501C67.0374 121.522 67.0653 121.538 67.0954 121.548C67.1256 121.558 67.1574 121.562 67.1891 121.559C67.2208 121.557 67.2517 121.548 67.28 121.534C67.3084 121.52 67.3335 121.5 67.3541 121.476C67.375 121.452 67.391 121.424 67.401 121.394C67.4111 121.364 67.4151 121.332 67.4127 121.3C67.4104 121.268 67.4018 121.238 67.3874 121.209C67.373 121.181 67.3531 121.156 67.3289 121.135C66.9631 120.82 66.5992 120.497 66.2373 120.167C66.2134 120.146 66.1855 120.13 66.1554 120.12C66.1252 120.11 66.0934 120.106 66.0617 120.108C66.03 120.111 65.9991 120.119 65.9708 120.134C65.9425 120.148 65.9173 120.168 65.8967 120.192C65.8769 120.208 65.8607 120.227 65.8494 120.25C65.838 120.272 65.8317 120.297 65.8308 120.322L65.8405 120.286ZM68.0625 122.193C68.051 122.239 68.0524 122.287 68.0664 122.332C68.0804 122.377 68.1065 122.417 68.1419 122.448L69.2873 123.36C69.3394 123.4 69.4052 123.417 69.4702 123.408C69.5351 123.4 69.5939 123.365 69.6337 123.313C69.6709 123.261 69.6866 123.197 69.6775 123.134C69.6684 123.071 69.6352 123.013 69.5848 122.974C69.2059 122.678 68.829 122.376 68.4448 122.071C68.4209 122.05 68.393 122.035 68.3629 122.025C68.3328 122.016 68.3011 122.013 68.2697 122.016C68.2384 122.019 68.208 122.029 68.1804 122.044C68.1529 122.059 68.1287 122.08 68.1095 122.105C68.0785 122.14 68.0588 122.183 68.0528 122.23L68.0625 122.193ZM70.3701 123.984C70.3582 124.031 70.36 124.08 70.3754 124.125C70.3908 124.171 70.4191 124.211 70.4568 124.24C70.8594 124.535 71.2566 124.82 71.6539 125.105C71.6802 125.123 71.7097 125.135 71.7409 125.142C71.7721 125.148 71.8042 125.148 71.8355 125.142C71.8667 125.136 71.8965 125.124 71.923 125.106C71.9494 125.089 71.9721 125.066 71.9897 125.039C72.0243 124.987 72.0376 124.923 72.0268 124.861C72.016 124.799 71.982 124.743 71.9317 124.705C71.5325 124.428 71.1425 124.145 70.7471 123.852C70.6952 123.815 70.6309 123.799 70.5677 123.809C70.5045 123.818 70.4472 123.851 70.4079 123.901L70.3701 123.984ZM72.7615 125.665C72.7491 125.714 72.7523 125.765 72.7704 125.812C72.7885 125.858 72.8208 125.898 72.8626 125.926C73.2691 126.205 73.6794 126.47 74.0917 126.728C74.1463 126.763 74.2122 126.774 74.2753 126.761C74.3384 126.747 74.3938 126.71 74.4295 126.656C74.4638 126.601 74.4754 126.535 74.4619 126.472C74.4483 126.409 74.4107 126.354 74.3569 126.318C73.9447 126.06 73.5416 125.797 73.1332 125.524C73.0785 125.49 73.0126 125.478 72.9495 125.492C72.8864 125.505 72.8311 125.543 72.7954 125.597L72.7615 125.665ZM75.2313 127.228C75.2187 127.279 75.223 127.333 75.2435 127.382C75.2639 127.431 75.2995 127.472 75.3449 127.499C75.7664 127.752 76.1879 128.004 76.606 128.241C76.6623 128.273 76.7288 128.281 76.7913 128.264C76.8538 128.248 76.9073 128.207 76.9404 128.152C76.9559 128.124 76.9659 128.094 76.9697 128.063C76.9735 128.031 76.9712 128 76.9627 127.969C76.9543 127.939 76.9399 127.911 76.9205 127.886C76.9011 127.861 76.8769 127.84 76.8495 127.825C76.4333 127.581 76.0099 127.336 75.5957 127.085C75.5686 127.068 75.5384 127.057 75.5069 127.052C75.4754 127.047 75.4433 127.048 75.4123 127.056C75.3814 127.064 75.3522 127.077 75.3266 127.096C75.301 127.115 75.2795 127.139 75.2632 127.167L75.2313 127.228ZM77.7683 128.684C77.756 128.737 77.7611 128.792 77.7829 128.841C77.8047 128.89 77.8421 128.931 77.8892 128.957C78.3238 129.19 78.7583 129.423 79.1895 129.64C79.217 129.655 79.2473 129.665 79.2787 129.668C79.3101 129.671 79.3418 129.668 79.3719 129.659C79.402 129.649 79.4299 129.634 79.4538 129.613C79.4778 129.593 79.4974 129.568 79.5113 129.539C79.5269 129.511 79.5367 129.481 79.5402 129.449C79.5436 129.417 79.5407 129.385 79.5316 129.354C79.5224 129.324 79.5072 129.295 79.4869 129.27C79.4666 129.246 79.4415 129.225 79.4132 129.21C78.982 128.994 78.5547 128.763 78.1202 128.53C78.0633 128.501 77.9972 128.494 77.9358 128.513C77.8745 128.531 77.8226 128.572 77.7911 128.628L77.7683 128.684ZM80.3765 130.02C80.3609 130.074 80.365 130.132 80.3881 130.184C80.4112 130.236 80.4518 130.277 80.5027 130.302C80.9431 130.513 81.3834 130.724 81.8257 130.928C81.8834 130.955 81.9494 130.958 82.0091 130.936C82.0688 130.914 82.1174 130.869 82.1443 130.812C82.1587 130.783 82.1672 130.751 82.1692 130.719C82.1713 130.687 82.1668 130.655 82.1561 130.625C82.1454 130.594 82.1287 130.566 82.107 130.542C82.0852 130.519 82.059 130.499 82.0297 130.486C81.5946 130.284 81.1523 130.08 80.7139 129.862C80.6851 129.847 80.6537 129.839 80.6215 129.837C80.5893 129.835 80.5571 129.839 80.5267 129.85C80.4963 129.861 80.4684 129.877 80.4446 129.899C80.4208 129.921 80.4016 129.947 80.3881 129.976L80.3765 130.02ZM83.0303 131.243C83.0129 131.299 83.0171 131.359 83.0418 131.411C83.0665 131.464 83.11 131.505 83.1637 131.527C83.6152 131.726 84.0686 131.918 84.5167 132.1C84.5461 132.112 84.5777 132.118 84.6095 132.118C84.6413 132.118 84.6728 132.112 84.7022 132.099C84.7315 132.087 84.7581 132.069 84.7803 132.046C84.8026 132.023 84.8201 131.996 84.8319 131.967C84.8452 131.937 84.8523 131.906 84.8528 131.874C84.8532 131.841 84.847 131.81 84.8345 131.78C84.822 131.75 84.8035 131.724 84.7802 131.702C84.7569 131.679 84.7292 131.662 84.6989 131.652C84.2605 131.472 83.8143 131.283 83.3604 131.083C83.3014 131.058 83.235 131.057 83.1752 131.08C83.1155 131.104 83.067 131.149 83.04 131.207L83.0303 131.243ZM85.7387 132.349C85.7211 132.407 85.7267 132.47 85.7543 132.524C85.7819 132.577 85.8294 132.618 85.8867 132.638C86.344 132.814 86.8013 132.991 87.2553 133.152C87.3164 133.173 87.3833 133.168 87.4416 133.141C87.4998 133.113 87.5449 133.063 87.567 133.002C87.5792 132.973 87.5851 132.942 87.5844 132.91C87.5836 132.879 87.5762 132.848 87.5626 132.819C87.549 132.79 87.5295 132.765 87.5055 132.745C87.4814 132.724 87.4533 132.709 87.4229 132.7C86.9709 132.532 86.5117 132.362 86.0544 132.186C86.0247 132.174 85.9932 132.169 85.9615 132.17C85.9298 132.171 85.8987 132.179 85.8699 132.192C85.8411 132.205 85.8151 132.224 85.7936 132.247C85.7721 132.271 85.7555 132.298 85.7446 132.328L85.7387 132.349ZM88.4855 133.342C88.4696 133.401 88.4768 133.464 88.5056 133.517C88.5345 133.571 88.5828 133.612 88.6407 133.632C89.1261 133.762 89.5815 133.946 90.0702 134.092C90.1007 134.103 90.133 134.107 90.1651 134.104C90.1972 134.102 90.2285 134.093 90.2571 134.078C90.2857 134.063 90.311 134.043 90.3316 134.018C90.3521 133.993 90.3675 133.965 90.3767 133.934C90.3902 133.872 90.3817 133.808 90.3528 133.752C90.3238 133.696 90.2762 133.652 90.2181 133.627C89.7545 133.503 89.2836 133.377 88.8302 133.186C88.769 133.165 88.7021 133.169 88.6439 133.197C88.5856 133.225 88.5406 133.274 88.5184 133.335L88.4855 133.342ZM91.2817 134.207C91.2653 134.269 91.2739 134.334 91.3057 134.39C91.3375 134.445 91.39 134.485 91.4514 134.501C91.7847 134.591 92.1107 134.678 92.4367 134.765L92.8641 134.88C92.9256 134.896 92.9911 134.888 93.0462 134.856C93.1014 134.824 93.1416 134.772 93.158 134.71C93.1745 134.649 93.1659 134.583 93.1341 134.528C93.1022 134.473 93.0498 134.433 92.9883 134.416L92.5609 134.302C92.2349 134.214 91.9089 134.127 91.5829 134.04C91.5521 134.03 91.5198 134.027 91.4878 134.031C91.4559 134.034 91.4249 134.044 91.3968 134.06C91.3687 134.075 91.344 134.097 91.3243 134.122C91.3045 134.147 91.29 134.176 91.2817 134.207ZM94.1071 134.964C94.0987 134.996 94.0967 135.028 94.1012 135.06C94.1056 135.092 94.1164 135.122 94.1329 135.15C94.1494 135.177 94.1713 135.201 94.1972 135.22C94.2232 135.239 94.2527 135.253 94.284 135.26C94.7694 135.39 95.2519 135.473 95.7504 135.583C95.814 135.594 95.8795 135.58 95.9328 135.544C95.9861 135.507 96.023 135.451 96.0357 135.388C96.042 135.357 96.0421 135.325 96.0361 135.294C96.03 135.263 96.0179 135.234 96.0005 135.207C95.983 135.181 95.9605 135.158 95.9342 135.141C95.908 135.123 95.8786 135.111 95.8476 135.105C95.3912 134.982 94.9067 134.907 94.4247 134.793C94.3915 134.781 94.3559 134.776 94.3205 134.779C94.2851 134.782 94.2508 134.792 94.22 134.81C94.1893 134.828 94.1628 134.852 94.1426 134.881C94.1224 134.911 94.109 134.944 94.1032 134.979L94.1071 134.964ZM96.9698 135.553C96.9644 135.584 96.9652 135.616 96.9721 135.647C96.9791 135.678 96.9922 135.707 97.0105 135.733C97.0288 135.759 97.0521 135.781 97.079 135.798C97.1059 135.814 97.1358 135.826 97.1671 135.831C97.6617 135.917 98.1582 135.996 98.6567 136.067C98.6884 136.073 98.7208 136.072 98.7521 136.064C98.7834 136.057 98.8127 136.043 98.8384 136.024C98.864 136.004 98.8853 135.98 98.901 135.952C98.9167 135.924 98.9264 135.893 98.9294 135.861C98.9368 135.797 98.9194 135.734 98.8809 135.683C98.8425 135.632 98.7859 135.598 98.723 135.588C98.2656 135.527 97.7811 135.452 97.2841 135.365C97.2492 135.353 97.2119 135.349 97.1751 135.353C97.1383 135.357 97.1031 135.37 97.0721 135.391C97.0411 135.411 97.0152 135.438 96.9964 135.47C96.9777 135.502 96.9666 135.538 96.964 135.575L96.9698 135.553ZM99.8666 135.956C99.861 136.02 99.8807 136.083 99.9215 136.132C99.9623 136.18 100.021 136.211 100.084 136.217L100.378 136.249C100.765 136.283 101.14 136.305 101.55 136.338C101.582 136.34 101.614 136.335 101.644 136.325C101.674 136.315 101.701 136.299 101.725 136.277C101.749 136.256 101.768 136.231 101.782 136.202C101.796 136.174 101.803 136.143 101.805 136.111C101.808 136.079 101.805 136.047 101.795 136.016C101.785 135.986 101.769 135.958 101.747 135.934C101.726 135.91 101.7 135.891 101.671 135.877C101.642 135.864 101.61 135.857 101.578 135.856C101.19 135.83 100.817 135.8 100.423 135.764L100.134 135.741C100.101 135.735 100.066 135.737 100.034 135.746C100.001 135.755 99.9706 135.771 99.9448 135.793C99.9189 135.815 99.8982 135.842 99.884 135.873C99.8698 135.904 99.8626 135.937 99.8627 135.971L99.8666 135.956ZM102.783 136.14L102.77 136.191C102.768 136.222 102.772 136.254 102.783 136.284C102.793 136.313 102.81 136.341 102.831 136.364C102.852 136.387 102.878 136.405 102.907 136.418C102.936 136.431 102.967 136.438 102.999 136.438C103.491 136.454 103.977 136.468 104.473 136.469C104.505 136.468 104.537 136.462 104.566 136.449C104.595 136.436 104.622 136.418 104.644 136.395C104.666 136.372 104.683 136.345 104.695 136.315C104.706 136.285 104.711 136.254 104.71 136.222C104.711 136.19 104.705 136.159 104.693 136.13C104.681 136.1 104.664 136.074 104.642 136.051C104.62 136.029 104.593 136.011 104.564 135.998C104.535 135.986 104.504 135.98 104.473 135.979C103.983 135.98 103.503 135.976 103.019 135.955C102.963 135.956 102.908 135.976 102.864 136.012C102.82 136.049 102.791 136.099 102.78 136.155L102.783 136.14ZM105.701 136.146L105.684 136.211C105.684 136.243 105.691 136.274 105.704 136.303C105.716 136.333 105.735 136.359 105.758 136.381C105.781 136.403 105.808 136.42 105.838 136.432C105.867 136.443 105.899 136.449 105.931 136.448C106.424 136.432 106.912 136.408 107.402 136.376C107.434 136.374 107.465 136.366 107.494 136.352C107.522 136.338 107.548 136.318 107.569 136.294C107.589 136.27 107.605 136.242 107.615 136.212C107.625 136.182 107.629 136.15 107.627 136.118C107.625 136.086 107.616 136.055 107.602 136.026C107.588 135.998 107.569 135.972 107.545 135.952C107.521 135.931 107.493 135.915 107.462 135.905C107.432 135.895 107.4 135.891 107.369 135.893C106.886 135.927 106.4 135.944 105.914 135.962C105.862 135.966 105.814 135.987 105.775 136.022C105.736 136.056 105.71 136.102 105.7 136.153L105.701 136.146ZM108.625 135.958C108.611 135.983 108.603 136.01 108.603 136.038C108.609 136.101 108.64 136.16 108.688 136.2C108.737 136.241 108.8 136.261 108.863 136.255C109.35 136.207 109.838 136.151 110.324 136.08C110.355 136.076 110.386 136.066 110.414 136.051C110.442 136.035 110.466 136.015 110.486 135.989C110.506 135.964 110.52 135.936 110.529 135.905C110.537 135.874 110.54 135.842 110.535 135.81C110.531 135.779 110.521 135.749 110.505 135.722C110.489 135.694 110.467 135.671 110.442 135.652C110.417 135.633 110.388 135.619 110.358 135.611C110.327 135.603 110.295 135.601 110.264 135.606C109.781 135.67 109.3 135.728 108.815 135.769C108.767 135.779 108.723 135.803 108.689 135.838C108.655 135.873 108.632 135.917 108.623 135.965L108.625 135.958ZM111.474 135.58C111.459 135.612 111.449 135.647 111.447 135.682C111.459 135.745 111.495 135.801 111.547 135.838C111.599 135.875 111.664 135.891 111.728 135.881C112.209 135.793 112.691 135.705 113.177 135.602C113.238 135.587 113.291 135.549 113.326 135.496C113.36 135.443 113.373 135.38 113.362 135.317C113.349 135.253 113.311 135.197 113.257 135.161C113.203 135.124 113.136 135.111 113.072 135.123C112.601 135.23 112.126 135.32 111.647 135.401C111.604 135.412 111.565 135.434 111.535 135.466C111.504 135.498 111.483 135.537 111.474 135.58ZM114.337 134.981C114.318 135.014 114.308 135.051 114.308 135.09C114.315 135.121 114.328 135.15 114.347 135.177C114.366 135.203 114.389 135.225 114.417 135.241C114.444 135.258 114.475 135.269 114.506 135.274C114.538 135.279 114.57 135.277 114.602 135.269C115.077 135.148 115.554 135.02 116.02 134.873C116.051 134.865 116.08 134.851 116.105 134.832C116.131 134.812 116.152 134.788 116.167 134.76C116.183 134.732 116.192 134.701 116.195 134.67C116.198 134.638 116.195 134.606 116.185 134.575C116.176 134.545 116.162 134.517 116.142 134.492C116.123 134.467 116.098 134.446 116.071 134.431C116.043 134.416 116.013 134.406 115.981 134.402C115.95 134.399 115.918 134.402 115.888 134.41C115.423 134.55 114.955 134.673 114.476 134.809C114.45 134.827 114.428 134.851 114.411 134.879C114.394 134.906 114.383 134.937 114.379 134.969L114.337 134.981ZM117.138 134.178C117.113 134.218 117.101 134.263 117.103 134.309C117.113 134.339 117.129 134.368 117.15 134.392C117.17 134.416 117.196 134.436 117.225 134.45C117.254 134.465 117.285 134.473 117.317 134.475C117.349 134.477 117.381 134.472 117.411 134.461C117.874 134.298 118.337 134.135 118.797 133.955C118.856 133.931 118.903 133.885 118.929 133.827C118.954 133.769 118.957 133.703 118.935 133.643C118.911 133.584 118.865 133.537 118.807 133.511C118.748 133.486 118.683 133.483 118.623 133.505C118.172 133.679 117.716 133.844 117.255 134C117.216 134.039 117.192 134.09 117.186 134.145L117.138 134.178ZM127.28 102.732L127.2 103.029C127.194 103.06 127.194 103.092 127.2 103.123C127.206 103.154 127.218 103.183 127.235 103.21C127.253 103.236 127.275 103.259 127.302 103.276C127.328 103.294 127.357 103.306 127.388 103.312C127.419 103.32 127.452 103.321 127.483 103.315C127.514 103.309 127.544 103.297 127.571 103.28C127.597 103.262 127.62 103.239 127.637 103.212C127.655 103.186 127.666 103.156 127.672 103.124C127.72 102.84 127.795 102.561 127.895 102.291C127.96 102.131 128.036 101.975 128.121 101.824C128.153 101.767 128.161 101.701 128.145 101.638C128.128 101.576 128.088 101.522 128.032 101.489C128.004 101.474 127.973 101.464 127.941 101.46C127.91 101.457 127.877 101.46 127.847 101.469C127.816 101.478 127.788 101.493 127.763 101.514C127.738 101.534 127.718 101.559 127.703 101.587C127.603 101.757 127.517 101.933 127.445 102.116C127.4 102.296 127.364 102.478 127.337 102.662L127.28 102.732ZM127.116 104.474L127.096 104.546C127.136 105.061 127.263 105.565 127.473 106.037C127.506 106.092 127.56 106.133 127.622 106.149C127.684 106.166 127.75 106.158 127.807 106.126C127.835 106.111 127.86 106.09 127.879 106.064C127.899 106.039 127.914 106.01 127.922 105.979C127.93 105.948 127.932 105.915 127.928 105.883C127.923 105.851 127.913 105.821 127.896 105.793C127.712 105.373 127.599 104.926 127.56 104.469C127.558 104.437 127.55 104.406 127.536 104.377C127.521 104.349 127.502 104.323 127.478 104.302C127.454 104.281 127.426 104.265 127.396 104.255C127.365 104.245 127.333 104.242 127.302 104.244C127.27 104.26 127.242 104.283 127.22 104.31C127.198 104.338 127.182 104.37 127.173 104.404L127.116 104.474ZM119.849 133.158C119.834 133.211 119.839 133.267 119.861 133.316C119.894 133.372 119.947 133.412 120.01 133.429C120.072 133.445 120.138 133.437 120.194 133.406C120.643 133.208 121.082 132.991 121.526 132.784C121.581 132.751 121.621 132.698 121.638 132.636C121.655 132.573 121.646 132.507 121.615 132.451C121.582 132.396 121.529 132.355 121.466 132.339C121.404 132.322 121.338 132.33 121.282 132.362C120.852 132.573 120.394 132.776 119.969 132.973C119.938 133.005 119.917 133.045 119.907 133.088L119.849 133.158ZM128.632 100.524C128.623 100.563 128.623 100.603 128.631 100.641C128.64 100.68 128.657 100.716 128.681 100.747C128.726 100.794 128.786 100.822 128.851 100.825C128.916 100.828 128.979 100.805 129.027 100.762C129.375 100.455 129.763 100.196 130.18 99.9918C130.235 99.9599 130.275 99.9077 130.291 99.8467C130.307 99.7857 130.299 99.7206 130.268 99.6658C130.235 99.6104 130.181 99.5701 130.119 99.5535C130.057 99.5368 129.991 99.545 129.934 99.5765C129.474 99.7974 129.047 100.083 128.667 100.425C128.662 100.431 128.658 100.438 128.654 100.445L128.632 100.524ZM128.317 107.063C128.307 107.105 128.308 107.149 128.32 107.19C128.332 107.231 128.355 107.269 128.386 107.299C128.773 107.659 129.222 107.945 129.712 108.143C129.741 108.156 129.773 108.162 129.805 108.162C129.837 108.162 129.868 108.155 129.898 108.143C129.927 108.13 129.953 108.112 129.976 108.09C129.998 108.067 130.016 108.04 130.027 108.01C130.052 107.952 130.052 107.887 130.029 107.828C130.005 107.769 129.96 107.722 129.902 107.697C129.478 107.519 129.088 107.27 128.748 106.961C128.725 106.939 128.698 106.921 128.668 106.909C128.638 106.897 128.606 106.892 128.574 106.893C128.542 106.894 128.51 106.901 128.481 106.914C128.452 106.927 128.426 106.946 128.404 106.97C128.393 106.977 128.384 106.985 128.374 106.993L128.317 107.063ZM122.451 131.852C122.434 131.914 122.441 131.98 122.472 132.036C122.505 132.091 122.558 132.132 122.62 132.148C122.682 132.165 122.749 132.157 122.805 132.125C123.235 131.883 123.659 131.632 124.076 131.379C124.132 131.346 124.172 131.293 124.189 131.23C124.205 131.168 124.197 131.102 124.166 131.046C124.134 130.991 124.082 130.951 124.02 130.935C123.959 130.919 123.894 130.927 123.84 130.958C123.431 131.206 123.009 131.45 122.588 131.687C122.56 131.715 122.54 131.75 122.53 131.788L122.451 131.852ZM131.186 99.2518C131.17 99.2859 131.16 99.3228 131.157 99.3605C131.173 99.4226 131.212 99.4764 131.266 99.511C131.32 99.5456 131.385 99.5586 131.449 99.5474C131.906 99.4514 132.375 99.4177 132.842 99.4471C132.874 99.4484 132.906 99.4432 132.936 99.432C132.966 99.4208 132.993 99.4037 133.016 99.3817C133.04 99.3597 133.058 99.3333 133.071 99.304C133.084 99.2747 133.091 99.2431 133.092 99.2111C133.094 99.1795 133.089 99.1477 133.079 99.1177C133.069 99.0877 133.052 99.0601 133.031 99.0364C133.01 99.0127 132.985 98.9934 132.956 98.9796C132.928 98.9659 132.897 98.958 132.865 98.9563C132.357 98.9329 131.849 98.9714 131.351 99.0709C131.32 99.0999 131.297 99.1365 131.284 99.1771L131.186 99.2518ZM124.916 130.331C124.908 130.364 124.906 130.398 124.912 130.432C124.917 130.465 124.93 130.497 124.949 130.526C124.982 130.581 125.036 130.621 125.098 130.638C125.16 130.655 125.226 130.647 125.283 130.615L125.761 130.277L126.471 129.745C126.522 129.706 126.556 129.647 126.564 129.582C126.573 129.518 126.556 129.452 126.516 129.401C126.476 129.351 126.419 129.319 126.356 129.311C126.294 129.303 126.23 129.319 126.179 129.357L125.479 129.883L125.002 130.214C125.005 130.228 125.009 130.242 125.014 130.256L124.916 130.331ZM130.906 108.238C130.896 108.302 130.913 108.367 130.951 108.42C130.989 108.472 131.046 108.507 131.11 108.518C131.617 108.594 132.129 108.622 132.641 108.602C132.673 108.602 132.704 108.595 132.733 108.582C132.763 108.569 132.789 108.551 132.811 108.528C132.833 108.505 132.85 108.478 132.862 108.448C132.873 108.418 132.879 108.387 132.878 108.355C132.877 108.323 132.871 108.292 132.858 108.263C132.845 108.234 132.826 108.208 132.803 108.186C132.78 108.165 132.752 108.148 132.722 108.138C132.692 108.127 132.66 108.123 132.629 108.125C132.155 108.139 131.682 108.113 131.213 108.048C131.171 108.048 131.13 108.058 131.093 108.078C131.056 108.098 131.025 108.128 131.003 108.163L130.906 108.238ZM134.047 99.4128C134.031 99.4718 134.038 99.5347 134.067 99.5886C134.096 99.6425 134.144 99.6834 134.202 99.7028C134.639 99.8556 135.049 100.075 135.417 100.355C135.442 100.374 135.471 100.388 135.501 100.397C135.532 100.405 135.563 100.408 135.595 100.404C135.626 100.4 135.656 100.39 135.684 100.374C135.711 100.359 135.735 100.338 135.755 100.313C135.774 100.288 135.788 100.26 135.797 100.229C135.805 100.199 135.808 100.167 135.804 100.136C135.8 100.104 135.79 100.074 135.774 100.047C135.759 100.019 135.738 99.9951 135.713 99.9757C135.303 99.6601 134.845 99.4139 134.355 99.2469C134.325 99.2357 134.293 99.2306 134.261 99.232C134.228 99.2334 134.197 99.2414 134.168 99.2553C134.139 99.2693 134.113 99.289 134.091 99.3132C134.07 99.3374 134.054 99.3657 134.044 99.3963L134.047 99.4128ZM127.354 128.476C127.343 128.514 127.342 128.555 127.351 128.593C127.359 128.632 127.377 128.669 127.403 128.699C127.445 128.747 127.505 128.777 127.568 128.782C127.632 128.788 127.695 128.768 127.745 128.728C128.118 128.409 128.487 128.073 128.84 127.74C128.887 127.695 128.914 127.633 128.915 127.568C128.917 127.503 128.893 127.44 128.848 127.393C128.826 127.37 128.8 127.352 128.771 127.339C128.742 127.327 128.711 127.32 128.679 127.32C128.648 127.319 128.616 127.325 128.587 127.336C128.557 127.348 128.531 127.365 128.508 127.387C128.155 127.717 127.797 128.041 127.433 128.357C127.395 128.388 127.368 128.429 127.354 128.476ZM133.937 108.111C133.921 108.14 133.913 108.172 133.912 108.205C133.922 108.269 133.957 108.326 134.009 108.365C134.061 108.404 134.126 108.42 134.19 108.411C134.652 108.341 135.143 108.247 135.641 108.125C135.673 108.118 135.702 108.104 135.728 108.086C135.754 108.067 135.776 108.043 135.793 108.016C135.81 107.989 135.821 107.958 135.826 107.926C135.831 107.895 135.829 107.862 135.821 107.831C135.805 107.769 135.765 107.716 135.711 107.682C135.656 107.649 135.59 107.638 135.528 107.652C135.045 107.771 134.569 107.868 134.116 107.934C134.07 107.939 134.026 107.959 133.99 107.989C133.954 108.02 133.928 108.06 133.915 108.105L133.937 108.111ZM129.457 126.423C129.445 126.465 129.444 126.511 129.456 126.554C129.468 126.597 129.492 126.635 129.524 126.666C129.572 126.709 129.634 126.733 129.698 126.731C129.762 126.729 129.823 126.703 129.868 126.657C130.203 126.304 130.535 125.935 130.86 125.564C130.881 125.54 130.897 125.512 130.907 125.482C130.917 125.452 130.921 125.42 130.918 125.388C130.916 125.357 130.908 125.326 130.893 125.297C130.879 125.269 130.859 125.244 130.835 125.223C130.811 125.202 130.783 125.187 130.753 125.176C130.723 125.166 130.691 125.162 130.659 125.165C130.627 125.167 130.597 125.176 130.568 125.19C130.54 125.205 130.515 125.224 130.494 125.249C130.179 125.614 129.849 125.976 129.515 126.322C129.487 126.349 129.467 126.384 129.457 126.423ZM136.448 101.058C136.439 101.093 136.438 101.129 136.445 101.164C136.451 101.199 136.466 101.233 136.486 101.262C136.751 101.647 136.971 102.06 137.142 102.494C137.153 102.524 137.169 102.552 137.191 102.576C137.213 102.599 137.239 102.618 137.268 102.631C137.298 102.644 137.33 102.651 137.362 102.651C137.394 102.651 137.425 102.645 137.455 102.632C137.485 102.622 137.513 102.605 137.537 102.583C137.56 102.562 137.579 102.535 137.592 102.506C137.605 102.477 137.612 102.445 137.612 102.413C137.612 102.381 137.606 102.349 137.593 102.32C137.407 101.847 137.168 101.398 136.88 100.98C136.847 100.926 136.795 100.888 136.735 100.872C136.674 100.855 136.61 100.863 136.554 100.892C136.517 100.917 136.487 100.95 136.467 100.99C136.447 101.029 136.438 101.073 136.44 101.118L136.448 101.058ZM131.368 124.217C131.358 124.264 131.361 124.312 131.376 124.357C131.391 124.402 131.419 124.443 131.455 124.473C131.48 124.493 131.508 124.507 131.539 124.516C131.569 124.524 131.601 124.526 131.632 124.522C131.664 124.519 131.694 124.509 131.721 124.493C131.749 124.477 131.773 124.457 131.792 124.432C132.099 124.04 132.391 123.645 132.676 123.248C132.713 123.195 132.728 123.129 132.718 123.066C132.707 123.002 132.672 122.945 132.62 122.907C132.566 122.87 132.5 122.856 132.436 122.867C132.371 122.879 132.314 122.916 132.277 122.97C132.001 123.362 131.711 123.75 131.415 124.129C131.387 124.165 131.369 124.209 131.366 124.255L131.368 124.217ZM137.536 103.749C137.517 103.779 137.507 103.814 137.509 103.85C137.598 104.318 137.66 104.791 137.696 105.267C137.698 105.298 137.706 105.33 137.72 105.358C137.735 105.387 137.754 105.412 137.778 105.433C137.802 105.454 137.83 105.47 137.86 105.48C137.891 105.49 137.923 105.494 137.954 105.491C137.986 105.489 138.017 105.481 138.046 105.467C138.074 105.453 138.1 105.433 138.121 105.409C138.142 105.385 138.157 105.357 138.167 105.327C138.177 105.297 138.181 105.265 138.179 105.233C138.142 104.736 138.078 104.242 137.985 103.752C137.971 103.689 137.932 103.635 137.878 103.6C137.823 103.565 137.757 103.552 137.694 103.566C137.648 103.582 137.608 103.612 137.579 103.651C137.551 103.691 137.535 103.738 137.534 103.787L137.536 103.749ZM136.761 107.423C136.747 107.467 136.748 107.514 136.764 107.556C136.773 107.587 136.787 107.615 136.807 107.64C136.827 107.664 136.852 107.685 136.88 107.7C136.908 107.714 136.939 107.723 136.97 107.726C137.002 107.728 137.034 107.724 137.064 107.714C137.283 107.649 137.497 107.574 137.726 107.503L137.684 108.183C137.678 108.246 137.698 108.309 137.738 108.358C137.779 108.407 137.838 108.437 137.901 108.443C137.933 108.446 137.966 108.443 137.996 108.433C138.027 108.423 138.055 108.407 138.08 108.386C138.104 108.365 138.124 108.34 138.139 108.311C138.153 108.282 138.161 108.25 138.163 108.218C138.188 107.922 138.206 107.624 138.215 107.331L138.456 107.241C138.486 107.23 138.514 107.214 138.538 107.192C138.561 107.171 138.581 107.145 138.594 107.116C138.608 107.087 138.615 107.056 138.616 107.024C138.618 106.992 138.613 106.96 138.601 106.93C138.591 106.9 138.574 106.872 138.553 106.849C138.532 106.825 138.506 106.806 138.477 106.792C138.448 106.779 138.417 106.771 138.385 106.77C138.353 106.769 138.321 106.774 138.291 106.785L138.231 106.808L138.246 106.75C138.245 106.685 138.22 106.622 138.174 106.576C138.129 106.529 138.068 106.501 138.003 106.498C137.939 106.501 137.878 106.527 137.833 106.573C137.788 106.618 137.761 106.679 137.759 106.743L137.749 106.981C137.473 107.086 137.193 107.174 136.901 107.251C136.867 107.266 136.838 107.29 136.815 107.319C136.793 107.348 136.777 107.382 136.77 107.418L136.761 107.423ZM133.058 121.851C133.043 121.901 133.044 121.954 133.062 122.002C133.08 122.05 133.114 122.091 133.157 122.119C133.212 122.153 133.278 122.165 133.341 122.151C133.404 122.138 133.459 122.1 133.495 122.046C133.753 121.634 134.015 121.207 134.253 120.782C134.27 120.755 134.281 120.724 134.285 120.693C134.289 120.661 134.287 120.629 134.279 120.598C134.27 120.568 134.256 120.539 134.236 120.514C134.215 120.49 134.191 120.469 134.162 120.455C134.135 120.439 134.105 120.429 134.073 120.425C134.042 120.421 134.01 120.424 133.98 120.432C133.95 120.441 133.921 120.455 133.896 120.475C133.871 120.494 133.851 120.518 133.835 120.546C133.599 120.964 133.341 121.376 133.083 121.788L133.058 121.851ZM134.513 119.322C134.497 119.375 134.502 119.433 134.526 119.483C134.549 119.533 134.59 119.574 134.641 119.597C134.669 119.611 134.7 119.62 134.731 119.622C134.763 119.624 134.795 119.621 134.825 119.611C134.855 119.601 134.883 119.585 134.907 119.564C134.931 119.543 134.95 119.518 134.965 119.489C135.19 119.053 135.403 118.605 135.6 118.161C135.627 118.103 135.629 118.037 135.608 117.978C135.586 117.918 135.541 117.869 135.483 117.843C135.454 117.828 135.423 117.82 135.391 117.818C135.358 117.817 135.326 117.822 135.296 117.834C135.266 117.845 135.238 117.863 135.215 117.886C135.193 117.909 135.175 117.936 135.163 117.966C134.961 118.401 134.75 118.842 134.533 119.273L134.513 119.322ZM137.545 109.598C137.488 110.072 137.413 110.556 137.325 111.029C137.313 111.093 137.328 111.158 137.364 111.212C137.401 111.265 137.457 111.302 137.52 111.315C137.551 111.32 137.583 111.319 137.614 111.312C137.645 111.305 137.674 111.292 137.7 111.274C137.726 111.256 137.748 111.232 137.765 111.205C137.781 111.179 137.793 111.149 137.798 111.117C137.924 110.646 137.965 110.145 138.034 109.628C138.039 109.596 138.037 109.565 138.029 109.534C138.021 109.504 138.006 109.475 137.987 109.45C137.967 109.425 137.943 109.405 137.915 109.39C137.888 109.375 137.857 109.365 137.826 109.362C137.79 109.355 137.753 109.357 137.718 109.367C137.682 109.376 137.65 109.394 137.622 109.418C137.595 109.442 137.573 109.472 137.559 109.506C137.545 109.539 137.539 109.576 137.541 109.612L137.545 109.598ZM135.716 116.655C135.7 116.713 135.707 116.774 135.734 116.828C135.762 116.881 135.808 116.922 135.864 116.943C135.923 116.965 135.988 116.964 136.046 116.938C136.103 116.913 136.149 116.866 136.172 116.808C136.356 116.353 136.528 115.886 136.691 115.394C136.701 115.364 136.705 115.333 136.703 115.301C136.701 115.269 136.692 115.239 136.678 115.21C136.664 115.182 136.645 115.157 136.621 115.136C136.597 115.115 136.569 115.1 136.539 115.09C136.51 115.078 136.478 115.073 136.446 115.075C136.414 115.077 136.383 115.085 136.354 115.099C136.326 115.113 136.3 115.133 136.28 115.158C136.259 115.182 136.244 115.21 136.235 115.241C136.074 115.695 135.912 116.156 135.732 116.597L135.716 116.655ZM137.024 112.471C136.898 112.942 136.773 113.405 136.647 113.876C136.638 113.906 136.635 113.937 136.639 113.968C136.642 113.999 136.651 114.029 136.667 114.057C136.682 114.084 136.702 114.108 136.727 114.127C136.751 114.146 136.78 114.16 136.81 114.168C136.84 114.177 136.872 114.18 136.903 114.177C136.934 114.174 136.965 114.165 136.993 114.15C137.02 114.135 137.045 114.115 137.065 114.09C137.085 114.066 137.1 114.038 137.109 114.008C137.237 113.529 137.363 113.059 137.497 112.559C137.505 112.527 137.506 112.495 137.5 112.463C137.495 112.431 137.483 112.401 137.466 112.374C137.448 112.347 137.426 112.323 137.399 112.305C137.372 112.287 137.343 112.274 137.311 112.268C137.277 112.261 137.242 112.261 137.209 112.268C137.175 112.275 137.143 112.289 137.116 112.31C137.088 112.331 137.065 112.357 137.049 112.387C137.032 112.417 137.022 112.451 137.02 112.485L137.024 112.471ZM139.507 106.42C139.492 106.472 139.496 106.528 139.519 106.578C139.551 106.633 139.603 106.672 139.664 106.689C139.725 106.705 139.79 106.697 139.845 106.665C140.299 106.477 140.728 106.266 141.194 106.064C141.249 106.032 141.288 105.98 141.305 105.919C141.321 105.858 141.313 105.793 141.281 105.738C141.248 105.683 141.195 105.643 141.133 105.626C141.071 105.609 141.004 105.618 140.948 105.649C140.521 105.853 140.063 106.056 139.632 106.243C139.592 106.257 139.556 106.282 139.528 106.314C139.501 106.346 139.482 106.385 139.474 106.426L139.507 106.42ZM142.173 105.162C142.165 105.191 142.163 105.222 142.167 105.253C142.171 105.283 142.181 105.312 142.196 105.339C142.211 105.367 142.231 105.391 142.256 105.411C142.281 105.43 142.31 105.444 142.34 105.453C142.371 105.461 142.402 105.463 142.434 105.458C142.465 105.454 142.495 105.443 142.522 105.426C142.957 105.193 143.381 104.942 143.793 104.68C143.821 104.665 143.846 104.644 143.865 104.619C143.885 104.595 143.899 104.566 143.907 104.536C143.915 104.505 143.917 104.473 143.913 104.442C143.908 104.411 143.897 104.381 143.881 104.354C143.865 104.326 143.844 104.301 143.819 104.281C143.793 104.261 143.764 104.247 143.733 104.239C143.702 104.23 143.669 104.228 143.638 104.233C143.606 104.237 143.575 104.248 143.547 104.264C143.145 104.521 142.722 104.765 142.302 105.002C142.262 105.012 142.226 105.033 142.197 105.062C142.169 105.092 142.149 105.129 142.14 105.169L142.173 105.162ZM144.646 103.612C144.63 103.681 144.641 103.753 144.678 103.814C144.711 103.869 144.764 103.91 144.826 103.926C144.888 103.943 144.955 103.935 145.011 103.903C145.414 103.615 145.799 103.338 146.183 103.006C146.208 102.986 146.228 102.961 146.243 102.933C146.258 102.904 146.267 102.873 146.269 102.842C146.272 102.81 146.268 102.778 146.259 102.747C146.249 102.717 146.233 102.689 146.212 102.665C146.193 102.64 146.168 102.619 146.14 102.604C146.112 102.588 146.082 102.579 146.05 102.575C146.019 102.572 145.987 102.575 145.956 102.584C145.926 102.593 145.897 102.608 145.873 102.628C145.501 102.932 145.12 103.226 144.728 103.509C144.678 103.531 144.638 103.57 144.613 103.618L144.646 103.612ZM146.899 101.754C146.889 101.793 146.888 101.834 146.898 101.873C146.908 101.913 146.928 101.949 146.955 101.979C146.999 102.026 147.06 102.054 147.125 102.056C147.189 102.059 147.252 102.037 147.301 101.994C147.656 101.654 148.007 101.298 148.359 100.942C148.402 100.893 148.424 100.83 148.422 100.765C148.419 100.701 148.39 100.64 148.343 100.596C148.296 100.553 148.233 100.531 148.17 100.535C148.106 100.538 148.047 100.566 148.004 100.614C147.676 100.968 147.336 101.312 146.954 101.637C146.932 101.65 146.912 101.668 146.897 101.69C146.882 101.711 146.872 101.735 146.866 101.761L146.899 101.754ZM148.875 99.5967C148.861 99.6422 148.862 99.6906 148.876 99.7358C148.89 99.7811 148.917 99.8211 148.954 99.8509C148.979 99.8704 149.007 99.8847 149.038 99.8932C149.068 99.9016 149.1 99.9039 149.131 99.9001C149.163 99.8962 149.193 99.8862 149.22 99.8706C149.248 99.855 149.272 99.8342 149.291 99.8093C149.596 99.4251 149.89 99.0225 150.17 98.6161C150.188 98.5898 150.201 98.5603 150.207 98.5291C150.214 98.4979 150.214 98.4657 150.208 98.4345C150.202 98.4032 150.189 98.3735 150.172 98.347C150.154 98.3205 150.131 98.2978 150.105 98.2802C150.078 98.2622 150.049 98.2496 150.018 98.2431C149.987 98.2367 149.954 98.2365 149.923 98.2425C149.892 98.2486 149.862 98.2608 149.836 98.2785C149.809 98.2962 149.786 98.319 149.769 98.3456C149.5 98.7395 149.208 99.1348 148.914 99.5064C148.882 99.532 148.857 99.5654 148.842 99.6034L148.875 99.5967ZM154.288 81.7133L154.274 81.764L154.195 83.2181C154.192 83.2502 154.195 83.2826 154.205 83.3133C154.215 83.344 154.231 83.3724 154.252 83.3969C154.273 83.4214 154.298 83.4414 154.327 83.4557C154.356 83.47 154.388 83.4784 154.42 83.4803C154.483 83.4824 154.545 83.46 154.593 83.4178C154.64 83.3756 154.669 83.3168 154.675 83.2535C154.712 82.7666 154.735 82.2758 154.758 81.7849C154.76 81.7215 154.737 81.6596 154.695 81.6122C154.653 81.5648 154.594 81.5354 154.531 81.5301C154.47 81.523 154.408 81.5384 154.357 81.5733C154.306 81.6083 154.27 81.6604 154.255 81.7201L154.288 81.7133ZM150.516 97.1792C150.5 97.2314 150.503 97.2874 150.523 97.338C150.544 97.3886 150.58 97.4308 150.628 97.4576C150.655 97.4732 150.686 97.4831 150.717 97.4869C150.748 97.4908 150.78 97.4884 150.81 97.48C150.841 97.4715 150.869 97.4572 150.894 97.4378C150.919 97.4183 150.94 97.3942 150.955 97.3667C151.201 96.9433 151.441 96.5107 151.661 96.0651C151.688 96.0065 151.691 95.9398 151.67 95.8789C151.649 95.8181 151.604 95.768 151.546 95.7393C151.489 95.7122 151.423 95.7083 151.363 95.7283C151.303 95.7483 151.253 95.7906 151.223 95.8467C151.012 96.287 150.781 96.7143 150.539 97.1232L150.516 97.1792ZM154.097 84.6282L154.085 84.6717C154.038 85.1767 153.986 85.6597 153.93 86.1209C153.924 86.1847 153.943 86.2482 153.984 86.2981C154.024 86.3479 154.082 86.3803 154.145 86.3883C154.177 86.3929 154.208 86.3911 154.239 86.383C154.269 86.3749 154.298 86.3607 154.323 86.3412C154.348 86.3217 154.368 86.2973 154.383 86.2696C154.398 86.2419 154.408 86.2114 154.411 86.1799C154.472 85.6915 154.524 85.2085 154.57 84.7163C154.576 84.6529 154.556 84.5899 154.515 84.5412C154.474 84.4924 154.416 84.4618 154.352 84.4561C154.322 84.4478 154.29 84.4459 154.258 84.4505C154.227 84.4551 154.196 84.4661 154.169 84.4829C154.142 84.4997 154.119 84.5219 154.101 84.548C154.083 84.5742 154.07 84.6037 154.064 84.635L154.097 84.6282ZM151.814 94.5686C151.8 94.6252 151.806 94.685 151.832 94.7373C151.857 94.7897 151.901 94.8313 151.954 94.8547C151.984 94.867 152.015 94.8732 152.047 94.8731C152.079 94.873 152.11 94.8666 152.14 94.8542C152.169 94.8419 152.196 94.8238 152.218 94.801C152.24 94.7783 152.258 94.7513 152.269 94.7218C152.459 94.2756 152.638 93.811 152.81 93.3136C152.821 93.2844 152.826 93.2532 152.825 93.2219C152.823 93.1906 152.816 93.1599 152.802 93.1317C152.789 93.1034 152.77 93.0782 152.746 93.0574C152.723 93.0367 152.695 93.0209 152.666 93.0111C152.636 92.9999 152.605 92.9947 152.573 92.9958C152.541 92.9969 152.51 93.0043 152.481 93.0175C152.452 93.0307 152.426 93.0496 152.405 93.0728C152.383 93.0961 152.367 93.1234 152.356 93.1532C152.194 93.6144 152.017 94.0717 151.831 94.5033L151.814 94.5686ZM153.739 87.5294C153.665 88.0067 153.575 88.4873 153.487 88.9606C153.481 88.9916 153.481 89.0235 153.487 89.0545C153.493 89.0855 153.505 89.115 153.522 89.1413C153.54 89.1676 153.562 89.1903 153.588 89.2079C153.615 89.2255 153.644 89.2377 153.675 89.2439C153.707 89.2505 153.739 89.2506 153.771 89.2442C153.803 89.2379 153.833 89.2252 153.859 89.2069C153.886 89.1887 153.909 89.1653 153.926 89.1381C153.943 89.1109 153.955 89.0804 153.96 89.0486C154.087 88.5777 154.14 88.0874 154.225 87.5667C154.231 87.5355 154.23 87.5035 154.223 87.4726C154.216 87.4417 154.203 87.4125 154.185 87.3866C154.166 87.3608 154.143 87.3388 154.116 87.322C154.089 87.3052 154.06 87.2939 154.028 87.2887C153.99 87.2745 153.949 87.2703 153.909 87.2763C153.869 87.2824 153.831 87.2985 153.799 87.3233C153.766 87.348 153.741 87.3805 153.725 87.4177C153.708 87.4549 153.702 87.4957 153.706 87.5361L153.739 87.5294ZM152.793 91.8106C152.777 91.8716 152.784 91.9365 152.814 91.9921C152.844 92.0478 152.894 92.0899 152.954 92.1099C152.985 92.1192 153.017 92.1222 153.049 92.1187C153.081 92.1153 153.112 92.1054 153.14 92.0898C153.168 92.0741 153.193 92.053 153.212 92.0276C153.232 92.0023 153.247 91.9732 153.255 91.9421C153.381 91.4712 153.509 90.9931 153.643 90.4932C153.652 90.4622 153.654 90.4298 153.649 90.3979C153.645 90.3661 153.634 90.3354 153.617 90.3078C153.601 90.2802 153.579 90.2562 153.553 90.2372C153.527 90.2183 153.498 90.2047 153.466 90.1974C153.406 90.1831 153.342 90.193 153.288 90.2251C153.235 90.2571 153.196 90.3087 153.18 90.369L152.801 91.7817L152.793 91.8106Z" fill="#999999"/>
<path d="M108.904 41.2585L108.567 38.9788L116.449 32.34L115.829 29.8444C115.253 27.819 115.635 26.1044 116.316 25.4173L116.281 25.2292C116.068 23.8212 116.761 23.207 117.423 23.1126C118.085 23.0182 118.901 23.3922 119.128 24.8042L119.156 24.9902C119.84 25.3364 120.88 26.3218 120.908 29.0858L121.034 31.6585L130.491 35.7454L130.835 38.0271L121.289 37.1697L121.724 43.5445L123.827 45.0553L123.993 46.8392L121.789 46.3727L121.684 46.9659L120.333 47.1706L120.022 46.6214L118.017 47.7301L117.657 45.9721L119.23 43.9246L117.794 37.6931L108.904 41.2585ZM119.775 44.0084L118.19 46.0684L118.373 46.8938L120.198 45.8766L120.593 46.5491L121.231 46.4561L121.36 45.7142L123.417 46.1491L123.339 45.2818L121.229 43.7691L120.746 36.5584L130.23 37.4147L130.029 36.0487L120.526 31.9884L120.388 29.0861C120.367 26.4096 119.384 25.618 118.802 25.3845L118.65 25.3437L118.638 25.1852C118.636 25.0861 118.626 24.9874 118.608 24.89C118.483 24.0255 118.047 23.5361 117.48 23.6248C116.912 23.7135 116.632 24.2982 116.764 25.1646C116.776 25.2613 116.795 25.357 116.82 25.4512L116.862 25.6102L116.733 25.7153C116.2 26.1394 115.714 27.663 116.295 29.7286L117.004 32.5276L109.095 39.1823L109.296 40.5483L118.129 36.9674L119.775 44.0084Z" fill="#999999"/>
</svg>
