<svg width="70" height="57" viewBox="0 0 70 57" fill="none" xmlns="http://www.w3.org/2000/svg">
<path d="M19.997 20.9161C20.0164 21.1778 19.8807 21.3086 19.5899 21.3086C19.4058 21.3086 18.8727 21.202 17.9908 20.9888C17.1185 20.7756 16.5806 20.6302 16.3771 20.5527C14.3515 21.3474 12.4083 21.7448 10.5475 21.7448C7.55274 21.7448 5.09587 20.7465 3.1769 18.75C1.27731 16.7826 0.327515 14.2966 0.327515 11.2922C0.327515 8.21987 1.24823 5.67094 3.08967 3.64535C4.98926 1.55193 7.45582 0.505219 10.4893 0.505219C11.9625 0.505219 13.3484 0.78628 14.6471 1.3484C16.0524 1.96868 17.1573 2.84094 17.9617 3.96518C18.1265 4.19779 18.2088 4.36255 18.2088 4.45946C18.2088 4.7696 17.7727 5.46741 16.9005 6.55289C16.0379 7.62868 15.4806 8.16657 15.2286 8.16657C15.1705 8.16657 14.9476 7.96789 14.5599 7.57053C14.085 7.09563 13.6004 6.72734 13.1061 6.46566C12.3695 6.0683 11.5554 5.86962 10.6638 5.86962C9.21003 5.86962 8.05671 6.41236 7.20383 7.49784C6.40911 8.49609 6.01174 9.74148 6.01174 11.234C6.01174 12.8138 6.42364 14.064 7.24744 14.9847C8.10032 15.9345 9.30695 16.4094 10.8673 16.4094C11.8559 16.4094 12.9607 16.1623 14.1819 15.668C14.1528 15.3482 14.0656 14.5341 13.9202 13.2257C13.7942 12.2177 13.7312 11.4036 13.7312 10.7833C13.7312 10.5992 13.7942 10.4878 13.9202 10.449C13.9687 10.4296 14.0462 10.4199 14.1528 10.4199C14.4339 10.4199 14.8555 10.449 15.4176 10.5071C15.9894 10.5556 16.4207 10.5798 16.7115 10.5798C17.0216 10.5798 17.4868 10.5604 18.1071 10.5217C18.7274 10.4732 19.1926 10.449 19.5027 10.449C19.745 10.449 19.8661 10.6089 19.8661 10.9287C19.8661 11.3939 19.8371 12.0966 19.7789 13.0367C19.7305 13.9768 19.7062 14.6794 19.7062 15.1447C19.7062 16.3949 19.7983 18.2654 19.9824 20.7562L19.997 20.9161Z" fill="#EEC52D"/>
<path d="M35.9157 14.2288C35.9157 16.4385 35.2373 18.2315 33.8805 19.6077C32.5333 20.9839 30.7597 21.6721 28.5597 21.6721C26.4275 21.6721 24.6733 20.9936 23.297 19.6368C21.9208 18.2799 21.2327 16.5354 21.2327 14.4032C21.2327 12.1547 21.8917 10.3327 23.2098 8.93707C24.5279 7.53176 26.3112 6.8291 28.5597 6.8291C30.75 6.8291 32.5236 7.51722 33.8805 8.89345C35.2373 10.26 35.9157 12.0384 35.9157 14.2288ZM31.1474 14.2288C31.1474 13.4631 30.9099 12.7895 30.435 12.208C29.9601 11.6168 29.3447 11.3212 28.5887 11.3212C27.8231 11.3212 27.1931 11.6217 26.6988 12.2226C26.2336 12.7847 26.001 13.4534 26.001 14.2288C26.001 15.0138 26.2336 15.6874 26.6988 16.2495C27.1931 16.8504 27.8231 17.1508 28.5887 17.1508C29.3447 17.1508 29.9698 16.8504 30.4641 16.2495C30.9196 15.6874 31.1474 15.0138 31.1474 14.2288Z" fill="#EEC52D"/>
<path d="M23.1503 51.1362C22.6821 50.6514 22.3224 50.1688 22.1007 49.7036C22.4655 49.9246 22.6793 50.0335 22.9139 50.1412C23.1027 50.2814 23.2891 50.4262 23.4745 50.573L23.1503 51.1362Z" fill="#EEC52D"/>
<path d="M23.624 51.5944C23.9439 51.8851 24.2995 52.1749 24.6843 52.4605L25.0622 51.8039C24.6924 51.5428 24.3352 51.2606 23.9798 50.9763L23.624 51.5944Z" fill="#EEC52D"/>
<path d="M26.3461 53.5627C25.9487 53.3255 25.5675 53.0818 25.2069 52.8337L25.5935 52.162C25.9743 52.4119 26.3566 52.6506 26.7404 52.8777L26.3461 53.5627Z" fill="#EEC52D"/>
<path d="M26.8992 53.8829C27.3921 54.1596 27.9053 54.4255 28.4314 54.6767L28.7602 53.9589C28.2691 53.7237 27.7804 53.4695 27.2941 53.1968L26.8992 53.8829Z" fill="#EEC52D"/>
<path d="M30.5779 55.5916C30.0487 55.3926 29.5221 55.1751 29.005 54.9426L29.3339 54.2246C29.8346 54.4485 30.3379 54.6527 30.8437 54.8367L30.5779 55.5916Z" fill="#EEC52D"/>
<path d="M31.1668 55.805C31.7057 55.9929 32.2447 56.1604 32.7766 56.3039L32.9838 55.4896C32.4651 55.3617 31.9489 55.2124 31.4354 55.0423L31.1668 55.805Z" fill="#EEC52D"/>
<path d="M35.0253 56.7657C34.4937 56.6949 33.9421 56.5904 33.3793 56.4569L33.5899 55.6291C34.1126 55.7408 34.638 55.8308 35.166 55.8986L35.0253 56.7657Z" fill="#EEC52D"/>
<path d="M35.6408 56.8337C36.22 56.8873 36.7723 56.925 37.3045 56.9448L37.3702 56.0512C36.8379 56.0457 36.3083 56.0176 35.7813 55.9674L35.6408 56.8337Z" fill="#EEC52D"/>
<path d="M39.5862 56.9062C39.0463 56.9487 38.4946 56.9656 37.9216 56.9596L37.9886 56.0474C38.5142 56.0355 39.0422 56.0015 39.5729 55.9451L39.5862 56.9062Z" fill="#EEC52D"/>
<path d="M40.2014 56.846C40.7563 56.7809 41.3022 56.6868 41.8498 56.5608L41.7511 55.5888C41.2276 55.7042 40.7065 55.7977 40.1879 55.8697L40.2014 56.846Z" fill="#EEC52D"/>
<path d="M44.0549 55.8863C43.5102 56.0924 42.9798 56.2657 42.4545 56.4088L42.3567 55.4457C42.864 55.3178 43.3736 55.1694 43.8855 54.9999L44.0549 55.8863Z" fill="#EEC52D"/>
<path d="M44.6411 55.6542C45.1374 55.4492 45.6477 55.2174 46.1786 54.9568L45.9563 54.1762C45.4707 54.4093 44.9781 54.6145 44.477 54.7958L44.6411 55.6542Z" fill="#EEC52D"/>
<path d="M48.2298 53.8691C47.7146 54.1598 47.2213 54.427 46.7453 54.6718L46.5226 53.8898C46.9923 53.6398 47.456 53.3616 47.9151 53.0513L48.2298 53.8691Z" fill="#EEC52D"/>
<path d="M51.7706 50.5731L51.7937 50.5753L51.8215 50.5813L51.8404 50.5877L51.8657 50.5993L51.8873 50.6128L51.907 50.6284L51.9242 50.6458L51.9394 50.6647L51.9486 50.6791L51.9625 50.7068L51.9706 50.7293C51.9773 50.7524 51.9803 50.7761 51.9795 50.8004L51.9771 50.8234C51.9746 50.8396 51.9705 50.8552 51.9647 50.8701L51.9531 50.8954L49.9479 54.5785C49.9123 54.6326 49.862 54.6753 49.8028 54.7015C49.7437 54.7278 49.6782 54.7366 49.6143 54.7268C49.5566 54.7181 49.5022 54.6946 49.4563 54.6587C49.4104 54.6228 49.3746 54.5757 49.3523 54.5218L49.3425 54.4923L48.8407 52.9363L47.5122 51.9968C47.4627 51.9643 47.4226 51.9194 47.3959 51.8665C47.3692 51.8137 47.3569 51.7547 47.3601 51.6956L47.3637 51.6633C47.3822 51.5425 47.464 51.442 47.5903 51.3956L47.6228 51.3851L51.7231 50.5764L51.747 50.5734L51.7706 50.5731Z" fill="#EEC52D"/>
<path d="M35.9861 41.2707C35.9861 43.4805 35.3077 45.2735 33.9509 46.6497C32.6037 48.0259 30.8301 48.714 28.6301 48.714C26.4979 48.714 24.7437 48.0356 23.3674 46.6788C21.9912 45.3219 21.3031 43.5774 21.3031 41.4452C21.3031 39.1967 21.9621 37.3747 23.2802 35.979C24.5983 34.5737 26.3816 33.8711 28.6301 33.8711C30.8204 33.8711 32.594 34.5592 33.9509 35.9354C35.3077 37.302 35.9861 39.0804 35.9861 41.2707ZM31.2178 41.2707C31.2178 40.5051 30.9803 39.8315 30.5054 39.25C30.0305 38.6588 29.4151 38.3632 28.6592 38.3632C27.8935 38.3632 27.2635 38.6637 26.7693 39.2645C26.3041 39.8267 26.0715 40.4954 26.0715 41.2707C26.0715 42.0558 26.3041 42.7294 26.7693 43.2915C27.2635 43.8924 27.8935 44.1928 28.6592 44.1928C29.4151 44.1928 30.0402 43.8924 30.5345 43.2915C30.99 42.7294 31.2178 42.0558 31.2178 41.2707Z" fill="#EEC52D"/>
<path d="M51.745 41.2707C51.745 43.4805 51.0666 45.2735 49.7097 46.6497C48.3625 48.0259 46.5889 48.714 44.3889 48.714C42.2567 48.714 40.5025 48.0356 39.1263 46.6788C37.75 45.3219 37.0619 43.5774 37.0619 41.4452C37.0619 39.1967 37.721 37.3747 39.0391 35.979C40.3571 34.5737 42.1404 33.8711 44.3889 33.8711C46.5793 33.8711 48.3529 34.5592 49.7097 35.9354C51.0666 37.302 51.745 39.0804 51.745 41.2707ZM46.9766 41.2707C46.9766 40.5051 46.7392 39.8315 46.2643 39.25C45.7894 38.6588 45.174 38.3632 44.418 38.3632C43.6523 38.3632 43.0224 38.6637 42.5281 39.2645C42.0629 39.8267 41.8303 40.4954 41.8303 41.2707C41.8303 42.0558 42.0629 42.7294 42.5281 43.2915C43.0224 43.8924 43.6523 44.1928 44.418 44.1928C45.174 44.1928 45.7991 43.8924 46.2934 43.2915C46.7489 42.7294 46.9766 42.0558 46.9766 41.2707Z" fill="#EEC52D"/>
<path d="M69.6699 38.9302C69.6699 41.0721 68.6184 42.7003 66.5152 43.8148C66.3214 43.9118 66.2245 44.0135 66.2245 44.1201C66.2245 44.2849 66.6752 44.973 67.5765 46.1845C68.4778 47.3863 68.9285 48.0162 68.9285 48.0744C68.9285 48.3361 67.6443 48.4669 65.076 48.4669C64.0875 48.4669 63.5156 48.3409 63.3606 48.0889C62.9729 47.4396 62.3672 46.5092 61.5434 45.2977C61.4949 45.2395 60.6226 45.1717 58.9266 45.0942C58.9266 45.3946 58.9314 45.8743 58.9411 46.5334C58.9508 47.1924 58.9557 47.6819 58.9557 48.0017C58.9557 48.2924 58.8151 48.4524 58.5341 48.4814C58.3596 48.5008 57.594 48.5105 56.2371 48.5105C55.0644 48.5105 54.3811 48.4911 54.1873 48.4524C53.9256 48.4039 53.7948 48.2052 53.7948 47.8563V38.9593C53.7948 37.7672 53.7512 35.9839 53.6639 33.6094C53.5767 31.2349 53.5331 29.4565 53.5331 28.2741C53.5331 28.0415 53.6639 27.9203 53.9256 27.9106C54.4393 27.9106 55.2098 27.9009 56.2371 27.8816C56.5085 27.8622 56.9785 27.804 57.6473 27.7071C58.2385 27.6199 58.7037 27.5763 59.0429 27.5763C59.198 27.5763 59.2755 27.7168 59.2755 27.9979C59.2755 28.3661 59.2464 28.8653 59.1883 29.4952C59.1204 30.2318 59.0817 30.7358 59.072 31.0072C58.9847 33.0909 58.9411 34.7046 58.9411 35.8482C58.9411 36.1196 58.975 36.2601 59.0429 36.2698C59.1301 36.2116 59.2464 36.105 59.3918 35.95C60.6517 34.6416 62.183 33.9874 63.9857 33.9874C65.6818 33.9874 67.0289 34.375 68.0272 35.1504C69.1223 36.013 69.6699 37.2729 69.6699 38.9302ZM63.8985 39.8751C63.8985 38.7024 63.2346 38.1161 61.9068 38.1161C61.3156 38.1161 60.6856 38.339 60.0169 38.7848C59.2997 39.2597 58.9411 39.7782 58.9411 40.3403C58.9411 41.1448 59.0526 41.6293 59.2755 41.7941C59.4499 41.9104 60.0072 41.9686 60.9473 41.9686C62.9148 41.9686 63.8985 41.2707 63.8985 39.8751Z" fill="white"/>
<path d="M13.2603 48.3838C13.2456 48.5151 13.2511 48.6486 13.2772 48.7796C13.3271 49.0305 13.4503 49.2609 13.6311 49.4418C13.812 49.6227 14.0425 49.7458 14.2933 49.7957C14.5442 49.8457 14.8043 49.82 15.0406 49.7221C15.2769 49.6243 15.4789 49.4585 15.621 49.2458C15.7632 49.0331 15.839 48.7831 15.839 48.5273C15.839 48.2786 15.7674 48.0374 15.6356 47.8311C14.9255 48.0845 14.1337 48.2688 13.2603 48.3838Z" fill="white"/>
<path d="M3.63843 48.3366C3.63601 48.4209 3.64183 48.5056 3.65604 48.5896C3.69873 48.8418 3.81526 49.0757 3.99088 49.2617C4.16649 49.4476 4.39332 49.5774 4.64267 49.6345C4.89202 49.6915 5.1527 49.6734 5.39173 49.5823C5.63077 49.4912 5.83743 49.3313 5.98558 49.1228C6.13373 48.9142 6.21672 48.6665 6.22405 48.4108L3.63843 48.3366Z" fill="white"/>
<path d="M19.4575 41.8839C19.4575 43.6672 18.9002 45.1452 17.7857 46.3179C16.516 47.6651 14.2869 48.3386 11.0983 48.3386C10.856 48.3386 10.5071 48.3338 10.0516 48.3241C9.58642 48.3241 9.24236 48.3241 9.01945 48.3241C5.44318 48.3241 3.31584 48.2514 2.63741 48.106C2.35635 48.0479 2.21582 47.8977 2.21582 47.6554C2.21582 46.6183 2.27397 45.0483 2.39027 42.9452C2.51627 40.842 2.57926 39.2671 2.57926 38.2204C2.57926 37.0962 2.52111 34.9834 2.40481 31.882C2.37574 31.0873 2.32243 29.8952 2.2449 28.3057L2.23036 28.1022C2.22067 27.9181 2.37089 27.8066 2.68103 27.7678C3.00086 27.7291 4.1251 27.7097 6.05377 27.7097C9.14544 27.7097 10.953 27.7194 11.4763 27.7388C13.8605 27.826 15.6196 28.2137 16.7535 28.9018C18.2557 29.8225 19.0068 31.378 19.0068 33.5684C19.0068 34.1402 18.8324 34.7459 18.4835 35.3856C18.2315 35.8411 17.902 36.2966 17.4949 36.7521C17.1363 37.1495 16.957 37.3336 16.957 37.3045C16.957 37.3724 17.083 37.479 17.335 37.6244C18.0134 38.012 18.5465 38.6275 18.9341 39.4707C19.283 40.2266 19.4575 41.031 19.4575 41.8839ZM13.2063 33.6992C13.2063 32.8657 12.7895 32.3133 11.9561 32.0419C11.4909 31.8965 10.7252 31.8238 9.65911 31.8238C8.61239 31.8238 8.08904 31.9014 8.08904 32.0564C8.08904 32.2406 8.06966 32.5217 8.03089 32.8996C8.00181 33.2679 7.98727 33.5441 7.98727 33.7283C7.98727 34.6975 8.06965 35.2402 8.23442 35.3565C8.34102 35.4437 8.95645 35.4873 10.0807 35.4873C12.1644 35.4873 13.2063 34.8913 13.2063 33.6992ZM13.6424 41.8258C13.6424 40.9535 13.279 40.3623 12.5521 40.0522C12.0869 39.8583 11.3309 39.7614 10.2842 39.7614C9.03399 39.7614 8.35556 39.8099 8.24896 39.9068C8.14235 39.994 8.08904 40.5852 8.08904 41.6804C8.08904 42.824 8.15204 43.4588 8.27803 43.5848C8.40402 43.7011 9.10183 43.7593 10.3715 43.7593C11.4182 43.7593 12.1547 43.6769 12.5812 43.5121C13.2887 43.2311 13.6424 42.6689 13.6424 41.8258Z" fill="white"/>
<path fill-rule="evenodd" clip-rule="evenodd" d="M12.914 23.7482C12.7554 23.5919 12.5401 23.5041 12.3157 23.5041H7.23861C7.0142 23.5041 6.79893 23.5919 6.64027 23.7482C6.48156 23.9044 6.39242 24.1163 6.39242 24.3373V26.8145H5.54624V26.3038H3.85387V26.8145H3.00768C2.78328 26.8145 2.56801 26.9023 2.40935 27.0586C2.25064 27.2148 2.1615 27.4267 2.1615 27.6477V27.7109C2.20819 27.5828 2.37325 27.4998 2.62637 27.4686C2.94597 27.4305 4.06944 27.4114 5.9967 27.4114C9.08617 27.4114 10.8924 27.421 11.4154 27.44C13.7978 27.5259 15.5556 27.9073 16.6888 28.5843C16.9454 28.7392 17.1801 28.9123 17.3928 29.1036V27.6477C17.3928 27.4267 17.3037 27.2148 17.145 27.0586C16.9863 26.9023 16.771 26.8145 16.5466 26.8145H15.7004V26.3038H14.0081V26.8145H13.1619V24.3373C13.1619 24.1163 13.0728 23.9044 12.914 23.7482ZM8.08479 25.1704H11.4695V26.8145H8.08479V25.1704Z" fill="white"/>
</svg>
