<svg width="65" height="65" viewBox="0 0 65 65" fill="none" xmlns="http://www.w3.org/2000/svg">
<rect x="0.074707" y="0.948944" width="64" height="64" rx="5" fill="white"/>
<path d="M19.9483 26.6303C19.9639 26.8418 19.8543 26.9476 19.6192 26.9476C19.4704 26.9476 19.0395 26.8614 18.3266 26.6891C17.6215 26.5167 17.1867 26.3992 17.0222 26.3365C15.3849 26.9789 13.8141 27.3001 12.31 27.3001C9.8892 27.3001 7.90324 26.4932 6.35207 24.8794C4.81658 23.289 4.04883 21.2796 4.04883 18.851C4.04883 16.3675 4.79307 14.3071 6.28157 12.6698C7.81706 10.9776 9.81086 10.1315 12.263 10.1315C13.4537 10.1315 14.574 10.3587 15.6238 10.8131C16.7598 11.3145 17.6529 12.0196 18.3031 12.9283C18.4363 13.1164 18.5029 13.2495 18.5029 13.3279C18.5029 13.5786 18.1503 14.1426 17.4453 15.0201C16.748 15.8897 16.2976 16.3244 16.0939 16.3244C16.0469 16.3244 15.8667 16.1638 15.5533 15.8426C15.1694 15.4588 14.7777 15.1611 14.3782 14.9496C13.7828 14.6284 13.1247 14.4678 12.404 14.4678C11.2288 14.4678 10.2966 14.9065 9.60717 15.7839C8.96477 16.5908 8.64357 17.5975 8.64357 18.804C8.64357 20.0809 8.97652 21.0915 9.64242 21.8358C10.3318 22.6035 11.3072 22.9874 12.5685 22.9874C13.3676 22.9874 14.2607 22.7876 15.2478 22.3881C15.2243 22.1296 15.1538 21.4715 15.0362 20.4139C14.9344 19.5991 14.8835 18.9411 14.8835 18.4397C14.8835 18.2908 14.9344 18.2007 15.0362 18.1694C15.0754 18.1537 15.1381 18.1459 15.2243 18.1459C15.4515 18.1459 15.7922 18.1694 16.2466 18.2164C16.7088 18.2556 17.0575 18.2752 17.2925 18.2752C17.5432 18.2752 17.9192 18.2595 18.4206 18.2282C18.922 18.189 19.298 18.1694 19.5487 18.1694C19.7446 18.1694 19.8425 18.2987 19.8425 18.5572C19.8425 18.9332 19.819 19.5012 19.772 20.2611C19.7328 21.021 19.7132 21.589 19.7132 21.965C19.7132 22.9757 19.7877 24.4877 19.9365 26.501L19.9483 26.6303Z" fill="#3E10DA"/>
<path d="M32.8159 21.2247C32.8159 23.0109 32.2675 24.4602 31.1707 25.5727C30.0818 26.6851 28.6481 27.2414 26.8698 27.2414C25.1462 27.2414 23.7283 26.693 22.6158 25.5962C21.5034 24.4994 20.9471 23.0893 20.9471 21.3657C20.9471 19.5482 21.4799 18.0754 22.5453 16.9473C23.6107 15.8113 25.0522 15.2433 26.8698 15.2433C28.6403 15.2433 30.0739 15.7996 31.1707 16.912C32.2675 18.0166 32.8159 19.4542 32.8159 21.2247ZM28.9615 21.2247C28.9615 20.6058 28.7695 20.0613 28.3857 19.5913C28.0018 19.1134 27.5043 18.8745 26.8933 18.8745C26.2744 18.8745 25.7651 19.1173 25.3656 19.603C24.9896 20.0574 24.8015 20.598 24.8015 21.2247C24.8015 21.8593 24.9896 22.4038 25.3656 22.8581C25.7651 23.3439 26.2744 23.5867 26.8933 23.5867C27.5043 23.5867 28.0096 23.3439 28.4092 22.8581C28.7774 22.4038 28.9615 21.8593 28.9615 21.2247Z" fill="#3E10DA"/>
<path d="M22.4973 51.0581C22.1188 50.6662 21.828 50.2762 21.6488 49.9001C21.9437 50.0788 22.1165 50.1668 22.3061 50.2538C22.4587 50.3672 22.6094 50.4842 22.7593 50.6029L22.4973 51.0581Z" fill="#3E10DA"/>
<path d="M22.8801 51.4285C23.1387 51.6635 23.4261 51.8977 23.7372 52.1286L24.0427 51.5979C23.7438 51.3868 23.455 51.1587 23.1677 50.9289L22.8801 51.4285Z" fill="#3E10DA"/>
<path d="M25.0805 53.0196C24.7593 52.8278 24.4512 52.6308 24.1596 52.4303L24.4722 51.8874C24.78 52.0894 25.089 52.2823 25.3992 52.4658L25.0805 53.0196Z" fill="#3E10DA"/>
<path d="M25.5276 53.2784C25.926 53.5021 26.3409 53.717 26.7661 53.9201L27.0319 53.3398C26.6349 53.1497 26.2399 52.9442 25.8468 52.7238L25.5276 53.2784Z" fill="#3E10DA"/>
<path d="M28.5012 54.6596C28.0734 54.4987 27.6478 54.3229 27.2297 54.135L27.4956 53.5546C27.9004 53.7356 28.3072 53.9006 28.716 54.0494L28.5012 54.6596Z" fill="#3E10DA"/>
<path d="M28.9772 54.8321C29.4128 54.984 29.8485 55.1194 30.2785 55.2354L30.446 54.5772C30.0266 54.4738 29.6094 54.3531 29.1943 54.2156L28.9772 54.8321Z" fill="#3E10DA"/>
<path d="M32.0961 55.6087C31.6665 55.5514 31.2206 55.467 30.7656 55.359L30.9358 54.6899C31.3584 54.7802 31.7831 54.8529 32.2099 54.9077L32.0961 55.6087Z" fill="#3E10DA"/>
<path d="M32.5936 55.6636C33.0619 55.707 33.5083 55.7374 33.9385 55.7534L33.9916 55.0311C33.5614 55.0266 33.1333 55.0039 32.7073 54.9633L32.5936 55.6636Z" fill="#3E10DA"/>
<path d="M35.7829 55.7222C35.3465 55.7566 34.9005 55.7702 34.4373 55.7654L34.4915 55.028C34.9163 55.0184 35.3432 54.9909 35.7721 54.9453L35.7829 55.7222Z" fill="#3E10DA"/>
<path d="M36.2802 55.6736C36.7287 55.6209 37.17 55.5449 37.6126 55.443L37.5329 54.6573C37.1097 54.7506 36.6885 54.8262 36.2693 54.8844L36.2802 55.6736Z" fill="#3E10DA"/>
<path d="M39.3951 54.8978C38.9548 55.0644 38.526 55.2044 38.1014 55.3202L38.0224 54.5416C38.4325 54.4383 38.8444 54.3183 39.2581 54.1813L39.3951 54.8978Z" fill="#3E10DA"/>
<path d="M39.8689 54.7102C40.2701 54.5445 40.6826 54.3571 41.1117 54.1464L40.932 53.5154C40.5395 53.7039 40.1413 53.8698 39.7363 54.0163L39.8689 54.7102Z" fill="#3E10DA"/>
<path d="M42.7697 53.2672C42.3533 53.5022 41.9545 53.7182 41.5698 53.9161L41.3897 53.2839C41.7695 53.0819 42.1443 52.857 42.5154 52.6062L42.7697 53.2672Z" fill="#3E10DA"/>
<path d="M45.632 50.603L45.6506 50.6047L45.6731 50.6096L45.6883 50.6148L45.7088 50.6242L45.7262 50.6351L45.7422 50.6477L45.7561 50.6617L45.7684 50.677L45.7759 50.6887L45.7871 50.7111L45.7936 50.7292C45.799 50.7479 45.8014 50.767 45.8008 50.7867L45.7989 50.8053C45.7969 50.8184 45.7935 50.831 45.7888 50.843L45.7794 50.8635L44.1586 53.8407C44.1298 53.8844 44.0891 53.9189 44.0413 53.9401C43.9935 53.9614 43.9406 53.9684 43.8889 53.9605C43.8423 53.9535 43.7983 53.9345 43.7612 53.9055C43.7241 53.8765 43.6952 53.8384 43.6771 53.7948L43.6692 53.771L43.2636 52.5132L42.1898 51.7538C42.1498 51.7275 42.1173 51.6912 42.0958 51.6485C42.0742 51.6058 42.0642 51.5581 42.0668 51.5103L42.0697 51.4842C42.0847 51.3866 42.1508 51.3054 42.2529 51.2678L42.2791 51.2593L45.5936 50.6057L45.6128 50.6032L45.632 50.603Z" fill="#3E10DA"/>
<path d="M32.8729 43.0836C32.8729 44.8698 32.3245 46.3191 31.2277 47.4316C30.1388 48.544 28.7051 49.1002 26.9268 49.1002C25.2033 49.1002 23.7853 48.5519 22.6728 47.4551C21.5604 46.3583 21.0042 44.9481 21.0042 43.2246C21.0042 41.4071 21.5369 39.9343 22.6023 38.8061C23.6678 37.6702 25.1093 37.1022 26.9268 37.1022C28.6973 37.1022 30.131 37.6584 31.2277 38.7709C32.3245 39.8755 32.8729 41.3131 32.8729 43.0836ZM29.0185 43.0836C29.0185 42.4647 28.8266 41.9202 28.4427 41.4502C28.0588 40.9723 27.5613 40.7334 26.9503 40.7334C26.3314 40.7334 25.8222 40.9762 25.4226 41.4619C25.0466 41.9163 24.8586 42.4569 24.8586 43.0836C24.8586 43.7182 25.0466 44.2626 25.4226 44.717C25.8222 45.2027 26.3314 45.4456 26.9503 45.4456C27.5613 45.4456 28.0667 45.2027 28.4662 44.717C28.8344 44.2626 29.0185 43.7182 29.0185 43.0836Z" fill="#3E10DA"/>
<path d="M45.6113 43.0836C45.6113 44.8698 45.0629 46.3191 43.9661 47.4316C42.8771 48.544 41.4435 49.1002 39.6651 49.1002C37.9416 49.1002 36.5236 48.5519 35.4112 47.4551C34.2987 46.3583 33.7425 44.9481 33.7425 43.2246C33.7425 41.4071 34.2752 39.9343 35.3407 38.8061C36.4061 37.6702 37.8476 37.1022 39.6651 37.1022C41.4357 37.1022 42.8693 37.6584 43.9661 38.7709C45.0629 39.8755 45.6113 41.3131 45.6113 43.0836ZM41.7569 43.0836C41.7569 42.4647 41.5649 41.9202 41.1811 41.4502C40.7972 40.9723 40.2997 40.7334 39.6886 40.7334C39.0697 40.7334 38.5605 40.9762 38.161 41.4619C37.7849 41.9163 37.5969 42.4569 37.5969 43.0836C37.5969 43.7182 37.7849 44.2626 38.161 44.717C38.5605 45.2027 39.0697 45.4456 39.6886 45.4456C40.2997 45.4456 40.805 45.2027 41.2046 44.717C41.5728 44.2626 41.7569 43.7182 41.7569 43.0836Z" fill="#3E10DA"/>
<path d="M60.1006 41.1917C60.1006 42.923 59.2506 44.2391 57.5505 45.1401C57.3939 45.2184 57.3155 45.3007 57.3155 45.3868C57.3155 45.52 57.6798 46.0763 58.4084 47.0555C59.137 48.027 59.5013 48.5362 59.5013 48.5832C59.5013 48.7947 58.4632 48.9005 56.3872 48.9005C55.5881 48.9005 55.1259 48.7986 55.0005 48.5949C54.6872 48.0701 54.1975 47.318 53.5316 46.3387C53.4924 46.2917 52.7874 46.2369 51.4164 46.1742C51.4164 46.417 51.4203 46.8048 51.4281 47.3376C51.436 47.8703 51.4399 48.2659 51.4399 48.5244C51.4399 48.7595 51.3263 48.8887 51.0991 48.9122C50.9581 48.9279 50.3392 48.9357 49.2424 48.9357C48.2945 48.9357 47.7422 48.9201 47.5855 48.8887C47.374 48.8496 47.2682 48.689 47.2682 48.4069V41.2152C47.2682 40.2516 47.2329 38.8101 47.1624 36.8907C47.0919 34.9713 47.0567 33.5338 47.0567 32.578C47.0567 32.39 47.1624 32.292 47.374 32.2842C47.7892 32.2842 48.412 32.2764 49.2424 32.2607C49.4618 32.245 49.8417 32.198 50.3823 32.1197C50.8602 32.0492 51.2362 32.0139 51.5104 32.0139C51.6357 32.0139 51.6984 32.1275 51.6984 32.3547C51.6984 32.6524 51.6749 33.0559 51.6279 33.5651C51.5731 34.1605 51.5417 34.5679 51.5339 34.7872C51.4634 36.4716 51.4281 37.776 51.4281 38.7004C51.4281 38.9197 51.4556 39.0333 51.5104 39.0412C51.5809 38.9942 51.6749 38.908 51.7924 38.7826C52.8109 37.725 54.0487 37.1962 55.5058 37.1962C56.8768 37.1962 57.9658 37.5096 58.7727 38.1363C59.6579 38.8336 60.1006 39.852 60.1006 41.1917ZM55.4353 41.9555C55.4353 41.0075 54.8987 40.5336 53.8254 40.5336C53.3475 40.5336 52.8383 40.7138 52.2977 41.0741C51.718 41.458 51.4281 41.8771 51.4281 42.3315C51.4281 42.9818 51.5182 43.3735 51.6984 43.5066C51.8394 43.6007 52.2899 43.6477 53.0498 43.6477C54.6402 43.6477 55.4353 43.0836 55.4353 41.9555Z" fill="black"/>
<path d="M14.5028 48.8333C14.4909 48.9394 14.4954 49.0473 14.5164 49.1532C14.5568 49.356 14.6563 49.5423 14.8025 49.6885C14.9488 49.8347 15.135 49.9343 15.3378 49.9746C15.5406 50.0149 15.7508 49.9942 15.9419 49.9151C16.1329 49.836 16.2962 49.702 16.411 49.5301C16.5259 49.3581 16.5872 49.156 16.5872 48.9492C16.5872 48.7483 16.5294 48.5533 16.4228 48.3865C15.8488 48.5914 15.2088 48.7403 14.5028 48.8333Z" fill="black"/>
<path d="M6.7251 48.7952C6.72314 48.8633 6.72785 48.9318 6.73933 48.9996C6.77384 49.2035 6.86803 49.3926 7.00999 49.5429C7.15195 49.6932 7.3353 49.7981 7.53686 49.8442C7.73842 49.8904 7.94913 49.8757 8.14235 49.8021C8.33557 49.7285 8.50262 49.5992 8.62237 49.4306C8.74213 49.2621 8.80921 49.0618 8.81514 48.8551L6.7251 48.7952Z" fill="black"/>
<path d="M19.5122 43.5792C19.5122 45.0207 19.0617 46.2154 18.1608 47.1634C17.1345 48.2523 15.3327 48.7968 12.7552 48.7968C12.5594 48.7968 12.2773 48.7929 11.9091 48.785C11.5331 48.785 11.255 48.785 11.0748 48.785C8.18397 48.785 6.46437 48.7263 5.91598 48.6088C5.68879 48.5618 5.5752 48.4403 5.5752 48.2445C5.5752 47.4062 5.6222 46.1371 5.71621 44.4371C5.81806 42.7371 5.86898 41.464 5.86898 40.6179C5.86898 39.7092 5.82197 38.0013 5.72796 35.4944C5.70446 34.852 5.66137 33.8884 5.5987 32.6036L5.58695 32.4391C5.57911 32.2902 5.70054 32.2001 5.95124 32.1688C6.20976 32.1374 7.11853 32.1218 8.67753 32.1218C11.1766 32.1218 12.6377 32.1296 13.0607 32.1453C14.9879 32.2158 16.4099 32.5291 17.3264 33.0854C18.5407 33.8296 19.1479 35.087 19.1479 36.8575C19.1479 37.3197 19.0069 37.8094 18.7248 38.3264C18.5212 38.6946 18.2548 39.0628 17.9258 39.4311C17.6359 39.7523 17.491 39.9011 17.491 39.8776C17.491 39.9324 17.5928 40.0186 17.7965 40.1361C18.3449 40.4495 18.7758 40.947 19.0891 41.6285C19.3712 42.2396 19.5122 42.8898 19.5122 43.5792ZM14.4591 36.9633C14.4591 36.2895 14.1223 35.843 13.4485 35.6236C13.0725 35.5061 12.4536 35.4474 11.5918 35.4474C10.7457 35.4474 10.3227 35.5101 10.3227 35.6354C10.3227 35.7842 10.307 36.0114 10.2757 36.317C10.2522 36.6147 10.2404 36.8379 10.2404 36.9868C10.2404 37.7702 10.307 38.2089 10.4402 38.3029C10.5264 38.3734 11.0239 38.4087 11.9326 38.4087C13.617 38.4087 14.4591 37.9269 14.4591 36.9633ZM14.8117 43.5322C14.8117 42.8272 14.5179 42.3493 13.9303 42.0986C13.5543 41.9419 12.9432 41.8636 12.0971 41.8636C11.0865 41.8636 10.5381 41.9027 10.452 41.9811C10.3658 42.0516 10.3227 42.5295 10.3227 43.4147C10.3227 44.3392 10.3736 44.8523 10.4755 44.9541C10.5773 45.0482 11.1414 45.0952 12.1677 45.0952C13.0137 45.0952 13.6091 45.0286 13.9538 44.8954C14.5257 44.6682 14.8117 44.2138 14.8117 43.5322Z" fill="black"/>
<path fill-rule="evenodd" clip-rule="evenodd" d="M14.2229 28.9196C14.0946 28.7932 13.9206 28.7223 13.7392 28.7223H9.63523C9.45384 28.7223 9.27983 28.7932 9.15158 28.9196C9.02329 29.0459 8.95124 29.2171 8.95124 29.3958V31.3982H8.26724V30.9853H6.89924V31.3982H6.21525C6.03385 31.3982 5.85985 31.4691 5.7316 31.5954C5.60331 31.7217 5.53125 31.893 5.53125 32.0716V32.1228C5.56899 32.0192 5.70242 31.9521 5.90702 31.9269C6.16536 31.8961 7.0735 31.8807 8.63136 31.8807C11.1287 31.8807 12.5887 31.8884 13.0115 31.9038C14.9373 31.9732 16.3581 32.2815 17.2741 32.8288C17.4815 32.954 17.6712 33.0939 17.8432 33.2486V32.0716C17.8432 31.893 17.7711 31.7217 17.6429 31.5954C17.5146 31.4691 17.3406 31.3982 17.1592 31.3982H16.4752V30.9853H15.1072V31.3982H14.4232V29.3958C14.4232 29.2171 14.3512 29.0459 14.2229 28.9196ZM10.3192 30.0692H13.0552V31.3982H10.3192V30.0692Z" fill="black"/>
</svg>
