<svg width="86" height="29" viewBox="0 0 86 29" fill="none" xmlns="http://www.w3.org/2000/svg">
<path d="M39.4459 20.3848C39.4341 20.4909 39.4385 20.5988 39.4595 20.7046C39.4999 20.9074 39.5995 21.0937 39.7457 21.2399C39.8919 21.3861 40.0781 21.4857 40.2809 21.526C40.4837 21.5664 40.6939 21.5457 40.885 21.4666C41.076 21.3874 41.2393 21.2534 41.3542 21.0815C41.469 20.9096 41.5304 20.7075 41.5304 20.5007C41.5304 20.2997 41.4725 20.1047 41.366 19.9379C40.7919 20.1428 40.1519 20.2918 39.4459 20.3848Z" fill="white"/>
<path d="M31.6681 20.3466C31.6661 20.4147 31.6708 20.4832 31.6823 20.5511C31.7168 20.7549 31.811 20.944 31.953 21.0943C32.0949 21.2447 32.2783 21.3495 32.4799 21.3957C32.6814 21.4418 32.8921 21.4271 33.0853 21.3535C33.2786 21.2799 33.4456 21.1506 33.5654 20.9821C33.6851 20.8135 33.7522 20.6132 33.7581 20.4065L31.6681 20.3466Z" fill="white"/>
<path d="M57.8159 14.635C57.8159 16.4212 57.2675 17.8706 56.1707 18.983C55.0818 20.0955 53.6481 20.6517 51.8698 20.6517C50.1463 20.6517 48.7283 20.1033 47.6158 19.0065C46.5034 17.9097 45.9471 16.4996 45.9471 14.7761C45.9471 12.9585 46.4799 11.4857 47.5453 10.3576C48.6108 9.22164 50.0522 8.65366 51.8698 8.65366C53.6403 8.65366 55.0739 9.20989 56.1707 10.3223C57.2675 11.427 57.8159 12.8645 57.8159 14.635ZM53.9615 14.635C53.9615 14.0161 53.7696 13.4717 53.3857 13.0016C53.0018 12.5237 52.5043 12.2848 51.8933 12.2848C51.2744 12.2848 50.7652 12.5277 50.3656 13.0134C49.9896 13.4678 49.8016 14.0083 49.8016 14.635C49.8016 15.2696 49.9896 15.8141 50.3656 16.2685C50.7652 16.7542 51.2744 16.9971 51.8933 16.9971C52.5043 16.9971 53.0096 16.7542 53.4092 16.2685C53.7774 15.8141 53.9615 15.2696 53.9615 14.635Z" fill="#EEC52D"/>
<path d="M70.5543 14.635C70.5543 16.4212 70.0059 17.8706 68.9091 18.983C67.8201 20.0955 66.3865 20.6517 64.6081 20.6517C62.8846 20.6517 61.4666 20.1033 60.3542 19.0065C59.2417 17.9097 58.6855 16.4996 58.6855 14.7761C58.6855 12.9585 59.2182 11.4857 60.2837 10.3576C61.3491 9.22164 62.7906 8.65366 64.6081 8.65366C66.3787 8.65366 67.8123 9.20989 68.9091 10.3223C70.0059 11.427 70.5543 12.8645 70.5543 14.635ZM66.6999 14.635C66.6999 14.0161 66.5079 13.4717 66.124 13.0016C65.7402 12.5237 65.2427 12.2848 64.6316 12.2848C64.0127 12.2848 63.5035 12.5277 63.104 13.0134C62.7279 13.4678 62.5399 14.0083 62.5399 14.635C62.5399 15.2696 62.7279 15.8141 63.104 16.2685C63.5035 16.7542 64.0127 16.9971 64.6316 16.9971C65.2427 16.9971 65.748 16.7542 66.1475 16.2685C66.5158 15.8141 66.6999 15.2696 66.6999 14.635Z" fill="#EEC52D"/>
<path d="M85.0436 12.7431C85.0436 14.4744 84.1936 15.7906 82.4935 16.6915C82.3369 16.7699 82.2585 16.8521 82.2585 16.9383C82.2585 17.0715 82.6228 17.6277 83.3514 18.607C84.08 19.5784 84.4442 20.0876 84.4442 20.1346C84.4442 20.3462 83.4062 20.4519 81.3302 20.4519C80.5311 20.4519 80.0689 20.3501 79.9435 20.1464C79.6301 19.6215 79.1405 18.8694 78.4746 17.8901C78.4354 17.8431 77.7304 17.7883 76.3594 17.7256C76.3594 17.9685 76.3633 18.3563 76.3711 18.889C76.379 19.4217 76.3829 19.8174 76.3829 20.0759C76.3829 20.3109 76.2693 20.4402 76.0421 20.4637C75.9011 20.4793 75.2822 20.4872 74.1854 20.4872C73.2375 20.4872 72.6852 20.4715 72.5285 20.4402C72.317 20.401 72.2112 20.2404 72.2112 19.9584V12.7666C72.2112 11.803 72.1759 10.3615 72.1054 8.44214C72.0349 6.52277 71.9997 5.0852 71.9997 4.12943C71.9997 3.94141 72.1054 3.84348 72.317 3.83565C72.7322 3.83565 73.355 3.82781 74.1854 3.81214C74.4048 3.79648 74.7847 3.74947 75.3253 3.67113C75.8032 3.60062 76.1792 3.56537 76.4534 3.56537C76.5787 3.56537 76.6414 3.67896 76.6414 3.90615C76.6414 4.20385 76.6179 4.60731 76.5709 5.11653C76.5161 5.71193 76.4847 6.11931 76.4769 6.33866C76.4064 8.02301 76.3711 9.3274 76.3711 10.2518C76.3711 10.4712 76.3986 10.5848 76.4534 10.5926C76.5239 10.5456 76.6179 10.4594 76.7354 10.3341C77.7539 9.27648 78.9917 8.74767 80.4488 8.74767C81.8198 8.74767 82.9087 9.06104 83.7157 9.68777C84.6009 10.385 85.0436 11.4035 85.0436 12.7431ZM80.3783 13.5069C80.3783 12.559 79.8417 12.085 78.7684 12.085C78.2905 12.085 77.7813 12.2652 77.2407 12.6256C76.661 13.0095 76.3711 13.4286 76.3711 13.883C76.3711 14.5332 76.4612 14.9249 76.6414 15.0581C76.7824 15.1521 77.2329 15.1991 77.9928 15.1991C79.5831 15.1991 80.3783 14.635 80.3783 13.5069Z" fill="white"/>
<path d="M16.1818 19.8312C16.1975 20.0427 16.0878 20.1485 15.8528 20.1485C15.7039 20.1485 15.273 20.0623 14.5601 19.89C13.855 19.7176 13.4202 19.6001 13.2557 19.5374C11.6184 20.1798 10.0476 20.501 8.54348 20.501C6.12272 20.501 4.13676 19.6941 2.58559 18.0803C1.0501 16.4899 0.282349 14.4805 0.282349 12.0519C0.282349 9.56846 1.02659 7.50807 2.51509 5.87073C4.05058 4.17855 6.04438 3.33246 8.49647 3.33246C9.68727 3.33246 10.8076 3.55965 11.8573 4.01403C12.9933 4.51542 13.8864 5.22049 14.5366 6.12926C14.6698 6.31728 14.7364 6.45046 14.7364 6.5288C14.7364 6.77949 14.3839 7.34355 13.6788 8.22098C12.9815 9.09057 12.5311 9.52537 12.3274 9.52537C12.2804 9.52537 12.1002 9.36477 11.7868 9.04357C11.403 8.65969 11.0112 8.36199 10.6117 8.15047C10.0163 7.82927 9.35823 7.66867 8.63749 7.66867C7.46236 7.66867 6.5301 8.10738 5.84069 8.98481C5.19829 9.79173 4.87709 10.7984 4.87709 12.0049C4.87709 13.2819 5.21004 14.2925 5.87594 15.0367C6.56535 15.8045 7.54071 16.1883 8.80201 16.1883C9.60109 16.1883 10.4942 15.9886 11.4813 15.589C11.4578 15.3305 11.3873 14.6724 11.2698 13.6148C11.1679 12.8001 11.117 12.142 11.117 11.6406C11.117 11.4917 11.1679 11.4017 11.2698 11.3703C11.3089 11.3546 11.3716 11.3468 11.4578 11.3468C11.685 11.3468 12.0258 11.3703 12.4801 11.4173C12.9424 11.4565 13.291 11.4761 13.526 11.4761C13.7767 11.4761 14.1527 11.4604 14.6541 11.4291C15.1555 11.3899 15.5316 11.3703 15.7823 11.3703C15.9781 11.3703 16.076 11.4996 16.076 11.7581C16.076 12.1341 16.0525 12.7021 16.0055 13.462C15.9664 14.222 15.9468 14.7899 15.9468 15.166C15.9468 16.1766 16.0212 17.6886 16.17 19.702L16.1818 19.8312Z" fill="white"/>
<path d="M29.0494 14.4256C29.0494 16.2118 28.501 17.6612 27.4042 18.7736C26.3153 19.8861 24.8816 20.4423 23.1033 20.4423C21.3798 20.4423 19.9618 19.8939 18.8493 18.7971C17.7369 17.7003 17.1806 16.2902 17.1806 14.5667C17.1806 12.7491 17.7134 11.2763 18.7788 10.1482C19.8443 9.01223 21.2858 8.44425 23.1033 8.44425C24.8738 8.44425 26.3075 9.00048 27.4042 10.1129C28.501 11.2175 29.0494 12.6551 29.0494 14.4256ZM25.195 14.4256C25.195 13.8067 25.0031 13.2623 24.6192 12.7922C24.2353 12.3143 23.7378 12.0754 23.1268 12.0754C22.5079 12.0754 21.9987 12.3182 21.5991 12.804C21.2231 13.2583 21.0351 13.7989 21.0351 14.4256C21.0351 15.0602 21.2231 15.6047 21.5991 16.0591C21.9987 16.5448 22.5079 16.7876 23.1268 16.7876C23.7378 16.7876 24.2432 16.5448 24.6427 16.0591C25.0109 15.6047 25.195 15.0602 25.195 14.4256Z" fill="white"/>
<path d="M44.4553 15.1307C44.4553 16.5722 44.0048 17.7669 43.1039 18.7148C42.0776 19.8038 40.2758 20.3483 37.6983 20.3483C37.5025 20.3483 37.2205 20.3444 36.8522 20.3365C36.4762 20.3365 36.1981 20.3365 36.0179 20.3365C33.1271 20.3365 31.4075 20.2778 30.8591 20.1603C30.6319 20.1132 30.5183 19.9918 30.5183 19.796C30.5183 18.9577 30.5653 17.6886 30.6593 15.9886C30.7612 14.2885 30.8121 13.0155 30.8121 12.1694C30.8121 11.2606 30.7651 9.55279 30.6711 7.04585C30.6476 6.40345 30.6045 5.43985 30.5418 4.15505L30.5301 3.99053C30.5222 3.84168 30.6437 3.75159 30.8944 3.72025C31.1529 3.68891 32.0617 3.67324 33.6207 3.67324C36.1198 3.67324 37.5808 3.68108 38.0039 3.69675C39.9311 3.76725 41.353 4.08062 42.2696 4.63685C43.4839 5.38109 44.091 6.63848 44.091 8.409C44.091 8.87122 43.95 9.36085 43.668 9.87791C43.4643 10.2461 43.1979 10.6143 42.8689 10.9825C42.579 11.3037 42.4341 11.4526 42.4341 11.4291C42.4341 11.4839 42.5359 11.5701 42.7396 11.6876C43.288 12.001 43.7189 12.4984 44.0323 13.18C44.3143 13.7911 44.4553 14.4413 44.4553 15.1307ZM39.4023 8.51476C39.4023 7.84102 39.0654 7.39447 38.3917 7.17512C38.0156 7.05761 37.3967 6.99885 36.535 6.99885C35.6889 6.99885 35.2658 7.06152 35.2658 7.18687C35.2658 7.33572 35.2502 7.56291 35.2188 7.86844C35.1953 8.16614 35.1836 8.38941 35.1836 8.53826C35.1836 9.32168 35.2502 9.76039 35.3833 9.8544C35.4695 9.92491 35.967 9.96016 36.8757 9.96016C38.5601 9.96016 39.4023 9.47836 39.4023 8.51476ZM39.7548 15.0837C39.7548 14.3786 39.461 13.9008 38.8735 13.6501C38.4974 13.4934 37.8864 13.415 37.0403 13.415C36.0297 13.415 35.4813 13.4542 35.3951 13.5325C35.3089 13.6031 35.2658 14.0809 35.2658 14.9662C35.2658 15.8906 35.3167 16.4038 35.4186 16.5056C35.5204 16.5996 36.0845 16.6466 37.1108 16.6466C37.9569 16.6466 38.5523 16.58 38.897 16.4469C39.4689 16.2197 39.7548 15.7653 39.7548 15.0837Z" fill="white"/>
<path fill-rule="evenodd" clip-rule="evenodd" d="M39.166 0.471004C39.0377 0.344689 38.8637 0.273743 38.6823 0.273743H34.5783C34.397 0.273743 34.2229 0.344689 34.0947 0.471004C33.9664 0.597299 33.8944 0.768582 33.8944 0.947203V2.94963H33.2104V2.53679H31.8424V2.94963H31.1584C30.977 2.94963 30.803 3.02058 30.6747 3.14689C30.5464 3.27318 30.4744 3.44447 30.4744 3.62309V3.67422C30.5121 3.57068 30.6455 3.50356 30.8501 3.47838C31.1085 3.44755 32.0166 3.43214 33.5745 3.43214C36.0718 3.43214 37.5318 3.43984 37.9546 3.45526C39.8804 3.52462 41.3013 3.83295 42.2172 4.38022C42.4247 4.5054 42.6144 4.64532 42.7863 4.8V3.62309C42.7863 3.44447 42.7143 3.27318 42.586 3.14689C42.4577 3.02058 42.2837 2.94963 42.1023 2.94963H41.4183V2.53679H40.0503V2.94963H39.3663V0.947203C39.3663 0.768582 39.2943 0.597299 39.166 0.471004ZM35.2623 1.62066H37.9983V2.94963H35.2623V1.62066Z" fill="white"/>
<path d="M46.7956 24.0507C46.4171 23.6588 46.1263 23.2688 45.9471 22.8927C46.242 23.0714 46.4148 23.1593 46.6045 23.2464C46.7571 23.3597 46.9077 23.4768 47.0576 23.5954L46.7956 24.0507Z" fill="#EEC52D"/>
<path d="M47.1785 24.4211C47.4371 24.6561 47.7245 24.8903 48.0355 25.1212L48.341 24.5905C48.0421 24.3794 47.7534 24.1513 47.4661 23.9215L47.1785 24.4211Z" fill="#EEC52D"/>
<path d="M49.3788 26.0122C49.0576 25.8204 48.7495 25.6234 48.458 25.4229L48.7705 24.88C49.0783 25.082 49.3873 25.2748 49.6975 25.4584L49.3788 26.0122Z" fill="#EEC52D"/>
<path d="M49.8259 26.271C50.2243 26.4947 50.6392 26.7096 51.0644 26.9127L51.3302 26.3324C50.9332 26.1423 50.5382 25.9368 50.1451 25.7164L49.8259 26.271Z" fill="#EEC52D"/>
<path d="M52.7995 27.6522C52.3717 27.4913 51.9461 27.3155 51.5281 27.1276L51.7939 26.5471C52.1987 26.7282 52.6055 26.8932 53.0144 27.042L52.7995 27.6522Z" fill="#EEC52D"/>
<path d="M53.2755 27.8247C53.7112 27.9766 54.1469 28.112 54.5768 28.228L54.7443 27.5698C54.325 27.4663 53.9078 27.3457 53.4926 27.2082L53.2755 27.8247Z" fill="#EEC52D"/>
<path d="M56.3945 28.6013C55.9648 28.544 55.5189 28.4596 55.0639 28.3516L55.2342 27.6825C55.6567 27.7728 56.0814 27.8455 56.5082 27.9003L56.3945 28.6013Z" fill="#EEC52D"/>
<path d="M56.892 28.6562C57.3602 28.6996 57.8067 28.73 58.2369 28.746L58.2899 28.0237C57.8597 28.0192 57.4316 27.9965 57.0056 27.9559L56.892 28.6562Z" fill="#EEC52D"/>
<path d="M60.0812 28.7148C59.6448 28.7491 59.1988 28.7628 58.7357 28.758L58.7899 28.0206C59.2147 28.011 59.6415 27.9835 60.0704 27.9379L60.0812 28.7148Z" fill="#EEC52D"/>
<path d="M60.5785 28.6661C61.0271 28.6135 61.4683 28.5375 61.9109 28.4356L61.8312 27.6499C61.408 27.7432 60.9868 27.8188 60.5676 27.8769L60.5785 28.6661Z" fill="#EEC52D"/>
<path d="M63.6934 27.8904C63.2531 28.057 62.8244 28.197 62.3997 28.3127L62.3207 27.5342C62.7308 27.4309 63.1427 27.3109 63.5565 27.1739L63.6934 27.8904Z" fill="#EEC52D"/>
<path d="M64.1673 27.7028C64.5684 27.5371 64.9809 27.3497 65.4101 27.139L65.2304 26.508C64.8378 26.6965 64.4397 26.8624 64.0346 27.0089L64.1673 27.7028Z" fill="#EEC52D"/>
<path d="M67.0681 26.2598C66.6517 26.4948 66.2529 26.7108 65.8681 26.9087L65.6881 26.2765C66.0678 26.0745 66.4426 25.8496 66.8137 25.5988L67.0681 26.2598Z" fill="#EEC52D"/>
<path d="M69.9304 23.5955L69.9491 23.5973L69.9715 23.6022L69.9868 23.6074L70.0073 23.6168L70.0247 23.6276L70.0406 23.6402L70.0545 23.6543L70.0668 23.6696L70.0743 23.6813L70.0855 23.7037L70.092 23.7218C70.0975 23.7405 70.0999 23.7596 70.0993 23.7793L70.0973 23.7979C70.0953 23.811 70.092 23.8236 70.0873 23.8356L70.0779 23.8561L68.4571 26.8333C68.4283 26.8769 68.3876 26.9115 68.3398 26.9327C68.292 26.9539 68.2391 26.961 68.1874 26.9531C68.1408 26.9461 68.0968 26.9271 68.0597 26.8981C68.0226 26.8691 67.9936 26.8309 67.9756 26.7874L67.9676 26.7636L67.562 25.5058L66.4882 24.7464C66.4482 24.7201 66.4158 24.6838 66.3942 24.6411C66.3726 24.5984 66.3627 24.5507 66.3653 24.5029L66.3682 24.4768C66.3831 24.3792 66.4492 24.2979 66.5513 24.2604L66.5776 24.2519L69.892 23.5982L69.9113 23.5958L69.9304 23.5955Z" fill="#EEC52D"/>
</svg>
