<svg width="86" height="70" viewBox="0 0 86 70" fill="none" xmlns="http://www.w3.org/2000/svg">
<path d="M24.3884 25.3077C24.4125 25.6322 24.2442 25.7944 23.8837 25.7944C23.6554 25.7944 22.9945 25.6622 21.9009 25.3979C20.8194 25.1335 20.1524 24.9532 19.9001 24.8571C17.3885 25.8425 14.9791 26.3352 12.6719 26.3352C8.95865 26.3352 5.91235 25.0974 3.53299 22.6219C1.17766 20.1825 0 17.1001 0 13.3749C0 9.5655 1.14161 6.40504 3.42483 3.8935C5.78016 1.29783 8.83848 0 12.5998 0C14.4264 0 16.1448 0.348492 17.7551 1.04548C19.4975 1.81456 20.8675 2.89609 21.8649 4.29006C22.0692 4.57846 22.1713 4.78275 22.1713 4.90292C22.1713 5.28746 21.6305 6.15268 20.549 7.49858C19.4795 8.83247 18.7885 9.49941 18.4761 9.49941C18.404 9.49941 18.1276 9.25306 17.6469 8.76037C17.0581 8.17153 16.4572 7.71489 15.8444 7.39043C14.9311 6.89774 13.9217 6.65139 12.8161 6.65139C11.0135 6.65139 9.58353 7.32434 8.52604 8.67024C7.54064 9.90799 7.04795 11.4522 7.04795 13.3028C7.04795 15.2615 7.55867 16.8117 8.58011 17.9533C9.6376 19.131 11.1337 19.7198 13.0684 19.7198C14.2942 19.7198 15.6641 19.4134 17.1782 18.8005C17.1422 18.404 17.034 17.3946 16.8538 15.7723C16.6976 14.5225 16.6195 13.5131 16.6195 12.744C16.6195 12.5157 16.6976 12.3775 16.8538 12.3294C16.9139 12.3054 17.01 12.2934 17.1422 12.2934C17.4907 12.2934 18.0134 12.3294 18.7104 12.4015C19.4194 12.4616 19.9542 12.4916 20.3147 12.4916C20.6992 12.4916 21.276 12.4676 22.0451 12.4195C22.8142 12.3594 23.391 12.3294 23.7756 12.3294C24.076 12.3294 24.2262 12.5277 24.2262 12.9242C24.2262 13.5011 24.1901 14.3723 24.118 15.5379C24.058 16.7036 24.0279 17.5748 24.0279 18.1516C24.0279 19.7018 24.1421 22.0211 24.3704 25.1094L24.3884 25.3077Z" fill="#EEC52D"/>
<path d="M44.1263 17.016C44.1263 19.7559 43.2851 21.979 41.6027 23.6854C39.9324 25.3918 37.7333 26.245 35.0054 26.245C32.3617 26.245 30.1866 25.4039 28.4802 23.7215C26.7738 22.0391 25.9206 19.8761 25.9206 17.2323C25.9206 14.4444 26.7377 12.1852 28.372 10.4548C30.0064 8.7123 32.2175 7.84107 35.0054 7.84107C37.7212 7.84107 39.9203 8.69427 41.6027 10.4007C43.2851 12.0951 44.1263 14.3002 44.1263 17.016ZM38.2139 17.016C38.2139 16.0667 37.9195 15.2315 37.3307 14.5105C36.7419 13.7774 35.9788 13.4109 35.0415 13.4109C34.0921 13.4109 33.311 13.7835 32.6982 14.5285C32.1213 15.2255 31.8329 16.0547 31.8329 17.016C31.8329 17.9894 32.1213 18.8246 32.6982 19.5216C33.311 20.2666 34.0921 20.6391 35.0415 20.6391C35.9788 20.6391 36.7539 20.2666 37.3667 19.5216C37.9315 18.8246 38.2139 17.9894 38.2139 17.016Z" fill="#EEC52D"/>
<path d="M28.298 62.7778C27.7175 62.1766 27.2714 61.5783 26.9966 61.0015C27.4489 61.2755 27.7139 61.4105 28.0048 61.544C28.2389 61.7179 28.47 61.8975 28.7 62.0794L28.298 62.7778Z" fill="#EEC52D"/>
<path d="M28.8853 63.3459C29.282 63.7063 29.7229 64.0656 30.2 64.4198L30.6686 63.6057C30.2101 63.282 29.7672 62.932 29.3265 62.5796L28.8853 63.3459Z" fill="#EEC52D"/>
<path d="M32.2605 65.7865C31.7678 65.4923 31.2952 65.1901 30.848 64.8826L31.3274 64.0497C31.7995 64.3596 32.2735 64.6555 32.7494 64.9371L32.2605 65.7865Z" fill="#EEC52D"/>
<path d="M32.9463 66.1835C33.5574 66.5266 34.1938 66.8562 34.8461 67.1678L35.2537 66.2777C34.6448 65.986 34.0389 65.6708 33.436 65.3327L32.9463 66.1835Z" fill="#EEC52D"/>
<path d="M37.5076 68.3021C36.8514 68.0553 36.1985 67.7856 35.5573 67.4974L35.9651 66.6071C36.586 66.8847 37.21 67.1379 37.8371 67.3661L37.5076 68.3021Z" fill="#EEC52D"/>
<path d="M38.2377 68.5667C38.9059 68.7997 39.5743 69.0074 40.2338 69.1853L40.4907 68.1757C39.8475 68.0171 39.2075 67.832 38.5707 67.621L38.2377 68.5667Z" fill="#EEC52D"/>
<path d="M43.0219 69.7579C42.3629 69.6701 41.6789 69.5406 40.981 69.3749L41.2421 68.3486C41.8903 68.4871 42.5417 68.5987 43.1964 68.6827L43.0219 69.7579Z" fill="#EEC52D"/>
<path d="M43.7851 69.8422C44.5033 69.9087 45.1881 69.9554 45.848 69.9799L45.9294 68.8719C45.2695 68.8651 44.6128 68.8303 43.9594 68.768L43.7851 69.8422Z" fill="#EEC52D"/>
<path d="M48.6771 69.9321C48.0077 69.9848 47.3236 70.0057 46.6131 69.9983L46.6962 68.8672C47.3478 68.8525 48.0026 68.8104 48.6605 68.7404L48.6771 69.9321Z" fill="#EEC52D"/>
<path d="M49.4399 69.8574C50.1279 69.7767 50.8048 69.6601 51.4837 69.5038L51.3614 68.2986C50.7123 68.4417 50.0662 68.5576 49.4231 68.6469L49.4399 69.8574Z" fill="#EEC52D"/>
<path d="M54.2179 68.6675C53.5425 68.923 52.8849 69.1379 52.2335 69.3153L52.1123 68.1212C52.7413 67.9627 53.3731 67.7786 54.0078 67.5685L54.2179 68.6675Z" fill="#EEC52D"/>
<path d="M54.9447 68.3797C55.5601 68.1256 56.1928 67.8381 56.8511 67.515L56.5754 66.5471C55.9733 66.8362 55.3626 67.0906 54.7413 67.3154L54.9447 68.3797Z" fill="#EEC52D"/>
<path d="M59.3943 66.1663C58.7556 66.5268 58.1439 66.8581 57.5537 67.1617L57.2775 66.192C57.86 65.882 58.435 65.537 59.0042 65.1523L59.3943 66.1663Z" fill="#EEC52D"/>
<path d="M63.7851 62.08L63.8137 62.0827L63.8481 62.0902L63.8715 62.0981L63.903 62.1125L63.9297 62.1292L63.9541 62.1485L63.9755 62.1701L63.9943 62.1935L64.0058 62.2115L64.023 62.2458L64.033 62.2736C64.0414 62.3023 64.0451 62.3317 64.0441 62.3618L64.0411 62.3904C64.038 62.4105 64.0329 62.4298 64.0257 62.4482L64.0113 62.4797L61.5251 67.0464C61.481 67.1134 61.4185 67.1663 61.3452 67.1989C61.2718 67.2315 61.1907 67.2423 61.1114 67.2302C61.0399 67.2194 60.9725 67.1903 60.9156 67.1458C60.8586 67.1013 60.8142 67.0428 60.7865 66.9761L60.7744 66.9394L60.1522 65.0102L58.5051 63.8452C58.4437 63.8049 58.394 63.7493 58.3609 63.6837C58.3277 63.6182 58.3124 63.5451 58.3164 63.4718L58.3209 63.4317C58.3438 63.282 58.4453 63.1574 58.6019 63.0998L58.6422 63.0868L63.7262 62.0841L63.7557 62.0804L63.7851 62.08Z" fill="#EEC52D"/>
<path d="M44.2138 50.5459C44.2138 53.2858 43.3726 55.5089 41.6902 57.2153C40.0198 58.9217 37.8207 59.7749 35.0929 59.7749C32.4491 59.7749 30.2741 58.9337 28.5677 57.2514C26.8613 55.569 26.0081 53.4059 26.0081 50.7622C26.0081 47.9743 26.8252 45.7151 28.4595 43.9846C30.0938 42.2422 32.3049 41.3709 35.0929 41.3709C37.8087 41.3709 40.0078 42.2241 41.6902 43.9305C43.3726 45.6249 44.2138 47.8301 44.2138 50.5459ZM38.3014 50.5459C38.3014 49.5965 38.007 48.7614 37.4182 48.0403C36.8293 47.3073 36.0663 46.9408 35.1289 46.9408C34.1796 46.9408 33.3985 47.3133 32.7856 48.0584C32.2088 48.7554 31.9204 49.5845 31.9204 50.5459C31.9204 51.5193 32.2088 52.3544 32.7856 53.0514C33.3985 53.7965 34.1796 54.169 35.1289 54.169C36.0663 54.169 36.8413 53.7965 37.4542 53.0514C38.019 52.3544 38.3014 51.5193 38.3014 50.5459Z" fill="#EEC52D"/>
<path d="M63.7533 50.5459C63.7533 53.2858 62.9121 55.5089 61.2298 57.2153C59.5594 58.9217 57.3603 59.7749 54.6325 59.7749C51.9887 59.7749 49.8137 58.9337 48.1073 57.2514C46.4008 55.569 45.5476 53.4059 45.5476 50.7622C45.5476 47.9743 46.3648 45.7151 47.9991 43.9846C49.6334 42.2422 51.8445 41.3709 54.6325 41.3709C57.3483 41.3709 59.5474 42.2241 61.2298 43.9305C62.9121 45.6249 63.7533 47.8301 63.7533 50.5459ZM57.841 50.5459C57.841 49.5965 57.5466 48.7614 56.9577 48.0403C56.3689 47.3073 55.6058 46.9408 54.6685 46.9408C53.7192 46.9408 52.9381 47.3133 52.3252 48.0584C51.7484 48.7554 51.46 49.5845 51.46 50.5459C51.46 51.5193 51.7484 52.3544 52.3252 53.0514C52.9381 53.7965 53.7192 54.169 54.6685 54.169C55.6058 54.169 56.3809 53.7965 56.9938 53.0514C57.5586 52.3544 57.841 51.5193 57.841 50.5459Z" fill="#EEC52D"/>
<path d="M85.9787 47.6438C85.9787 50.2995 84.6749 52.3184 82.0672 53.7003C81.8268 53.8205 81.7067 53.9467 81.7067 54.0789C81.7067 54.2832 82.2655 55.1364 83.383 56.6385C84.5006 58.1286 85.0594 58.9097 85.0594 58.9818C85.0594 59.3063 83.4672 59.4685 80.2827 59.4685C79.0569 59.4685 78.3479 59.3123 78.1557 58.9998C77.675 58.1947 76.9239 57.0411 75.9025 55.5389C75.8424 55.4668 74.7609 55.3827 72.6579 55.2866C72.6579 55.6591 72.6639 56.2539 72.6759 57.0711C72.6879 57.8883 72.694 58.4951 72.694 58.8917C72.694 59.2522 72.5197 59.4505 72.1712 59.4865C71.9549 59.5105 71.0056 59.5226 69.3232 59.5226C67.8691 59.5226 67.0219 59.4985 66.7816 59.4505C66.4572 59.3904 66.2949 59.144 66.2949 58.7114V47.6798C66.2949 46.2018 66.2408 43.9906 66.1327 41.0465C66.0245 38.1023 65.9705 35.8972 65.9705 34.4311C65.9705 34.1427 66.1327 33.9925 66.4572 33.9805C67.0941 33.9805 68.0494 33.9685 69.3232 33.9445C69.6597 33.9204 70.2425 33.8483 71.0717 33.7281C71.8047 33.62 72.3815 33.5659 72.8021 33.5659C72.9944 33.5659 73.0905 33.7402 73.0905 34.0887C73.0905 34.5453 73.0545 35.1642 72.9824 35.9453C72.8982 36.8586 72.8502 37.4834 72.8382 37.8199C72.73 40.4036 72.6759 42.4044 72.6759 43.8224C72.6759 44.1589 72.718 44.3331 72.8021 44.3451C72.9103 44.273 73.0545 44.1408 73.2347 43.9486C74.7969 42.3263 76.6956 41.5151 78.9308 41.5151C81.0337 41.5151 82.7041 41.9958 83.9418 42.9572C85.2997 44.0267 85.9787 45.5889 85.9787 47.6438ZM78.8226 48.8154C78.8226 47.3614 77.9994 46.6344 76.3531 46.6344C75.6201 46.6344 74.839 46.9108 74.0098 47.4635C73.1206 48.0524 72.6759 48.6953 72.6759 49.3923C72.6759 50.3897 72.8141 50.9905 73.0905 51.1948C73.3068 51.339 73.9978 51.4111 75.1634 51.4111C77.6029 51.4111 78.8226 50.5459 78.8226 48.8154Z" fill="white"/>
<path d="M16.0353 59.3651C16.0171 59.5279 16.0239 59.6934 16.0562 59.8558C16.1181 60.1668 16.2708 60.4526 16.4951 60.6769C16.7194 60.9011 17.0051 61.0539 17.3162 61.1157C17.6272 61.1776 17.9497 61.1459 18.2427 61.0245C18.5357 60.9031 18.7862 60.6976 18.9624 60.4338C19.1386 60.1701 19.2327 59.8601 19.2327 59.5429C19.2327 59.2346 19.1439 58.9355 18.9805 58.6797C18.1 58.994 17.1182 59.2224 16.0353 59.3651Z" fill="white"/>
<path d="M4.10522 59.3066C4.10223 59.4111 4.10944 59.5162 4.12706 59.6203C4.18 59.933 4.32448 60.223 4.54223 60.4536C4.75998 60.6842 5.04123 60.845 5.3504 60.9158C5.65957 60.9866 5.98279 60.9641 6.27917 60.8511C6.57555 60.7382 6.8318 60.5399 7.01549 60.2814C7.19918 60.0228 7.30208 59.7156 7.31117 59.3986L4.10522 59.3066Z" fill="white"/>
<path d="M23.7195 51.3058C23.7195 53.5169 23.0285 55.3495 21.6466 56.8035C20.0723 58.4739 17.3084 59.3091 13.3549 59.3091C13.0544 59.3091 12.6218 59.3031 12.057 59.291C11.4802 59.291 11.0536 59.291 10.7772 59.291C6.34296 59.291 3.70524 59.2009 2.86405 59.0207C2.51556 58.9486 2.34131 58.7623 2.34131 58.4619C2.34131 57.1761 2.41341 55.2293 2.55762 52.6216C2.71384 50.0139 2.79194 48.0612 2.79194 46.7634C2.79194 45.3694 2.71984 42.7497 2.57564 38.9043C2.53959 37.9189 2.47349 36.4408 2.37736 34.47L2.35933 34.2176C2.34732 33.9893 2.53358 33.8511 2.91812 33.8031C3.31468 33.755 4.70865 33.731 7.10003 33.731C10.9334 33.731 13.1746 33.743 13.8235 33.767C16.7797 33.8752 18.9608 34.3558 20.3668 35.209C22.2294 36.3507 23.1607 38.2794 23.1607 40.9952C23.1607 41.7042 22.9444 42.4553 22.5118 43.2484C22.1993 43.8132 21.7908 44.378 21.286 44.9428C20.8414 45.4355 20.6191 45.6638 20.6191 45.6277C20.6191 45.7119 20.7753 45.8441 21.0878 46.0243C21.929 46.505 22.5899 47.2681 23.0706 48.3135C23.5032 49.2509 23.7195 50.2483 23.7195 51.3058ZM15.9685 41.1574C15.9685 40.124 15.4518 39.439 14.4184 39.1025C13.8415 38.9223 12.8922 38.8322 11.5703 38.8322C10.2725 38.8322 9.62359 38.9283 9.62359 39.1206C9.62359 39.3489 9.59956 39.6974 9.55149 40.166C9.51544 40.6227 9.49741 40.9652 9.49741 41.1935C9.49741 42.3952 9.59955 43.0681 9.80384 43.2123C9.93603 43.3205 10.6991 43.3746 12.0931 43.3746C14.6767 43.3746 15.9685 42.6355 15.9685 41.1574ZM16.5093 51.2337C16.5093 50.1521 16.0587 49.4191 15.1574 49.0346C14.5806 48.7942 13.6433 48.6741 12.3454 48.6741C10.7952 48.6741 9.95406 48.7341 9.82187 48.8543C9.68968 48.9625 9.62359 49.6955 9.62359 51.0534C9.62359 52.4714 9.7017 53.2585 9.85792 53.4147C10.0141 53.5589 10.8794 53.631 12.4536 53.631C13.7514 53.631 14.6647 53.5289 15.1935 53.3246C16.0707 52.9761 16.5093 52.2791 16.5093 51.2337Z" fill="white"/>
<path fill-rule="evenodd" clip-rule="evenodd" d="M15.6061 28.8192C15.4094 28.6254 15.1425 28.5166 14.8643 28.5166H8.5691C8.29085 28.5166 8.02394 28.6254 7.82722 28.8192C7.63043 29.0129 7.5199 29.2756 7.5199 29.5496V32.6212H6.47071V31.9879H4.37232V32.6212H3.32312C3.04488 32.6212 2.77797 32.73 2.58124 32.9238C2.38445 33.1175 2.27393 33.3802 2.27393 33.6542V33.7327C2.33182 33.5738 2.53648 33.4709 2.85033 33.4322C3.2466 33.385 4.63961 33.3613 7.02924 33.3613C10.8599 33.3613 13.0994 33.3731 13.748 33.3968C16.702 33.5032 18.8815 33.9761 20.2865 34.8156C20.6047 35.0076 20.8957 35.2222 21.1594 35.4595V33.6542C21.1594 33.3802 21.0489 33.1175 20.8521 32.9238C20.6554 32.73 20.3885 32.6212 20.1102 32.6212H19.061V31.9879H16.9627V32.6212H15.9135V29.5496C15.9135 29.2756 15.8029 29.0129 15.6061 28.8192ZM9.61829 30.5827H13.8151V32.6212H9.61829V30.5827Z" fill="white"/>
</svg>
