<svg width="106" height="35" viewBox="0 0 106 35" fill="none" xmlns="http://www.w3.org/2000/svg">
<path d="M48.9768 24.7106C48.962 24.841 48.9676 24.9735 48.9939 25.1036C49.0443 25.3528 49.1689 25.5817 49.3517 25.7613C49.5346 25.941 49.7675 26.0633 50.0211 26.1129C50.2747 26.1625 50.5376 26.137 50.7765 26.0398C51.0154 25.9426 51.2196 25.7779 51.3633 25.5667C51.5069 25.3554 51.5836 25.1071 51.5836 24.853C51.5836 24.6061 51.5112 24.3665 51.378 24.1616C50.6602 24.4133 49.8598 24.5963 48.9768 24.7106Z" fill="black"/>
<path d="M39.2501 24.6637C39.2477 24.7474 39.2536 24.8316 39.2679 24.9149C39.3111 25.1654 39.4289 25.3977 39.6064 25.5825C39.7839 25.7672 40.0132 25.896 40.2653 25.9527C40.5174 26.0094 40.7809 25.9914 41.0225 25.9009C41.2641 25.8105 41.473 25.6516 41.6228 25.4445C41.7726 25.2374 41.8565 24.9913 41.8639 24.7374L39.2501 24.6637Z" fill="black"/>
<path d="M71.9499 17.6459C71.9499 19.8406 71.2641 21.6214 69.8925 22.9883C68.5306 24.3551 66.7378 25.0386 64.5138 25.0386C62.3584 25.0386 60.5851 24.3648 59.1939 23.0171C57.8027 21.6695 57.1071 19.9368 57.1071 17.8191C57.1071 15.5859 57.7733 13.7763 59.1057 12.3901C60.4382 10.9944 62.2408 10.2965 64.5138 10.2965C66.728 10.2965 68.5208 10.9799 69.8925 12.3468C71.2641 13.7041 71.9499 15.4704 71.9499 17.6459ZM67.1296 17.6459C67.1296 16.8854 66.8896 16.2164 66.4095 15.6389C65.9295 15.0517 65.3074 14.7581 64.5432 14.7581C63.7692 14.7581 63.1324 15.0565 62.6327 15.6533C62.1625 16.2116 61.9273 16.8758 61.9273 17.6459C61.9273 18.4256 62.1625 19.0946 62.6327 19.6529C63.1324 20.2497 63.7692 20.5481 64.5432 20.5481C65.3074 20.5481 65.9393 20.2497 66.4389 19.6529C66.8994 19.0946 67.1296 18.4256 67.1296 17.6459Z" fill="#3E10DA"/>
<path d="M87.8801 17.6459C87.8801 19.8406 87.1943 21.6214 85.8227 22.9883C84.4609 24.3551 82.668 25.0386 80.444 25.0386C78.2886 25.0386 76.5154 24.3648 75.1242 23.0171C73.733 21.6695 73.0373 19.9368 73.0373 17.8191C73.0373 15.5859 73.7036 13.7763 75.036 12.3901C76.3684 10.9944 78.1711 10.2965 80.444 10.2965C82.6582 10.2965 84.4511 10.9799 85.8227 12.3468C87.1943 13.7041 87.8801 15.4704 87.8801 17.6459ZM83.0599 17.6459C83.0599 16.8854 82.8198 16.2164 82.3398 15.6389C81.8597 15.0517 81.2376 14.7581 80.4734 14.7581C79.6994 14.7581 79.0626 15.0565 78.563 15.6533C78.0927 16.2116 77.8576 16.8758 77.8576 17.6459C77.8576 18.4256 78.0927 19.0946 78.563 19.6529C79.0626 20.2497 79.6994 20.5481 80.4734 20.5481C81.2376 20.5481 81.8695 20.2497 82.3692 19.6529C82.8296 19.0946 83.0599 18.4256 83.0599 17.6459Z" fill="#3E10DA"/>
<path d="M106 15.3212C106 17.4485 104.937 19.0657 102.811 20.1727C102.615 20.2689 102.517 20.37 102.517 20.4759C102.517 20.6395 102.973 21.323 103.884 22.5262C104.795 23.7198 105.251 24.3455 105.251 24.4033C105.251 24.6632 103.952 24.7931 101.356 24.7931C100.357 24.7931 99.7788 24.668 99.622 24.4177C99.2301 23.7728 98.6178 22.8487 97.7851 21.6454C97.7361 21.5877 96.8543 21.5203 95.1398 21.4433C95.1398 21.7417 95.1447 22.2182 95.1545 22.8727C95.1643 23.5273 95.1692 24.0134 95.1692 24.3311C95.1692 24.6199 95.0271 24.7787 94.743 24.8076C94.5667 24.8268 93.7927 24.8364 92.4211 24.8364C91.2356 24.8364 90.5449 24.8172 90.349 24.7787C90.0845 24.7306 89.9522 24.5332 89.9522 24.1867V15.3501C89.9522 14.1661 89.9081 12.3949 89.8199 10.0366C89.7318 7.67825 89.6877 5.91189 89.6877 4.73753C89.6877 4.50651 89.8199 4.38618 90.0845 4.37656C90.6037 4.37656 91.3826 4.36693 92.4211 4.34768C92.6954 4.32843 93.1706 4.27067 93.8466 4.17441C94.4442 4.08778 94.9145 4.04446 95.2574 4.04446C95.4141 4.04446 95.4925 4.18404 95.4925 4.46319C95.4925 4.82898 95.4631 5.32471 95.4043 5.95039C95.3358 6.68196 95.2966 7.18251 95.2868 7.45204C95.1986 9.52161 95.1545 11.1243 95.1545 12.2602C95.1545 12.5297 95.1888 12.6693 95.2574 12.6789C95.3456 12.6212 95.4631 12.5153 95.6101 12.3613C96.8837 11.0618 98.4317 10.412 100.254 10.412C101.968 10.412 103.33 10.797 104.339 11.5671C105.446 12.4238 106 13.6752 106 15.3212ZM100.166 16.2597C100.166 15.095 99.4947 14.5126 98.1524 14.5126C97.5548 14.5126 96.918 14.734 96.242 15.1768C95.517 15.6485 95.1545 16.1635 95.1545 16.7218C95.1545 17.5207 95.2672 18.002 95.4925 18.1657C95.6689 18.2812 96.2322 18.3389 97.1825 18.3389C99.1714 18.3389 100.166 17.6459 100.166 16.2597Z" fill="black"/>
<path d="M19.8834 24.0304C19.903 24.2903 19.7658 24.4203 19.4719 24.4203C19.2858 24.4203 18.7469 24.3144 17.8554 24.1026C16.9736 23.8909 16.4299 23.7465 16.2241 23.6695C14.1765 24.4588 12.2122 24.8535 10.3311 24.8535C7.30381 24.8535 4.82022 23.862 2.88037 21.879C0.960125 19.925 0 17.4559 0 14.4719C0 11.4205 0.930733 8.88888 2.7922 6.87707C4.71245 4.79787 7.20583 3.75827 10.2724 3.75827C11.7615 3.75827 13.1625 4.03742 14.4754 4.59572C15.8959 5.21178 17.0128 6.07811 17.826 7.19472C17.9925 7.42574 18.0758 7.58938 18.0758 7.68564C18.0758 7.99367 17.6349 8.68674 16.7532 9.76484C15.8812 10.8333 15.3179 11.3676 15.0632 11.3676C15.0044 11.3676 14.7791 11.1702 14.3872 10.7756C13.9071 10.3039 13.4173 9.93811 12.9176 9.67821C12.173 9.28354 11.35 9.08621 10.4487 9.08621C8.97913 9.08621 7.81326 9.62526 6.95111 10.7034C6.14774 11.6948 5.74605 12.9318 5.74605 14.4142C5.74605 15.9832 6.16243 17.2249 6.99519 18.1394C7.85735 19.0827 9.0771 19.5544 10.6544 19.5544C11.6538 19.5544 12.7706 19.3089 14.0051 18.818C13.9757 18.5004 13.8875 17.6918 13.7406 16.3923C13.6132 15.3912 13.5495 14.5826 13.5495 13.9665C13.5495 13.7837 13.6132 13.673 13.7406 13.6345C13.7895 13.6152 13.8679 13.6056 13.9757 13.6056C14.2598 13.6056 14.686 13.6345 15.2542 13.6922C15.8323 13.7403 16.2682 13.7644 16.5622 13.7644C16.8757 13.7644 17.3459 13.7452 17.9729 13.7067C18.6 13.6585 19.0702 13.6345 19.3837 13.6345C19.6287 13.6345 19.7511 13.7933 19.7511 14.1109C19.7511 14.573 19.7217 15.2709 19.663 16.2046C19.614 17.1383 19.5895 17.8362 19.5895 18.2982C19.5895 19.54 19.6826 21.3978 19.8687 23.8716L19.8834 24.0304Z" fill="black"/>
<path d="M35.9753 17.3886C35.9753 19.5833 35.2895 21.3641 33.9179 22.7309C32.5561 24.0978 30.7632 24.7813 28.5392 24.7813C26.3838 24.7813 24.6105 24.1074 23.2193 22.7598C21.8281 21.4122 21.1325 19.6795 21.1325 17.5618C21.1325 15.3286 21.7987 13.5189 23.1312 12.1328C24.4636 10.7371 26.2663 10.0392 28.5392 10.0392C30.7534 10.0392 32.5463 10.7226 33.9179 12.0895C35.2895 13.4468 35.9753 15.2131 35.9753 17.3886ZM31.1551 17.3886C31.1551 16.6281 30.915 15.9591 30.435 15.3816C29.9549 14.7944 29.3328 14.5008 28.5686 14.5008C27.7946 14.5008 27.1578 14.7992 26.6582 15.396C26.1879 15.9543 25.9528 16.6185 25.9528 17.3886C25.9528 18.1683 26.1879 18.8373 26.6582 19.3956C27.1578 19.9924 27.7946 20.2908 28.5686 20.2908C29.3328 20.2908 29.9647 19.9924 30.4644 19.3956C30.9248 18.8373 31.1551 18.1683 31.1551 17.3886Z" fill="black"/>
<path d="M55.2415 18.2549C55.2415 20.0261 54.6781 21.494 53.5514 22.6587C52.268 23.9967 50.0147 24.6658 46.7914 24.6658C46.5465 24.6658 46.1938 24.6609 45.7333 24.6513C45.263 24.6513 44.9152 24.6513 44.6899 24.6513C41.0747 24.6513 38.9242 24.5791 38.2384 24.4347C37.9543 24.377 37.8123 24.2278 37.8123 23.9871C37.8123 22.9572 37.871 21.3978 37.9886 19.3089C38.116 17.2201 38.1797 15.6559 38.1797 14.6163C38.1797 13.4997 38.1209 11.4012 38.0033 8.32095C37.9739 7.53163 37.92 6.34764 37.8416 4.76899L37.827 4.56685C37.8172 4.38395 37.969 4.27326 38.2825 4.23475C38.6058 4.19625 39.7423 4.177 41.6919 4.177C44.8172 4.177 46.6444 4.18662 47.1735 4.20588C49.5836 4.29251 51.3618 4.67754 52.508 5.36098C54.0266 6.27545 54.7859 7.82041 54.7859 9.99586C54.7859 10.5638 54.6095 11.1654 54.2568 11.8007C54.0021 12.2531 53.669 12.7056 53.2575 13.158C52.895 13.5526 52.7138 13.7355 52.7138 13.7067C52.7138 13.774 52.8412 13.8799 53.0959 14.0243C53.7817 14.4093 54.3205 15.0206 54.7124 15.858C55.0651 16.6089 55.2415 17.4078 55.2415 18.2549ZM48.9223 10.1258C48.9223 9.29798 48.501 8.74931 47.6584 8.47978C47.1882 8.33539 46.4142 8.2632 45.3365 8.2632C44.2784 8.2632 43.7494 8.3402 43.7494 8.49422C43.7494 8.67711 43.7298 8.95626 43.6906 9.33167C43.6612 9.69746 43.6465 9.9718 43.6465 10.1547C43.6465 11.1173 43.7298 11.6563 43.8963 11.7718C44.0041 11.8585 44.6262 11.9018 45.7627 11.9018C47.8691 11.9018 48.9223 11.3098 48.9223 10.1258ZM49.3631 18.1971C49.3631 17.3308 48.9958 16.7436 48.261 16.4356C47.7907 16.2431 47.0265 16.1468 45.9684 16.1468C44.7046 16.1468 44.0188 16.1949 43.911 16.2912C43.8032 16.3778 43.7494 16.965 43.7494 18.0527C43.7494 19.1886 43.813 19.8191 43.9404 19.9442C44.0678 20.0598 44.7732 20.1175 46.0566 20.1175C47.1147 20.1175 47.8593 20.0357 48.2904 19.872C49.0056 19.5929 49.3631 19.0346 49.3631 18.1971Z" fill="black"/>
<path fill-rule="evenodd" clip-rule="evenodd" d="M48.6267 0.242377C48.4663 0.087173 48.2487 0 48.0219 0H42.8895C42.6627 0 42.4451 0.087173 42.2847 0.242377C42.1243 0.397556 42.0342 0.608014 42.0342 0.827487V3.28788H41.1788V2.78063H39.468V3.28788H38.6126C38.3858 3.28788 38.1682 3.37506 38.0078 3.53026C37.8473 3.68544 37.7572 3.8959 37.7572 4.11537V4.1782C37.8044 4.05098 37.9713 3.9685 38.2271 3.93756C38.5502 3.89969 39.6859 3.88075 41.6341 3.88075C44.7572 3.88075 46.5831 3.89022 47.1118 3.90916C49.5201 3.99438 51.297 4.37323 52.4425 5.04566C52.7019 5.19948 52.9391 5.3714 53.1542 5.56145V4.11537C53.1542 3.8959 53.0641 3.68544 52.9036 3.53026C52.7433 3.37506 52.5257 3.28788 52.2988 3.28788H51.4434V2.78063H49.7326V3.28788H48.8773V0.827487C48.8773 0.608014 48.7871 0.397556 48.6267 0.242377ZM43.7449 1.65497H47.1665V3.28788H43.7449V1.65497Z" fill="black"/>
<path d="M58.1682 29.215C57.6949 28.7335 57.3312 28.2542 57.1071 27.7921C57.4759 28.0116 57.692 28.1197 57.9291 28.2267C58.12 28.366 58.3084 28.5098 58.4959 28.6556L58.1682 29.215Z" fill="#3E10DA"/>
<path d="M58.647 29.6701C58.9704 29.9588 59.3298 30.2466 59.7188 30.5303L60.1008 29.8782C59.727 29.6189 59.3659 29.3385 59.0066 29.0562L58.647 29.6701Z" fill="#3E10DA"/>
<path d="M61.3986 31.625C60.997 31.3894 60.6117 31.1474 60.2471 30.901L60.6379 30.2339C61.0228 30.4821 61.4093 30.7191 61.7972 30.9446L61.3986 31.625Z" fill="#3E10DA"/>
<path d="M61.9578 31.943C62.4561 32.2179 62.9749 32.4819 63.5067 32.7315L63.839 32.0185C63.3426 31.7849 62.8486 31.5324 62.357 31.2616L61.9578 31.943Z" fill="#3E10DA"/>
<path d="M65.6765 33.6401C65.1415 33.4424 64.6092 33.2264 64.0865 32.9955L64.4189 32.2824C64.9252 32.5048 65.4339 32.7076 65.9452 32.8903L65.6765 33.6401Z" fill="#3E10DA"/>
<path d="M66.2718 33.8521C66.8166 34.0387 67.3614 34.2051 67.8991 34.3476L68.1086 33.5388C67.5842 33.4118 67.0624 33.2635 66.5433 33.0946L66.2718 33.8521Z" fill="#3E10DA"/>
<path d="M70.1723 34.8063C69.6349 34.7359 69.0773 34.6322 68.5083 34.4995L68.7212 33.6774C69.2497 33.7883 69.7808 33.8777 70.3145 33.945L70.1723 34.8063Z" fill="#3E10DA"/>
<path d="M70.7944 34.8738C71.38 34.927 71.9383 34.9645 72.4763 34.9841L72.5427 34.0966C72.0046 34.0911 71.4693 34.0632 70.9365 34.0134L70.7944 34.8738Z" fill="#3E10DA"/>
<path d="M74.7828 34.9458C74.2371 34.988 73.6793 35.0048 73.1001 34.9988L73.1679 34.0928C73.6991 34.081 74.2329 34.0473 74.7693 33.9912L74.7828 34.9458Z" fill="#3E10DA"/>
<path d="M75.4047 34.886C75.9657 34.8213 76.5175 34.7279 77.071 34.6027L76.9713 33.6373C76.4421 33.752 75.9153 33.8448 75.391 33.9163L75.4047 34.886Z" fill="#3E10DA"/>
<path d="M79.3001 33.9328C78.7495 34.1375 78.2133 34.3096 77.6823 34.4518L77.5835 33.4952C78.0963 33.3682 78.6114 33.2208 79.1289 33.0525L79.3001 33.9328Z" fill="#3E10DA"/>
<path d="M79.8927 33.7023C80.3944 33.4987 80.9102 33.2684 81.4469 33.0096L81.2222 32.2343C80.7313 32.4659 80.2334 32.6697 79.7268 32.8497L79.8927 33.7023Z" fill="#3E10DA"/>
<path d="M83.5204 31.9293C82.9996 32.218 82.5009 32.4834 82.0198 32.7266L81.7946 31.9498C82.2695 31.7016 82.7382 31.4252 83.2023 31.1171L83.5204 31.9293Z" fill="#3E10DA"/>
<path d="M87.0999 28.6557L87.1232 28.6579L87.1512 28.6639L87.1703 28.6703L87.196 28.6818L87.2178 28.6951L87.2377 28.7106L87.2551 28.7279L87.2704 28.7467L87.2798 28.761L87.2938 28.7886L87.3019 28.8108C87.3088 28.8338 87.3118 28.8573 87.311 28.8815L87.3086 28.9043C87.3061 28.9205 87.3019 28.9359 87.296 28.9507L87.2843 28.9759L85.2573 32.6339C85.2213 32.6876 85.1704 32.73 85.1106 32.7561C85.0508 32.7822 84.9847 32.7909 84.92 32.7812C84.8618 32.7725 84.8068 32.7493 84.7604 32.7136C84.714 32.6779 84.6777 32.6311 84.6552 32.5776L84.6453 32.5483L84.138 31.0029L82.7951 30.0697C82.7451 30.0375 82.7046 29.9928 82.6776 29.9404C82.6506 29.8879 82.6381 29.8293 82.6414 29.7706L82.645 29.7385C82.6637 29.6186 82.7464 29.5187 82.8741 29.4726L82.9069 29.4622L87.0518 28.659L87.0759 28.6561L87.0999 28.6557Z" fill="#3E10DA"/>
</svg>
