<svg width="70" height="57" viewBox="0 0 70 57" fill="none" xmlns="http://www.w3.org/2000/svg">
<path d="M19.856 20.6077C19.8755 20.8719 19.7386 21.004 19.4451 21.004C19.2592 21.004 18.7211 20.8964 17.8308 20.6811C16.9502 20.4658 16.4072 20.3191 16.2018 20.2408C14.157 21.0432 12.1954 21.4444 10.3169 21.4444C7.29373 21.4444 4.81357 20.4365 2.8764 18.4207C0.958801 16.4343 0 13.9244 0 10.891C0 7.78905 0.92945 5.21553 2.78835 3.17042C4.70595 1.05681 7.1959 0 10.2582 0C11.7453 0 13.1444 0.283772 14.4554 0.851316C15.874 1.47757 16.9894 2.35824 17.8014 3.49333C17.9677 3.72818 18.0509 3.89453 18.0509 3.99238C18.0509 4.30551 17.6106 5.01004 16.7301 6.10599C15.8593 7.19215 15.2968 7.73523 15.0424 7.73523C14.9837 7.73523 14.7587 7.53464 14.3673 7.13344C13.8879 6.65396 13.3988 6.28212 12.8998 6.01792C12.1562 5.61673 11.3344 5.41613 10.4343 5.41613C8.96674 5.41613 7.80249 5.9641 6.94152 7.06005C6.13926 8.06793 5.73813 9.32533 5.73813 10.8323C5.73813 12.4273 6.15394 13.6896 6.98555 14.6192C7.84651 15.5781 9.06458 16.0576 10.6398 16.0576C11.6377 16.0576 12.753 15.8081 13.9858 15.309C13.9564 14.9861 13.8684 14.1641 13.7216 12.8431C13.5944 11.8255 13.5308 11.0035 13.5308 10.3772C13.5308 10.1913 13.5944 10.0788 13.7216 10.0397C13.7705 10.0201 13.8488 10.0103 13.9564 10.0103C14.2401 10.0103 14.6657 10.0397 15.2332 10.0984C15.8104 10.1473 16.2458 10.1718 16.5393 10.1718C16.8524 10.1718 17.322 10.1522 17.9482 10.113C18.5743 10.0641 19.0439 10.0397 19.357 10.0397C19.6016 10.0397 19.7239 10.2011 19.7239 10.524C19.7239 10.9937 19.6945 11.7031 19.6358 12.6523C19.5869 13.6015 19.5625 14.3109 19.5625 14.7806C19.5625 16.0429 19.6554 17.9315 19.8413 20.4463L19.856 20.6077Z" fill="#3E10DA"/>
<path d="M35.9257 13.8559C35.9257 16.0869 35.2408 17.8972 33.8711 19.2867C32.5112 20.6762 30.7208 21.371 28.4999 21.371C26.3475 21.371 24.5766 20.686 23.1873 19.3161C21.798 17.9461 21.1034 16.1848 21.1034 14.032C21.1034 11.7619 21.7687 9.92223 23.0993 8.51316C24.4299 7.0943 26.23 6.38487 28.4999 6.38487C30.711 6.38487 32.5014 7.07962 33.8711 8.46913C35.2408 9.84885 35.9257 11.6444 35.9257 13.8559ZM31.1121 13.8559C31.1121 13.0829 30.8724 12.4028 30.393 11.8157C29.9136 11.2188 29.2923 10.9203 28.5292 10.9203C27.7563 10.9203 27.1204 11.2237 26.6214 11.8304C26.1518 12.3979 25.917 13.0731 25.917 13.8559C25.917 14.6485 26.1518 15.3286 26.6214 15.8961C27.1204 16.5028 27.7563 16.8062 28.5292 16.8062C29.2923 16.8062 29.9234 16.5028 30.4224 15.8961C30.8822 15.3286 31.1121 14.6485 31.1121 13.8559Z" fill="#3E10DA"/>
<path d="M23.0392 51.1192C22.5666 50.6297 22.2034 50.1426 21.9796 49.6728C22.3479 49.896 22.5637 50.0059 22.8005 50.1146C22.9911 50.2562 23.1792 50.4024 23.3665 50.5506L23.0392 51.1192Z" fill="#3E10DA"/>
<path d="M23.5174 51.5819C23.8403 51.8754 24.1993 52.1679 24.5877 52.4564L24.9692 51.7934C24.5959 51.5298 24.2353 51.2448 23.8765 50.9579L23.5174 51.5819Z" fill="#3E10DA"/>
<path d="M26.2652 53.5692C25.8641 53.3297 25.4793 53.0836 25.1153 52.8332L25.5056 52.155C25.89 52.4073 26.2759 52.6482 26.6633 52.8775L26.2652 53.5692Z" fill="#3E10DA"/>
<path d="M26.8236 53.8925C27.3212 54.1718 27.8393 54.4403 28.3703 54.6939L28.7022 53.9692C28.2065 53.7317 27.7132 53.475 27.2223 53.1997L26.8236 53.8925Z" fill="#3E10DA"/>
<path d="M30.5372 55.6176C30.003 55.4167 29.4714 55.1971 28.9494 54.9624L29.2814 54.2374C29.7869 54.4635 30.2949 54.6697 30.8055 54.8554L30.5372 55.6176Z" fill="#3E10DA"/>
<path d="M31.1317 55.8331C31.6757 56.0228 32.2198 56.1919 32.7568 56.3368L32.9659 55.5147C32.4423 55.3855 31.9212 55.2348 31.4028 55.063L31.1317 55.8331Z" fill="#3E10DA"/>
<path d="M35.0267 56.8031C34.4902 56.7316 33.9333 56.6261 33.3651 56.4912L33.5777 55.6555C34.1054 55.7683 34.6358 55.8591 35.1688 55.9276L35.0267 56.8031Z" fill="#3E10DA"/>
<path d="M35.6481 56.8717C36.2328 56.9258 36.7904 56.9639 37.3276 56.9838L37.3939 56.0816C36.8566 56.0761 36.322 56.0477 35.79 55.997L35.6481 56.8717Z" fill="#3E10DA"/>
<path d="M39.6309 56.9449C39.086 56.9878 38.529 57.0049 37.9506 56.9988L38.0182 56.0778C38.5487 56.0658 39.0818 56.0315 39.6175 55.9745L39.6309 56.9449Z" fill="#3E10DA"/>
<path d="M40.252 56.8841C40.8122 56.8184 41.3632 56.7234 41.916 56.5962L41.8164 55.6148C41.2879 55.7313 40.7619 55.8257 40.2383 55.8984L40.252 56.8841Z" fill="#3E10DA"/>
<path d="M44.142 55.9152C43.5921 56.1232 43.0567 56.2982 42.5264 56.4427L42.4277 55.4703C42.9398 55.3412 43.4543 55.1913 43.971 55.0202L44.142 55.9152Z" fill="#3E10DA"/>
<path d="M44.7338 55.6809C45.2348 55.4739 45.7499 55.2398 46.2859 54.9767L46.0614 54.1885C45.5712 54.4239 45.074 54.6311 44.5681 54.8142L44.7338 55.6809Z" fill="#3E10DA"/>
<path d="M48.3565 53.8785C47.8364 54.172 47.3384 54.4418 46.8579 54.689L46.6331 53.8994C47.1073 53.647 47.5754 53.3661 48.0388 53.0528L48.3565 53.8785Z" fill="#3E10DA"/>
<path d="M51.931 50.5507L51.9543 50.5529L51.9823 50.559L52.0014 50.5655L52.027 50.5772L52.0488 50.5908L52.0686 50.6065L52.086 50.6241L52.1014 50.6432L52.1107 50.6578L52.1247 50.6857L52.1328 50.7084C52.1397 50.7317 52.1427 50.7556 52.1419 50.7802L52.1395 50.8034C52.1369 50.8198 52.1328 50.8355 52.1269 50.8505L52.1152 50.8762L50.091 54.5948C50.0551 54.6493 50.0042 54.6924 49.9445 54.719C49.8848 54.7455 49.8188 54.7543 49.7542 54.7444C49.696 54.7357 49.6411 54.712 49.5948 54.6757C49.5484 54.6395 49.5123 54.5919 49.4897 54.5375L49.4798 54.5077L48.9733 52.9367L47.6322 51.9881C47.5823 51.9553 47.5418 51.91 47.5148 51.8566C47.4879 51.8033 47.4754 51.7438 47.4787 51.6841L47.4823 51.6514C47.501 51.5295 47.5836 51.428 47.7111 51.3811L47.7439 51.3705L51.8831 50.5541L51.9071 50.5511L51.931 50.5507Z" fill="#3E10DA"/>
<path d="M35.9968 41.1587C35.9968 43.3897 35.3119 45.2 33.9422 46.5895C32.5823 47.979 30.7919 48.6737 28.571 48.6737C26.4186 48.6737 24.6477 47.9888 23.2585 46.6188C21.8692 45.2489 21.1745 43.4876 21.1745 41.3348C21.1745 39.0646 21.8398 37.225 23.1704 35.8159C24.501 34.3971 26.3012 33.6876 28.571 33.6876C30.7821 33.6876 32.5725 34.3824 33.9422 35.7719C35.3119 37.1516 35.9968 38.9472 35.9968 41.1587ZM31.1832 41.1587C31.1832 40.3856 30.9435 39.7056 30.4641 39.1184C29.9847 38.5215 29.3635 38.2231 28.6003 38.2231C27.8274 38.2231 27.1915 38.5264 26.6925 39.1331C26.2229 39.7007 25.9881 40.3758 25.9881 41.1587C25.9881 41.9513 26.2229 42.6313 26.6925 43.1989C27.1915 43.8056 27.8274 44.1089 28.6003 44.1089C29.3635 44.1089 29.9945 43.8056 30.4935 43.1989C30.9533 42.6313 31.1832 41.9513 31.1832 41.1587Z" fill="#3E10DA"/>
<path d="M51.9051 41.1587C51.9051 43.3897 51.2202 45.2 49.8505 46.5895C48.4906 47.979 46.7002 48.6737 44.4793 48.6737C42.3268 48.6737 40.556 47.9888 39.1667 46.6188C37.7774 45.2489 37.0828 43.4876 37.0828 41.3348C37.0828 39.0646 37.7481 37.225 39.0787 35.8159C40.4092 34.3971 42.2094 33.6876 44.4793 33.6876C46.6904 33.6876 48.4808 34.3824 49.8505 35.7719C51.2202 37.1516 51.9051 38.9472 51.9051 41.1587ZM47.0915 41.1587C47.0915 40.3856 46.8518 39.7056 46.3724 39.1184C45.893 38.5215 45.2717 38.2231 44.5086 38.2231C43.7357 38.2231 43.0998 38.5264 42.6008 39.1331C42.1312 39.7007 41.8964 40.3758 41.8964 41.1587C41.8964 41.9513 42.1312 42.6313 42.6008 43.1989C43.0998 43.8056 43.7357 44.1089 44.5086 44.1089C45.2717 44.1089 45.9028 43.8056 46.4018 43.1989C46.8616 42.6313 47.0915 41.9513 47.0915 41.1587Z" fill="#3E10DA"/>
<path d="M70 38.7955C70 40.9581 68.9385 42.602 66.8154 43.7273C66.6197 43.8251 66.5219 43.9279 66.5219 44.0355C66.5219 44.2019 66.9768 44.8966 67.8867 46.1198C68.7966 47.3332 69.2515 47.9692 69.2515 48.0279C69.2515 48.2921 67.9552 48.4242 65.3625 48.4242C64.3646 48.4242 63.7874 48.297 63.6308 48.0426C63.2395 47.387 62.628 46.4476 61.7964 45.2244C61.7475 45.1657 60.8669 45.0972 59.1548 45.0189C59.1548 45.3223 59.1597 45.8067 59.1695 46.4721C59.1792 47.1375 59.1841 47.6316 59.1841 47.9545C59.1841 48.2481 59.0423 48.4095 58.7585 48.4389C58.5824 48.4585 57.8095 48.4682 56.4398 48.4682C55.256 48.4682 54.5662 48.4487 54.3706 48.4095C54.1064 48.3606 53.9743 48.16 53.9743 47.8077V38.8249C53.9743 37.6213 53.9303 35.8208 53.8422 33.4234C53.7542 31.0261 53.7102 29.2305 53.7102 28.0367C53.7102 27.8018 53.8422 27.6795 54.1064 27.6697C54.6249 27.6697 55.4027 27.6599 56.4398 27.6404C56.7138 27.6208 57.1883 27.5621 57.8633 27.4642C58.4601 27.3762 58.9298 27.3321 59.2722 27.3321C59.4287 27.3321 59.507 27.474 59.507 27.7578C59.507 28.1296 59.4776 28.6336 59.4189 29.2696C59.3505 30.0133 59.3113 30.5221 59.3015 30.7961C59.2135 32.8999 59.1695 34.5292 59.1695 35.6838C59.1695 35.9578 59.2037 36.0997 59.2722 36.1095C59.3602 36.0508 59.4776 35.9431 59.6244 35.7866C60.8963 34.4656 62.4421 33.8051 64.2619 33.8051C65.974 33.8051 67.3339 34.1965 68.3417 34.9793C69.4472 35.8502 70 37.1223 70 38.7955ZM64.1738 39.7496C64.1738 38.5656 63.5036 37.9736 62.1633 37.9736C61.5665 37.9736 60.9305 38.1986 60.2554 38.6488C59.5315 39.1282 59.1695 39.6517 59.1695 40.2193C59.1695 41.0315 59.282 41.5207 59.507 41.6871C59.6831 41.8045 60.2457 41.8632 61.1947 41.8632C63.1808 41.8632 64.1738 41.1587 64.1738 39.7496Z" fill="black"/>
<path d="M13.0555 48.3403C13.0407 48.4729 13.0462 48.6077 13.0725 48.7399C13.1229 48.9932 13.2472 49.2259 13.4298 49.4085C13.6124 49.5911 13.8451 49.7155 14.0983 49.7659C14.3516 49.8162 14.6141 49.7904 14.8527 49.6916C15.0912 49.5927 15.2951 49.4254 15.4386 49.2106C15.5821 48.9959 15.6586 48.7434 15.6586 48.4851C15.6586 48.2341 15.5864 47.9905 15.4533 47.7822C14.7365 48.0381 13.9372 48.2242 13.0555 48.3403Z" fill="black"/>
<path d="M3.34218 48.2927C3.33974 48.3778 3.34561 48.4633 3.35996 48.5481C3.40305 48.8027 3.52068 49.0389 3.69797 49.2266C3.87525 49.4144 4.10423 49.5454 4.35595 49.603C4.60766 49.6606 4.87081 49.6423 5.11211 49.5504C5.35341 49.4584 5.56203 49.297 5.71159 49.0864C5.86114 48.8759 5.94492 48.6257 5.95232 48.3675L3.34218 48.2927Z" fill="black"/>
<path d="M19.3114 41.7777C19.3114 43.5782 18.7489 45.0705 17.6238 46.2545C16.3421 47.6146 14.0919 48.2947 10.873 48.2947C10.6284 48.2947 10.2762 48.2898 9.81638 48.28C9.34676 48.28 8.99944 48.28 8.77442 48.28C5.16424 48.28 3.01672 48.2066 2.33187 48.0599C2.04814 48.0012 1.90627 47.8495 1.90627 47.6049C1.90627 46.5578 1.96498 44.9726 2.08238 42.8492C2.20957 40.7258 2.27316 39.1357 2.27316 38.0789C2.27316 36.9438 2.21446 34.8107 2.09706 31.6794C2.0677 30.877 2.01389 29.6734 1.93562 28.0686L1.92095 27.8631C1.91116 27.6772 2.06281 27.5647 2.37589 27.5255C2.69875 27.4864 3.83366 27.4668 5.78061 27.4668C8.90161 27.4668 10.7263 27.4766 11.2546 27.4962C13.6614 27.5843 15.4371 27.9757 16.5818 28.6704C18.0983 29.6 18.8565 31.1705 18.8565 33.382C18.8565 33.9593 18.6804 34.5709 18.3282 35.2167C18.0738 35.6766 17.7412 36.1366 17.3302 36.5965C16.9683 36.9977 16.7873 37.1836 16.7873 37.1542C16.7873 37.2227 16.9144 37.3304 17.1688 37.4771C17.8537 37.8685 18.3918 38.4899 18.7831 39.3412C19.1353 40.1045 19.3114 40.9166 19.3114 41.7777ZM13.001 33.5141C13.001 32.6726 12.5803 32.1148 11.7389 31.8408C11.2693 31.6941 10.4963 31.6207 9.42014 31.6207C8.3635 31.6207 7.83519 31.6989 7.83519 31.8555C7.83519 32.0414 7.81562 32.3252 7.77648 32.7068C7.74713 33.0787 7.73246 33.3575 7.73246 33.5435C7.73246 34.522 7.81562 35.07 7.98194 35.1874C8.08956 35.2754 8.71082 35.3195 9.84573 35.3195C11.9492 35.3195 13.001 34.7177 13.001 33.5141ZM13.4412 41.719C13.4412 40.8384 13.0743 40.2415 12.3406 39.9283C11.871 39.7326 11.1078 39.6348 10.0512 39.6348C8.78909 39.6348 8.10424 39.6837 7.99662 39.7816C7.889 39.8696 7.83519 40.4665 7.83519 41.5723C7.83519 42.7269 7.89878 43.3678 8.02597 43.4951C8.15316 43.6125 8.85758 43.6712 10.1392 43.6712C11.1959 43.6712 11.9394 43.588 12.3699 43.4217C13.0841 43.1379 13.4412 42.5703 13.4412 41.719Z" fill="black"/>
<path fill-rule="evenodd" clip-rule="evenodd" d="M12.7058 23.4671C12.5457 23.3093 12.3284 23.2207 12.1018 23.2207H6.97657C6.75003 23.2207 6.53273 23.3093 6.37256 23.4671C6.21235 23.6249 6.12236 23.8388 6.12236 24.0619V26.563H5.26815V26.0474H3.55974V26.563H2.70553C2.47899 26.563 2.26169 26.6517 2.10152 26.8094C1.94131 26.9672 1.85132 27.1811 1.85132 27.4042V27.4681C1.89845 27.3388 2.06508 27.2549 2.3206 27.2235C2.64322 27.185 3.77735 27.1657 5.72289 27.1657C8.84166 27.1657 10.665 27.1753 11.193 27.1946C13.598 27.2812 15.3725 27.6663 16.5163 28.3499C16.7754 28.5063 17.0123 28.681 17.2271 28.8742V27.4042C17.2271 27.1811 17.1371 26.9672 16.9769 26.8094C16.8167 26.6517 16.5994 26.563 16.3729 26.563H15.5187V26.0474H13.8102V26.563H12.956V24.0619C12.956 23.8388 12.866 23.6249 12.7058 23.4671ZM7.83078 24.9031H11.2476V26.563H7.83078V24.9031Z" fill="black"/>
</svg>
